<?xml version="1.0" encoding="utf-8"?>
<!-- Generator: Adobe Illustrator 21.0.0, SVG Export Plug-In . SVG Version: 6.00 Build 0)  -->
<svg version="1.1" id="图层_1" xmlns="http://www.w3.org/2000/svg" xmlns:xlink="http://www.w3.org/1999/xlink" x="0px" y="0px"
	 viewBox="0 0 280 80" style="enable-background:new 0 0 280 80;" xml:space="preserve">
<style type="text/css">
	.st0{fill:#1296DB;}
</style>
<path class="st0" d="M247.5,55.6l-3.6,7.8l-3.6-7.8h-3.6l5.5,10.8v7.5h3.3v-7.5l0,0l5.5-10.7H247.5L247.5,55.6z M221.2,60.3l2.5,7.6
	h-5.2L221.2,60.3z M224.5,70.2l1.2,3.7h3.4l-6.7-18.3h-2.6l-6.7,18.3h3.4l1.3-3.7H224.5z M199,64.3h-3.6v-6.2h3.6
	c1.8,0,2.9,1.6,2.9,3.1C201.9,62.7,200.9,64.3,199,64.3z M199.2,55.6H192v18.3h3.3v-7h3.8c3.6,0,6-2.3,6-5.6S202.7,55.6,199.2,55.6z
	 M175.4,73.9h3.3V55.6h-3.3V73.9z M152.2,55.6v18.3h11.1v-2.5h-7.8V55.6C155.5,55.6,152.2,55.6,152.2,55.6z M133.5,60.3l2.5,7.6
	h-5.2L133.5,60.3z M136.8,70.2l1.2,3.7h3.4l-6.7-18.3h-2.6l-6.7,18.3h3.4l1.3-3.7L136.8,70.2L136.8,70.2z M160,19.9h-14.1v-5h16.4
	v-3.1h-16.4V5.3h-7.3l0,0c-0.8,0-1.5,0.7-1.4,1.5v4.9h-16.3v3.1h16.3v5h-13.7v3.1h27.3c0,0-1.5,5.9-9,12.2c-6.7-5.1-9-9.1-9-9.1
	h-7.3c3,5.1,7.2,9.2,11.7,12.5c-4.2,2.7-9.6,5.3-16.6,7.4v3.8c0,0,10.8-2,21.2-8.2c10.4,6.1,20.9,8.2,20.9,8.2v-3.6
	c-6.7-2.4-12-5.1-16.2-7.7C152.5,34.1,157.8,28,160,19.9L160,19.9z M205.9,6h-7.4v7.7h-18.1v3.1h18.1v27.5c-0.1,0.6-0.6,1.1-1.2,1.2
	h-3.7v3.2h9.5c1.5-0.1,2.7-1.3,2.7-2.9v-29h3v-3.1h-3V6z M190.4,21.9c-0.3-0.6-0.8-0.9-1.5-0.9h-6.1l4.8,15h7.3L190.4,21.9
	L190.4,21.9z M254.3,48.1l-2.6-8.7c-0.2-0.6-0.7-1-1.3-1h-6.9l2,6.7h-8.1V32.2h15.8v-3.1h-15.8V23h15.8v-3.1h-39.5V23h15.8v6.1
	h-15.8v3.1h15.8v12.9h-15.8v3.1h40.4V48.1L254.3,48.1L254.3,48.1L254.3,48.1z M172.3,5.6l-8.4,19.9h6.5v23.7h7.1V17.8h-2.6l5.3-12.2
	L172.3,5.6L172.3,5.6z M222.1,12.5h23v4.5h8.2v-5.4c0,0,0,0,0,0c0-1.2-1-2.2-2.1-2.2h-13.3V5.2h-8.6v4.2h-15.4v7.6h8.2L222.1,12.5
	L222.1,12.5z M93.3,50.2c11.6,3.9,14.2,4.1,14.2,4.1V12.8c0-7.1-5.8-12.8-12.9-12.8H39.9C32.8,0,27,5.7,27,12.8v54.4
	C27,74.3,32.8,80,39.9,80h54.7c7.1,0,12.9-5.7,12.9-12.8v-0.5c0,0-20.9-8.7-31.5-13.7c-7.1,8.7-16.2,13.9-25.7,13.9
	c-16.1,0-21.5-14-13.9-23.2c1.7-2,4.5-3.9,8.9-5c6.8-1.7,17.7,1,28,4.4c1.9-3.5,3.4-7.2,4.5-11H46.3v-3.2h16.2v-5.7H42.8v-3.2h19.7
	V12c0,0,0-1.4,1.4-1.4h7.9v9.5h19.4v3.2H71.8v5.7h15.9c-1.5,6.2-3.8,11.9-6.7,16.9C85.8,47.5,90.1,49.2,93.3,50.2L93.3,50.2z
	 M46.6,43.5c-2,0.2-5.8,1.1-7.8,2.9c-6.2,5.4-2.5,15.2,10,15.2c7.3,0,14.6-4.6,20.3-12C60.9,45.5,54,42.7,46.6,43.5L46.6,43.5z"/>
</svg>
