<?xml version="1.0" encoding="utf-8"?>
<!-- Generator: Adobe Illustrator 21.0.0, SVG Export Plug-In . SVG Version: 6.00 Build 0)  -->
<svg version="1.1" id="图层_1" xmlns="http://www.w3.org/2000/svg" xmlns:xlink="http://www.w3.org/1999/xlink" x="0px" y="0px"
	 viewBox="0 0 124 33" style="enable-background:new 0 0 124 33;" xml:space="preserve">
<style type="text/css">
	.st0{fill:#1296DB;}
</style>
<path class="st0" d="M54.1,20.6v-1.5H60c0.6,0,1-0.5,1-1.1v-4.5c0-0.6-0.4-1.1-1-1.1c0,0-3.8,0-5.1,0s-1.3-1.4-1.3-1.4V5.4h1.5v5
	c0,0,0,0.7,0.5,0.7c0.5,0,4.3,0,4.3,0c1.3,0,2.4,1.2,2.4,2.6v4.4c0,1.4-1.1,2.6-2.4,2.6L54.1,20.6L54.1,20.6L54.1,20.6z M45.9,20.6
	v-1.5h3v-3.7H48c-1.1,0-2-1-2-2.2V7.3c0-1.2,0.9-2.2,2-2.2h0.8V2.6h1.3v2.5H51c1.1,0,2,1,2,2.2v5.9c0,1.2-0.9,2.2-2,2.2h-0.8v3.7h1
	c0.4,0,0.6-0.3,0.6-0.7v-1.4h1.3v1.4c0,1.2-0.9,2.2-2,2.2L45.9,20.6L45.9,20.6z M51,13.9c0.4,0,0.6-0.3,0.6-0.7V7.3
	c0-0.4-0.3-0.7-0.6-0.7h-0.8v7.3H51L51,13.9z M48,6.6c-0.4,0-0.6,0.3-0.6,0.7v5.9c0,0.4,0.3,0.7,0.6,0.7h0.8V6.6H48L48,6.6z
	 M53.9,16.7v-1.5h6.4v1.5H53.9L53.9,16.7z M60.4,10.2V5.4c0-0.6-0.4-1.1-1-1.1h-5.8V2.9h5.8c1.3,0,2.4,1.2,2.4,2.6v4.8L60.4,10.2
	L60.4,10.2z"/>
<path class="st0" d="M64.1,20.6v-1.6h3v-3.7h-0.8c-1.1,0-2-1.1-2-2.2V7.3c0-1.2,0.9-2.2,2-2.2h0.8V2.6h1.3v2.5h0.8c1.1,0,2,1,2,2.2
	v5.9c0,1.2-0.9,2.2-2,2.2h-0.8v3.7h1c0.4,0,0.6-0.3,0.6-0.7V17h1.3v1.4c0,1.2-0.9,2.2-2,2.2H64.1L64.1,20.6L64.1,20.6z M69.2,13.9
	c0.4,0,0.6-0.3,0.6-0.7V7.3c0-0.4-0.3-0.7-0.6-0.7h-0.8v7.3H69.2L69.2,13.9z M66.3,6.6c-0.4,0-0.6,0.3-0.6,0.7v5.9
	c0,0.4,0.3,0.7,0.6,0.7h0.8V6.6H66.3L66.3,6.6z"/>
<path class="st0" d="M94.8,20.5c-1.3,0-2.4-1.2-2.4-2.6v-3.6l-4.1,2.3v-1.8l4.1-2.3V7.9h1.3v3.9l5-2.8v1.8l-5,2.8V18
	c0,0.6,0.4,1.1,1,1.1h4v1.5H94.8L94.8,20.5z"/>
<path class="st0" d="M111.6,15.3c-0.7,1.9-1.9,3.4-4.3,5.3l0,0.1l-0.8-1.2l0-0.1c4-3.1,4.6-5.3,4.6-11.9V6.6h1.3v0.9
	c0,2.8-0.1,4.6-0.4,6.1C112,13.6,111.8,14.7,111.6,15.3L111.6,15.3z M102.7,19.5c-1.3,0-2.4-1.2-2.4-2.6V6.4c0-1.4,1.1-2.6,2.4-2.6
	h0.9c1.3,0,2.4,1.2,2.4,2.6v10.5c0,1.4-1.1,2.6-2.4,2.6H102.7L102.7,19.5z M102.7,5.4c-0.6,0-1,0.5-1,1.1v10.5c0,0.6,0.4,1.1,1,1.1
	h0.9c0.6,0,1-0.5,1-1.1V6.4c0-0.6-0.4-1.1-1-1.1L102.7,5.4L102.7,5.4z M115.1,15.5V5.2c0-0.6-0.4-1.1-1-1.1h-4.8c-0.6,0-1,0.5-1,1.1
	v10.3H107V5.2c0-1.4,1.1-2.6,2.4-2.6h4.8c1.3,0,2.4,1.2,2.4,2.6v10.3H115.1L115.1,15.5z"/>
<path class="st0" d="M82.4,9.6l4.4-1.8v1.6l-4.4,1.8V9.6z"/>
<path class="st0" d="M85.4,8.5h1.3v12.1h-1.3V8.5z"/>
<path class="st0" d="M85.5,9.9c-0.1,0-0.1-0.2-0.1-0.2c0-0.2-0.1-0.3-0.3-0.3l0,0l0,0c-0.1-0.1-0.2-0.2-0.2-0.2C84.9,9,85,9,85.1,9
	h0.6v0.5C85.6,9.9,85.5,9.9,85.5,9.9L85.5,9.9z"/>
<path class="st0" d="M71.8,19.3L71.8,19.3c3.9-3.1,5.7-6.7,6.6-9.2c0.9-2.7,1-4.6,1-4.6V5.5h1.5v0.1c0,0.3-0.1,8.6-8,14.9l0,0.1
	L71.8,19.3L71.8,19.3z"/>
<path class="st0" d="M80.1,20.4c-8-6.3-8-14.5-8-14.9V5.4h1.5v0.1c0,0.1,0,2.1,1,4.6c0.8,2.5,2.7,6,6.5,9.1l0,0.1l-0.9,1.2
	L80.1,20.4L80.1,20.4z"/>
<path class="st0" d="M76,7.1l-0.8-4.4h1.5l0.8,4.4H76z"/>
<path class="st0" d="M116.3,20.7c-5.2-3-5.2-9.8-5.2-10.1h1.3h-0.6h0.6c0,0.1,0,6.2,4.6,8.9L116.3,20.7L116.3,20.7z"/>
<path class="st0" d="M82.4,4.1h16.4v1.5H82.4V4.1z"/>
<path class="st0" d="M86.4,2.7h1.3v4.4h-1.3V2.7z"/>
<path class="st0" d="M93.4,2.7h1.3v4.4h-1.3V2.7z"/>
<path class="st0" d="M51.4,30.4h-0.8L50,28.8h-2.7l-0.6,1.6h-0.8l2.3-6.7H49L51.4,30.4L51.4,30.4z M47.5,28h2.3l-1.1-3.5L47.5,28
	L47.5,28z"/>
<path class="st0" d="M56.4,30.4l-3.3-5.2v5.2h-0.8v-6.7h0.8l3.3,5.2v-5.2h0.8v6.7H56.4z"/>
<path class="st0" d="M62.3,23.7v0.8h-1.7v5.9h-0.8v-5.9h-1.7v-0.8H62.3z"/>
<path class="st0" d="M67.8,23.5c0.2,0,0.6,0,0.8,0.1c0.3,0.1,0.6,0.2,0.7,0.2l-0.1,0.7c-0.2-0.1-0.4-0.2-0.6-0.2s-0.5-0.1-0.6-0.1
	c-0.7,0-1.3,0.3-1.7,0.7s-0.6,1.2-0.6,2c0,0.9,0.2,1.6,0.6,2c0.4,0.5,1,0.7,1.7,0.7c0.2,0,0.5,0,0.6-0.1c0.2-0.1,0.4-0.2,0.6-0.2
	l0.1,0.7c-0.2,0.1-0.4,0.2-0.7,0.2c-0.3,0.1-0.6,0.1-0.8,0.1c-0.5,0-0.9-0.1-1.3-0.3c-0.4-0.2-0.7-0.4-1-0.7
	c-0.2-0.3-0.5-0.7-0.6-1.1c-0.1-0.5-0.2-0.9-0.2-1.4c0-0.5,0-1,0.2-1.4c0.1-0.5,0.4-0.8,0.6-1.1c0.2-0.3,0.6-0.6,1-0.7
	S67.3,23.5,67.8,23.5L67.8,23.5z"/>
<path class="st0" d="M74.2,30.4v-3h-3v3h-0.8v-6.7h0.8v2.9h3v-2.9h0.8v6.7H74.2z"/>
<path class="st0" d="M76.4,23.7h3.3v0.8h-2.4v2.1h2.4v0.8h-2.4v2.3h2.5v0.8h-3.3V23.7L76.4,23.7z"/>
<path class="st0" d="M83.7,23.5c0.2,0,0.6,0,0.8,0.1c0.3,0.1,0.6,0.2,0.7,0.2L85,24.5c-0.2-0.1-0.4-0.2-0.6-0.2
	c-0.2-0.1-0.5-0.1-0.6-0.1c-0.7,0-1.3,0.3-1.7,0.7s-0.6,1.2-0.6,2c0,0.9,0.2,1.6,0.6,2c0.4,0.5,1,0.7,1.7,0.7c0.2,0,0.5,0,0.6-0.1
	c0.2-0.1,0.4-0.2,0.6-0.2l0.1,0.7c-0.2,0.1-0.4,0.2-0.7,0.2c-0.3,0.1-0.6,0.1-0.8,0.1c-0.5,0-0.9-0.1-1.3-0.3
	c-0.4-0.2-0.7-0.4-1-0.7c-0.2-0.3-0.5-0.7-0.6-1.1c-0.1-0.5-0.2-0.9-0.2-1.4c0-0.5,0-1,0.2-1.4c0.1-0.5,0.4-0.8,0.6-1.1
	c0.2-0.3,0.6-0.6,1-0.7C82.7,23.7,83.2,23.5,83.7,23.5L83.7,23.5z"/>
<path class="st0" d="M86.2,30.4v-6.7h0.8v3.2l2.4-3.2h1L87.9,27l2.7,3.4h-1l-2.5-3.3v3.4L86.2,30.4L86.2,30.4z"/>
<path class="st0" d="M94.1,23.7v5.9h2.4v0.8h-3.3v-6.7H94.1z"/>
<path class="st0" d="M102.5,30.4h-0.8l-0.6-1.6h-2.7l-0.6,1.6H97l2.3-6.7h0.8L102.5,30.4L102.5,30.4z M98.6,28h2.3l-1.1-3.5L98.6,28
	L98.6,28z"/>
<path class="st0" d="M107.1,23.7v0.8h-1.7v5.9h-0.8v-5.9h-1.7v-0.8H107.1z"/>
<path class="st0" d="M108,23.7h3.3v0.8h-2.4v2.1h2.4v0.8h-2.4v2.3h2.5v0.8H108V23.7z"/>
<path class="st0" d="M113.3,30.4h-0.8v-6.7h1.5c0.3,0,0.6,0.1,0.9,0.2c0.3,0.1,0.6,0.2,0.7,0.4c0.2,0.2,0.4,0.3,0.5,0.6
	c0.1,0.3,0.2,0.5,0.2,0.9c0,0.5-0.1,0.9-0.4,1.2c-0.2,0.3-0.6,0.6-1.1,0.8l2.1,2.8h-1l-1.9-2.7c0,0,0,0-0.1,0c0,0-0.1,0-0.2,0
	s-0.1,0-0.2,0c0,0-0.1,0-0.1,0L113.3,30.4L113.3,30.4z M115.5,25.6c0-0.2,0-0.4-0.1-0.5c0-0.2-0.2-0.3-0.3-0.4
	c-0.1-0.1-0.3-0.2-0.5-0.2c-0.2-0.1-0.4-0.1-0.6-0.1h-0.7V27h0.4c0.2,0,0.5,0,0.7-0.1c0.2-0.1,0.4-0.2,0.6-0.3
	c0.2-0.2,0.3-0.3,0.4-0.5C115.4,26.1,115.5,25.8,115.5,25.6L115.5,25.6z"/>
<path class="st0" d="M54.1,20.6v-1.5H60c0.6,0,1-0.5,1-1.1v-4.5c0-0.6-0.4-1.1-1-1.1c0,0-3.8,0-5.1,0s-1.3-1.4-1.3-1.4V5.4h1.5v5
	c0,0,0,0.7,0.5,0.7c0.5,0,4.3,0,4.3,0c1.3,0,2.4,1.2,2.4,2.6v4.4c0,1.4-1.1,2.6-2.4,2.6L54.1,20.6L54.1,20.6L54.1,20.6z M45.9,20.6
	v-1.5h3v-3.7H48c-1.1,0-2-1-2-2.2V7.3c0-1.2,0.9-2.2,2-2.2h0.8V2.6h1.3v2.5H51c1.1,0,2,1,2,2.2v5.9c0,1.2-0.9,2.2-2,2.2h-0.8v3.7h1
	c0.4,0,0.6-0.3,0.6-0.7v-1.4h1.3v1.4c0,1.2-0.9,2.2-2,2.2L45.9,20.6L45.9,20.6z M51,13.9c0.4,0,0.6-0.3,0.6-0.7V7.3
	c0-0.4-0.3-0.7-0.6-0.7h-0.8v7.3H51L51,13.9z M48,6.6c-0.4,0-0.6,0.3-0.6,0.7v5.9c0,0.4,0.3,0.7,0.6,0.7h0.8V6.6H48L48,6.6z
	 M53.9,16.7v-1.5h6.4v1.5H53.9L53.9,16.7z M60.4,10.2V5.4c0-0.6-0.4-1.1-1-1.1h-5.8V2.9h5.8c1.3,0,2.4,1.2,2.4,2.6v4.8L60.4,10.2
	L60.4,10.2z"/>
<path class="st0" d="M64.1,20.6v-1.6h3v-3.7h-0.8c-1.1,0-2-1.1-2-2.2V7.3c0-1.2,0.9-2.2,2-2.2h0.8V2.6h1.3v2.5h0.8c1.1,0,2,1,2,2.2
	v5.9c0,1.2-0.9,2.2-2,2.2h-0.8v3.7h1c0.4,0,0.6-0.3,0.6-0.7V17h1.3v1.4c0,1.2-0.9,2.2-2,2.2H64.1L64.1,20.6L64.1,20.6z M69.2,13.9
	c0.4,0,0.6-0.3,0.6-0.7V7.3c0-0.4-0.3-0.7-0.6-0.7h-0.8v7.3H69.2L69.2,13.9z M66.3,6.6c-0.4,0-0.6,0.3-0.6,0.7v5.9
	c0,0.4,0.3,0.7,0.6,0.7h0.8V6.6H66.3L66.3,6.6z"/>
<path class="st0" d="M94.8,20.5c-1.3,0-2.4-1.2-2.4-2.6v-3.6l-4.1,2.3v-1.8l4.1-2.3V7.9h1.3v3.9l5-2.8v1.8l-5,2.8V18
	c0,0.6,0.4,1.1,1,1.1h4v1.5H94.8L94.8,20.5z"/>
<path class="st0" d="M111.6,15.3c-0.7,1.9-1.9,3.4-4.3,5.3l0,0.1l-0.8-1.2l0-0.1c4-3.1,4.6-5.3,4.6-11.9V6.6h1.3v0.9
	c0,2.8-0.1,4.6-0.4,6.1C112,13.6,111.8,14.7,111.6,15.3L111.6,15.3z M102.7,19.5c-1.3,0-2.4-1.2-2.4-2.6V6.4c0-1.4,1.1-2.6,2.4-2.6
	h0.9c1.3,0,2.4,1.2,2.4,2.6v10.5c0,1.4-1.1,2.6-2.4,2.6H102.7L102.7,19.5z M102.7,5.4c-0.6,0-1,0.5-1,1.1v10.5c0,0.6,0.4,1.1,1,1.1
	h0.9c0.6,0,1-0.5,1-1.1V6.4c0-0.6-0.4-1.1-1-1.1L102.7,5.4L102.7,5.4z M115.1,15.5V5.2c0-0.6-0.4-1.1-1-1.1h-4.8c-0.6,0-1,0.5-1,1.1
	v10.3H107V5.2c0-1.4,1.1-2.6,2.4-2.6h4.8c1.3,0,2.4,1.2,2.4,2.6v10.3H115.1L115.1,15.5z"/>
<path class="st0" d="M82.4,9.6l4.4-1.8v1.6l-4.4,1.8V9.6z"/>
<path class="st0" d="M85.4,8.5h1.3v12.1h-1.3V8.5z"/>
<path class="st0" d="M85.5,9.9c-0.1,0-0.1-0.2-0.1-0.2c0-0.2-0.1-0.3-0.3-0.3l0,0l0,0c-0.1-0.1-0.2-0.2-0.2-0.2C84.9,9,85,9,85.1,9
	h0.6v0.5C85.6,9.9,85.5,9.9,85.5,9.9L85.5,9.9z"/>
<path class="st0" d="M71.8,19.3L71.8,19.3c3.9-3.1,5.7-6.7,6.6-9.2c0.9-2.7,1-4.6,1-4.6V5.5h1.5v0.1c0,0.3-0.1,8.6-8,14.9l0,0.1
	L71.8,19.3L71.8,19.3z"/>
<path class="st0" d="M80.1,20.4c-8-6.3-8-14.5-8-14.9V5.4h1.5v0.1c0,0.1,0,2.1,1,4.6c0.8,2.5,2.7,6,6.5,9.1l0,0.1l-0.9,1.2
	L80.1,20.4L80.1,20.4z"/>
<path class="st0" d="M76,7.1l-0.8-4.4h1.5l0.8,4.4H76z"/>
<path class="st0" d="M116.3,20.7c-5.2-3-5.2-9.8-5.2-10.1h1.3h-0.6h0.6c0,0.1,0,6.2,4.6,8.9L116.3,20.7L116.3,20.7z"/>
<path class="st0" d="M82.4,4.1h16.4v1.5H82.4V4.1z"/>
<path class="st0" d="M86.4,2.7h1.3v4.4h-1.3V2.7z"/>
<path class="st0" d="M93.4,2.7h1.3v4.4h-1.3V2.7z"/>
<path class="st0" d="M51.4,30.4h-0.8L50,28.8h-2.7l-0.6,1.6h-0.8l2.3-6.7H49L51.4,30.4L51.4,30.4z M47.5,28h2.3l-1.1-3.5L47.5,28
	L47.5,28z"/>
<path class="st0" d="M56.4,30.4l-3.3-5.2v5.2h-0.8v-6.7h0.8l3.3,5.2v-5.2h0.8v6.7H56.4z"/>
<path class="st0" d="M62.3,23.7v0.8h-1.7v5.9h-0.8v-5.9h-1.7v-0.8H62.3z"/>
<path class="st0" d="M67.8,23.5c0.2,0,0.6,0,0.8,0.1c0.3,0.1,0.6,0.2,0.7,0.2l-0.1,0.7c-0.2-0.1-0.4-0.2-0.6-0.2s-0.5-0.1-0.6-0.1
	c-0.7,0-1.3,0.3-1.7,0.7s-0.6,1.2-0.6,2c0,0.9,0.2,1.6,0.6,2c0.4,0.5,1,0.7,1.7,0.7c0.2,0,0.5,0,0.6-0.1c0.2-0.1,0.4-0.2,0.6-0.2
	l0.1,0.7c-0.2,0.1-0.4,0.2-0.7,0.2c-0.3,0.1-0.6,0.1-0.8,0.1c-0.5,0-0.9-0.1-1.3-0.3c-0.4-0.2-0.7-0.4-1-0.7
	c-0.2-0.3-0.5-0.7-0.6-1.1c-0.1-0.5-0.2-0.9-0.2-1.4c0-0.5,0-1,0.2-1.4c0.1-0.5,0.4-0.8,0.6-1.1c0.2-0.3,0.6-0.6,1-0.7
	S67.3,23.5,67.8,23.5L67.8,23.5z"/>
<path class="st0" d="M74.2,30.4v-3h-3v3h-0.8v-6.7h0.8v2.9h3v-2.9h0.8v6.7H74.2z"/>
<path class="st0" d="M76.4,23.7h3.3v0.8h-2.4v2.1h2.4v0.8h-2.4v2.3h2.5v0.8h-3.3V23.7L76.4,23.7z"/>
<path class="st0" d="M83.7,23.5c0.2,0,0.6,0,0.8,0.1c0.3,0.1,0.6,0.2,0.7,0.2L85,24.5c-0.2-0.1-0.4-0.2-0.6-0.2
	c-0.2-0.1-0.5-0.1-0.6-0.1c-0.7,0-1.3,0.3-1.7,0.7s-0.6,1.2-0.6,2c0,0.9,0.2,1.6,0.6,2c0.4,0.5,1,0.7,1.7,0.7c0.2,0,0.5,0,0.6-0.1
	c0.2-0.1,0.4-0.2,0.6-0.2l0.1,0.7c-0.2,0.1-0.4,0.2-0.7,0.2c-0.3,0.1-0.6,0.1-0.8,0.1c-0.5,0-0.9-0.1-1.3-0.3
	c-0.4-0.2-0.7-0.4-1-0.7c-0.2-0.3-0.5-0.7-0.6-1.1c-0.1-0.5-0.2-0.9-0.2-1.4c0-0.5,0-1,0.2-1.4c0.1-0.5,0.4-0.8,0.6-1.1
	c0.2-0.3,0.6-0.6,1-0.7C82.7,23.7,83.2,23.5,83.7,23.5L83.7,23.5z"/>
<path class="st0" d="M86.2,30.4v-6.7h0.8v3.2l2.4-3.2h1L87.9,27l2.7,3.4h-1l-2.5-3.3v3.4L86.2,30.4L86.2,30.4z"/>
<path class="st0" d="M94.1,23.7v5.9h2.4v0.8h-3.3v-6.7H94.1z"/>
<path class="st0" d="M102.5,30.4h-0.8l-0.6-1.6h-2.7l-0.6,1.6H97l2.3-6.7h0.8L102.5,30.4L102.5,30.4z M98.6,28h2.3l-1.1-3.5L98.6,28
	L98.6,28z"/>
<path class="st0" d="M107.1,23.7v0.8h-1.7v5.9h-0.8v-5.9h-1.7v-0.8H107.1z"/>
<path class="st0" d="M108,23.7h3.3v0.8h-2.4v2.1h2.4v0.8h-2.4v2.3h2.5v0.8H108V23.7z"/>
<path class="st0" d="M113.3,30.4h-0.8v-6.7h1.5c0.3,0,0.6,0.1,0.9,0.2c0.3,0.1,0.6,0.2,0.7,0.4c0.2,0.2,0.4,0.3,0.5,0.6
	c0.1,0.3,0.2,0.5,0.2,0.9c0,0.5-0.1,0.9-0.4,1.2c-0.2,0.3-0.6,0.6-1.1,0.8l2.1,2.8h-1l-1.9-2.7c0,0,0,0-0.1,0c0,0-0.1,0-0.2,0
	s-0.1,0-0.2,0c0,0-0.1,0-0.1,0L113.3,30.4L113.3,30.4z M115.5,25.6c0-0.2,0-0.4-0.1-0.5c0-0.2-0.2-0.3-0.3-0.4
	c-0.1-0.1-0.3-0.2-0.5-0.2c-0.2-0.1-0.4-0.1-0.6-0.1h-0.7V27h0.4c0.2,0,0.5,0,0.7-0.1c0.2-0.1,0.4-0.2,0.6-0.3
	c0.2-0.2,0.3-0.3,0.4-0.5C115.4,26.1,115.5,25.8,115.5,25.6L115.5,25.6z"/>
<path class="st0" d="M15,19.9C15,19.9,15.1,19.9,15,19.9c0.6,0.9,1.2,1.6,1.7,2c1.2,1,3,2.1,5.6,2.1c0.1,0,0.2,0,0.3,0
	c0.4,0,1-0.1,1.6-0.4c-1.9,0.2-4.1-0.6-5.4-2c-2.5-2.8-2.1-5.7-2-6.3c0.3-1.4,0.8-2.5,1.2-3.2c0.4-0.7,0.6-1.3,0.6-1.9
	c0-1-0.7-1.6-1.6-1.7c-1.1-0.1-1.9,0.7-2.4,1.7C13.9,12,13.5,14,13.5,16c0.1,0.7,0.3,1.4,0.5,2c0.2,0.6,0.5,1.2,0.9,1.7
	C14.9,19.8,15,19.8,15,19.9z M36.7,11.5c-0.2-0.7-0.5-1.3-0.8-1.9c-0.9-1.7-2.2-3.2-3.7-4.2c-0.3-0.2-0.8-0.5-0.8-0.5l0,0
	c-1.3-0.7-2.3-1-3-1c-0.8,0-1.2,0.4-1.2,1c0,0.9,0.8,1.1,1.5,1.4c2.3,1.2,3.6,2.9,2.9,4.3c-0.4,0.9-1.4,1.4-2.8,1.4
	c-0.7,0-1.4-0.1-2.2-0.4c-1.5-0.6-3.4-1.6-4.6-1.6c-0.6,0-1,0.3-1.2,1.1c-0.3,1.9,2.6,2,5.6,5.2c1.3,1.4,1.6,3.7,0.9,5.7
	c-1,2.5-3.6,3-4.7,3.1c-0.1,0-0.2,0-0.3,0c-5.6,0-8-4.5-8-4.5c0.1,0.2,0.1,0.3,0.2,0.4c-0.1-0.1-0.1-0.2-0.1-0.2
	c0-0.1-0.1-0.2-0.1-0.2c0.1,0.3,0.2,0.6,0.4,0.9l0,0c0,0,0,0,0,0c2,4.5,6.3,7.2,10.8,7.2c1.4,0,2.7-0.2,4.1-0.7
	C35.7,25.2,38.9,18,36.7,11.5z M28.6,8.7c0.2-0.9-0.5-1.9-1.6-2.2c-1.1-0.3-2.2,0.2-2.4,1.2c-0.2,0.9,0.5,1.9,1.7,2.2
	C27.3,10.2,28.4,9.7,28.6,8.7z M9.2,5.9c0-3.1,2.6-5.7,5.7-5.7h21.4c3.1,0,5.7,2.6,5.7,5.7v21.4c0,3.1-2.6,5.7-5.7,5.7H14.9
	c-3.1,0-5.7-2.6-5.7-5.7L9.2,5.9z"/>
</svg>
