<?xml version="1.0" encoding="UTF-8"?>
<svg width="580px" height="240px" viewBox="0 0 580 240" version="1.1" xmlns="http://www.w3.org/2000/svg" xmlns:xlink="http://www.w3.org/1999/xlink">
    <!-- Generator: Sketch 52 (66869) - http://www.bohemiancoding.com/sketch -->
    <title>数聚蜂巢 场景3敏捷创新新应用@2x</title>
    <desc>Created with Sketch.</desc>
    <defs>
        <polygon id="path-1" points="0.0338039689 0.0213567839 12.9952814 0.0213567839 12.9952814 9.99051135 0.0338039689 9.99051135"></polygon>
        <polygon id="path-3" points="0.0361 0.0359816322 7.96600597 0.0359816322 7.96600597 8 0.0361 8"></polygon>
    </defs>
    <g id="数聚蜂巢-场景3敏捷创新新应用" stroke="none" stroke-width="1" fill="none" fill-rule="evenodd">
        <text id="老系统" font-family="PingFangSC-Regular, PingFang SC" font-size="14" font-weight="normal" fill="#05172E">
            <tspan x="12" y="15">老系统</tspan>
        </text>
        <text id="行业应用-copy" font-family="PingFangSC-Regular, PingFang SC" font-size="14" font-weight="normal" fill="#05172E">
            <tspan x="156" y="15">行业应用</tspan>
        </text>
        <text id="创新孵化-copy" font-family="PingFangSC-Regular, PingFang SC" font-size="14" font-weight="normal" fill="#05172E">
            <tspan x="297" y="15">创新孵化</tspan>
        </text>
        <text id="新应用-copy" font-family="PingFangSC-Regular, PingFang SC" font-size="14" font-weight="normal" fill="#05172E">
            <tspan x="496" y="15">新应用</tspan>
        </text>
        <rect id="Rectangle-3-Copy-2" fill="#E1EDFF" x="0" y="25" width="66" height="215" rx="3"></rect>
        <rect id="Rectangle-3-Copy-4" fill="#A1CAFF" x="76" y="25" width="367" height="215" rx="3"></rect>
        <rect id="Rectangle-Copy-22" stroke="#3261AF" x="184.863636" y="112.5" width="45" height="25" rx="3"></rect>
        <rect id="Rectangle-Copy-25" stroke="#3261AF" x="184.863636" y="76.5" width="145" height="25" rx="3"></rect>
        <rect id="Rectangle-Copy-23" stroke="#3261AF" x="234.863636" y="112.5" width="45" height="25" rx="3"></rect>
        <rect id="Rectangle-Copy-24" stroke="#3261AF" x="284.863636" y="112.5" width="45" height="25" rx="3"></rect>
        <text id="API-store" font-family="PingFangSC-Semibold, PingFang SC" font-size="12" font-weight="500" fill="#001B47">
            <tspan x="231.388" y="60">API store</tspan>
        </text>
        <text id="能力中心+创新平台" font-family="PingFangSC-Semibold, PingFang SC" font-size="12" font-weight="500" fill="#001B47">
            <tspan x="205.733636" y="94">能力中心+创新平台</tspan>
        </text>
        <text id="M-API-Copy-6" font-family="PingFangSC-Semibold, PingFang SC" font-size="12" font-weight="500" fill="#001B47">
            <tspan x="188.769636" y="129">M-API</tspan>
        </text>
        <text id="M-API-Copy-7" font-family="PingFangSC-Semibold, PingFang SC" font-size="12" font-weight="500" fill="#001B47">
            <tspan x="238.769636" y="129">M-API</tspan>
        </text>
        <text id="M-API-Copy-8" font-family="PingFangSC-Semibold, PingFang SC" font-size="12" font-weight="500" fill="#001B47">
            <tspan x="288.769636" y="129">M-API</tspan>
        </text>
        <text id="数聚蜂巢平台" font-family="PingFangSC-Semibold, PingFang SC" font-size="12" font-weight="500" fill="#001B47">
            <tspan x="224" y="217">数聚蜂巢平台</tspan>
        </text>
        <rect id="Rectangle-3-Copy-3" fill="#E1EDFF" x="453" y="25" width="127" height="215" rx="3"></rect>
        <rect id="Rectangle-Copy-26" stroke="#88B6F2" fill="#FFFFFF" x="5.5" y="35.5" width="55" height="29" rx="3"></rect>
        <rect id="Rectangle-Copy-38" stroke="#3261AF" x="81.5" y="35.5" width="65" height="159" rx="3"></rect>
        <rect id="Rectangle-Copy-42" stroke="#3261AF" x="367.863636" y="35.5" width="65" height="159" rx="3"></rect>
        <rect id="Rectangle-Copy-38" fill="#3261AF" x="86" y="40" width="56" height="30" rx="3"></rect>
        <rect id="Rectangle-Copy-43" fill="#3261AF" x="372.363636" y="40" width="56" height="30" rx="3"></rect>
        <rect id="Rectangle-Copy-30" stroke="#88B6F2" fill="#FFFFFF" x="519.5" y="35.5" width="55" height="29" rx="3"></rect>
        <rect id="Rectangle-Copy-34" stroke="#88B6F2" fill="#FFFFFF" x="458.5" y="35.5" width="55" height="29" rx="3"></rect>
        <rect id="Rectangle-Copy-27" stroke="#88B6F2" fill="#FFFFFF" x="5.5" y="75.5" width="55" height="29" rx="3"></rect>
        <rect id="Rectangle-Copy-39" fill="#3261AF" x="86" y="80" width="56" height="30" rx="3"></rect>
        <rect id="Rectangle-Copy-44" fill="#3261AF" x="372.363636" y="80" width="56" height="30" rx="3"></rect>
        <rect id="Rectangle-Copy-31" stroke="#88B6F2" fill="#FFFFFF" x="519.5" y="75.5" width="55" height="29" rx="3"></rect>
        <rect id="Rectangle-Copy-35" stroke="#88B6F2" fill="#FFFFFF" x="458.5" y="75.5" width="55" height="29" rx="3"></rect>
        <rect id="Rectangle-Copy-28" stroke="#88B6F2" fill="#FFFFFF" x="5.5" y="115.5" width="55" height="29" rx="3"></rect>
        <rect id="Rectangle-Copy-40" fill="#3261AF" x="86" y="120" width="56" height="30" rx="3"></rect>
        <rect id="Rectangle-Copy-45" fill="#3261AF" x="372.363636" y="120" width="56" height="30" rx="3"></rect>
        <rect id="Rectangle-Copy-32" stroke="#88B6F2" fill="#FFFFFF" x="519.5" y="115.5" width="55" height="29" rx="3"></rect>
        <rect id="Rectangle-Copy-36" stroke="#88B6F2" fill="#FFFFFF" x="458.5" y="115.5" width="55" height="29" rx="3"></rect>
        <rect id="Rectangle-Copy-29" stroke="#88B6F2" fill="#FFFFFF" x="5.5" y="155.5" width="55" height="29" rx="3"></rect>
        <rect id="Rectangle-Copy-41" fill="#3261AF" x="86" y="160" width="56" height="30" rx="3"></rect>
        <rect id="Rectangle-Copy-46" fill="#3261AF" x="372.363636" y="160" width="56" height="30" rx="3"></rect>
        <rect id="Rectangle-Copy-33" stroke="#88B6F2" fill="#FFFFFF" x="519.5" y="155.5" width="55" height="29" rx="3"></rect>
        <rect id="Rectangle-Copy-37" stroke="#88B6F2" fill="#FFFFFF" x="458.5" y="155.5" width="55" height="29" rx="3"></rect>
        <text id="ERP-Copy" font-family="PingFangSC-Regular, PingFang SC" font-size="12" font-weight="normal" fill="#214278">
            <tspan x="21.27" y="54">ERP</tspan>
        </text>
        <text id="数据" font-family="PingFangSC-Regular, PingFang SC" font-size="12" font-weight="normal" fill="#FFFFFF">
            <tspan x="102" y="59">数据</tspan>
        </text>
        <text id="应用-链接组件" font-family="PingFangSC-Regular, PingFang SC" font-size="10" font-weight="normal" fill="#FFFFFF">
            <tspan x="390" y="52">应用</tspan>
            <tspan x="380" y="66">链接组件</tspan>
        </text>
        <text id="MES" font-family="PingFangSC-Regular, PingFang SC" font-size="12" font-weight="normal" fill="#214278">
            <tspan x="20.094" y="94">MES</tspan>
        </text>
        <text id="组件" font-family="PingFangSC-Regular, PingFang SC" font-size="12" font-weight="normal" fill="#FFFFFF">
            <tspan x="102" y="99">组件</tspan>
        </text>
        <text id="大数据类-链接组件" font-family="PingFangSC-Regular, PingFang SC" font-size="10" font-weight="normal" fill="#FFFFFF">
            <tspan x="380.363636" y="92">大数据类</tspan>
            <tspan x="380.363636" y="106">链接组件</tspan>
        </text>
        <text id="OMES" font-family="PingFangSC-Regular, PingFang SC" font-size="12" font-weight="normal" fill="#214278">
            <tspan x="15.492" y="134">OMES</tspan>
        </text>
        <text id="连接器" font-family="PingFangSC-Regular, PingFang SC" font-size="12" font-weight="normal" fill="#FFFFFF">
            <tspan x="96" y="139">连接器</tspan>
        </text>
        <text id="AI类-链接组件" font-family="PingFangSC-Regular, PingFang SC" font-size="10" font-weight="normal" fill="#FFFFFF">
            <tspan x="390.53" y="132">AI类</tspan>
            <tspan x="380" y="146">链接组件</tspan>
        </text>
        <text id="CRM" font-family="PingFangSC-Regular, PingFang SC" font-size="12" font-weight="normal" fill="#214278">
            <tspan x="19.784" y="174">CRM</tspan>
        </text>
        <text id="…" font-family="PingFangSC-Regular, PingFang SC" font-size="12" font-weight="normal" fill="#FFFFFF">
            <tspan x="109" y="179">…</tspan>
        </text>
        <text id="…-copy" font-family="PingFangSC-Regular, PingFang SC" font-size="10" font-weight="normal" fill="#FFFFFF">
            <tspan x="396" y="179">…</tspan>
        </text>
        <text id="…" font-family="PingFangSC-Regular, PingFang SC" font-size="10" font-weight="normal" fill="#214278">
            <tspan x="29" y="217">…</tspan>
        </text>
        <text id="DW" font-family="PingFangSC-Regular, PingFang SC" font-size="12" font-weight="normal" fill="#214278">
            <tspan x="537.184" y="95">DW</tspan>
        </text>
        <text id="NLP" font-family="PingFangSC-Regular, PingFang SC" font-size="12" font-weight="normal" fill="#214278">
            <tspan x="474.306" y="54">NLP</tspan>
        </text>
        <text id="hadoop" font-family="PingFangSC-Regular, PingFang SC" font-size="12" font-weight="normal" fill="#214278">
            <tspan x="526.746" y="134">hadoop</tspan>
        </text>
        <g id="分组" transform="translate(477.000000, 80.000000)">
            <path d="M9.79575901,0 C5.86088731,0 2.59919063,2.78553466 1.9994766,6.43020579 L0.109341408,9.65791804 C-0.204787614,10.1940283 0.195408123,10.8590656 0.832359774,10.8590656 L2.10756712,10.8590656 L2.10756712,14.8708249 C2.10756712,16.0036836 3.20209232,16.8387348 4.34037534,16.5742217 L5.77047379,16.3829561 L5.77047379,18.7077533 C5.77047379,19.421528 6.36830421,20 7.10566703,20 L11.4450813,20 C12.182589,20 12.7804194,19.421528 12.7804194,18.7077533 L12.7804194,14.716254 C15.661481,13.5770198 17.6923077,10.8392307 17.6923077,7.64155421 C17.6920179,3.42096129 14.1567624,0 9.79575901,0" id="路径" fill="#A1CAFF"></path>
            <path d="M12.6632006,6.8852761 L8.35841588,11.2651153 C8.13412081,11.4933588 7.73928613,11.3074771 7.78623161,10.9956434 L8.23960324,7.9967414 L6.27151538,7.9967414 C5.97810612,7.9967414 5.82741692,7.65699713 6.0293984,7.45128042 L10.3346178,3.07144122 C10.5590578,2.843056 10.9537475,3.02922112 10.9068021,3.34091312 L10.4532855,6.33967343 L12.4215183,6.33967343 C12.7144929,6.33967343 12.8654719,6.67955938 12.6632006,6.8852761" id="路径" fill="#3261AF"></path>
        </g>
        <g id="分组-2" transform="translate(476.000000, 120.000000)" fill-rule="nonzero">
            <circle id="椭圆形" fill="#A1CAFF" cx="10" cy="10" r="7.69230769"></circle>
            <circle id="椭圆形" fill="#3261AF" cx="6.92307692" cy="8.46153846" r="1"></circle>
            <path d="M6.92307692,11.5384615 L13.0769231,11.5384615 L13.0769231,11.5384615 C13.0769231,13.2377992 11.6993377,14.6153846 10,14.6153846 L10,14.6153846 C8.30066231,14.6153846 6.92307692,13.2377992 6.92307692,11.5384615 Z" id="矩形" fill="#3261AF"></path>
            <circle id="椭圆形-copy-5" fill="#3261AF" cx="13.0769231" cy="8.46153846" r="1"></circle>
            <rect id="矩形" stroke="#3261AF" x="0.5" y="0.5" width="5.15384615" height="5.15384615"></rect>
            <rect id="矩形-copy-5" stroke="#3261AF" transform="translate(16.923077, 16.923077) rotate(-180.000000) translate(-16.923077, -16.923077) " x="14.3461538" y="14.3461538" width="5.15384615" height="5.15384615"></rect>
            <path d="M0.5,18.7928932 L4.94673937,14.3461538 L0.5,14.3461538 L0.5,18.7928932 Z" id="矩形-copy-4" stroke="#3261AF" transform="translate(3.076923, 16.923077) rotate(-90.000000) translate(-3.076923, -16.923077) "></path>
            <path d="M14.3461538,4.94673937 L18.7928932,0.5 L14.3461538,0.5 L14.3461538,4.94673937 Z" id="矩形-copy-6" stroke="#3261AF" transform="translate(16.923077, 3.076923) rotate(-270.000000) translate(-16.923077, -3.076923) "></path>
        </g>
        <g id="分组-3" transform="translate(478.000000, 160.000000)" fill-rule="nonzero">
            <circle id="椭圆形-copy" fill="#3261AF" cx="8.78787879" cy="2.12121212" r="2.12121212"></circle>
            <circle id="椭圆形-copy-2" fill="#3261AF" cx="8.78787879" cy="19.0909091" r="1"></circle>
            <circle id="椭圆形-copy-4" fill="#3261AF" cx="13.6363636" cy="6.96969697" r="1"></circle>
            <circle id="椭圆形-copy-3" fill="#3261AF" cx="1.51515152" cy="15.4545455" r="1.51515152"></circle>
            <rect id="矩形" fill="#3261AF" transform="translate(8.787879, 6.969697) scale(-1, -1) translate(-8.787879, -6.969697) " x="7.87878788" y="2.42424242" width="1.81818182" height="9.09090909"></rect>
            <rect id="矩形-copy" fill="#3261AF" transform="translate(8.787879, 14.848485) scale(-1, -1) translate(-8.787879, -14.848485) " x="8.48484848" y="10.3030303" width="1" height="9.09090909"></rect>
            <polygon id="矩形-copy-2" fill="#3261AF" transform="translate(5.245705, 12.859034) scale(-1, -1) rotate(-126.000000) translate(-5.245705, -12.859034) " points="4.63964407 8.31357963 5.85176528 8.31357963 5.85176528 17.4044887 4.63964407 17.4044887"></polygon>
            <polygon id="矩形-copy-3" fill="#3261AF" transform="translate(9.916073, 9.583574) scale(-1, -1) rotate(-126.000000) translate(-9.916073, -9.583574) " points="9.61304248 5.03811993 10.2191031 5.03811993 10.2191031 14.129029 9.61304248 14.129029"></polygon>
            <circle id="椭圆形-copy-4" fill="#3261AF" transform="translate(1.868561, 5.524310) rotate(-109.000000) translate(-1.868561, -5.524310) " cx="1.86856055" cy="5.52431011" r="1"></circle>
            <circle id="椭圆形-copy-3" fill="#3261AF" transform="translate(13.837423, 14.222745) rotate(-109.000000) translate(-13.837423, -14.222745) " cx="13.8374231" cy="14.2227449" r="1.51515152"></circle>
            <polygon id="矩形-copy-2" fill="#3261AF" transform="translate(10.168770, 11.540453) scale(-1, -1) rotate(-235.000000) translate(-10.168770, -11.540453) " points="9.56270902 6.99499883 10.7748302 6.99499883 10.7748302 16.0859079 9.56270902 16.0859079"></polygon>
            <polygon id="矩形-copy-3" fill="#3261AF" transform="translate(5.551239, 8.190919) scale(-1, -1) rotate(-235.000000) translate(-5.551239, -8.190919) " points="5.24820821 3.6454644 5.85426882 3.6454644 5.85426882 12.7363735 5.24820821 12.7363735"></polygon>
            <circle id="椭圆形" fill="#A1CAFF" cx="8.78787879" cy="10.6060606" r="3.93939394"></circle>
        </g>
        <text id="BI" font-family="PingFangSC-Regular, PingFang SC" font-size="12" font-weight="normal" fill="#214278">
            <tspan x="541.516" y="54">BI</tspan>
        </text>
        <g id="分组" transform="translate(530.000000, 162.000000)">
            <path d="M4.89250182,11.4510126 C4.62412036,11.0687026 4.30138316,10.7221894 3.99029362,10.3699965 C3.66852706,10.0058235 3.33025965,9.65549196 3.00266926,9.29652147 C2.81242417,9.08894765 2.81921864,8.82643765 3.01480223,8.62210941 C3.204562,8.42355639 3.443339,8.32671406 3.71608833,8.34151008 C3.8374181,8.34766714 3.98592575,8.37248626 4.06988595,8.44651408 C4.26207231,8.61404319 4.431934,8.80968474 4.59063334,9.00919234 C4.66731376,9.1056051 4.72555205,9.11371905 4.81290949,9.04976207 C5.2021354,8.76625126 5.59039068,8.48183361 6,8.18209492 C5.68793982,7.7367825 5.38121815,7.3325171 4.83717544,7.15873548 C3.74957535,6.81179271 2.78961417,7.03468757 2.00150449,7.81649008 C1.25454987,8.55820016 1.08857074,9.51994134 1.79082747,10.4196347 C2.05144382,10.7537383 2.36059209,11.0510906 2.64838631,11.3641934 C2.66779908,11.3856715 2.70133463,11.3946923 2.72069886,11.4162181 C3.01334628,11.7402987 3.32492114,12.0509673 3.58990536,12.3956191 C3.77578258,12.6375578 3.72191216,12.9716615 3.52778452,13.2122161 C3.23804902,13.5730958 2.84057268,13.6584831 2.40524145,13.6160042 C2.08444552,13.585028 1.84178597,13.4141579 1.68357195,13.1372814 C1.59233196,12.9778663 1.51273963,12.8118168 1.41912157,12.6323076 C0.949284154,12.879067 0.481921864,13.1244423 0,13.3769292 C0.0746906091,13.5487062 0.134918709,13.7105078 0.214074254,13.8627636 C0.47852463,14.3739422 0.869691822,14.7620274 1.44722155,14.894237 C2.44455229,15.1223343 3.36568794,15.0068299 4.17228828,14.2976234 C4.61344334,13.9100631 4.93812182,13.4752034 5.08226159,12.9153889 C5.21329774,12.4055945 5.20359136,11.8939386 4.89250182,11.4510126" id="Fill-1" fill="#3261AF"></path>
            <g transform="translate(21.000000, 0.000000)">
                <mask id="mask-2" fill="white">
                    <use xlink:href="#path-1"></use>
                </mask>
                <g id="Clip-4"></g>
                <path d="M12.319109,1.97186935 C12.0228795,1.97493467 11.7197238,2.0000603 11.4325516,2.06634171 C10.4580311,2.29141709 9.48947787,2.53920603 8.51874016,2.7778995 C8.40253934,2.80649246 8.31042049,2.80649246 8.23210082,2.68644221 C7.84955984,2.09895477 7.45529754,1.51860302 7.0668959,0.934633166 C6.87077705,0.63920603 6.7061459,0.32759799 6.35557213,0.145738693 C5.94804344,-0.0663718593 5.45574836,-0.00652261307 5.14406803,0.31960804 C4.91278525,0.561768844 4.78710082,0.848753769 4.72369918,1.15930653 C4.54574836,2.02714573 4.37632213,2.89598995 4.20854754,3.76483417 C4.18665,3.87890452 4.13603525,3.9341809 4.01509262,3.96835176 C3.60692459,4.08292462 3.20472377,4.21508543 2.79820738,4.33367839 C2.15081803,4.5221206 1.50033852,4.70151759 0.854068033,4.89297487 C0.542920492,4.98493467 0.218453279,5.12513568 0.11562541,5.42161809 C-0.0479401639,5.89247236 0.00587131148,6.39598995 0.534395902,6.70905528 C0.669190984,6.78890452 0.807715574,6.86784925 0.95369918,6.92513568 C1.54828934,7.15724623 2.14501066,7.38493467 2.74492869,7.60307538 C2.81845328,7.6301608 2.92985902,7.61458291 3.00327705,7.58036181 C3.1871418,7.49448241 3.35923197,7.3859397 3.53665,7.28794975 C3.86053115,7.10905528 4.18446557,6.93111558 4.53930164,6.73568844 C3.69328934,6.398 2.87333033,6.12915578 2.09386311,5.76533668 C2.14447787,5.72106533 2.18603525,5.70252261 2.22919098,5.69096482 C2.60587131,5.58845226 2.98415,5.49297487 3.3586459,5.38443216 C3.88029754,5.23367839 4.3939041,5.05729648 4.91976475,4.92413065 C5.21119918,4.85076382 5.37156803,4.7738794 5.41312541,4.43367839 C5.50583033,3.68186935 5.68532623,2.93920603 5.83722377,2.19448241 C5.85848197,2.09041206 5.92406803,1.99392965 5.96882213,1.8939799 C6.04820738,1.97237186 6.14357623,2.0401608 6.20378115,2.12965829 C6.63001066,2.76478392 7.05144508,3.40302513 7.46755164,4.04372864 C7.54954754,4.1698593 7.63111721,4.20754774 7.78930164,4.16784925 C8.69349426,3.94071357 9.60029754,3.72413065 10.5065148,3.50598995 C10.5896828,3.4859397 10.676527,3.47990955 10.7618262,3.46734673 C10.7346008,3.57739698 10.6893139,3.64473367 10.6349697,3.70453266 C10.0026049,4.40252261 9.36693689,5.098 8.73824836,5.79900503 C8.6961582,5.84624121 8.66792049,5.94719598 8.6918959,5.99900503 C8.8623877,6.36885427 9.03660902,6.73820101 9.23262131,7.09649246 C9.44632213,7.48543719 9.68501066,7.86232161 9.9109123,8.24619095 C9.94021557,8.29644221 9.95726475,8.35327638 9.98017459,8.40709548 C9.9673877,8.42513568 9.95406803,8.44317588 9.94074836,8.46131658 C9.21242869,8.26433166 8.4846418,8.06684422 7.75685492,7.86930653 C7.73501066,7.88392965 7.71369918,7.89900503 7.69180164,7.91357789 C7.77869918,8.34825126 7.86447787,8.78292462 7.95665,9.21659296 C7.96245738,9.24573869 8.01685492,9.27634171 8.05468279,9.28794975 C8.59279754,9.44980905 9.13032623,9.61458291 9.67217049,9.76483417 C10.0026049,9.85679397 10.3408713,9.99347739 10.6743959,9.99046231 C11.514068,9.98242211 12.0862811,9.2859397 11.6509943,8.52362814 C11.2077156,7.74724623 10.7612402,6.97237186 10.3131664,6.19845226 C10.1746418,5.95880402 10.1746418,5.90252261 10.3680434,5.6999598 C10.7404615,5.30955779 11.1171418,4.9221206 11.4895598,4.53161809 C11.769273,4.23820101 12.0559123,3.95026131 12.3179902,3.64322613 C12.5375516,3.38644221 12.7671828,3.12513568 12.9173754,2.83217085 C13.1470598,2.38392965 12.8455025,1.96684422 12.319109,1.97186935" id="Fill-3" fill="#3261AF" mask="url(#mask-2)"></path>
            </g>
            <path d="M27.4460249,12.8470196 C27.3758174,12.7512087 27.3100913,12.6518865 27.2393859,12.5565773 C26.9007967,12.1016012 26.5632033,11.6461235 26.2210788,11.1931539 C26.15839,11.1093821 26.1697925,11.051695 26.2435353,10.9859316 C26.3590539,10.8826465 26.4745228,10.778308 26.5820747,10.6659435 C26.9953527,10.2320357 27.406639,9.79561987 27.8159834,9.35764895 C27.8513361,9.31957543 27.8960996,9.25932997 27.8891286,9.21724343 C27.8144398,8.7752595 27.7297925,8.3353824 27.6441494,7.87338353 C26.7992199,8.77681454 25.9771452,9.65566581 25.1550207,10.5349685 C25.1416266,10.5289992 25.1286307,10.5229796 25.1151867,10.5169601 C25.2705892,9.35614407 25.4259419,8.19592997 25.5812946,7.03516408 C25.5668548,7.02307486 25.5524149,7.01158759 25.5379751,7 C25.0271037,7.32806434 24.5146888,7.65412218 24.0073029,7.98775459 C23.9645311,8.01534409 23.9366473,8.08903316 23.9291286,8.14476397 C23.6622905,10.0935866 23.398888,12.0424092 23.1349876,13.9916832 C23.0906224,14.3187945 23.0473527,14.6458556 23,14.9984996 C23.492,14.9984996 23.9570622,15.0015094 24.4216266,14.9919785 C24.4574274,14.9914769 24.5146888,14.9056986 24.5221577,14.8540309 C24.6217427,14.1532574 24.7138589,13.4514806 24.8095104,12.7497038 C24.8547718,12.4166232 24.9031203,12.0840442 24.9563983,11.70978 C25.1978921,12.0538964 25.4179751,12.3609426 25.6305394,12.6734565 C26.1295104,13.406284 26.6219087,14.1437265 27.1248631,14.8735442 C27.1681826,14.9362477 27.2707054,14.9909251 27.3469378,14.9924801 C27.8443651,15.0034657 28.3422905,14.9994527 28.8402158,14.9984996 C28.8865228,14.9984996 28.932332,14.9879655 29,14.9794378 C28.9507552,14.9036921 28.9163485,14.8455033 28.8765145,14.7913275 C28.4000498,14.1432249 27.9224896,13.4951222 27.4460249,12.8470196" id="Fill-5" fill="#3261AF"></path>
            <path d="M22.5496603,9.02280936 C22.1523782,9.0598654 21.7672401,9.14011966 21.4497036,9.43296393 C21.0299263,9.82083411 20.7366778,10.2370293 20.6557756,10.7695196 C20.4990603,11.8000329 20.3330924,12.8289219 20.172329,13.8589277 C20.1139222,14.2340059 20.0590429,14.6096933 20,15 L21.5567443,15 C21.5659968,14.8716237 21.5671534,14.7517753 21.5850802,14.6340081 C21.777071,13.3964378 21.9725893,12.1599334 22.1656788,10.9228199 C22.2171462,10.5933765 22.4744832,10.3893144 22.8515252,10.3882992 C23.1117537,10.3873347 23.3725025,10.3974363 23.6316322,10.3858119 C23.6935087,10.3832738 23.7958653,10.3207861 23.8039613,10.2756082 C23.8779818,9.86347394 23.9346538,9.44875082 24,9.0121494 C23.4992049,9.0121494 23.0198063,8.97869744 22.5496603,9.02280936" id="Fill-7" fill="#3261AF"></path>
            <path d="M17.334186,9.01583561 C16.6546034,8.97312352 15.9743761,9.00420008 15.3630257,9.2674054 C14.1326421,9.7973067 13.2993489,10.6569298 13.0560229,11.8932045 C12.8771147,12.8036845 13.1172708,13.6229711 13.912902,14.2629251 C14.8864206,15.0454143 15.9980693,15.150134 17.2084667,14.8325811 C17.525505,14.7492416 17.6770129,14.609082 17.6952798,14.2998194 C17.7188656,13.9109989 17.8042902,13.525572 17.8569419,13.1765062 C17.5490908,13.3146781 17.2466661,13.4756362 16.9243089,13.5900522 C16.3902705,13.7800992 15.8508595,13.7190127 15.3377207,13.5168454 C14.8322109,13.3175385 14.4582766,12.6553316 14.499592,12.1215517 C14.567287,11.2372517 15.2764728,10.5580278 16.2129741,10.3383587 C17.4276696,10.0533368 18.4678624,10.6123269 18.4700115,11.8665398 C18.4710323,12.4197121 18.3577237,12.9738541 18.2846024,13.5265417 C18.2271691,13.9633587 18.1514152,14.3982366 18.0826456,14.843247 L19.5229912,14.843247 C19.5326619,14.8035408 19.5423863,14.7749368 19.5466844,14.7453631 C19.685298,13.8339135 19.8238579,12.9224639 19.9613969,12.0109658 C20.0232358,11.6037708 20.0226985,11.1941033 19.8706534,10.8066887 C19.4483655,9.72948127 18.6327481,9.09631467 17.334186,9.01583561" id="Fill-9" fill="#3261AF"></path>
            <g transform="translate(5.000000, 9.000000)">
                <mask id="mask-4" fill="white">
                    <use xlink:href="#path-3"></use>
                </mask>
                <g id="Clip-12"></g>
                <path d="M5.08498889,4.73368101 C4.46054444,5.01469367 3.76893333,5.03494684 3.13498889,4.73975696 C2.57498889,4.47849114 2.29943333,4.00097215 2.2761,3.43540253 C2.21782222,2.00811139 4.0261,0.976212658 5.35332222,1.48603544 C6.01221111,1.7392 6.4011,2.25621266 6.40443333,3.1148962 C6.36115556,3.74780759 5.89665556,4.36861772 5.08498889,4.73368101 M5.31721111,0.0572253165 C4.43387778,-0.00505316456 3.57498889,0.0511493671 2.8061,0.476972152 C1.69276667,1.09363038 0.944988889,1.96861772 0.751655556,3.17013671 C0.524433333,4.58325063 0.323933333,6.00001013 0.112766667,7.4152 C0.0844333333,7.60659241 0.0622111111,7.79899747 0.0361,8.00001013 L1.52782222,8.00001013 C1.64171111,7.24254177 1.75554444,6.48861772 1.87221111,5.71292152 C1.9356,5.74431392 1.97504444,5.76507342 2.0161,5.78330127 C2.30837778,5.91190886 2.58887778,6.07444051 2.89554444,6.16203544 C4.57276667,6.6430481 6.48387778,5.77773165 7.36393333,4.51646582 C7.88276667,3.77368101 8.10776667,2.95545316 7.87332222,2.08659241 C7.60171111,1.07798481 6.7661,0.159503797 5.31721111,0.0572253165" id="Fill-11" fill="#3261AF" mask="url(#mask-4)"></path>
            </g>
        </g>
        <text id="大数据-应用域" font-family="PingFangSC-Regular, PingFang SC" font-size="12" font-weight="normal" fill="#001B47">
            <tspan x="530" y="209">大数据</tspan>
            <tspan x="530" y="226">应用域</tspan>
        </text>
        <text id="AI应用域" font-family="PingFangSC-Regular, PingFang SC" font-size="12" font-weight="normal" fill="#001B47">
            <tspan x="463.136" y="216">AI应用域</tspan>
        </text>
        <rect id="Rectangle-Copy-19" stroke="#3261AF" x="184.863636" y="148.5" width="45" height="25" rx="3"></rect>
        <rect id="Rectangle-Copy-20" stroke="#3261AF" x="234.863636" y="148.5" width="45" height="25" rx="3"></rect>
        <rect id="Rectangle-Copy-21" stroke="#3261AF" x="284.863636" y="148.5" width="45" height="25" rx="3"></rect>
        <text id="M-API-Copy-3" font-family="PingFangSC-Semibold, PingFang SC" font-size="12" font-weight="500" fill="#001B47">
            <tspan x="188.769636" y="165">M-API</tspan>
        </text>
        <text id="M-API-Copy-4" font-family="PingFangSC-Semibold, PingFang SC" font-size="12" font-weight="500" fill="#001B47">
            <tspan x="238.769636" y="165">M-API</tspan>
        </text>
        <text id="M-API-Copy-5" font-family="PingFangSC-Semibold, PingFang SC" font-size="12" font-weight="500" fill="#001B47">
            <tspan x="288.769636" y="165">M-API</tspan>
        </text>
    </g>
</svg>