<?xml version="1.0" encoding="UTF-8"?>
<svg width="588px" height="379px" viewBox="0 0 588 379" version="1.1" xmlns="http://www.w3.org/2000/svg" xmlns:xlink="http://www.w3.org/1999/xlink">
    <!-- Generator: Sketch 54.1 (76490) - https://sketchapp.com -->
    <title>编组 5</title>
    <desc>Created with Sketch.</desc>
    <defs>
        <rect id="path-1" x="23.4" y="282.6" width="255.6" height="65.7"></rect>
        <mask id="mask-2" maskContentUnits="userSpaceOnUse" maskUnits="objectBoundingBox" x="0" y="0" width="255.6" height="65.7" fill="white">
            <use xlink:href="#path-1"></use>
        </mask>
    </defs>
    <g id="Page-1" stroke="none" stroke-width="1" fill="none" fill-rule="evenodd">
        <g id="product—数聚蜂巢-集成编排平台-copy" transform="translate(-703.000000, -429.000000)">
            <g id="编组-5" transform="translate(680.000000, 420.000000)">
                <rect id="Rectangle" fill-opacity="0.23" fill="#00A1AA" x="140.5" y="155.7" width="138.6" height="15.3"></rect>
                <rect id="Rectangle-Copy-17" fill-opacity="0.23" fill="#00A1AA" x="79.3" y="262.8" width="138.6" height="15.3"></rect>
                <rect id="Rectangle-Copy-16" fill-opacity="0.23" fill="#00A1AA" x="471.7" y="185.4" width="138.6" height="15.3"></rect>
                <rect id="Rectangle-Copy-15" fill-opacity="0.23" fill="#00A1AA" x="363.7" y="61.2" width="138.6" height="15.3"></rect>
                <text id="接受销售订单-API入口" font-family="PingFangSC-Regular, PingFang SC" font-size="10.8" font-weight="normal" fill="#4A4A4A">
                    <tspan x="23.5" y="39.8">接受销售订单</tspan>
                    <tspan x="23.5" y="54.8">API入口</tspan>
                </text>
                <text id="获取订单数据" font-family="PingFangSC-Regular, PingFang SC" font-size="10.8" font-weight="normal" fill="#4A4A4A">
                    <tspan x="23.4" y="110.9">获取订单数据</tspan>
                </text>
                <text id="订单数据入库" font-family="PingFangSC-Regular, PingFang SC" font-size="10.8" font-weight="normal" fill="#4A4A4A">
                    <tspan x="175.5" y="141.5">订单数据入库</tspan>
                </text>
                <text id="其他业务流程组件-（云应用、数据库、文件" font-family="PingFangSC-Regular, PingFang SC" font-size="10.8" font-weight="normal" fill="#4A4A4A">
                    <tspan x="108" y="366.5">其他业务流程组件</tspan>
                    <tspan x="59.4" y="381.5">（云应用、数据库、文件、大数据等）</tspan>
                </text>
                <text id="支持各种数据库连接" font-family="PingFangSC-Regular, PingFang SC" font-size="10.8" font-weight="normal" fill="#4A4A4A">
                    <tspan x="159.3" y="166.7">支持各种数据库连接</tspan>
                </text>
                <text id="连接生态" font-family="PingFangSC-Regular, PingFang SC" font-size="10.8" font-weight="normal" fill="#4A4A4A">
                    <tspan x="118.8" y="273.8">连接生态</tspan>
                </text>
                <text id="支持多种数据格式转换" font-family="PingFangSC-Regular, PingFang SC" font-size="10.8" font-weight="normal" fill="#4A4A4A">
                    <tspan x="486" y="196.4">支持多种数据格式转换</tspan>
                </text>
                <text id="读取订单相关数据" font-family="PingFangSC-Regular, PingFang SC" font-size="10.8" font-weight="normal" fill="#4A4A4A">
                    <tspan x="279" y="141.5">读取订单相关数据</tspan>
                </text>
                <text id="SAP异常处理" font-family="PingFangSC-Regular, PingFang SC" font-size="10.8" font-weight="normal" fill="#4A4A4A">
                    <tspan x="308.7" y="307.1">SAP异常处理</tspan>
                </text>
                <text id="调用SAP连接器-写入订单信息" font-family="PingFangSC-Regular, PingFang SC" font-size="10.8" font-weight="normal" fill="#4A4A4A">
                    <tspan x="464.7726" y="273.8">调用SAP连接器</tspan>
                    <tspan x="469.8" y="288.8">写入订单信息</tspan>
                </text>
                <text id="转换-数据格式" font-family="PingFangSC-Regular, PingFang SC" font-size="10.8" font-weight="normal" fill="#4A4A4A">
                    <tspan x="366.3" y="196.4">转换</tspan>
                    <tspan x="355.5" y="211.4">数据格式</tspan>
                </text>
                <text id="流程结束" font-family="PingFangSC-Regular, PingFang SC" font-size="10.8" font-weight="normal" fill="#4A4A4A">
                    <tspan x="480.6" y="355.7">流程结束</tspan>
                </text>
                <text id="合并数据" font-family="PingFangSC-Regular, PingFang SC" font-size="10.8" font-weight="normal" fill="#4A4A4A">
                    <tspan x="410.4" y="141.5">合并数据</tspan>
                </text>
                <text id="数据与老旧系统逻辑分离" font-family="PingFangSC-Regular, PingFang SC" font-size="10.8" font-weight="normal" fill="#4A4A4A">
                    <tspan x="373.5" y="71.3">数据与老旧系统逻辑分离</tspan>
                </text>
                <text id="调用Salesforce连接器-同步订单" font-family="PingFangSC-Regular, PingFang SC" font-size="10.8" font-weight="normal" fill="#4A4A4A">
                    <tspan x="487.8" y="141.5">调用Salesforce连接器</tspan>
                    <tspan x="487.8" y="156.5">同步订单信息</tspan>
                </text>
                <text id="消息队列" font-family="PingFangSC-Regular, PingFang SC" font-size="10.8" font-weight="normal" fill="#4A4A4A">
                    <tspan x="139.5" y="75.8">消息队列</tspan>
                </text>
                <rect id="Rectangle" x="0" y="0" width="630" height="405"></rect>
                <path id="Line-18" d="M127.452191,60.2253915 C125.312349,59.9899436 123.652191,58.0941503 123.652191,55.8 C123.652191,53.3473485 125.549672,51.35 127.902191,51.35 C130.25471,51.35 132.152191,53.3473485 132.152191,55.8 C132.152191,58.0941503 130.492033,59.9899436 128.352191,60.2253915 L128.352191,79.2810601 L132.152191,79.2810601 L127.902191,88.2810601 L123.652191,79.2810601 L127.452191,79.2810601 L127.452191,60.2253915 Z M127.902191,52.25 C126.057346,52.25 124.552191,53.8343735 124.552191,55.8 C124.552191,57.7656265 126.057346,59.35 127.902191,59.35 C129.747036,59.35 131.252191,57.7656265 131.252191,55.8 C131.252191,53.8343735 129.747036,52.25 127.902191,52.25 Z" fill="#979797" fill-rule="nonzero"></path>
                <path d="M522.237675,125.217941 C533.397095,125.217941 542.443593,116.171443 542.443593,105.012022 C542.443593,93.8526019 533.397095,84.8061041 522.237675,84.8061041 C511.078254,84.8061041 502.031756,93.8526019 502.031756,105.012022 C502.031756,116.171443 511.078254,125.217941 522.237675,125.217941 Z M522.237675,123.597941 C511.972955,123.597941 503.651756,115.276742 503.651756,105.012022 C503.651756,94.7473032 511.972955,86.4261041 522.237675,86.4261041 C532.502394,86.4261041 540.823593,94.7473032 540.823593,105.012022 C540.823593,115.276742 532.502394,123.597941 522.237675,123.597941 Z" id="Oval-8" fill="#F3BF25" fill-rule="nonzero"></path>
                <path d="M515.368287,97.3344715 L515.368287,114.3059 L529.107062,114.3059 L529.107062,97.3344715 L515.368287,97.3344715 Z M514.156042,96.1222266 L530.319307,96.1222266 L530.319307,115.518145 L514.156042,115.518145 L514.156042,96.1222266 Z M516.782573,104.4059 L516.782573,103.193655 L527.726392,103.193655 L527.726392,104.4059 L516.782573,104.4059 Z M516.782573,109.073539 L516.782573,107.861294 L527.726392,107.861294 L527.726392,109.073539 L516.782573,109.073539 Z M517.994817,94.3038592 L519.207062,94.3038592 L519.207062,99.8681965 L517.994817,99.8681965 L517.994817,94.3038592 Z M525.310561,94.3038592 L526.522806,94.3038592 L526.522806,99.8681965 L525.310561,99.8681965 L525.310561,94.3038592 Z" id="Rectangle-4" fill="#506773" fill-rule="nonzero"></path>
                <path id="Line-19" d="M163.725392,111.52735 C163.489944,113.667192 161.59415,115.32735 159.3,115.32735 C156.847349,115.32735 154.85,113.429869 154.85,111.07735 C154.85,108.724831 156.847349,106.82735 159.3,106.82735 C161.59415,106.82735 163.489944,108.487509 163.725392,110.62735 L182.510443,110.62735 L182.510443,106.82735 L191.510443,111.07735 L182.510443,115.32735 L182.510443,111.52735 L163.725392,111.52735 Z M155.75,111.07735 C155.75,112.922195 157.334373,114.42735 159.3,114.42735 C161.265627,114.42735 162.85,112.922195 162.85,111.07735 C162.85,109.232505 161.265627,107.72735 159.3,107.72735 C157.334373,107.72735 155.75,109.232505 155.75,111.07735 Z" fill="#979797" fill-rule="nonzero"></path>
                <path id="Line-19-Copy" d="M253.275392,111.52735 C253.039944,113.667192 251.14415,115.32735 248.85,115.32735 C246.397349,115.32735 244.4,113.429869 244.4,111.07735 C244.4,108.724831 246.397349,106.82735 248.85,106.82735 C251.14415,106.82735 253.039944,108.487509 253.275392,110.62735 L283.310443,110.62735 L283.310443,106.82735 L292.310443,111.07735 L283.310443,115.32735 L283.310443,111.52735 L253.275392,111.52735 Z M245.3,111.07735 C245.3,112.922195 246.884373,114.42735 248.85,114.42735 C250.815627,114.42735 252.4,112.922195 252.4,111.07735 C252.4,109.232505 250.815627,107.72735 248.85,107.72735 C246.884373,107.72735 245.3,109.232505 245.3,111.07735 Z" fill="#979797" fill-rule="nonzero"></path>
                <path id="Line-19-Copy-2" d="M357.675392,111.52735 C357.439944,113.667192 355.54415,115.32735 353.25,115.32735 C350.797349,115.32735 348.8,113.429869 348.8,111.07735 C348.8,108.724831 350.797349,106.82735 353.25,106.82735 C355.54415,106.82735 357.439944,108.487509 357.675392,110.62735 L387.710443,110.62735 L387.710443,106.82735 L396.710443,111.07735 L387.710443,115.32735 L387.710443,111.52735 L357.675392,111.52735 Z M349.7,111.07735 C349.7,112.922195 351.284373,114.42735 353.25,114.42735 C355.215627,114.42735 356.8,112.922195 356.8,111.07735 C356.8,109.232505 355.215627,107.72735 353.25,107.72735 C351.284373,107.72735 349.7,109.232505 349.7,111.07735 Z" fill="#979797" fill-rule="nonzero"></path>
                <path id="Line-19-Copy-9" d="M458.475392,111.52735 C458.239944,113.667192 456.34415,115.32735 454.05,115.32735 C451.597349,115.32735 449.6,113.429869 449.6,111.07735 C449.6,108.724831 451.597349,106.82735 454.05,106.82735 C456.34415,106.82735 458.239944,108.487509 458.475392,110.62735 L488.510443,110.62735 L488.510443,106.82735 L497.510443,111.07735 L488.510443,115.32735 L488.510443,111.52735 L458.475392,111.52735 Z M450.5,111.07735 C450.5,112.922195 452.084373,114.42735 454.05,114.42735 C456.015627,114.42735 457.6,112.922195 457.6,111.07735 C457.6,109.232505 456.015627,107.72735 454.05,107.72735 C452.084373,107.72735 450.5,109.232505 450.5,111.07735 Z" fill="#979797" fill-rule="nonzero"></path>
                <path id="Line-19-Copy-3" d="M363.975392,278.92735 C363.739944,281.067192 361.84415,282.72735 359.55,282.72735 C357.097349,282.72735 355.1,280.829869 355.1,278.47735 C355.1,276.124831 357.097349,274.22735 359.55,274.22735 C361.84415,274.22735 363.739944,275.887509 363.975392,278.02735 L394.010443,278.02735 L394.010443,274.22735 L403.010443,278.47735 L394.010443,282.72735 L394.010443,278.92735 L363.975392,278.92735 Z M356,278.47735 C356,280.322195 357.584373,281.82735 359.55,281.82735 C361.515627,281.82735 363.1,280.322195 363.1,278.47735 C363.1,276.632505 361.515627,275.12735 359.55,275.12735 C357.584373,275.12735 356,276.632505 356,278.47735 Z" fill="#979797" fill-rule="nonzero"></path>
                <path id="Line-19-Copy-8" d="M363.975392,357.22735 C363.739944,359.367192 361.84415,361.02735 359.55,361.02735 C357.097349,361.02735 355.1,359.129869 355.1,356.77735 C355.1,354.424831 357.097349,352.52735 359.55,352.52735 C361.84415,352.52735 363.739944,354.187509 363.975392,356.32735 L394.010443,356.32735 L394.010443,352.52735 L403.010443,356.77735 L394.010443,361.02735 L394.010443,357.22735 L363.975392,357.22735 Z M356,356.77735 C356,358.622195 357.584373,360.12735 359.55,360.12735 C361.515627,360.12735 363.1,358.622195 363.1,356.77735 C363.1,354.932505 361.515627,353.42735 359.55,353.42735 C357.584373,353.42735 356,354.932505 356,356.77735 Z" fill="#979797" fill-rule="nonzero"></path>
                <path id="Line-19-Copy-4" d="M428.4,154.202742 C426.260158,153.967294 424.6,152.071501 424.6,149.77735 C424.6,147.324699 426.497481,145.32735 428.85,145.32735 C431.202519,145.32735 433.1,147.324699 433.1,149.77735 C433.1,152.071501 431.439842,153.967294 429.3,154.202742 L429.3,168.35 L433.1,168.35 L428.85,177.35 L424.6,168.35 L428.4,168.35 L428.4,154.202742 Z M428.85,146.22735 C427.005155,146.22735 425.5,147.811724 425.5,149.77735 C425.5,151.742977 427.005155,153.32735 428.85,153.32735 C430.694845,153.32735 432.2,151.742977 432.2,149.77735 C432.2,147.811724 430.694845,146.22735 428.85,146.22735 Z" fill="#979797" fill-rule="nonzero"></path>
                <path id="Line-19-Copy-6" d="M428.4,232.502742 C426.260158,232.267294 424.6,230.371501 424.6,228.07735 C424.6,225.624699 426.497481,223.62735 428.85,223.62735 C431.202519,223.62735 433.1,225.624699 433.1,228.07735 C433.1,230.371501 431.439842,232.267294 429.3,232.502742 L429.3,246.65 L433.1,246.65 L428.85,255.65 L424.6,246.65 L428.4,246.65 L428.4,232.502742 Z M428.85,224.52735 C427.005155,224.52735 425.5,226.111724 425.5,228.07735 C425.5,230.042977 427.005155,231.62735 428.85,231.62735 C430.694845,231.62735 432.2,230.042977 432.2,228.07735 C432.2,226.111724 430.694845,224.52735 428.85,224.52735 Z" fill="#979797" fill-rule="nonzero"></path>
                <path id="Line-19-Copy-7" d="M428.4,309.902742 C426.260158,309.667294 424.6,307.771501 424.6,305.47735 C424.6,303.024699 426.497481,301.02735 428.85,301.02735 C431.202519,301.02735 433.1,303.024699 433.1,305.47735 C433.1,307.771501 431.439842,309.667294 429.3,309.902742 L429.3,324.05 L433.1,324.05 L428.85,333.05 L424.6,324.05 L428.4,324.05 L428.4,309.902742 Z M428.85,301.92735 C427.005155,301.92735 425.5,303.511724 425.5,305.47735 C425.5,307.442977 427.005155,309.02735 428.85,309.02735 C430.694845,309.02735 432.2,307.442977 432.2,305.47735 C432.2,303.511724 430.694845,301.92735 428.85,301.92735 Z" fill="#979797" fill-rule="nonzero"></path>
                <path id="Line-19-Copy-5" d="M405.370176,159.529967 C404.586896,157.524767 405.49716,155.174963 407.52995,154.11153 C409.703184,152.974625 412.352546,153.730083 413.443036,155.814592 C414.533525,157.899101 413.643284,160.506266 411.47005,161.643171 C409.43726,162.706604 406.987892,162.114356 405.787363,160.327435 L279.540234,226.372309 L281.301691,229.739396 L271.356962,230.145446 L277.361591,222.207755 L279.123047,225.574842 L405.370176,159.529967 Z M406.529437,159.817843 C407.471503,161.226751 409.420284,161.699769 411.052863,160.845703 C412.794556,159.934554 413.500729,157.866451 412.645568,156.231779 C411.790406,154.597107 409.68883,153.997849 407.947137,154.908998 C406.314559,155.763064 405.591816,157.633663 406.211963,159.210979 L406.529437,159.817843 Z" fill="#979797" fill-rule="nonzero"></path>
                <path d="M427.95,297.81 C439.084061,297.81 448.11,288.784061 448.11,277.65 C448.11,266.515939 439.084061,257.49 427.95,257.49 C416.815939,257.49 407.79,266.515939 407.79,277.65 C407.79,288.784061 416.815939,297.81 427.95,297.81 Z M427.95,296.19 C417.710641,296.19 409.41,287.889359 409.41,277.65 C409.41,267.410641 417.710641,259.11 427.95,259.11 C438.189359,259.11 446.49,267.410641 446.49,277.65 C446.49,287.889359 438.189359,296.19 427.95,296.19 Z" id="Oval-8" fill="#5F67FA" fill-rule="nonzero"></path>
                <polygon id="Path" fill="#506773" points="436.81875 271.656377 436.81875 272.8125 430.36875 272.8125 430.36875 266.3625 431.524873 266.3625 431.524873 271.656377"></polygon>
                <path d="M436.556476,282.85901 L437.472791,282.137265 L439.2375,284.405239 L437.514986,287.325 L436.514281,286.727379 L437.830482,284.496342 L436.556476,282.85901 Z M436.543131,272.701935 L436.543131,280.71301 C436.543131,281.03436 436.803637,281.294866 437.124987,281.294866 L437.124987,281.294866 C437.446337,281.294866 437.706843,281.03436 437.706843,280.71301 L437.706843,272.220001 L431.936495,266.3625 L421.414872,266.3625 C420.571328,266.3625 419.8875,267.050516 419.8875,267.899227 L419.8875,285.690837 C419.8875,286.539548 420.571328,287.227564 421.414872,287.227564 L433.885092,287.227564 C434.208411,287.227564 434.470512,286.965463 434.470512,286.642144 L434.470512,286.642144 C434.470512,286.318826 434.208411,286.056724 433.885092,286.056724 L421.414872,286.056724 C421.214028,286.056724 421.051212,285.892911 421.051212,285.690837 L421.051212,267.899227 C421.051212,267.697153 421.214028,267.53334 421.414872,267.53334 L431.451438,267.53334 L436.543131,272.701935 Z M422.61495,273.350951 L422.61495,272.180111 L429.888152,272.180111 L429.888152,273.350951 L422.61495,273.350951 Z M422.61495,283.083557 L422.61495,281.912717 L431.924648,281.912717 L431.924648,283.083557 L422.61495,283.083557 Z M422.61495,276.47928 L422.61495,275.30844 L434.979525,275.30844 L434.979525,276.47928 L422.61495,276.47928 Z M422.61495,279.655988 L422.61495,278.485149 L434.979525,278.485149 L434.979525,279.655988 L422.61495,279.655988 Z M432.479408,285.062678 L432.479408,283.891838 L438.734361,283.891838 L438.734361,285.062678 L432.479408,285.062678 Z" id="Path-5" fill="#506773" fill-rule="nonzero"></path>
                <path d="M350.417725,268.424987 L338.275639,268.424987 L337.203024,266.309814 C336.950388,265.812786 336.442268,265.5 335.877034,265.5 L328.182275,265.5 C327.365144,265.5 326.7,266.154136 326.7,266.958201 L326.7,285.192333 C326.7,287.203288 328.177186,288.839332 330.220556,288.839332 C330.345727,288.839332 330.405847,288.832906 330.405847,288.821459 L330.405847,288.9 L348.19418,288.9 C350.236758,288.9 351.9,287.263982 351.9,285.253028 L351.9,269.87606 C351.900026,269.071293 351.234144,268.424987 350.417725,268.424987 Z M350.417725,285.253028 C350.417725,286.459163 349.420312,287.43748 348.194206,287.43748 L333.321299,287.43748 C333.81634,286.706286 334.111693,286.04 334.111693,285.192333 L334.111693,277.931273 L350.417751,277.931273 L350.417751,285.253028 L350.417725,285.253028 Z M332.629339,276.468779 L332.629339,285.192333 C332.629339,286.399198 331.6319,287.38035 330.405873,287.38035 C329.179741,287.38035 328.182302,286.399171 328.182302,285.192333 L328.182302,266.96252 L335.877034,266.96252 L336.949649,269.077719 C337.202285,269.574018 337.709667,269.887506 338.275639,269.887506 L350.417751,269.887506 L350.417751,276.468779 L332.629339,276.468779 Z" id="Shape" fill="#506773" fill-rule="nonzero"></path>
                <path d="M352.217725,347.624987 L340.075639,347.624987 L339.003024,345.509814 C338.750388,345.012786 338.242268,344.7 337.677034,344.7 L329.982275,344.7 C329.165144,344.7 328.5,345.354136 328.5,346.158201 L328.5,364.392333 C328.5,366.403288 329.977186,368.039332 332.020556,368.039332 C332.145727,368.039332 332.205847,368.032906 332.205847,368.021459 L332.205847,368.1 L349.99418,368.1 C352.036758,368.1 353.7,366.463982 353.7,364.453028 L353.7,349.07606 C353.700026,348.271293 353.034144,347.624987 352.217725,347.624987 Z M352.217725,364.453028 C352.217725,365.659163 351.220312,366.63748 349.994206,366.63748 L335.121299,366.63748 C335.61634,365.906286 335.911693,365.24 335.911693,364.392333 L335.911693,357.131273 L352.217751,357.131273 L352.217751,364.453028 L352.217725,364.453028 Z M334.429339,355.668779 L334.429339,364.392333 C334.429339,365.599198 333.4319,366.58035 332.205873,366.58035 C330.979741,366.58035 329.982302,365.599171 329.982302,364.392333 L329.982302,346.16252 L337.677034,346.16252 L338.749649,348.277719 C339.002285,348.774018 339.509667,349.087506 340.075639,349.087506 L352.217751,349.087506 L352.217751,355.668779 L334.429339,355.668779 Z" id="Shape" fill="#506773" fill-rule="nonzero"></path>
                <use id="Rectangle" stroke="#979797" mask="url(#mask-2)" stroke-width="1.8" stroke-dasharray="1.8,2.7" xlink:href="#path-1"></use>
                <path d="M63.2376746,333.117941 C74.3970952,333.117941 83.443593,324.071443 83.443593,312.912022 C83.443593,301.752602 74.3970952,292.706104 63.2376746,292.706104 C52.078254,292.706104 43.0317562,301.752602 43.0317562,312.912022 C43.0317562,324.071443 52.078254,333.117941 63.2376746,333.117941 Z M63.2376746,331.497941 C52.9729553,331.497941 44.6517562,323.176742 44.6517562,312.912022 C44.6517562,302.647303 52.9729553,294.326104 63.2376746,294.326104 C73.5023939,294.326104 81.823593,302.647303 81.823593,312.912022 C81.823593,323.176742 73.5023939,331.497941 63.2376746,331.497941 Z" id="Oval-8" fill="#178CEB" fill-rule="nonzero"></path>
                <path d="M68.7329546,308.925425 L68.0193631,309.142766 L67.9056124,308.405534 C67.4774428,305.630515 65.0781155,303.555054 62.2403942,303.555054 C59.0743819,303.555054 56.5078219,306.121614 56.5078219,309.287626 C56.5078219,309.55001 56.5254068,309.810012 56.560214,310.066518 L56.6878326,311.006983 L55.7659309,310.781468 C55.4267229,310.698491 55.0765184,310.656117 54.7202332,310.656117 C52.2993648,310.656117 50.3368631,312.618619 50.3368631,315.039487 C50.3368631,317.460355 52.2993648,319.422857 54.7202332,319.422857 C54.7854196,319.422857 54.8504155,319.421439 54.9435984,319.417995 L70.2984958,319.422857 C73.2613052,319.422857 75.6631369,317.021026 75.6631369,314.058216 C75.6631369,311.095407 73.2613052,308.693575 70.2984958,308.693575 C69.7614552,308.693575 69.2357196,308.772296 68.7329546,308.925425 Z M70.2984958,307.400514 C73.9754432,307.400514 76.9561981,310.381269 76.9561981,314.058216 C76.9561981,317.735163 73.9754432,320.715918 70.2982911,320.715918 L54.9715936,320.710441 C54.8880284,320.71409 54.804228,320.715918 54.7202332,320.715918 C51.5852268,320.715918 49.0438019,318.174493 49.0438019,315.039487 C49.0438019,311.904481 51.5852268,309.363056 54.7202332,309.363056 C54.8862732,309.363056 55.0514451,309.370202 55.2154147,309.384393 C55.2149788,309.352164 55.2147606,309.319908 55.2147606,309.287626 C55.2147606,305.407476 58.3602439,302.261993 62.2403942,302.261993 C65.4793422,302.261993 68.251615,304.467416 69.041597,307.519102 C69.4527511,307.4405 69.8730905,307.400514 70.2984958,307.400514 Z M64.9828969,313.329185 L63.7015814,313.155294 C64.1467745,309.874877 66.9578728,307.400514 70.2984958,307.400514 L70.2984958,308.693575 C67.6069295,308.693575 65.3413728,310.687746 64.9828969,313.329185 Z M54.9151939,319.418611 L54.9715936,320.710441 C54.8880284,320.71409 54.804228,320.715918 54.7202332,320.715918 L54.7202332,319.422857 C54.7854196,319.422857 54.8504155,319.421439 54.9151939,319.418611 Z" id="Combined-Shape" fill="#506773" fill-rule="nonzero"></path>
                <path d="M121.05,332.91 C132.184061,332.91 141.21,323.884061 141.21,312.75 C141.21,301.615939 132.184061,292.59 121.05,292.59 C109.915939,292.59 100.89,301.615939 100.89,312.75 C100.89,323.884061 109.915939,332.91 121.05,332.91 Z M121.05,331.29 C110.810641,331.29 102.51,322.989359 102.51,312.75 C102.51,302.510641 110.810641,294.21 121.05,294.21 C131.289359,294.21 139.59,302.510641 139.59,312.75 C139.59,322.989359 131.289359,331.29 121.05,331.29 Z" id="Oval-8" fill="#1DBD65" fill-rule="nonzero"></path>
                <path d="M127.706243,312.194819 C126.270649,313.083615 123.695673,313.601377 120.75916,313.601377 C117.824545,313.601377 115.251001,313.084285 113.814863,312.196543 L113.814863,315.508167 L113.8204,315.508167 C113.8204,316.380389 116.925501,317.414958 120.75916,317.414958 C124.592819,317.414958 127.69792,316.380389 127.69792,315.508167 L127.706243,315.508167 L127.706243,312.194819 Z M120.75916,318.629958 C117.824545,318.629958 115.251001,318.112866 113.814863,317.225124 L113.814863,319.562391 L113.8204,319.562391 L113.8204,320.169891 C113.8204,321.042112 116.925501,322.076681 120.75916,322.076681 C124.592819,322.076681 127.69792,321.042112 127.69792,320.169891 L127.69792,319.562391 L127.706243,319.562391 L127.706243,317.2234 C126.270649,318.112197 123.695673,318.629958 120.75916,318.629958 Z M127.706243,307.533095 C126.270649,308.421892 123.695673,308.939653 120.75916,308.939653 C117.824545,308.939653 115.251001,308.422561 113.814863,307.534819 L113.814863,310.479586 L113.8204,310.479586 C113.8204,311.351808 116.925501,312.386377 120.75916,312.386377 C124.592819,312.386377 127.69792,311.351808 127.69792,310.479586 L127.706243,310.479586 L127.706243,307.533095 Z M128.921243,305.817862 L128.921243,320.777391 L128.802469,320.777391 C128.161024,322.357872 124.802877,323.339681 120.75916,323.339681 C116.715443,323.339681 113.357295,322.357872 112.715851,320.777391 L112.599863,320.777391 L112.599863,305.817862 L112.6054,305.817862 C112.6054,303.912875 116.25745,302.696072 120.75916,302.696072 C125.260869,302.696072 128.91292,303.912875 128.91292,305.817862 L128.921243,305.817862 Z M120.75916,307.724653 C124.592819,307.724653 127.69792,306.690084 127.69792,305.817862 C127.69792,304.945641 124.592819,303.911072 120.75916,303.911072 C116.925501,303.911072 113.8204,304.945641 113.8204,305.817862 C113.8204,306.690084 116.925501,307.724653 120.75916,307.724653 Z" id="Combined-Shape" fill="#506773" fill-rule="nonzero"></path>
                <path d="M180.45,332.91 C191.584061,332.91 200.61,323.884061 200.61,312.75 C200.61,301.615939 191.584061,292.59 180.45,292.59 C169.315939,292.59 160.29,301.615939 160.29,312.75 C160.29,323.884061 169.315939,332.91 180.45,332.91 Z M180.45,331.29 C170.210641,331.29 161.91,322.989359 161.91,312.75 C161.91,302.510641 170.210641,294.21 180.45,294.21 C190.689359,294.21 198.99,302.510641 198.99,312.75 C198.99,322.989359 190.689359,331.29 180.45,331.29 Z" id="Oval-8" fill="#F3BF25" fill-rule="nonzero"></path>
                <path d="M180.250792,306.945 C179.742468,306.945 179.271196,306.67904 179.008448,306.243888 L178.018361,304.604151 C177.989167,304.555801 177.936803,304.52625 177.880323,304.52625 L171.58125,304.52625 C171.492194,304.52625 171.42,304.598444 171.42,304.6875 L171.42,319.2 C171.42,320.179615 172.214135,320.97375 173.19375,320.97375 L187.70625,320.97375 C188.685865,320.97375 189.48,320.179615 189.48,319.2 L189.48,307.10625 C189.48,307.017194 189.407806,306.945 189.31875,306.945 L180.250792,306.945 Z M180.250792,305.655 L189.31875,305.655 C190.120253,305.655 190.77,306.304747 190.77,307.10625 L190.77,319.2 C190.77,320.892062 189.398312,322.26375 187.70625,322.26375 L173.19375,322.26375 C171.501688,322.26375 170.13,320.892062 170.13,319.2 L170.13,304.6875 C170.13,303.885997 170.779747,303.23625 171.58125,303.23625 L177.880323,303.23625 C178.388647,303.23625 178.859919,303.50221 179.122667,303.937362 L180.112754,305.577099 C180.141948,305.625449 180.194312,305.655 180.250792,305.655 Z M173.19375,322.26375 L173.19375,320.97375 C174.173365,320.97375 174.9675,320.179615 174.9675,319.2 L174.9675,310.983708 L189.721875,310.983708 L189.721875,312.273708 L176.2575,312.273708 L176.2575,319.2 C176.2575,319.861043 176.048146,320.473188 175.692124,320.97375 L186.3423,320.97375 L186.3423,322.26375 L173.19375,322.26375 L173.19375,320.97375 L175.692124,320.97375 C175.136841,321.75447 174.22477,322.26375 173.19375,322.26375 Z" id="Combined-Shape" fill="#506773" fill-rule="nonzero"></path>
                <path d="M236.037675,333.117941 C247.197095,333.117941 256.243593,324.071443 256.243593,312.912022 C256.243593,301.752602 247.197095,292.706104 236.037675,292.706104 C224.878254,292.706104 215.831756,301.752602 215.831756,312.912022 C215.831756,324.071443 224.878254,333.117941 236.037675,333.117941 Z M236.037675,331.497941 C225.772955,331.497941 217.451756,323.176742 217.451756,312.912022 C217.451756,302.647303 225.772955,294.326104 236.037675,294.326104 C246.302394,294.326104 254.623593,302.647303 254.623593,312.912022 C254.623593,323.176742 246.302394,331.497941 236.037675,331.497941 Z" id="Oval-8" fill="#7EC257" fill-rule="nonzero"></path>
                <path d="M245.693539,315.686188 C245.597905,315.686188 245.504738,315.696277 245.413204,315.711218 L241.430333,309.005435 C241.810912,308.549803 242.043702,307.952384 242.043702,307.295892 C242.043702,305.87004 240.954409,304.714286 239.610549,304.714286 C238.26669,304.714286 237.177397,305.87004 237.177397,307.295892 C237.177397,308.127905 237.549883,308.865996 238.126123,309.338225 L233.673825,318.230133 C233.471667,318.172331 233.260181,318.138752 233.040965,318.138752 C232.636831,318.138752 232.256252,318.244881 231.920968,318.429991 L228.23059,313.795423 C228.432452,313.476702 228.540048,313.101302 228.539597,312.717303 C228.539597,311.648 227.722509,310.781098 226.714697,310.781098 C225.706884,310.781098 224.889796,311.648 224.889796,312.717303 C224.889796,313.786643 225.706884,314.653507 226.714697,314.653507 C226.897155,314.653625 227.078594,314.624651 227.252937,314.567556 L231.014633,319.292003 C230.748811,319.714936 230.607242,320.212047 230.607849,320.720396 C230.607849,322.146248 231.697142,323.302041 233.041002,323.302041 C234.384825,323.302041 235.474154,322.146248 235.474154,320.720435 C235.474154,319.992625 235.189246,319.336403 234.732558,318.867062 L239.249279,309.846075 C239.367488,309.864674 239.487476,309.877613 239.610586,309.877613 C239.895276,309.877613 240.167336,309.823124 240.421322,309.727584 L244.340461,316.326468 C244.048222,316.669847 243.868675,317.123438 243.868675,317.622469 C243.868675,318.69181 244.685726,319.558674 245.693539,319.558674 C246.701425,319.558674 247.518367,318.69181 247.518367,317.622469 C247.518367,316.55309 246.701389,315.686265 245.693503,315.686265 L245.693539,315.686188 Z" id="Shape" fill="#506773" fill-rule="nonzero"></path>
                <g id="Group-43-Copy" transform="translate(109.800000, 9.900000)" stroke="#178CEB" stroke-width="1.62">
                    <g id="Group-35">
                        <g id="Group-31-Copy-5">
                            <g id="Group-30-Copy-2">
                                <g id="Group-29-Copy-3">
                                    <circle id="Oval-8" cx="19.35" cy="19.35" r="19.35"></circle>
                                </g>
                            </g>
                        </g>
                    </g>
                </g>
                <g id="网络" transform="translate(117.862500, 18.768750)" fill="#506773" fill-rule="nonzero">
                    <path d="M10.8843523,4.53084052e-05 C4.89795856,4.53084052e-05 0,4.84860602 0,10.884375 C0,16.92028 4.89795856,21.7687047 10.8843523,21.7687047 C13.7736115,21.7770473 16.546939,20.632988 18.5899623,18.5899689 C20.6329856,16.5469499 21.7770473,13.7736282 21.7687047,10.884375 C21.7770473,7.99512183 20.6329856,5.22180011 18.5899623,3.17878108 C16.546939,1.13576205 13.7736115,-0.00829732407 10.8843523,4.53084052e-05 Z M7.9653051,1.43473602 L7.37156368,2.17691125 C7.37156368,2.22643495 7.32203988,2.22643495 7.32203988,2.27595865 C6.92625762,2.82017513 6.5798631,3.46330296 6.28312845,4.15595449 C6.28312845,4.20534214 6.2337407,4.25486584 6.2337407,4.25486584 C6.2337407,4.30438954 6.18421689,4.35391324 6.18421689,4.40330089 C5.59047547,4.10643079 5.04639391,3.76017305 4.55156404,3.36439162 C5.49169998,2.47364528 6.67904676,1.83051745 7.9653051,1.43473602 Z M3.75999952,4.00751945 C4.35374094,4.50221223 4.99687011,4.94751737 5.78843463,5.29377511 C5.78843463,5.34329881 5.73891083,5.39282251 5.73891083,5.39282251 C5.49156392,6.13499774 5.29360476,6.97608432 5.19469321,7.81703484 C5.19469321,7.91608224 5.14516941,8.01499359 5.14516941,8.16342863 C5.09564561,8.50968637 5.04625786,8.80655646 5.04625786,9.1528142 C5.04625786,9.30124925 5.04625786,9.40016059 4.99673405,9.54859564 C4.99673405,9.84546573 4.99673405,10.0928121 4.94721025,10.3896822 L0.989387628,10.3896822 C1.13782298,7.91594618 2.17687047,5.68955655 3.75999952,4.00751945 Z M0.989387628,11.3790678 L4.9473463,11.3790678 C4.9473463,11.6759379 4.9473463,11.9726719 4.99687011,12.2202904 C4.99687011,12.3687255 4.99687011,12.4676368 5.04639391,12.6160719 C5.09578166,12.9623296 5.09578166,13.2593357 5.14530546,13.6053214 C5.14530546,13.7045048 5.19482927,13.8034162 5.19482927,13.9518512 C5.34326462,14.7928017 5.54108772,15.6338883 5.73904688,16.3760635 C5.73904688,16.4253151 5.78857069,16.4751109 5.78857069,16.4751109 C5.06033675,16.8155446 4.37865637,17.2477608 3.76013557,17.7612306 C2.17687047,16.0791935 1.13782298,13.8528038 0.989387628,11.3790678 Z M4.50217629,18.4044944 C4.99687011,18.008713 5.54108772,17.6624553 6.13482915,17.3654491 C6.13482915,17.4148368 6.18421689,17.4643605 6.18421689,17.5140202 C6.18421689,17.5632718 6.2337407,17.6127955 6.2337407,17.6127955 C6.53061141,18.3055831 6.87686987,18.9485749 7.27265213,19.4929274 C7.27265213,19.542179 7.32203988,19.542179 7.32203988,19.5919748 L7.9157813,20.334014 C6.67904676,19.9382325 5.49169998,19.2951047 4.50217629,18.4044944 Z M10.3896585,20.7296594 C9.00435259,20.4327893 7.81686975,19.0476223 7.02530522,17.0191914 C8.06421665,16.623546 9.20217569,16.4254512 10.3896585,16.3760635 L10.3896585,20.7296594 Z M10.3896585,15.3371543 C9.05387639,15.3865419 7.81686975,15.6340244 6.67904676,16.0299419 C6.23387675,14.6443667 5.98639379,13.061513 5.93686999,11.3296801 L10.3896585,11.3296801 L10.3896585,15.3371543 L10.3896585,15.3371543 Z M10.3896585,10.3896822 L5.93686999,10.3896822 C5.98639379,8.65798536 6.2337407,7.07485961 6.67904676,5.68955655 C7.81686975,6.08533798 9.05387639,6.33268438 10.3896585,6.38220808 L10.3896585,10.3896822 L10.3896585,10.3896822 Z M10.3896585,5.44221015 C9.2425842,5.39529949 8.10880466,5.17856685 7.02530522,4.79908232 C7.81686975,2.72112773 9.05374034,1.33582467 10.3896585,1.08847828 L10.3896585,5.44221015 Z M20.7794531,10.3896822 L16.8213584,10.3896822 C16.8213584,10.0928121 16.8213584,9.79594203 16.7719706,9.54859564 C16.7719706,9.40016059 16.7719706,9.30124925 16.7223108,9.1528142 C16.6730591,8.80655646 16.6730591,8.50968637 16.6235353,8.16342863 C16.6235353,8.06438123 16.5738754,7.96546988 16.5738754,7.81703484 C16.4254401,6.97608432 16.227617,6.13499774 16.0299299,5.39282251 C16.0299299,5.34329881 15.9802701,5.29377511 15.9802701,5.29377511 C16.7085337,4.95326331 17.3902551,4.52100441 18.0088412,4.00751945 C19.5919703,5.68955655 20.6310178,7.91594618 20.7794531,10.3896822 L20.7794531,10.3896822 Z M17.2665284,3.36425556 C16.7718346,3.760037 16.2274809,4.10643079 15.6338755,4.40316483 C15.6338755,4.35377719 15.5844878,4.30425348 15.5844878,4.25472978 C15.5844878,4.20520608 15.534964,4.15581844 15.534964,4.15581844 C15.2380933,3.46316691 14.8918348,2.82003908 14.4959165,2.27582259 C14.4959165,2.22629889 14.4465288,2.22629889 14.4465288,2.17677519 L13.8529234,1.43459996 C15.0895219,1.83051745 16.2770047,2.47364528 17.2665284,3.36425556 L17.2665284,3.36425556 Z M11.3790462,1.03895458 C12.7644882,1.33582467 13.9518349,2.72099168 14.7433995,4.74955862 C13.704488,5.14534006 12.566529,5.34316275 11.3790462,5.39268645 L11.3790462,1.03895458 Z M11.3790462,6.43159572 C12.7148283,6.38220808 13.9518349,6.13472563 15.0895219,5.73894419 C15.534964,7.12438331 15.7823109,8.70750906 15.8316987,10.4390699 L11.3789101,10.4390699 L11.3789101,6.43159572 L11.3790462,6.43159572 Z M11.3790462,11.3790678 L15.8318347,11.3790678 C15.782447,13.1107646 15.534964,14.6940264 15.0896579,16.0791935 C13.951971,15.683412 12.7149644,15.4360656 11.3791822,15.3865419 L11.3791822,11.3790678 L11.3790462,11.3790678 Z M11.3790462,20.7296594 L11.3790462,16.3266759 C12.5261221,16.3735726 13.6599037,16.5903056 14.7433995,16.9698037 C13.9518349,19.0476223 12.7643521,20.4329253 11.3790462,20.7296594 L11.3790462,20.7296594 Z M13.8033996,20.334014 C14.0012227,20.0866676 14.1990458,19.8391851 14.397005,19.5919748 C14.397005,19.5423151 14.4463927,19.5423151 14.4463927,19.4929274 C14.842311,18.9485749 15.1885695,18.305447 15.4854402,17.6127955 C15.4854402,17.5634079 15.5348279,17.5140202 15.5348279,17.5140202 C15.5348279,17.4643605 15.5843517,17.4148368 15.5843517,17.3654491 C16.1780932,17.6624553 16.7220387,18.008713 17.2170046,18.4044944 C16.2770047,19.2951047 15.0895219,19.9382325 13.8033996,20.334014 Z M18.0087052,17.7612306 C17.4149638,17.2665378 16.7718346,16.8213687 15.980134,16.4751109 C15.980134,16.4254512 16.0297939,16.3760635 16.0297939,16.3760635 C16.2768687,15.6338883 16.4749639,14.7926657 16.5737394,13.9518512 C16.5737394,13.8528038 16.6233992,13.7538925 16.6233992,13.6053214 C16.672787,13.2591997 16.7221747,12.9621935 16.7221747,12.6160719 C16.7221747,12.4676368 16.7221747,12.3687255 16.7718346,12.2202904 C16.7718346,11.9234203 16.7718346,11.6759379 16.8212223,11.3790678 L20.7793171,11.3790678 C20.6310178,13.8528038 19.5919703,16.0791935 18.0087052,17.7612306 L18.0087052,17.7612306 Z" id="Shape"></path>
                </g>
                <path d="M217.35,129.51 C228.484061,129.51 237.51,120.484061 237.51,109.35 C237.51,98.2159394 228.484061,89.19 217.35,89.19 C206.215939,89.19 197.19,98.2159394 197.19,109.35 C197.19,120.484061 206.215939,129.51 217.35,129.51 Z M217.35,127.89 C207.110641,127.89 198.81,119.589359 198.81,109.35 C198.81,99.1106407 207.110641,90.81 217.35,90.81 C227.589359,90.81 235.89,99.1106407 235.89,109.35 C235.89,119.589359 227.589359,127.89 217.35,127.89 Z" id="Oval-8" fill="#1DBD65" fill-rule="nonzero"></path>
                <path d="M224.006243,108.794819 C222.570649,109.683615 219.995673,110.201377 217.05916,110.201377 C214.124545,110.201377 211.551001,109.684285 210.114863,108.796543 L210.114863,112.108167 L210.1204,112.108167 C210.1204,112.980389 213.225501,114.014958 217.05916,114.014958 C220.892819,114.014958 223.99792,112.980389 223.99792,112.108167 L224.006243,112.108167 L224.006243,108.794819 Z M217.05916,115.229958 C214.124545,115.229958 211.551001,114.712866 210.114863,113.825124 L210.114863,116.162391 L210.1204,116.162391 L210.1204,116.769891 C210.1204,117.642112 213.225501,118.676681 217.05916,118.676681 C220.892819,118.676681 223.99792,117.642112 223.99792,116.769891 L223.99792,116.162391 L224.006243,116.162391 L224.006243,113.8234 C222.570649,114.712197 219.995673,115.229958 217.05916,115.229958 Z M224.006243,104.133095 C222.570649,105.021892 219.995673,105.539653 217.05916,105.539653 C214.124545,105.539653 211.551001,105.022561 210.114863,104.134819 L210.114863,107.079586 L210.1204,107.079586 C210.1204,107.951808 213.225501,108.986377 217.05916,108.986377 C220.892819,108.986377 223.99792,107.951808 223.99792,107.079586 L224.006243,107.079586 L224.006243,104.133095 Z M225.221243,102.417863 L225.221243,117.377391 L225.102469,117.377391 C224.461024,118.957872 221.102877,119.939681 217.05916,119.939681 C213.015443,119.939681 209.657295,118.957872 209.015851,117.377391 L208.899863,117.377391 L208.899863,102.417863 L208.9054,102.417863 C208.9054,100.512875 212.55745,99.2960719 217.05916,99.2960719 C221.560869,99.2960719 225.21292,100.512875 225.21292,102.417863 L225.221243,102.417863 Z M217.05916,104.324653 C220.892819,104.324653 223.99792,103.290084 223.99792,102.417863 C223.99792,101.545641 220.892819,100.511072 217.05916,100.511072 C213.225501,100.511072 210.1204,101.545641 210.1204,102.417863 C210.1204,103.290084 213.225501,104.324653 217.05916,104.324653 Z" id="Combined-Shape" fill="#506773" fill-rule="nonzero"></path>
                <path d="M321.028357,129.663916 C332.187777,129.663916 341.234275,120.617419 341.234275,109.457998 C341.234275,98.2985774 332.187777,89.2520796 321.028357,89.2520796 C309.868936,89.2520796 300.822438,98.2985774 300.822438,109.457998 C300.822438,120.617419 309.868936,129.663916 321.028357,129.663916 Z M321.028357,128.043916 C310.763637,128.043916 302.442438,119.722717 302.442438,109.457998 C302.442438,99.1932787 310.763637,90.8720796 321.028357,90.8720796 C331.293076,90.8720796 339.614275,99.1932787 339.614275,109.457998 C339.614275,119.722717 331.293076,128.043916 321.028357,128.043916 Z" id="Oval-8" fill="#394A5E" fill-rule="nonzero"></path>
                <path d="M314.833432,106.039921 L314.833432,112.319193 C314.833432,113.055648 315.430446,113.652662 316.166901,113.652662 L327.16937,113.652662 L327.16937,107.373391 C327.16937,106.636936 326.572356,106.039921 325.835901,106.039921 L314.833432,106.039921 Z M313.499962,104.706452 L325.835901,104.706452 C327.308811,104.706452 328.50284,105.900481 328.50284,107.373391 L328.50284,114.986132 L316.166901,114.986132 C314.693992,114.986132 313.499962,113.792102 313.499962,112.319193 L313.499962,104.706452 Z M314.828794,106.365306 L313.495325,106.365306 L313.495325,102.699949 L314.828794,102.699949 L314.828794,106.365306 Z M328.497349,116.43677 L327.16388,116.43677 L327.16388,112.771414 L328.497349,112.771414 L328.497349,116.43677 Z M314.228571,103.472588 C313.123889,103.472588 312.228367,102.577066 312.228367,101.472384 C312.228367,100.367702 313.123889,99.4721802 314.228571,99.4721802 C315.333254,99.4721802 316.228776,100.367702 316.228776,101.472384 C316.228776,102.577066 315.333254,103.472588 314.228571,103.472588 Z M314.228571,102.139119 C314.596799,102.139119 314.895306,101.840612 314.895306,101.472384 C314.895306,101.104157 314.596799,100.80565 314.228571,100.80565 C313.860344,100.80565 313.561837,101.104157 313.561837,101.472384 C313.561837,101.840612 313.860344,102.139119 314.228571,102.139119 Z M327.830614,119.677878 C326.725932,119.677878 325.83041,118.782357 325.83041,117.677674 C325.83041,116.572992 326.725932,115.67747 327.830614,115.67747 C328.935297,115.67747 329.830818,116.572992 329.830818,117.677674 C329.830818,118.782357 328.935297,119.677878 327.830614,119.677878 Z M327.830614,118.344409 C328.198842,118.344409 328.497349,118.045902 328.497349,117.677674 C328.497349,117.309447 328.198842,117.01094 327.830614,117.01094 C327.462387,117.01094 327.16388,117.309447 327.16388,117.677674 C327.16388,118.045902 327.462387,118.344409 327.830614,118.344409 Z" id="Rectangle-5" fill="#506773" fill-rule="nonzero"></path>
                <path d="M429.928357,376.263916 C441.087777,376.263916 450.134275,367.217419 450.134275,356.057998 C450.134275,344.898577 441.087777,335.85208 429.928357,335.85208 C418.768936,335.85208 409.722438,344.898577 409.722438,356.057998 C409.722438,367.217419 418.768936,376.263916 429.928357,376.263916 Z M429.928357,374.643916 C419.663637,374.643916 411.342438,366.322717 411.342438,356.057998 C411.342438,345.793279 419.663637,337.47208 429.928357,337.47208 C440.193076,337.47208 448.514275,345.793279 448.514275,356.057998 C448.514275,366.322717 440.193076,374.643916 429.928357,374.643916 Z" id="Oval-8" fill="#394A5E" fill-rule="nonzero"></path>
                <path d="M423.733432,352.639921 L423.733432,358.919193 C423.733432,359.655648 424.330446,360.252662 425.066901,360.252662 L436.06937,360.252662 L436.06937,353.973391 C436.06937,353.236936 435.472356,352.639921 434.735901,352.639921 L423.733432,352.639921 Z M422.399962,351.306452 L434.735901,351.306452 C436.208811,351.306452 437.40284,352.500481 437.40284,353.973391 L437.40284,361.586132 L425.066901,361.586132 C423.593992,361.586132 422.399962,360.392102 422.399962,358.919193 L422.399962,351.306452 Z M423.728794,352.965306 L422.395325,352.965306 L422.395325,349.299949 L423.728794,349.299949 L423.728794,352.965306 Z M437.397349,363.03677 L436.06388,363.03677 L436.06388,359.371414 L437.397349,359.371414 L437.397349,363.03677 Z M423.128571,350.072588 C422.023889,350.072588 421.128367,349.177066 421.128367,348.072384 C421.128367,346.967702 422.023889,346.07218 423.128571,346.07218 C424.233254,346.07218 425.128776,346.967702 425.128776,348.072384 C425.128776,349.177066 424.233254,350.072588 423.128571,350.072588 Z M423.128571,348.739119 C423.496799,348.739119 423.795306,348.440612 423.795306,348.072384 C423.795306,347.704157 423.496799,347.40565 423.128571,347.40565 C422.760344,347.40565 422.461837,347.704157 422.461837,348.072384 C422.461837,348.440612 422.760344,348.739119 423.128571,348.739119 Z M436.730614,366.277878 C435.625932,366.277878 434.73041,365.382357 434.73041,364.277674 C434.73041,363.172992 435.625932,362.27747 436.730614,362.27747 C437.835297,362.27747 438.730818,363.172992 438.730818,364.277674 C438.730818,365.382357 437.835297,366.277878 436.730614,366.277878 Z M436.730614,364.944409 C437.098842,364.944409 437.397349,364.645902 437.397349,364.277674 C437.397349,363.909447 437.098842,363.61094 436.730614,363.61094 C436.362387,363.61094 436.06388,363.909447 436.06388,364.277674 C436.06388,364.645902 436.362387,364.944409 436.730614,364.944409 Z" id="Rectangle-5" fill="#506773" fill-rule="nonzero"></path>
                <path d="M129.328357,130.563916 C140.487777,130.563916 149.534275,121.517419 149.534275,110.357998 C149.534275,99.1985774 140.487777,90.1520796 129.328357,90.1520796 C118.168936,90.1520796 109.122438,99.1985774 109.122438,110.357998 C109.122438,121.517419 118.168936,130.563916 129.328357,130.563916 Z M129.328357,128.943916 C119.063637,128.943916 110.742438,120.622717 110.742438,110.357998 C110.742438,100.093279 119.063637,91.7720796 129.328357,91.7720796 C139.593076,91.7720796 147.914275,100.093279 147.914275,110.357998 C147.914275,120.622717 139.593076,128.943916 129.328357,128.943916 Z" id="Oval-8" fill="#394A5E" fill-rule="nonzero"></path>
                <path d="M123.133432,106.939921 L123.133432,113.219193 C123.133432,113.955648 123.730446,114.552662 124.466901,114.552662 L135.46937,114.552662 L135.46937,108.273391 C135.46937,107.536936 134.872356,106.939921 134.135901,106.939921 L123.133432,106.939921 Z M121.799962,105.606452 L134.135901,105.606452 C135.608811,105.606452 136.80284,106.800481 136.80284,108.273391 L136.80284,115.886132 L124.466901,115.886132 C122.993992,115.886132 121.799962,114.692102 121.799962,113.219193 L121.799962,105.606452 Z M123.128794,107.265306 L121.795325,107.265306 L121.795325,103.599949 L123.128794,103.599949 L123.128794,107.265306 Z M136.797349,117.33677 L135.46388,117.33677 L135.46388,113.671414 L136.797349,113.671414 L136.797349,117.33677 Z M122.528571,104.372588 C121.423889,104.372588 120.528367,103.477066 120.528367,102.372384 C120.528367,101.267702 121.423889,100.37218 122.528571,100.37218 C123.633254,100.37218 124.528776,101.267702 124.528776,102.372384 C124.528776,103.477066 123.633254,104.372588 122.528571,104.372588 Z M122.528571,103.039119 C122.896799,103.039119 123.195306,102.740612 123.195306,102.372384 C123.195306,102.004157 122.896799,101.70565 122.528571,101.70565 C122.160344,101.70565 121.861837,102.004157 121.861837,102.372384 C121.861837,102.740612 122.160344,103.039119 122.528571,103.039119 Z M136.130614,120.577878 C135.025932,120.577878 134.13041,119.682357 134.13041,118.577674 C134.13041,117.472992 135.025932,116.57747 136.130614,116.57747 C137.235297,116.57747 138.130818,117.472992 138.130818,118.577674 C138.130818,119.682357 137.235297,120.577878 136.130614,120.577878 Z M136.130614,119.244409 C136.498842,119.244409 136.797349,118.945902 136.797349,118.577674 C136.797349,118.209447 136.498842,117.91094 136.130614,117.91094 C135.762387,117.91094 135.46388,118.209447 135.46388,118.577674 C135.46388,118.945902 135.762387,119.244409 136.130614,119.244409 Z" id="Rectangle-5" fill="#506773" fill-rule="nonzero"></path>
                <path d="M427.95,127.71 C439.084061,127.71 448.11,118.684061 448.11,107.55 C448.11,96.4159394 439.084061,87.39 427.95,87.39 C416.815939,87.39 407.79,96.4159394 407.79,107.55 C407.79,118.684061 416.815939,127.71 427.95,127.71 Z M427.95,126.09 C417.710641,126.09 409.41,117.789359 409.41,107.55 C409.41,97.3106407 417.710641,89.01 427.95,89.01 C438.189359,89.01 446.49,97.3106407 446.49,107.55 C446.49,117.789359 438.189359,126.09 427.95,126.09 Z" id="Oval-8" fill="#00B5D1" fill-rule="nonzero"></path>
                <path d="M432.938672,107.247656 L423.820488,107.247656 C422.550645,107.247656 421.439531,106.330547 421.298437,105.060703 C421.139707,103.579219 422.30373,102.309375 423.767578,102.309375 L433.132676,102.309375 L433.132676,103.720312 L436.801113,101.603906 L433.132676,99.4875 L433.132676,100.898438 L423.767578,100.898438 C421.615898,100.898438 419.8875,102.626836 419.8875,104.778516 C419.8875,106.930195 421.615898,108.658594 423.767578,108.658594 L432.885762,108.658594 C434.155605,108.658594 435.266719,109.575703 435.407812,110.845547 C435.58418,112.327031 434.40252,113.596875 432.956309,113.596875 L423.608848,113.596875 L423.608848,112.185937 L419.905137,114.355254 L423.608848,116.41875 L423.608848,115.007812 L432.938672,115.007812 C435.090352,115.007812 436.81875,113.279414 436.81875,111.127734 C436.81875,108.976055 435.090352,107.247656 432.938672,107.247656 Z" id="Shape" fill="#506773" fill-rule="nonzero"></path>
                <path d="M427.95,219.51 C439.084061,219.51 448.11,210.484061 448.11,199.35 C448.11,188.215939 439.084061,179.19 427.95,179.19 C416.815939,179.19 407.79,188.215939 407.79,199.35 C407.79,210.484061 416.815939,219.51 427.95,219.51 Z M427.95,217.89 C417.710641,217.89 409.41,209.589359 409.41,199.35 C409.41,189.110641 417.710641,180.81 427.95,180.81 C438.189359,180.81 446.49,189.110641 446.49,199.35 C446.49,209.589359 438.189359,217.89 427.95,217.89 Z" id="Oval-8" fill="#00B5D1" fill-rule="nonzero"></path>
                <path d="M429.911843,189.675 L426.794228,189.675 C425.503085,189.675 424.456216,190.716464 424.456216,192.000726 C424.456216,193.284988 425.503085,194.32635 426.794228,194.32635 L429.911843,194.32635 C431.203011,194.32635 432.250034,193.285039 432.250034,192.000752 C432.250034,190.716464 431.203011,189.675 429.911843,189.675 Z M429.911843,192.776011 L426.794228,192.776011 C426.364311,192.774736 426.016112,192.428386 426.014831,192.000752 C426.016112,191.573117 426.364311,191.226767 426.794228,191.225493 L429.911843,191.225493 C430.34176,191.226767 430.689959,191.573117 430.69124,192.000752 C430.689959,192.428386 430.34176,192.774736 429.911843,192.776011 L429.911843,192.776011 Z M429.911843,197.427361 L426.794228,197.427361 C425.503085,197.427361 424.456216,198.468825 424.456216,199.753112 C424.456216,201.0374 425.503085,202.078711 426.794228,202.078711 L429.911843,202.078711 C431.203011,202.078711 432.250034,201.0374 432.250034,199.753112 C432.250034,198.468825 431.203011,197.427361 429.911843,197.427361 Z M429.911843,200.528371 L426.794228,200.528371 C426.364311,200.527097 426.016112,200.180747 426.014831,199.753112 C426.016112,199.325477 426.364311,198.979127 426.794228,198.977853 L429.911843,198.977853 C430.34176,198.979127 430.689959,199.325477 430.69124,199.753112 C430.689959,200.180747 430.34176,200.527097 429.911843,200.528371 Z M429.911843,205.179721 L426.794228,205.179721 C425.503085,205.179721 424.456216,206.221186 424.456216,207.505473 C424.456216,208.78976 425.503085,209.83125 426.794228,209.83125 L429.911843,209.83125 C431.203011,209.83125 432.250034,208.789786 432.250034,207.505473 C432.250034,206.22116 431.203011,205.179721 429.911843,205.179721 Z M429.911843,208.280732 L426.794228,208.280732 C426.364311,208.279458 426.016112,207.933108 426.014831,207.505473 C426.016126,207.077848 426.364321,206.731514 426.794228,206.730239 L429.911843,206.730239 C430.34175,206.731514 430.689945,207.077848 430.69124,207.505473 C430.689959,207.933108 430.34176,208.279458 429.911843,208.280732 L429.911843,208.280732 Z M421.338678,206.730239 C420.50473,206.730239 419.722821,206.407223 419.132992,205.823204 C418.54583,205.23666 418.221294,204.458749 418.221294,203.629203 C418.221294,202.799683 418.54583,202.021925 419.132992,201.435381 C419.722821,200.848685 420.504705,200.528371 421.338678,200.528371 L422.897473,200.528371 L422.897473,198.977853 L421.338678,198.977853 C418.756393,198.977853 416.6625,201.06045 416.6625,203.62905 C416.6625,206.197625 418.756214,208.280579 421.338678,208.280579 L421.338678,209.831072 L423.67687,207.50532 L421.338678,205.179543 L421.338678,206.730061 L421.338678,206.730239 Z M435.367392,191.225314 L433.808803,191.225314 L433.808803,192.775832 L435.367392,192.775832 C436.201366,192.775832 436.983429,193.098823 437.573104,193.682689 C438.162753,194.269412 438.484956,195.047144 438.484956,195.87669 C438.484956,196.70621 438.160241,197.483968 437.573104,198.070665 C436.983429,198.65471 436.201366,198.977522 435.367392,198.977522 L435.367392,197.427208 L433.02938,199.753112 L435.367392,202.078711 L435.367392,200.528371 C437.949703,200.528371 440.04375,198.445443 440.04375,195.876843 C440.04375,193.308243 437.949857,191.225493 435.367392,191.225493 L435.367392,191.225314 Z" id="Shape" fill="#506773" fill-rule="nonzero"></path>
                <text id="日志" font-family="PingFangSC-Regular, PingFang SC" font-size="10.8" font-weight="normal" fill="#4A4A4A">
                    <tspan x="328.5" y="385.4">日志</tspan>
                </text>
            </g>
        </g>
    </g>
</svg>