<?xml version="1.0" encoding="UTF-8"?>
<svg width="80px" height="80px" viewBox="0 0 80 80" version="1.1" xmlns="http://www.w3.org/2000/svg" xmlns:xlink="http://www.w3.org/1999/xlink">
    <!-- Generator: Sketch 54.1 (76490) - https://sketchapp.com -->
    <title>画板复制 11</title>
    <desc>Created with Sketch.</desc>
    <defs>
        <linearGradient x1="50.1593014%" y1="100%" x2="50%" y2="3.061617e-15%" id="linearGradient-1">
            <stop stop-color="#40BCF9" stop-opacity="0" offset="0%"></stop>
            <stop stop-color="#1E87F0" offset="100%"></stop>
        </linearGradient>
        <linearGradient x1="50.2138869%" y1="100%" x2="50%" y2="3.061617e-15%" id="linearGradient-2">
            <stop stop-color="#40BCF9" stop-opacity="0" offset="0%"></stop>
            <stop stop-color="#1E87F0" offset="100%"></stop>
        </linearGradient>
        <linearGradient x1="50.1326433%" y1="100%" x2="50%" y2="3.061617e-15%" id="linearGradient-3">
            <stop stop-color="#40BCF9" stop-opacity="0" offset="0%"></stop>
            <stop stop-color="#1E87F0" offset="100%"></stop>
        </linearGradient>
        <linearGradient x1="50%" y1="0%" x2="52.7338004%" y2="97.2654113%" id="linearGradient-4">
            <stop stop-color="#3D1BFF" offset="0%"></stop>
            <stop stop-color="#00A7E7" offset="100%"></stop>
        </linearGradient>
    </defs>
    <g id="Page-1" stroke="none" stroke-width="1" fill="none" fill-rule="evenodd">
        <g id="画板" transform="translate(-461.000000, -947.000000)" fill-rule="nonzero">
            <g id="编组" transform="translate(463.000000, 947.000000)">
                <rect id="矩形" fill="url(#linearGradient-1)" x="0" y="4" width="11" height="73"></rect>
                <rect id="矩形复制-4" fill="url(#linearGradient-2)" x="21" y="11" width="11" height="63"></rect>
                <rect id="矩形复制-5" fill="url(#linearGradient-3)" x="61" y="0" width="11" height="80"></rect>
                <rect id="矩形复制-6" fill="url(#linearGradient-2)" x="44" y="6" width="11" height="63"></rect>
                <path d="M4,20 L19,20 L19,45 L4,45 L4,20 Z M7,23 L7,42 L16,42 L16,23 L7,23 Z" id="矩形" fill="url(#linearGradient-4)"></path>
                <path d="M23,33 L38,33 L38,58 L23,58 L23,33 Z M26,36 L26,55 L35,55 L35,36 L26,36 Z" id="矩形复制" fill="url(#linearGradient-4)"></path>
                <path d="M42,20 L57,20 L57,45 L42,45 L42,20 Z M45,23 L45,42 L54,42 L54,23 L45,23 Z" id="矩形复制-2" fill="url(#linearGradient-4)"></path>
                <path d="M63,40 L78,40 L78,65 L63,65 L63,40 Z M66,43 L66,62 L75,62 L75,43 L66,43 Z" id="矩形复制-3" fill="url(#linearGradient-4)"></path>
            </g>
        </g>
    </g>
</svg>