<?xml version="1.0" encoding="UTF-8"?>
<svg width="580px" height="280px" viewBox="0 0 580 280" version="1.1" xmlns="http://www.w3.org/2000/svg" xmlns:xlink="http://www.w3.org/1999/xlink">
    <!-- Generator: Sketch 52 (66869) - http://www.bohemiancoding.com/sketch -->
    <title>数聚蜂巢架构1 三层架构</title>
    <desc>Created with Sketch.</desc>
    <defs>
        <polygon id="path-1" points="11.106383 8.82268085 11.106383 0.0283404255 0.369191489 0.0283404255 0.369191489 17.6170213 11.106383 17.6170213"></polygon>
        <polygon id="path-3" points="0 17.9717362 17.6170213 17.9717362 17.6170213 0.383055319 0 0.383055319"></polygon>
    </defs>
    <g id="数聚蜂巢架构1-三层架构" stroke="none" stroke-width="1" fill="none" fill-rule="evenodd">
        <rect id="Rectangle-Copy-47" fill="#E1EDFF" x="0" y="58" width="66" height="30" rx="3"></rect>
        <rect id="Rectangle-Copy-50" fill="#E1EDFF" x="76" y="58" width="504" height="30" rx="3"></rect>
        <rect id="Rectangle-Copy-48" fill="#A1CAFF" x="0" y="116" width="66" height="30" rx="3"></rect>
        <rect id="Rectangle-Copy-51" fill="#A1CAFF" x="76" y="116" width="504" height="30" rx="3"></rect>
        <rect id="Rectangle-Copy-49" fill="#3261AF" x="0" y="174" width="66" height="30" rx="3"></rect>
        <rect id="Rectangle-Copy-52" fill="#3261AF" x="76" y="174" width="504" height="30" rx="3"></rect>
        <text id="能力化" font-family="PingFangSC-Regular, PingFang SC" font-size="12" font-weight="normal" fill="#214278">
            <tspan x="15" y="77">能力化</tspan>
        </text>
        <text id="为应用定制-API，实现业务创新、能力输" font-family="PingFangSC-Regular, PingFang SC" font-size="12" font-weight="normal" fill="#214278">
            <tspan x="213.288" y="78"> 为应用定制 API，实现业务创新、能力输出</tspan>
        </text>
        <text id="微服务化" font-family="PingFangSC-Regular, PingFang SC" font-size="12" font-weight="normal" fill="#214278">
            <tspan x="9" y="135">微服务化</tspan>
        </text>
        <text id="根据业务逻辑进行流程编排，用可组合的-A" font-family="PingFangSC-Regular, PingFang SC" font-size="12" font-weight="normal" fill="#214278">
            <tspan x="93.288" y="136">根据业务逻辑进行流程编排，用可组合的 API 与组件实现功能协作、流程重组、微服务化</tspan>
        </text>
        <text id="API化解耦" font-family="PingFangSC-Regular, PingFang SC" font-size="12" font-weight="normal" fill="#FFFFFF">
            <tspan x="6.284" y="194">API化解耦</tspan>
        </text>
        <text id="现有系统" font-family="PingFangSC-Regular, PingFang SC" font-size="12" font-weight="normal" fill="#3261AF">
            <tspan x="80" y="275">现有系统</tspan>
        </text>
        <text id="数据库" font-family="PingFangSC-Regular, PingFang SC" font-size="12" font-weight="normal" fill="#3261AF">
            <tspan x="161" y="275">数据库</tspan>
        </text>
        <text id="SaaS-服务" font-family="PingFangSC-Regular, PingFang SC" font-size="12" font-weight="normal" fill="#3261AF">
            <tspan x="224.21" y="275">SaaS 服务</tspan>
        </text>
        <text id="Web-Svc" font-family="PingFangSC-Regular, PingFang SC" font-size="12" font-weight="normal" fill="#3261AF">
            <tspan x="304.11" y="275">Web Svc</tspan>
        </text>
        <text id="FTP/-文件" font-family="PingFangSC-Regular, PingFang SC" font-size="12" font-weight="normal" fill="#3261AF">
            <tspan x="374.474" y="275">FTP/ 文件</tspan>
        </text>
        <text id="主机" font-family="PingFangSC-Regular, PingFang SC" font-size="12" font-weight="normal" fill="#3261AF">
            <tspan x="465" y="275">主机</tspan>
        </text>
        <text id="应用" font-family="PingFangSC-Regular, PingFang SC" font-size="12" font-weight="normal" fill="#3261AF">
            <tspan x="540" y="275">应用</tspan>
        </text>
        <text id="非侵入式连接老旧系统、SaaS-应用、W" font-family="PingFangSC-Regular, PingFang SC" font-size="12" font-weight="normal" fill="#FFFFFF">
            <tspan x="144.094" y="194">非侵入式连接老旧系统、SaaS 应用、Web service 以及 RESTful API</tspan>
        </text>
        <rect id="Rectangle-Copy-47" fill="#E1EDFF" x="76" y="0" width="56" height="30" rx="3"></rect>
        <g id="Group-8" transform="translate(98.000000, 6.000000)">
            <rect id="Rectangle" fill="#3261AF" x="0" y="0" width="12.4137931" height="18"></rect>
            <rect id="Rectangle" fill="#A1CAFF" x="1.24137931" y="1.24137931" width="9.93103448" height="11.7931034"></rect>
            <circle id="Oval" fill="#A1CAFF" cx="6.20689655" cy="15.5172414" r="1.24137931"></circle>
        </g>
        <rect id="Rectangle-Copy-59" fill="#3261AF" x="76" y="230" width="56" height="30" rx="3"></rect>
        <rect id="矩形" fill="#A1CAFF" fill-rule="nonzero" x="95" y="237" width="18" height="12"></rect>
        <rect id="矩形-copy-2" fill="#A1CAFF" fill-rule="nonzero" x="95" y="251" width="18" height="2"></rect>
        <rect id="Rectangle-Copy-53" fill="#E1EDFF" x="151" y="0" width="56" height="30" rx="3"></rect>
        <g id="Group-40-Copy" transform="translate(170.000000, 6.000000)">
            <path d="M17.3464138,13.2376345 L1.20848276,13.2376345 C0.865862069,13.2376345 0.587793103,12.9595655 0.587793103,12.6169448 L0.587793103,0.823841379 C0.587793103,0.48122069 0.865862069,0.203151724 1.20848276,0.203151724 L17.3464138,0.203151724 C17.6890345,0.203151724 17.9671034,0.48122069 17.9671034,0.823841379 L17.9671034,12.6169448 C17.9671034,12.9595655 17.6890345,13.2376345 17.3464138,13.2376345" id="Fill-80" fill="#A1CAFF"></path>
            <path d="M15.5829724,11.3313103 L2.9718,11.3313103 C2.62917931,11.3313103 2.35111034,11.0532414 2.35111034,10.7106207 L2.35111034,2.73041379 C2.35111034,2.38717241 2.62917931,2.10972414 2.9718,2.10972414 L15.5829724,2.10972414 C15.9255931,2.10972414 16.2036621,2.38717241 16.2036621,2.73041379 L16.2036621,10.7106207 C16.2036621,11.0532414 15.9255931,11.3313103 15.5829724,11.3313103" id="Fill-81" fill="#3261AF"></path>
            <path d="M11.997931,17.5824621 L6.55696552,17.5824621 C6.21434483,17.5824621 5.93627586,17.3043931 5.93627586,16.9617724 L5.93627586,16.0307379 C5.93627586,15.6881172 6.21434483,15.4100483 6.55696552,15.4100483 L11.997931,15.4100483 C12.3405517,15.4100483 12.6186207,15.6881172 12.6186207,16.0307379 L12.6186207,16.9617724 C12.6186207,17.3043931 12.3405517,17.5824621 11.997931,17.5824621" id="Fill-82" fill="#A1CAFF"></path>
        </g>
        <rect id="Rectangle-Copy-60" fill="#3261AF" x="151" y="230" width="56" height="30" rx="3"></rect>
        <g id="Group-2-Copy" transform="translate(170.000000, 236.000000)">
            <path d="M17.3793103,2.57635862 C17.3793103,3.87608276 13.4888276,4.93001379 8.68965517,4.93001379 C3.89048276,4.93001379 0,3.87608276 0,2.57635862 C0,1.27663448 3.89048276,0.222703448 8.68965517,0.222703448 C13.4888276,0.222703448 17.3793103,1.27663448 17.3793103,2.57635862" id="Fill-86" fill="#FFFFFF"></path>
            <path d="M17.3793103,8.91254483 C17.3793103,10.212269 13.4888276,11.2662 8.68965517,11.2662 C3.89048276,11.2662 0,10.212269 0,8.91254483 C0,7.61282069 3.89048276,6.55888966 8.68965517,6.55888966 C13.4888276,6.55888966 17.3793103,7.61282069 17.3793103,8.91254483" id="Fill-87" fill="#A1CAFF"></path>
            <path d="M17.3793103,15.2487931 C17.3793103,16.5485172 13.4888276,17.6024483 8.68965517,17.6024483 C3.89048276,17.6024483 0,16.5485172 0,15.2487931 C0,13.949069 3.89048276,12.8951379 8.68965517,12.8951379 C13.4888276,12.8951379 17.3793103,13.949069 17.3793103,15.2487931" id="Fill-88" fill="#A1CAFF"></path>
        </g>
        <rect id="Rectangle-Copy-54" fill="#E1EDFF" x="222" y="0" width="56" height="30" rx="3"></rect>
        <path d="M253,6.01446179 C253.165441,6.00486504 253.332153,6 253.5,6 C258.19442,6 262,9.80557963 262,14.5 C262,14.6678474 261.995135,14.8345585 261.985538,15 L253,15 L253,6.01446179 Z" id="合并形状" fill="#3261AF" fill-rule="nonzero"></path>
        <path d="M252.014462,7 L252.014462,15.9855382 L261,15.9855382 C260.741191,20.4472279 257.041035,23.9855382 252.514462,23.9855382 C247.820041,23.9855382 244.014462,20.1799586 244.014462,15.4855382 C244.014462,10.9589652 247.552772,7.2588089 252.014462,7 Z" id="合并形状" fill="#A1CAFF" fill-rule="nonzero"></path>
        <rect id="Rectangle-Copy-61" fill="#3261AF" x="225" y="230" width="56" height="30" rx="3"></rect>
        <g id="Group" transform="translate(240.000000, 237.000000)">
            <circle id="Oval-2" fill="#FFFFFF" cx="6.21" cy="10.35" r="6.21"></circle>
            <circle id="Oval-2-Copy" fill="#A1CAFF" cx="13.455" cy="8.28" r="8.28"></circle>
            <circle id="Oval-2-Copy-2" fill="#FFFFFF" cx="20.7" cy="11.385" r="5.175"></circle>
        </g>
        <rect id="Rectangle-Copy-55" fill="#E1EDFF" x="300" y="0" width="56" height="30" rx="3"></rect>
        <rect id="Rectangle-Copy-62" fill="#3261AF" x="300" y="230" width="56" height="30" rx="3"></rect>
        <g id="Group-3" transform="translate(319.000000, 236.000000)">
            <path d="M16.7832621,17.9049724 L0.645331034,17.9049724 C0.302710345,17.9049724 0.0246413793,17.6269034 0.0246413793,17.2842828 L0.0246413793,3.42242069 L17.4039517,3.42242069 L17.4039517,17.2842828 C17.4039517,17.6269034 17.1258828,17.9049724 16.7832621,17.9049724" id="Fill-70" fill="#A1CAFF"></path>
            <path d="M2.6343931,6.12757241 L14.7943241,6.12757241" id="Stroke-71" stroke="#FFFFFF" stroke-linecap="round"></path>
            <path d="M2.6343931,8.39557241 L14.7943241,8.39557241" id="Stroke-72" stroke="#FFFFFF" stroke-linecap="round"></path>
            <path d="M2.6343931,10.6635724 L14.7943241,10.6635724" id="Stroke-73" stroke="#FFFFFF" stroke-linecap="round"></path>
            <path d="M2.6343931,12.9315724 L14.7943241,12.9315724" id="Stroke-74" stroke="#FFFFFF" stroke-linecap="round"></path>
            <path d="M2.6343931,15.1995724 L14.7943241,15.1995724" id="Stroke-75" stroke="#FFFFFF" stroke-linecap="round"></path>
            <path d="M4.27444138,1.97391724 C4.07457931,1.97391724 3.91257931,1.81191724 3.91257931,1.61205517 C3.91257931,1.41157241 4.07457931,1.24957241 4.27444138,1.24957241 C4.47430345,1.24957241 4.63630345,1.41157241 4.63630345,1.61205517 C4.63630345,1.81191724 4.47430345,1.97391724 4.27444138,1.97391724 M2.87664828,1.97391724 C2.67616552,1.97391724 2.51416552,1.81191724 2.51416552,1.61205517 C2.51416552,1.41157241 2.67616552,1.24957241 2.87664828,1.24957241 C3.07651034,1.24957241 3.23851034,1.41157241 3.23851034,1.61205517 C3.23851034,1.81191724 3.07651034,1.97391724 2.87664828,1.97391724 M1.47823448,1.97391724 C1.27837241,1.97391724 1.11637241,1.81191724 1.11637241,1.61205517 C1.11637241,1.41157241 1.27837241,1.24957241 1.47823448,1.24957241 C1.67809655,1.24957241 1.84071724,1.41157241 1.84071724,1.61205517 C1.84071724,1.81191724 1.67809655,1.97391724 1.47823448,1.97391724 M17.0420276,0.525848276 L0.386441379,0.525848276 C0.18657931,0.525848276 0.0245793103,0.687848276 0.0245793103,0.887710345 L0.0245793103,2.69826207 L17.4038897,2.69826207 L17.4038897,0.887710345 C17.4038897,0.687848276 17.2418897,0.525848276 17.0420276,0.525848276" id="Fill-76" fill="#FFFFFF"></path>
        </g>
        <rect id="Rectangle-Copy-56" fill="#E1EDFF" x="375" y="0" width="56" height="30" rx="3"></rect>
        <g id="Page-1" transform="translate(392.000000, 6.000000)">
            <polygon id="Fill-1" fill="#A1CAFF" points="6.91741763 -2.46508751e-06 1.23254375e-05 6.91740283 10.8702347 17.7876499 17.7876647 10.8702446"></polygon>
            <polygon id="Fill-2" fill="#A1CAFF" points="14.8230346 -2.46508751e-06 3.95281218 10.8702446 10.8702421 17.7876499 21.7404399 6.91740283"></polygon>
            <polygon id="Fill-3" fill="#3261AF" points="3.95281958 10.8702347 10.8702249 17.78764 17.7876548 10.8702347 10.8702249 3.95282944"></polygon>
        </g>
        <rect id="Rectangle-Copy-63" fill="#3261AF" x="375" y="230" width="56" height="30" rx="3"></rect>
        <g id="Group-31" transform="translate(396.000000, 236.000000)">
            <path d="M14.3486069,4.96508276 L14.3486069,17.1200483 C14.3486069,17.3223931 14.1853655,17.4819103 13.9867448,17.4819103 L0.430882759,17.4819103 C0.231641379,17.4819103 0.0684,17.3223931 0.0684,17.1200483 L0.0684,0.464462069 C0.0684,0.26522069 0.231641379,0.1026 0.430882759,0.1026 L9.48984828,0.1026 L14.3486069,4.96508276 Z" id="Fill-46" fill="#A1CAFF"></path>
            <path d="M14.3486069,4.96508276 L9.85171034,4.96508276 C9.65184828,4.96508276 9.48984828,4.80308276 9.48984828,4.60322069 L9.48984828,0.1026 L14.3486069,4.96508276 Z" id="Fill-47" fill="#FFFFFF"></path>
            <path d="M3.06670345,4.1048069 L6.28125517,4.1048069" id="Stroke-48" stroke="#FFFFFF" stroke-linecap="round"></path>
            <path d="M3.06670345,5.97978621 L6.28125517,5.97978621" id="Stroke-49" stroke="#FFFFFF" stroke-linecap="round"></path>
            <path d="M3.06670345,7.85470345 L11.3504276,7.85470345" id="Stroke-50" stroke="#FFFFFF" stroke-linecap="round"></path>
            <path d="M3.06670345,9.72962069 L11.3504276,9.72962069" id="Stroke-51" stroke="#FFFFFF" stroke-linecap="round"></path>
            <path d="M3.06670345,11.6045379 L11.3504276,11.6045379" id="Stroke-52" stroke="#FFFFFF" stroke-linecap="round"></path>
            <path d="M3.06670345,13.4794552 L11.3504276,13.4794552" id="Stroke-53" stroke="#FFFFFF" stroke-linecap="round"></path>
        </g>
        <rect id="Rectangle-Copy-57" fill="#E1EDFF" x="449" y="0" width="56" height="30" rx="3"></rect>
        <text id="UI" font-family="PingFangSC-Semibold, PingFang SC" font-size="16" font-weight="500" fill="#3261AF">
            <tspan x="469.072" y="21">UI</tspan>
        </text>
        <rect id="Rectangle-Copy-64" fill="#3261AF" x="449" y="230" width="56" height="30" rx="3"></rect>
        <g id="Group-5-Copy-2" transform="translate(468.000000, 236.000000)">
            <path d="M2.55568966,16.154131 C2.15596552,16.154131 1.83134483,15.830131 1.83134483,15.4297862 C1.83134483,15.0300621 2.15596552,14.7060621 2.55568966,14.7060621 C2.95541379,14.7060621 3.28003448,15.0300621 3.28003448,15.4297862 C3.28003448,15.830131 2.95541379,16.154131 2.55568966,16.154131 M17.0171379,13.0767517 L0.362172414,13.0767517 C0.162310345,13.0767517 0.000310344828,13.2387517 0.000310344828,13.4386138 L0.000310344828,17.4215793 C0.000310344828,17.6214414 0.162310345,17.7834414 0.362172414,17.7834414 L17.0171379,17.7834414 C17.217,17.7834414 17.3796207,17.6214414 17.3796207,17.4215793 L17.3796207,13.4386138 C17.3796207,13.2387517 17.217,13.0767517 17.0171379,13.0767517" id="Fill-95" fill="#A1CAFF"></path>
            <path d="M2.55568966,9.81794483 C2.15596552,9.81794483 1.83134483,9.49394483 1.83134483,9.0936 C1.83134483,8.69387586 2.15596552,8.36987586 2.55568966,8.36987586 C2.95541379,8.36987586 3.28003448,8.69387586 3.28003448,9.0936 C3.28003448,9.49394483 2.95541379,9.81794483 2.55568966,9.81794483 M17.0171379,6.74056552 L0.362172414,6.74056552 C0.162310345,6.74056552 0.000310344828,6.90256552 0.000310344828,7.10242759 L0.000310344828,11.0853931 C0.000310344828,11.2852552 0.162310345,11.4472552 0.362172414,11.4472552 L17.0171379,11.4472552 C17.217,11.4472552 17.3796207,11.2852552 17.3796207,11.0853931 L17.3796207,7.10242759 C17.3796207,6.90256552 17.217,6.74056552 17.0171379,6.74056552" id="Fill-96" fill="#FFFFFF"></path>
            <path d="M2.55568966,3.48175862 C2.15596552,3.48175862 1.83134483,3.15775862 1.83134483,2.75741379 C1.83134483,2.35768966 2.15596552,2.03368966 2.55568966,2.03368966 C2.95541379,2.03368966 3.28003448,2.35768966 3.28003448,2.75741379 C3.28003448,3.15775862 2.95541379,3.48175862 2.55568966,3.48175862 M17.0171379,0.40437931 L0.362172414,0.40437931 C0.162310345,0.40437931 0.000310344828,0.56637931 0.000310344828,0.766241379 L0.000310344828,4.7492069 C0.000310344828,4.94906897 0.162310345,5.11106897 0.362172414,5.11106897 L17.0171379,5.11106897 C17.217,5.11106897 17.3796207,4.94906897 17.3796207,4.7492069 L17.3796207,0.766241379 C17.3796207,0.56637931 17.217,0.40437931 17.0171379,0.40437931" id="Fill-97" fill="#FFFFFF"></path>
        </g>
        <rect id="Rectangle-Copy-58" fill="#E1EDFF" x="524" y="0" width="56" height="30" rx="3"></rect>
        <g id="Page-1-Copy-3" transform="translate(543.000000, 6.000000)">
            <path d="M17.6170213,17.9717362 L0,17.9717362 L0,8.8974383 C0,8.72011915 0.121404255,8.5661617 0.293744681,8.52518298 L17.6170213,4.38250213 L17.6170213,17.9717362 Z" id="Fill-1" fill="#3261AF"></path>
            <g id="Group-5" transform="translate(6.510638, 0.354715)">
                <mask id="mask-2" fill="white">
                    <use xlink:href="#path-1"></use>
                </mask>
                <g id="Clip-4"></g>
                <path d="M11.106383,17.6170213 L0.369191489,17.6170213 L0.369191489,0.411319149 C0.369191489,0.189191489 0.557617021,0.0134042553 0.779361702,0.029106383 L10.7505957,0.740680851 C10.9508936,0.754851064 11.106383,0.921829787 11.106383,1.12251064 L11.106383,17.6170213 Z" id="Fill-3" fill="#A1CAFF" mask="url(#mask-2)"></path>
            </g>
            <mask id="mask-4" fill="white">
                <use xlink:href="#path-3"></use>
            </mask>
            <g id="Clip-7"></g>
            <path d="M8.91174468,5.38114043 L8.91174468,4.88114043 L8.41174468,5.38114043 L8.91174468,5.38114043 Z M9.47659574,5.38114043 L9.97659574,5.38114043 L9.47659574,4.88114043 L9.47659574,5.38114043 Z M9.47659574,5.94599149 L9.47659574,6.44599149 L9.97659574,5.94599149 L9.47659574,5.94599149 Z M8.91174468,5.94599149 L8.41174468,5.94599149 L8.91174468,6.44599149 L8.91174468,5.94599149 Z" id="Stroke-6" stroke="#3261AF" mask="url(#mask-4)"></path>
            <path d="M11.9736596,5.38114043 L11.9736596,4.88114043 L11.4736596,5.38114043 L11.9736596,5.38114043 Z M12.5385106,5.38114043 L13.0385106,5.38114043 L12.5385106,4.88114043 L12.5385106,5.38114043 Z M12.5385106,5.94599149 L12.5385106,6.44599149 L13.0385106,5.94599149 L12.5385106,5.94599149 Z M11.9736596,5.94599149 L11.4736596,5.94599149 L11.9736596,6.44599149 L11.9736596,5.94599149 Z" id="Stroke-8" stroke="#3261AF" mask="url(#mask-4)"></path>
            <path d="M15.0359574,5.38114043 L15.0359574,4.88114043 L14.5359574,5.38114043 L15.0359574,5.38114043 Z M15.6008085,5.38114043 L16.1008085,5.38114043 L15.6008085,4.88114043 L15.6008085,5.38114043 Z M15.6008085,5.94599149 L15.6008085,6.44599149 L16.1008085,5.94599149 L15.6008085,5.94599149 Z M15.0359574,5.94599149 L14.5359574,5.94599149 L15.0359574,6.44599149 L15.0359574,5.94599149 Z" id="Stroke-9" stroke="#3261AF" mask="url(#mask-4)"></path>
            <path d="M8.91174468,9.67739574 L8.91174468,9.17739574 L8.41174468,9.67739574 L8.91174468,9.67739574 Z M9.47659574,9.67739574 L9.97659574,9.67739574 L9.47659574,9.17739574 L9.47659574,9.67739574 Z M9.47659574,10.2422468 L9.47659574,10.7422468 L9.97659574,10.2422468 L9.47659574,10.2422468 Z M8.91174468,10.2422468 L8.41174468,10.2422468 L8.91174468,10.7422468 L8.91174468,10.2422468 Z" id="Stroke-10" stroke="#3261AF" mask="url(#mask-4)"></path>
            <path d="M11.9736596,9.67739574 L11.9736596,9.17739574 L11.4736596,9.67739574 L11.9736596,9.67739574 Z M12.5385106,9.67739574 L13.0385106,9.67739574 L12.5385106,9.17739574 L12.5385106,9.67739574 Z M12.5385106,10.2422468 L12.5385106,10.7422468 L13.0385106,10.2422468 L12.5385106,10.2422468 Z M11.9736596,10.2422468 L11.4736596,10.2422468 L11.9736596,10.7422468 L11.9736596,10.2422468 Z" id="Stroke-11" stroke="#3261AF" mask="url(#mask-4)"></path>
            <path d="M15.0359574,9.67739574 L15.0359574,9.17739574 L14.5359574,9.67739574 L15.0359574,9.67739574 Z M15.6008085,9.67739574 L16.1008085,9.67739574 L15.6008085,9.17739574 L15.6008085,9.67739574 Z M15.6008085,10.2422468 L15.6008085,10.7422468 L16.1008085,10.2422468 L15.6008085,10.2422468 Z M15.0359574,10.2422468 L14.5359574,10.2422468 L15.0359574,10.7422468 L15.0359574,10.2422468 Z" id="Stroke-12" stroke="#3261AF" mask="url(#mask-4)"></path>
            <path d="M8.91174468,13.974034 L8.91174468,13.474034 L8.41174468,13.974034 L8.91174468,13.974034 Z M9.47659574,13.974034 L9.97659574,13.974034 L9.47659574,13.474034 L9.47659574,13.974034 Z M9.47659574,14.5388851 L9.47659574,15.0388851 L9.97659574,14.5388851 L9.47659574,14.5388851 Z M8.91174468,14.5388851 L8.41174468,14.5388851 L8.91174468,15.0388851 L8.91174468,14.5388851 Z" id="Stroke-13" stroke="#3261AF" mask="url(#mask-4)"></path>
            <path d="M11.9736596,13.974034 L11.9736596,13.474034 L11.4736596,13.974034 L11.9736596,13.974034 Z M12.5385106,13.974034 L13.0385106,13.974034 L12.5385106,13.474034 L12.5385106,13.974034 Z M12.5385106,14.5388851 L12.5385106,15.0388851 L13.0385106,14.5388851 L12.5385106,14.5388851 Z M11.9736596,14.5388851 L11.4736596,14.5388851 L11.9736596,15.0388851 L11.9736596,14.5388851 Z" id="Stroke-14" stroke="#3261AF" mask="url(#mask-4)"></path>
            <path d="M15.0359574,13.974034 L15.0359574,13.474034 L14.5359574,13.974034 L15.0359574,13.974034 Z M15.6008085,13.974034 L16.1008085,13.974034 L15.6008085,13.474034 L15.6008085,13.974034 Z M15.6008085,14.5388851 L15.6008085,15.0388851 L16.1008085,14.5388851 L15.6008085,14.5388851 Z M15.0359574,14.5388851 L14.5359574,14.5388851 L15.0359574,15.0388851 L15.0359574,14.5388851 Z" id="Stroke-15" stroke="#3261AF" mask="url(#mask-4)"></path>
        </g>
        <rect id="Rectangle-Copy-65" fill="#3261AF" x="524" y="230" width="56" height="30" rx="3"></rect>
        <g id="Group-4-Copy" transform="translate(543.000000, 236.000000)">
            <path d="M3.98277931,8.56998621 L7.96574483,8.56998621 L7.96574483,4.58702069 C7.96574483,2.38729655 6.18250345,0.604675862 3.98277931,0.604675862 C1.78305517,0.604675862 -0.000186206897,2.38729655 -0.000186206897,4.58702069 C-0.000186206897,6.78674483 1.78305517,8.56998621 3.98277931,8.56998621" id="Fill-5" fill="#FFFFFF"></path>
            <path d="M13.396531,8.56998621 L9.41356552,8.56998621 L9.41356552,4.58702069 C9.41356552,2.38729655 11.1968069,0.604675862 13.396531,0.604675862 C15.5962552,0.604675862 17.3794966,2.38729655 17.3794966,4.58702069 C17.3794966,6.78674483 15.5962552,8.56998621 13.396531,8.56998621" id="Fill-7" fill="#C0D8F6"></path>
            <path d="M3.98277931,10.0182414 L7.96574483,10.0182414 L7.96574483,14.0012069 C7.96574483,16.200931 6.18250345,17.9835517 3.98277931,17.9835517 C1.78305517,17.9835517 -0.000186206897,16.200931 -0.000186206897,14.0012069 C-0.000186206897,11.8014828 1.78305517,10.0182414 3.98277931,10.0182414" id="Fill-9" fill="#C0D8F6"></path>
            <path d="M13.396531,10.0182414 L9.41356552,10.0182414 L9.41356552,14.0012069 C9.41356552,16.200931 11.1968069,17.9835517 13.396531,17.9835517 C15.5962552,17.9835517 17.3794966,16.200931 17.3794966,14.0012069 C17.3794966,11.8014828 15.5962552,10.0182414 13.396531,10.0182414" id="Fill-11" fill="#C0D8F6"></path>
        </g>
        <circle id="椭圆形" fill="#A1CAFF" fill-rule="nonzero" cx="328" cy="15" r="9"></circle>
        <g id="分组" transform="translate(323.000000, 12.000000)" fill-rule="nonzero" stroke="#3261AF">
            <path d="M0.0909902577,3.84099026 C0.0909902577,4.66941738 0.762563133,5.34099026 1.59099026,5.34099026 C2.41941738,5.34099026 3.09099026,4.66941738 3.09099026,3.84099026" id="椭圆形" transform="translate(1.590990, 4.590990) rotate(-315.000000) translate(-1.590990, -4.590990) "></path>
            <path d="M7.09099026,0.840990258 C7.09099026,1.66941738 7.76256313,2.34099026 8.59099026,2.34099026 C9.41941738,2.34099026 10.0909903,1.66941738 10.0909903,0.840990258" id="椭圆形-copy-2" transform="translate(8.590990, 1.590990) scale(-1, -1) rotate(-315.000000) translate(-8.590990, -1.590990) "></path>
            <path d="M3.15729611,5.1300509 L7,1.04576015" id="路径-22"></path>
        </g>
        <path d="" id="路径-20" stroke="#979797" fill-rule="nonzero"></path>
        <path d="" id="路径-21" stroke="#979797" fill-rule="nonzero"></path>
        <polyline id="路径-23" stroke="#FFFFFF" fill-rule="nonzero" points="97.7309754 244.285523 101 241.97595 104.580833 245.384743 109.548503 239.90639"></polyline>
        <path d="M104.5,231.063475 L104.5,203" id="路径-24" stroke="#3261AF" fill-rule="nonzero"></path>
        <path d="M179.5,231.063475 L179.5,203" id="路径-24-copy" stroke="#3261AF" fill-rule="nonzero"></path>
        <path d="M254.5,231.063475 L254.5,203" id="路径-24-copy-2" stroke="#3261AF" fill-rule="nonzero"></path>
        <path d="M329.5,231.063475 L329.5,203" id="路径-24-copy-3" stroke="#3261AF" fill-rule="nonzero"></path>
        <path d="M329.5,231.063475 L329.5,203" id="路径-24-copy-4" stroke="#3261AF" fill-rule="nonzero"></path>
        <path d="M403.5,231.063475 L403.5,203" id="路径-24-copy-5" stroke="#3261AF" fill-rule="nonzero"></path>
        <path d="M477.5,231.063475 L477.5,203" id="路径-24-copy-6" stroke="#3261AF" fill-rule="nonzero"></path>
        <path d="M551.5,231.063475 L551.5,203" id="路径-24-copy-7" stroke="#3261AF" fill-rule="nonzero"></path>
        <g id="分组-3" transform="translate(174.000000, 148.000000)" fill="#A1CAFF" fill-rule="nonzero" stroke="#3261AF">
            <path d="M0.5,6.5 L10.5,6.5 L10.5,5.5 C10.5,2.73857625 8.26142375,0.5 5.5,0.5 C2.73857625,0.5 0.5,2.73857625 0.5,5.5 L0.5,6.5 Z" id="矩形"></path>
            <path d="M5.5,22.2490942 L5.5,22.0206098 L5.95512443,21.9795964 C8.51884197,21.7485674 10.5,19.5921157 10.5,17 L10.5,12.5 L8.5,12.5 L8.5,9.5 L7.5,9.5 L7.5,12.5 L3.5,12.5 L3.5,9.5 L2.5,9.5 L2.5,12.5 L0.5,12.5 L0.5,17 C0.5,19.5921157 2.48115803,21.7485674 5.04487557,21.9795964 L5.5,22.0206098 L5.5,22.2490942 Z" id="合并形状"></path>
        </g>
        <g id="分组-3-copy-3" transform="translate(174.000000, 90.000000)" fill="#A1CAFF" fill-rule="nonzero" stroke="#3261AF">
            <path d="M0.5,6.5 L10.5,6.5 L10.5,5.5 C10.5,2.73857625 8.26142375,0.5 5.5,0.5 C2.73857625,0.5 0.5,2.73857625 0.5,5.5 L0.5,6.5 Z" id="矩形"></path>
            <path d="M5.5,22.2490942 L5.5,22.0206098 L5.95512443,21.9795964 C8.51884197,21.7485674 10.5,19.5921157 10.5,17 L10.5,12.5 L8.5,12.5 L8.5,9.5 L7.5,9.5 L7.5,12.5 L3.5,12.5 L3.5,9.5 L2.5,9.5 L2.5,12.5 L0.5,12.5 L0.5,17 C0.5,19.5921157 2.48115803,21.7485674 5.04487557,21.9795964 L5.5,22.0206098 L5.5,22.2490942 Z" id="合并形状"></path>
        </g>
        <g id="分组-3-copy-6" transform="translate(174.000000, 32.000000)" fill="#A1CAFF" fill-rule="nonzero" stroke="#3261AF">
            <path d="M0.5,6.5 L10.5,6.5 L10.5,5.5 C10.5,2.73857625 8.26142375,0.5 5.5,0.5 C2.73857625,0.5 0.5,2.73857625 0.5,5.5 L0.5,6.5 Z" id="矩形"></path>
            <path d="M5.5,22.2490942 L5.5,22.0206098 L5.95512443,21.9795964 C8.51884197,21.7485674 10.5,19.5921157 10.5,17 L10.5,12.5 L8.5,12.5 L8.5,9.5 L7.5,9.5 L7.5,12.5 L3.5,12.5 L3.5,9.5 L2.5,9.5 L2.5,12.5 L0.5,12.5 L0.5,17 C0.5,19.5921157 2.48115803,21.7485674 5.04487557,21.9795964 L5.5,22.0206098 L5.5,22.2490942 Z" id="合并形状"></path>
        </g>
        <g id="分组-3-copy-9" transform="translate(98.000000, 32.000000)" fill="#A1CAFF" fill-rule="nonzero" stroke="#3261AF">
            <path d="M0.5,6.5 L10.5,6.5 L10.5,5.5 C10.5,2.73857625 8.26142375,0.5 5.5,0.5 C2.73857625,0.5 0.5,2.73857625 0.5,5.5 L0.5,6.5 Z" id="矩形"></path>
            <path d="M5.5,22.2490942 L5.5,22.0206098 L5.95512443,21.9795964 C8.51884197,21.7485674 10.5,19.5921157 10.5,17 L10.5,12.5 L8.5,12.5 L8.5,9.5 L7.5,9.5 L7.5,12.5 L3.5,12.5 L3.5,9.5 L2.5,9.5 L2.5,12.5 L0.5,12.5 L0.5,17 C0.5,19.5921157 2.48115803,21.7485674 5.04487557,21.9795964 L5.5,22.0206098 L5.5,22.2490942 Z" id="合并形状"></path>
        </g>
        <g id="分组-3-copy-11" transform="translate(399.000000, 32.000000)" fill="#A1CAFF" fill-rule="nonzero" stroke="#3261AF">
            <path d="M0.5,6.5 L10.5,6.5 L10.5,5.5 C10.5,2.73857625 8.26142375,0.5 5.5,0.5 C2.73857625,0.5 0.5,2.73857625 0.5,5.5 L0.5,6.5 Z" id="矩形"></path>
            <path d="M5.5,22.2490942 L5.5,22.0206098 L5.95512443,21.9795964 C8.51884197,21.7485674 10.5,19.5921157 10.5,17 L10.5,12.5 L8.5,12.5 L8.5,9.5 L7.5,9.5 L7.5,12.5 L3.5,12.5 L3.5,9.5 L2.5,9.5 L2.5,12.5 L0.5,12.5 L0.5,17 C0.5,19.5921157 2.48115803,21.7485674 5.04487557,21.9795964 L5.5,22.0206098 L5.5,22.2490942 Z" id="合并形状"></path>
        </g>
        <g id="分组-3-copy" transform="translate(323.000000, 148.000000)" fill="#A1CAFF" fill-rule="nonzero" stroke="#3261AF">
            <path d="M0.5,6.5 L10.5,6.5 L10.5,5.5 C10.5,2.73857625 8.26142375,0.5 5.5,0.5 C2.73857625,0.5 0.5,2.73857625 0.5,5.5 L0.5,6.5 Z" id="矩形"></path>
            <path d="M5.5,22.2490942 L5.5,22.0206098 L5.95512443,21.9795964 C8.51884197,21.7485674 10.5,19.5921157 10.5,17 L10.5,12.5 L8.5,12.5 L8.5,9.5 L7.5,9.5 L7.5,12.5 L3.5,12.5 L3.5,9.5 L2.5,9.5 L2.5,12.5 L0.5,12.5 L0.5,17 C0.5,19.5921157 2.48115803,21.7485674 5.04487557,21.9795964 L5.5,22.0206098 L5.5,22.2490942 Z" id="合并形状"></path>
        </g>
        <g id="分组-3-copy-4" transform="translate(323.000000, 90.000000)" fill="#A1CAFF" fill-rule="nonzero" stroke="#3261AF">
            <path d="M0.5,6.5 L10.5,6.5 L10.5,5.5 C10.5,2.73857625 8.26142375,0.5 5.5,0.5 C2.73857625,0.5 0.5,2.73857625 0.5,5.5 L0.5,6.5 Z" id="矩形"></path>
            <path d="M5.5,22.2490942 L5.5,22.0206098 L5.95512443,21.9795964 C8.51884197,21.7485674 10.5,19.5921157 10.5,17 L10.5,12.5 L8.5,12.5 L8.5,9.5 L7.5,9.5 L7.5,12.5 L3.5,12.5 L3.5,9.5 L2.5,9.5 L2.5,12.5 L0.5,12.5 L0.5,17 C0.5,19.5921157 2.48115803,21.7485674 5.04487557,21.9795964 L5.5,22.0206098 L5.5,22.2490942 Z" id="合并形状"></path>
        </g>
        <g id="分组-3-copy-7" transform="translate(323.000000, 32.000000)" fill="#A1CAFF" fill-rule="nonzero" stroke="#3261AF">
            <path d="M0.5,6.5 L10.5,6.5 L10.5,5.5 C10.5,2.73857625 8.26142375,0.5 5.5,0.5 C2.73857625,0.5 0.5,2.73857625 0.5,5.5 L0.5,6.5 Z" id="矩形"></path>
            <path d="M5.5,22.2490942 L5.5,22.0206098 L5.95512443,21.9795964 C8.51884197,21.7485674 10.5,19.5921157 10.5,17 L10.5,12.5 L8.5,12.5 L8.5,9.5 L7.5,9.5 L7.5,12.5 L3.5,12.5 L3.5,9.5 L2.5,9.5 L2.5,12.5 L0.5,12.5 L0.5,17 C0.5,19.5921157 2.48115803,21.7485674 5.04487557,21.9795964 L5.5,22.0206098 L5.5,22.2490942 Z" id="合并形状"></path>
        </g>
        <g id="分组-3-copy-10" transform="translate(247.000000, 32.000000)" fill="#A1CAFF" fill-rule="nonzero" stroke="#3261AF">
            <path d="M0.5,6.5 L10.5,6.5 L10.5,5.5 C10.5,2.73857625 8.26142375,0.5 5.5,0.5 C2.73857625,0.5 0.5,2.73857625 0.5,5.5 L0.5,6.5 Z" id="矩形"></path>
            <path d="M5.5,22.2490942 L5.5,22.0206098 L5.95512443,21.9795964 C8.51884197,21.7485674 10.5,19.5921157 10.5,17 L10.5,12.5 L8.5,12.5 L8.5,9.5 L7.5,9.5 L7.5,12.5 L3.5,12.5 L3.5,9.5 L2.5,9.5 L2.5,12.5 L0.5,12.5 L0.5,17 C0.5,19.5921157 2.48115803,21.7485674 5.04487557,21.9795964 L5.5,22.0206098 L5.5,22.2490942 Z" id="合并形状"></path>
        </g>
        <g id="分组-3-copy-12" transform="translate(548.000000, 32.000000)" fill="#A1CAFF" fill-rule="nonzero" stroke="#3261AF">
            <path d="M0.5,6.5 L10.5,6.5 L10.5,5.5 C10.5,2.73857625 8.26142375,0.5 5.5,0.5 C2.73857625,0.5 0.5,2.73857625 0.5,5.5 L0.5,6.5 Z" id="矩形"></path>
            <path d="M5.5,22.2490942 L5.5,22.0206098 L5.95512443,21.9795964 C8.51884197,21.7485674 10.5,19.5921157 10.5,17 L10.5,12.5 L8.5,12.5 L8.5,9.5 L7.5,9.5 L7.5,12.5 L3.5,12.5 L3.5,9.5 L2.5,9.5 L2.5,12.5 L0.5,12.5 L0.5,17 C0.5,19.5921157 2.48115803,21.7485674 5.04487557,21.9795964 L5.5,22.0206098 L5.5,22.2490942 Z" id="合并形状"></path>
        </g>
        <g id="分组-3-copy-2" transform="translate(472.000000, 148.000000)" fill="#A1CAFF" fill-rule="nonzero" stroke="#3261AF">
            <path d="M0.5,6.5 L10.5,6.5 L10.5,5.5 C10.5,2.73857625 8.26142375,0.5 5.5,0.5 C2.73857625,0.5 0.5,2.73857625 0.5,5.5 L0.5,6.5 Z" id="矩形"></path>
            <path d="M5.5,22.2490942 L5.5,22.0206098 L5.95512443,21.9795964 C8.51884197,21.7485674 10.5,19.5921157 10.5,17 L10.5,12.5 L8.5,12.5 L8.5,9.5 L7.5,9.5 L7.5,12.5 L3.5,12.5 L3.5,9.5 L2.5,9.5 L2.5,12.5 L0.5,12.5 L0.5,17 C0.5,19.5921157 2.48115803,21.7485674 5.04487557,21.9795964 L5.5,22.0206098 L5.5,22.2490942 Z" id="合并形状"></path>
        </g>
        <g id="分组-3-copy-5" transform="translate(472.000000, 90.000000)" fill="#A1CAFF" fill-rule="nonzero" stroke="#3261AF">
            <path d="M0.5,6.5 L10.5,6.5 L10.5,5.5 C10.5,2.73857625 8.26142375,0.5 5.5,0.5 C2.73857625,0.5 0.5,2.73857625 0.5,5.5 L0.5,6.5 Z" id="矩形"></path>
            <path d="M5.5,22.2490942 L5.5,22.0206098 L5.95512443,21.9795964 C8.51884197,21.7485674 10.5,19.5921157 10.5,17 L10.5,12.5 L8.5,12.5 L8.5,9.5 L7.5,9.5 L7.5,12.5 L3.5,12.5 L3.5,9.5 L2.5,9.5 L2.5,12.5 L0.5,12.5 L0.5,17 C0.5,19.5921157 2.48115803,21.7485674 5.04487557,21.9795964 L5.5,22.0206098 L5.5,22.2490942 Z" id="合并形状"></path>
        </g>
        <g id="分组-3-copy-8" transform="translate(472.000000, 32.000000)" fill="#A1CAFF" fill-rule="nonzero" stroke="#3261AF">
            <path d="M0.5,6.5 L10.5,6.5 L10.5,5.5 C10.5,2.73857625 8.26142375,0.5 5.5,0.5 C2.73857625,0.5 0.5,2.73857625 0.5,5.5 L0.5,6.5 Z" id="矩形"></path>
            <path d="M5.5,22.2490942 L5.5,22.0206098 L5.95512443,21.9795964 C8.51884197,21.7485674 10.5,19.5921157 10.5,17 L10.5,12.5 L8.5,12.5 L8.5,9.5 L7.5,9.5 L7.5,12.5 L3.5,12.5 L3.5,9.5 L2.5,9.5 L2.5,12.5 L0.5,12.5 L0.5,17 C0.5,19.5921157 2.48115803,21.7485674 5.04487557,21.9795964 L5.5,22.0206098 L5.5,22.2490942 Z" id="合并形状"></path>
        </g>
    </g>
</svg>