<?xml version="1.0" encoding="UTF-8"?>
<svg width="80px" height="80px" viewBox="0 0 80 80" version="1.1" xmlns="http://www.w3.org/2000/svg" xmlns:xlink="http://www.w3.org/1999/xlink">
    <!-- Generator: Sketch 54.1 (76490) - https://sketchapp.com -->
    <title>画板复制 7</title>
    <desc>Created with Sketch.</desc>
    <defs>
        <linearGradient x1="50%" y1="29.5910494%" x2="57.5938899%" y2="69.2927489%" id="linearGradient-1">
            <stop stop-color="#3D1BFF" offset="0%"></stop>
            <stop stop-color="#00A7E7" offset="100%"></stop>
        </linearGradient>
        <linearGradient x1="50%" y1="0%" x2="51.166264%" y2="97.2654113%" id="linearGradient-2">
            <stop stop-color="#3D1BFF" offset="0%"></stop>
            <stop stop-color="#00A7E7" offset="100%"></stop>
        </linearGradient>
        <linearGradient x1="50%" y1="0%" x2="57.5938899%" y2="97.2654113%" id="linearGradient-3">
            <stop stop-color="#3D1BFF" offset="0%"></stop>
            <stop stop-color="#00A7E7" offset="100%"></stop>
        </linearGradient>
        <linearGradient x1="55.3531117%" y1="100%" x2="50%" y2="3.061617e-15%" id="linearGradient-4">
            <stop stop-color="#40BCF9" stop-opacity="0" offset="0%"></stop>
            <stop stop-color="#1E87F0" offset="100%"></stop>
        </linearGradient>
    </defs>
    <g id="Page-1" stroke="none" stroke-width="1" fill="none" fill-rule="evenodd">
        <g id="画板" transform="translate(-456.000000, -716.000000)" fill-rule="nonzero">
            <g id="编组-4" transform="translate(461.000000, 719.000000)">
                <path d="M2,0 L38,0 L38,23 L2,23 L2,0 Z M6.07989073,3 L6.07989073,20 L35,20 L35,3 L6.07989073,3 Z" id="矩形" fill="url(#linearGradient-1)"></path>
                <path d="M41,0 L70,0 L70,74 L41,74 L41,0 Z M44,3 L44,71 L67,71 L67,3 L44,3 Z" id="矩形" fill="url(#linearGradient-2)"></path>
                <path d="M17,75.5 C26.1126984,75.5 33.5,68.1126984 33.5,59 C33.5,49.8873016 26.1126984,42.5 17,42.5 C7.88730163,42.5 0.5,49.8873016 0.5,59 C0.5,68.1126984 7.88730163,75.5 17,75.5 Z M17,72.5 C9.54415588,72.5 3.5,66.4558441 3.5,59 C3.5,51.5441559 9.54415588,45.5 17,45.5 C24.4558441,45.5 30.5,51.5441559 30.5,59 C30.5,66.4558441 24.4558441,72.5 17,72.5 Z" id="椭圆形" fill="url(#linearGradient-3)"></path>
                <path d="M14,59 L13,59 L13,32 L27,32 L27,47.5237242 L49.5,47.5237242 L49.5,16 L14,16 L14,4 L61.5,4 L61.5,59.5237242 L14,59.5237242 L14,59 Z" id="形状结合" fill="url(#linearGradient-4)"></path>
            </g>
        </g>
    </g>
</svg>