<?xml version="1.0" encoding="UTF-8"?>
<svg width="80px" height="80px" viewBox="0 0 80 80" version="1.1" xmlns="http://www.w3.org/2000/svg" xmlns:xlink="http://www.w3.org/1999/xlink">
    <!-- Generator: Sketch 54.1 (76490) - https://sketchapp.com -->
    <title>画板复制</title>
    <desc>Created with Sketch.</desc>
    <defs>
        <linearGradient x1="57.0158453%" y1="100%" x2="50%" y2="3.061617e-15%" id="linearGradient-1">
            <stop stop-color="#40BCF9" stop-opacity="0" offset="0%"></stop>
            <stop stop-color="#1E87F0" offset="100%"></stop>
        </linearGradient>
        <linearGradient x1="50%" y1="37.5%" x2="57.5938899%" y2="61.8163528%" id="linearGradient-2">
            <stop stop-color="#3D1BFF" offset="0%"></stop>
            <stop stop-color="#00A7E7" offset="100%"></stop>
        </linearGradient>
        <linearGradient x1="50%" y1="0%" x2="57.5938899%" y2="97.2654113%" id="linearGradient-3">
            <stop stop-color="#3D1BFF" offset="0%"></stop>
            <stop stop-color="#00A7E7" offset="100%"></stop>
        </linearGradient>
        <linearGradient x1="50%" y1="37.5%" x2="57.5938899%" y2="61.8163528%" id="linearGradient-4">
            <stop stop-color="#3D1BFF" offset="0%"></stop>
            <stop stop-color="#00A7E7" offset="100%"></stop>
        </linearGradient>
    </defs>
    <g id="Page-1" stroke="none" stroke-width="1" fill="none" fill-rule="evenodd">
        <g id="画板" transform="translate(-571.000000, -172.000000)" fill-rule="nonzero">
            <g id="编组" transform="translate(578.000000, 172.000000)">
                <circle id="椭圆形" fill="url(#linearGradient-1)" cx="32.5" cy="28" r="28"></circle>
                <path d="M0,33 C0,50.9492544 14.5507456,65.5 32.5,65.5 C50.4492544,65.5 65,50.9492544 65,33 L62,33 C62,49.2924001 48.7924001,62.5 32.5,62.5 C16.2075999,62.5 3,49.2924001 3,33 L0,33 Z" id="路径" fill="url(#linearGradient-2)"></path>
                <path d="M32.5,56 C39.4035594,56 45,50.4035594 45,43.5 C45,36.5964406 39.4035594,31 32.5,31 C25.5964406,31 20,36.5964406 20,43.5 C20,50.4035594 25.5964406,56 32.5,56 Z M32.5,53 C27.2532949,53 23,48.7467051 23,43.5 C23,38.2532949 27.2532949,34 32.5,34 C37.7467051,34 42,38.2532949 42,43.5 C42,48.7467051 37.7467051,53 32.5,53 Z" id="椭圆形" fill="url(#linearGradient-3)"></path>
                <path d="M50.5,80 C50.5,70.0588745 42.4411255,62 32.5,62 C22.5588745,62 14.5,70.0588745 14.5,80 L50.5,80 Z M17.8000543,77 C19.1898653,70.153279 25.2431263,65 32.5,65 C39.7568737,65 45.8101347,70.153279 47.1999457,77 L17.8000543,77 Z" id="形状" fill="url(#linearGradient-4)"></path>
            </g>
        </g>
    </g>
</svg>