<?xml version="1.0" encoding="UTF-8"?>
<svg width="549px" height="526px" viewBox="0 0 549 526" version="1.1" xmlns="http://www.w3.org/2000/svg" xmlns:xlink="http://www.w3.org/1999/xlink">
    <!-- Generator: Sketch 54.1 (76490) - https://sketchapp.com -->
    <title>编组 4</title>
    <desc>Created with Sketch.</desc>
    <g id="Page-1" stroke="none" stroke-width="1" fill="none" fill-rule="evenodd">
        <g id="product—数聚蜂巢-集成编排平台-copy" transform="translate(-130.000000, -929.000000)">
            <g id="编组-4" transform="translate(130.000000, 930.000000)">
                <rect id="Rectangle-Copy-73" stroke="#D9D9D9" stroke-width="0.9" fill="#F2F2F2" x="0.45" y="367.65" width="548.1" height="75.6"></rect>
                <rect id="Rectangle" stroke="#D9D9D9" stroke-width="0.9" fill="#F2F2F2" x="0.45" y="79.65" width="548.1" height="75.6"></rect>
                <rect id="Rectangle-Copy-72" stroke="#D9D9D9" stroke-width="0.9" fill="#F2F2F2" x="0.45" y="223.65" width="548.1" height="75.6"></rect>
                <g id="Group-29-Copy-4" transform="translate(204.300000, 306.000000)">
                    <circle id="Oval-8" stroke="#F3BF25" stroke-width="1.62" cx="20.0376746" cy="19.5120225" r="19.3959184"></circle>
                    <path d="M13.1682869,11.8344715 L13.1682869,28.8059 L26.9070624,28.8059 L26.9070624,11.8344715 L13.1682869,11.8344715 Z M11.956042,10.6222266 L28.1193073,10.6222266 L28.1193073,30.0181449 L11.956042,30.0181449 L11.956042,10.6222266 Z M14.5825726,18.9059 L14.5825726,17.6936551 L25.5263919,17.6936551 L25.5263919,18.9059 L14.5825726,18.9059 Z M14.5825726,23.573539 L14.5825726,22.3612941 L25.5263919,22.3612941 L25.5263919,23.573539 L14.5825726,23.573539 Z M15.7948175,8.80385923 L17.0070624,8.80385923 L17.0070624,14.3681965 L15.7948175,14.3681965 L15.7948175,8.80385923 Z M23.1105609,8.80385923 L24.3228058,8.80385923 L24.3228058,14.3681965 L23.1105609,14.3681965 L23.1105609,8.80385923 Z" id="Rectangle-4" fill="#506773" fill-rule="nonzero"></path>
                </g>
                <g id="Group-33-Copy-3" transform="translate(342.000000, 306.000000)">
                    <circle id="Oval-8" stroke="#F3BF25" stroke-width="1.62" cx="19.35" cy="19.35" r="19.35"></circle>
                    <path d="M19.1507923,13.545 C18.6424681,13.545 18.1711961,13.2790396 17.9084479,12.843888 L16.9183611,11.2041513 C16.8891669,11.1558012 16.8368033,11.12625 16.7803229,11.12625 L10.48125,11.12625 C10.3921941,11.12625 10.32,11.1984441 10.32,11.2875 L10.32,25.8 C10.32,26.7796151 11.1141349,27.57375 12.09375,27.57375 L26.60625,27.57375 C27.5858651,27.57375 28.38,26.7796151 28.38,25.8 L28.38,13.70625 C28.38,13.6171941 28.3078059,13.545 28.21875,13.545 L19.1507923,13.545 Z M19.1507923,12.255 L28.21875,12.255 C29.0202532,12.255 29.67,12.9047468 29.67,13.70625 L29.67,25.8 C29.67,27.4920624 28.2983124,28.86375 26.60625,28.86375 L12.09375,28.86375 C10.4016876,28.86375 9.03,27.4920624 9.03,25.8 L9.03,11.2875 C9.03,10.4859968 9.67974676,9.83625 10.48125,9.83625 L16.7803229,9.83625 C17.2886471,9.83625 17.759919,10.1022104 18.0226672,10.537362 L19.012754,12.1770987 C19.0419483,12.2254488 19.0943118,12.255 19.1507923,12.255 Z M12.09375,28.86375 L12.09375,27.57375 C13.0733651,27.57375 13.8675,26.7796151 13.8675,25.8 L13.8675,17.5837084 L28.621875,17.5837084 L28.621875,18.8737084 L15.1575,18.8737084 L15.1575,25.8 C15.1575,26.4610426 14.9481459,27.073188 14.5921239,27.57375 L25.2423003,27.57375 L25.2423003,28.86375 L12.09375,28.86375 L12.09375,27.57375 L14.5921239,27.57375 C14.0368409,28.3544702 13.1247698,28.86375 12.09375,28.86375 Z" id="Combined-Shape" fill="#506773" fill-rule="nonzero"></path>
                </g>
                <g id="大数据-(2)-copy-2" transform="translate(204.300000, 377.100000)">
                    <circle id="Oval-8" stroke="#7EC257" stroke-width="1.62" cx="20.0376746" cy="19.5120225" r="19.3959184"></circle>
                    <path d="M29.6935393,22.2861879 C29.5979045,22.2861879 29.5047377,22.2962771 29.4132042,22.3112183 L25.4303326,15.6054354 C25.8109119,15.1498035 26.0437018,14.5523835 26.0437018,13.8958916 C26.0437018,12.4700396 24.9544088,11.3142857 23.6105494,11.3142857 C22.26669,11.3142857 21.177397,12.4700396 21.177397,13.8958916 C21.177397,14.727905 21.5498828,15.4659963 22.1261232,15.9382253 L17.6738245,24.8301325 C17.4716667,24.7723313 17.2601814,24.738752 17.0409654,24.738752 C16.6368312,24.738752 16.2562519,24.8448812 15.9209676,25.0299913 L12.2305897,20.3954234 C12.4324515,20.0767021 12.5400476,19.7013016 12.5395971,19.3173025 C12.5395971,18.2480001 11.7225094,17.3810981 10.7146965,17.3810981 C9.70688363,17.3810981 8.88979592,18.2480001 8.88979592,19.3173025 C8.88979592,20.3866435 9.70688363,21.253507 10.7146965,21.253507 C10.897155,21.253625 11.0785944,21.2246512 11.2529371,21.1675561 L15.0146328,25.8920028 C14.7488108,26.3149364 14.6072418,26.8120468 14.6078492,27.3203964 C14.6078492,28.7462485 15.6971423,29.9020408 17.0410017,29.9020408 C18.3848248,29.9020408 19.4741541,28.7462485 19.4741541,27.3204349 C19.4741541,26.5926254 19.1892458,25.936403 18.7325579,25.4670621 L23.2492786,16.4460746 C23.3674883,16.4646742 23.4874764,16.4776131 23.6105857,16.4776131 C23.8952762,16.4776131 24.1673363,16.4231236 24.421322,16.3275842 L28.3404613,22.9264677 C28.0482216,23.2698475 27.868675,23.7234384 27.868675,24.2224693 C27.868675,25.2918102 28.6857264,26.1586737 29.6935393,26.1586737 C30.7014248,26.1586737 31.5183673,25.2918102 31.5183673,24.2224693 C31.5183673,23.1530899 30.7013885,22.2862649 29.693503,22.2862649 L29.6935393,22.2861879 Z" id="Shape" fill="#506773" fill-rule="nonzero"></path>
                </g>
                <g id="Group-32-Copy-4" transform="translate(204.300000, 162.900000)">
                    <circle id="Oval-8" stroke="#1DBD65" stroke-width="1.62" cx="19.35" cy="19.35" r="19.35"></circle>
                    <path d="M26.6137429,12.4178625 L26.6137429,26.7698905 L26.6054195,26.7698905 C26.6054195,28.1584949 23.226844,29.2841812 19.0591598,29.2841812 C14.8914756,29.2841812 11.5129,28.1584949 11.5129,26.7698905 L11.5129,26.7698905 L11.5073631,26.7698905 L11.5073631,12.4178625 M11.5129,26.8178906 C11.5129,28.206495 14.8914756,29.3321813 19.0591598,29.3321813 C23.226844,29.3321813 26.6054195,28.206495 26.6054195,26.8178906 M19.0591598,14.9321531 C23.226844,14.9321531 26.6054195,13.8064669 26.6054195,12.4178625 C26.6054195,11.0292581 23.226844,9.90357188 19.0591598,9.90357188 C14.8914756,9.90357188 11.5129,11.0292581 11.5129,12.4178625 C11.5129,13.8064669 14.8914756,14.9321531 19.0591598,14.9321531 Z M11.5129,17.0795859 C11.5129,18.4681903 14.8914756,19.5938765 19.0591598,19.5938765 C23.226844,19.5938765 26.6054195,18.4681903 26.6054195,17.0795859 M11.5129,22.1081671 C11.5129,23.4967715 14.8914756,24.6224578 19.0591598,24.6224578 C23.226844,24.6224578 26.6054195,23.4967715 26.6054195,22.1081671" id="Combined-Shape" stroke="#506773" stroke-width="1.215"></path>
                </g>
                <g id="Group-38-Copy-6" transform="translate(204.300000, 454.500000)">
                    <circle id="Oval-8" stroke="#394A5E" stroke-width="1.62" cx="19.5283565" cy="19.4579979" r="19.3959184"></circle>
                    <path d="M13.3334318,16.0399213 L13.3334318,22.3191928 C13.3334318,23.0556477 13.9304464,23.6526622 14.6669012,23.6526622 L25.6693705,23.6526622 L25.6693705,17.3733907 C25.6693705,16.6369359 25.0723559,16.0399213 24.3359011,16.0399213 L13.3334318,16.0399213 Z M11.9999624,14.7064519 L24.3359011,14.7064519 C25.8088107,14.7064519 27.0028398,15.9004811 27.0028398,17.3733907 L27.0028398,24.9861316 L14.6669012,24.9861316 C13.1939916,24.9861316 11.9999624,23.7921025 11.9999624,22.3191928 L11.9999624,14.7064519 Z M13.3287942,16.3653061 L11.9953248,16.3653061 L11.9953248,12.6999494 L13.3287942,12.6999494 L13.3287942,16.3653061 Z M26.9973491,26.4367704 L25.6638797,26.4367704 L25.6638797,22.7714137 L26.9973491,22.7714137 L26.9973491,26.4367704 Z M12.7285714,13.4725884 C11.6238892,13.4725884 10.7283673,12.5770665 10.7283673,11.4723843 C10.7283673,10.3677021 11.6238892,9.4721802 12.7285714,9.4721802 C13.8332536,9.4721802 14.7287755,10.3677021 14.7287755,11.4723843 C14.7287755,12.5770665 13.8332536,13.4725884 12.7285714,13.4725884 Z M12.7285714,12.139119 C13.0967988,12.139119 13.3953061,11.8406117 13.3953061,11.4723843 C13.3953061,11.1041569 13.0967988,10.8056496 12.7285714,10.8056496 C12.360344,10.8056496 12.0618367,11.1041569 12.0618367,11.4723843 C12.0618367,11.8406117 12.360344,12.139119 12.7285714,12.139119 Z M26.3306144,29.6778784 C25.2259322,29.6778784 24.3304103,28.7823566 24.3304103,27.6776743 C24.3304103,26.5729921 25.2259322,25.6774703 26.3306144,25.6774703 C27.4352966,25.6774703 28.3308185,26.5729921 28.3308185,27.6776743 C28.3308185,28.7823566 27.4352966,29.6778784 26.3306144,29.6778784 Z M26.3306144,28.344409 C26.6988418,28.344409 26.9973491,28.0459017 26.9973491,27.6776743 C26.9973491,27.3094469 26.6988418,27.0109396 26.3306144,27.0109396 C25.962387,27.0109396 25.6638797,27.3094469 25.6638797,27.6776743 C25.6638797,28.0459017 25.962387,28.344409 26.3306144,28.344409 Z" id="Rectangle-5" fill="#506773" fill-rule="nonzero"></path>
                </g>
                <rect id="Rectangle" stroke="#8492A6" stroke-width="0.9" x="0.45" y="0.45" width="548.1" height="522.9"></rect>
                <path d="M40.7010945,473.514075 L40.7010945,480.5069 C40.7010945,481.327043 41.3659517,481.9919 42.1860945,481.9919 L54.4388444,481.9919 L54.4388444,474.999075 C54.4388444,474.178932 53.7739872,473.514075 52.9538444,473.514075 L40.7010945,473.514075 Z M39.2160945,472.029075 L52.9538444,472.029075 C54.5941301,472.029075 55.9238444,473.35879 55.9238444,474.999075 L55.9238444,483.4769 L42.1860945,483.4769 C40.5458088,483.4769 39.2160945,482.147186 39.2160945,480.5069 L39.2160945,472.029075 Z M40.6959299,473.876436 L39.2109299,473.876436 L39.2109299,469.794561 L40.6959299,469.794561 L40.6959299,473.876436 Z M55.9177297,485.092385 L54.4327297,485.092385 L54.4327297,481.01051 L55.9177297,481.01051 L55.9177297,485.092385 Z M40.0275,470.655 C38.7972857,470.655 37.8,469.657714 37.8,468.4275 C37.8,467.197286 38.7972857,466.2 40.0275,466.2 C41.2577143,466.2 42.255,467.197286 42.255,468.4275 C42.255,469.657714 41.2577143,470.655 40.0275,470.655 Z M40.0275,469.17 C40.4375714,469.17 40.77,468.837571 40.77,468.4275 C40.77,468.017429 40.4375714,467.685 40.0275,467.685 C39.6174286,467.685 39.285,468.017429 39.285,468.4275 C39.285,468.837571 39.6174286,469.17 40.0275,469.17 Z M55.1752297,488.7018 C53.9450154,488.7018 52.9477297,487.704515 52.9477297,486.4743 C52.9477297,485.244086 53.9450154,484.2468 55.1752297,484.2468 C56.4054439,484.2468 57.4027297,485.244086 57.4027297,486.4743 C57.4027297,487.704515 56.4054439,488.7018 55.1752297,488.7018 Z M55.1752297,487.2168 C55.5853011,487.2168 55.9177297,486.884372 55.9177297,486.4743 C55.9177297,486.064229 55.5853011,485.7318 55.1752297,485.7318 C54.7651582,485.7318 54.4327297,486.064229 54.4327297,486.4743 C54.4327297,486.884372 54.7651582,487.2168 55.1752297,487.2168 Z" id="Rectangle-5" fill="#506773" fill-rule="nonzero"></path>
                <g id="Group-32" transform="translate(37.800000, 176.400000)" stroke="#506773" stroke-width="1.35">
                    <path d="M19.8,3.26117647 L19.8,21.8765647 L19.7890906,21.8765647 C19.7890906,23.6776627 15.3607764,25.1377412 9.89817394,25.1377412 C4.43557151,25.1377412 0.0072572812,23.6776627 0.0072572812,21.8765647 L0.0072572812,21.8765647 L0,21.8765647 L0,3.26117647 M0.0072572812,21.9388235 C0.0072572812,23.7399216 4.43557151,25.2 9.89817394,25.2 C15.3607764,25.2 19.7890906,23.7399216 19.7890906,21.9388235 M9.89817394,6.52235294 C15.3607764,6.52235294 19.7890906,5.0622745 19.7890906,3.26117647 C19.7890906,1.46007844 15.3607764,0 9.89817394,0 C4.43557151,0 0.0072572812,1.46007844 0.0072572812,3.26117647 C0.0072572812,5.0622745 4.43557151,6.52235294 9.89817394,6.52235294 Z M0.0072572812,9.30769412 C0.0072572812,11.1087921 4.43557151,12.5688706 9.89817394,12.5688706 C15.3607764,12.5688706 19.7890906,11.1087921 19.7890906,9.30769412 M0.0072572812,15.8300471 C0.0072572812,17.6311451 4.43557151,19.0912235 9.89817394,19.0912235 C15.3607764,19.0912235 19.7890906,17.6311451 19.7890906,15.8300471" id="Combined-Shape"></path>
                </g>
                <g id="Group-41" transform="translate(35.100000, 28.800000)" fill="#506773" fill-rule="nonzero">
                    <path d="M19.7023473,8.62469469 C17.3704093,8.62469469 15.48,6.7342854 15.48,4.40234735 C15.48,2.0704093 17.3704093,0.18 19.7023473,0.18 C22.0342854,0.18 23.9246947,2.0704093 23.9246947,4.40234735 C23.9246947,6.7342854 22.0342854,8.62469469 19.7023473,8.62469469 Z M19.7023473,7.18469469 C21.2389954,7.18469469 22.4846947,5.93899536 22.4846947,4.40234735 C22.4846947,2.86569934 21.2389954,1.62 19.7023473,1.62 C18.1656993,1.62 16.92,2.86569934 16.92,4.40234735 C16.92,5.93899536 18.1656993,7.18469469 19.7023473,7.18469469 Z M12.15,16.3723473 C9.81806195,16.3723473 7.92765265,14.481938 7.92765265,12.15 C7.92765265,9.81806195 9.81806195,7.92765265 12.15,7.92765265 C14.481938,7.92765265 16.3723473,9.81806195 16.3723473,12.15 C16.3723473,14.481938 14.481938,16.3723473 12.15,16.3723473 Z M12.15,14.9323473 C13.686648,14.9323473 14.9323473,13.686648 14.9323473,12.15 C14.9323473,10.613352 13.686648,9.36765265 12.15,9.36765265 C10.613352,9.36765265 9.36765265,10.613352 9.36765265,12.15 C9.36765265,13.686648 10.613352,14.9323473 12.15,14.9323473 Z M4.40234735,24.12 C2.0704093,24.12 0.18,22.2295907 0.18,19.8976527 C0.18,17.5657146 2.0704093,15.6753053 4.40234735,15.6753053 C6.7342854,15.6753053 8.62469469,17.5657146 8.62469469,19.8976527 C8.62469469,22.2295907 6.7342854,24.12 4.40234735,24.12 Z M4.40234735,22.68 C5.93899536,22.68 7.18469469,21.4343007 7.18469469,19.8976527 C7.18469469,18.3610046 5.93899536,17.1153053 4.40234735,17.1153053 C2.86569934,17.1153053 1.62,18.3610046 1.62,19.8976527 C1.62,21.4343007 2.86569934,22.68 4.40234735,22.68 Z M19.0854686,8.04235656 L20.5254686,8.04235656 L20.5254686,12.9839099 L16.0464871,12.9839099 L16.0464871,11.5439099 L19.0854686,11.5439099 L19.0854686,8.04235656 Z M5.43181668,16.2516912 L3.99181668,16.2516912 L3.99181668,11.699068 L8.1318626,11.699068 L8.1318626,13.139068 L5.43181668,13.139068 L5.43181668,16.2516912 Z" id="Oval-7"></path>
                </g>
                <text id="数据处理类" font-family="PingFangSC-Regular, PingFang SC" font-size="10.8" font-weight="normal" fill="#4A4A4A">
                    <tspan x="75.6" y="44.3">数据处理类</tspan>
                </text>
                <text id="数据输出" font-family="PingFangSC-Regular, PingFang SC" font-size="10.8" font-weight="normal" fill="#4A4A4A">
                    <tspan x="202.5" y="65.9">数据输出</tspan>
                </text>
                <text id="消息事件" font-family="PingFangSC-Regular, PingFang SC" font-size="10.8" font-weight="normal" fill="#4A4A4A">
                    <tspan x="340.2" y="65.9">消息事件</tspan>
                </text>
                <text id="数据抓取" font-family="PingFangSC-Regular, PingFang SC" font-size="10.8" font-weight="normal" fill="#4A4A4A">
                    <tspan x="466.2" y="65.9">数据抓取</tspan>
                </text>
                <text id="数据库类" font-family="PingFangSC-Regular, PingFang SC" font-size="10.8" font-weight="normal" fill="#4A4A4A">
                    <tspan x="75.6" y="192.8">数据库类</tspan>
                </text>
                <text id="大数据类" font-family="PingFangSC-Regular, PingFang SC" font-size="10.8" font-weight="normal" fill="#4A4A4A">
                    <tspan x="75.6" y="407.9">大数据类</tspan>
                </text>
                <text id="执行类" font-family="PingFangSC-Regular, PingFang SC" font-size="10.8" font-weight="normal" fill="#4A4A4A">
                    <tspan x="75.6" y="480.8">执行类</tspan>
                </text>
                <text id="转换器类" font-family="PingFangSC-Regular, PingFang SC" font-size="10.8" font-weight="normal" fill="#4A4A4A">
                    <tspan x="75.6" y="121.7">转换器类</tspan>
                </text>
                <g id="网络" transform="translate(35.100000, 251.100000)" fill="#506773" fill-rule="nonzero">
                    <path d="M12.1499747,5.05768244e-05 C5.46748862,5.05768244e-05 0,5.41239742 0,12.15 C0,18.8877545 5.46748862,24.2999494 12.1499747,24.2999494 C15.3751943,24.3092621 18.4710017,23.0321726 20.7515858,20.7515932 C23.03217,18.4710138 24.3092621,15.3752128 24.2999494,12.15 C24.3092621,8.92478715 23.03217,5.82898617 20.7515858,3.54840678 C18.4710017,1.2678274 15.3751943,-0.00926212919 12.1499747,5.05768244e-05 Z M8.89150337,1.60156579 L8.22872225,2.43004046 C8.22872225,2.48532273 8.17343986,2.48532273 8.17343986,2.540605 C7.73163641,3.14810247 7.34496346,3.86601261 7.01372478,4.63920502 C7.01372478,4.69433541 6.95859427,4.74961768 6.95859427,4.74961768 C6.95859427,4.80489995 6.90331188,4.86018222 6.90331188,4.91531262 C6.24053076,4.58392275 5.6331839,4.19740248 5.08081567,3.75559994 C6.13026974,2.76127846 7.45568011,2.04336832 8.89150337,1.60156579 Z M4.19720876,4.47351008 C4.85998988,5.02572528 5.57790152,5.52281009 6.46150843,5.90933035 C6.46150843,5.96461262 6.40622604,6.01989489 6.40622604,6.01989489 C6.13011787,6.84836957 5.9091402,7.78725691 5.79872731,8.72599238 C5.79872731,8.83655692 5.74344492,8.94696958 5.74344492,9.11266452 C5.68816254,9.49918478 5.63303203,9.83057466 5.63303203,10.2170949 C5.63303203,10.3827899 5.63303203,10.4932025 5.57774964,10.6588975 C5.57774964,10.9902873 5.57774964,11.2663949 5.52246726,11.5977848 L1.1044327,11.5977848 C1.27012798,8.83640504 2.42999494,6.35113289 4.19720876,4.47351008 Z M1.1044327,12.7022152 L5.52261913,12.7022152 C5.52261913,13.0336051 5.52261913,13.3648431 5.57790152,13.6412544 C5.57790152,13.8069494 5.57790152,13.917362 5.6331839,14.083057 C5.68831441,14.4695772 5.68831441,14.801119 5.7435968,15.1873355 C5.7435968,15.2980519 5.79887918,15.4084646 5.79887918,15.5741595 C5.96457446,16.512895 6.18540025,17.4517823 6.40637792,18.280257 C6.40637792,18.3352355 6.4616603,18.3908215 6.4616603,18.3908215 C5.64874801,18.7708405 4.88780246,19.2533144 4.19736064,19.8264899 C2.42999494,17.9488671 1.27012798,15.463595 1.1044327,12.7022152 Z M5.02568516,20.5445519 C5.57790152,20.1027494 6.18540025,19.7162291 6.84818137,19.3846874 C6.84818137,19.4398178 6.90331188,19.4951 6.90331188,19.5505342 C6.90331188,19.6055127 6.95859427,19.660795 6.95859427,19.660795 C7.28998483,20.4341393 7.6765059,21.1518975 8.11830935,21.7595469 C8.11830935,21.8145254 8.17343986,21.8145254 8.17343986,21.8701114 L8.83622098,22.6984342 C7.45568011,22.2566317 6.13026974,21.5387215 5.02568516,20.5445519 Z M11.5977584,23.1400849 C10.0513703,22.808695 8.72580809,21.2624621 7.84220118,18.9981671 C9.00191626,18.5565165 10.2721961,18.3353874 11.5977584,18.280257 L11.5977584,23.1400849 Z M11.5977584,17.1205443 C10.1066527,17.1756747 8.72580809,17.4519342 7.45568011,17.8938886 C6.95874614,16.3472 6.68248609,14.5802936 6.62720371,12.6470848 L11.5977584,12.6470848 L11.5977584,17.1205443 L11.5977584,17.1205443 Z M11.5977584,11.5977848 L6.62720371,11.5977848 C6.68248609,9.66472785 6.95859427,7.8975177 7.45568011,6.35113289 C8.72580809,6.79293542 10.1066527,7.06904303 11.5977584,7.1243253 L11.5977584,11.5977848 L11.5977584,11.5977848 Z M11.5977584,6.07502529 C10.3173033,6.0226599 9.05168893,5.78072579 7.84220118,5.35711515 C8.72580809,3.03753793 10.1065008,1.49115312 11.5977584,1.21504552 L11.5977584,6.07502529 Z M23.1956686,11.5977848 L18.7773303,11.5977848 C18.7773303,11.2663949 18.7773303,10.9350051 18.7221998,10.6588975 C18.7221998,10.4932025 18.7221998,10.3827899 18.6667655,10.2170949 C18.6117869,9.83057466 18.6117869,9.49918478 18.5565045,9.11266452 C18.5565045,9.00209998 18.5010702,8.89168731 18.5010702,8.72599238 C18.335375,7.78725691 18.1145492,6.84836957 17.8938753,6.01989489 C17.8938753,5.96461262 17.838441,5.90933035 17.838441,5.90933035 C18.6513865,5.52922416 19.4123778,5.0467026 20.1028925,4.47351008 C21.8701064,6.35113289 23.0299733,8.83640504 23.1956686,11.5977848 L23.1956686,11.5977848 Z M19.2742643,3.75544807 C18.7220479,4.19725061 18.1143973,4.58392275 17.4517681,4.91516074 C17.4517681,4.86003035 17.3966375,4.80474808 17.3966375,4.74946581 C17.3966375,4.69418354 17.3413552,4.63905314 17.3413552,4.63905314 C17.0099646,3.86586073 16.6234435,3.1479506 16.1814882,2.54045313 C16.1814882,2.48517086 16.1263577,2.48517086 16.1263577,2.42988859 L15.4637284,1.60141391 C16.8441174,2.04336832 18.1696797,2.76127846 19.2742643,3.75544807 L19.2742643,3.75544807 Z M12.7021911,1.15976325 C14.248731,1.49115312 15.5741413,3.03738606 16.4577482,5.30183288 C15.2980332,5.74363542 14.0277533,5.96446075 12.7021911,6.01974302 L12.7021911,1.15976325 Z M12.7021911,7.17945569 C14.1932967,7.1243253 15.5741413,6.84806582 16.8441174,6.40626328 C17.3413552,7.95279997 17.6174633,9.72001012 17.6725938,11.6529152 L12.7020392,11.6529152 L12.7020392,7.17945569 L12.7021911,7.17945569 Z M12.7021911,12.7022152 L17.6727457,12.7022152 C17.6176152,14.6352722 17.3413552,16.4026342 16.8442693,17.9488671 C15.5742932,17.5070646 14.1934486,17.230957 12.7023429,17.1756747 L12.7023429,12.7022152 L12.7021911,12.7022152 Z M12.7021911,23.1400849 L12.7021911,18.2251266 C13.9826479,18.2774764 15.2482646,18.5194109 16.4577482,18.9430367 C15.5741413,21.2624621 14.2485791,22.8088469 12.7021911,23.1400849 L12.7021911,23.1400849 Z M15.4084461,22.6984342 C15.6292718,22.4223266 15.8500976,22.1460671 16.0710753,21.8701114 C16.0710753,21.8146773 16.1262058,21.8146773 16.1262058,21.7595469 C16.5681611,21.1518975 16.9546822,20.4339874 17.2860728,19.660795 C17.2860728,19.6056646 17.3412033,19.5505342 17.3412033,19.5505342 C17.3412033,19.4951 17.3964857,19.4398178 17.3964857,19.3846874 C18.0592668,19.7162291 18.6664618,20.1027494 19.2189819,20.5445519 C18.1696797,21.5387215 16.8441174,22.2566317 15.4084461,22.6984342 Z M20.1027407,19.8264899 C19.4399595,19.2742747 18.7220479,18.7773418 17.8382891,18.3908215 C17.8382891,18.3353874 17.8937234,18.280257 17.8937234,18.280257 C18.1695278,17.4517823 18.3906573,16.5127431 18.5009184,15.5741595 C18.5009184,15.463595 18.5563526,15.3531823 18.5563526,15.1873355 C18.6114831,14.8009671 18.6666136,14.4694253 18.6666136,14.083057 C18.6666136,13.917362 18.6666136,13.8069494 18.7220479,13.6412544 C18.7220479,13.3098645 18.7220479,13.0336051 18.7771784,12.7022152 L23.1955167,12.7022152 C23.0299733,15.463595 21.8701064,17.9488671 20.1027407,19.8264899 L20.1027407,19.8264899 Z" id="Shape"></path>
                </g>
                <path d="M58.8177246,327.824987 L46.6756389,327.824987 L45.6030236,325.709814 C45.3503876,325.212786 44.8422678,324.9 44.2770339,324.9 L36.5822754,324.9 C35.7651439,324.9 35.1,325.554136 35.1,326.358201 L35.1,344.592333 C35.1,346.603288 36.5771863,348.239332 38.6205557,348.239332 C38.7457267,348.239332 38.8058467,348.232906 38.8058467,348.221459 L38.8058467,348.3 L56.5941797,348.3 C58.636758,348.3 60.3,346.663982 60.3,344.653028 L60.3,329.27606 C60.3000264,328.471293 59.6341442,327.824987 58.8177246,327.824987 Z M58.8177246,344.653028 C58.8177246,345.859163 57.8203121,346.83748 56.5942061,346.83748 L41.7212994,346.83748 C42.2163405,346.106286 42.5116934,345.44 42.5116934,344.592333 L42.5116934,337.331273 L58.817751,337.331273 L58.817751,344.653028 L58.8177246,344.653028 Z M41.0293389,335.868779 L41.0293389,344.592333 C41.0293389,345.799198 40.0318999,346.78035 38.805873,346.78035 C37.5797407,346.78035 36.5823018,345.799171 36.5823018,344.592333 L36.5823018,326.36252 L44.2770339,326.36252 L45.3496493,328.477719 C45.6022853,328.974018 46.1096668,329.287506 46.6756389,329.287506 L58.817751,329.287506 L58.817751,335.868779 L41.0293389,335.868779 Z" id="Shape" fill="#506773" fill-rule="nonzero"></path>
                <text id="网络类" font-family="PingFangSC-Regular, PingFang SC" font-size="10.8" font-weight="normal" fill="#4A4A4A">
                    <tspan x="75.6" y="266.6">网络类</tspan>
                </text>
                <text id="文件类" font-family="PingFangSC-Regular, PingFang SC" font-size="10.8" font-weight="normal" fill="#4A4A4A">
                    <tspan x="75.6" y="339.5">文件类</tspan>
                </text>
                <g id="Group-40" transform="translate(340.200000, 10.800000)">
                    <circle id="Oval-8" stroke="#5F67FA" stroke-width="1.8" cx="21.1273496" cy="21.1273496" r="21.1273496"></circle>
                    <path d="M16.7258184,15.8455122 L16.7258184,14.965206 L24.6485745,14.965206 L24.6485745,15.8455122 L16.7258184,15.8455122 Z M16.7258184,26.409187 L16.7258184,25.5288808 L26.409187,25.5288808 L26.409187,26.409187 L16.7258184,26.409187 Z M16.7258184,19.3667371 L16.7258184,18.4864309 L29.9304119,18.4864309 L29.9304119,19.3667371 L16.7258184,19.3667371 Z M16.7258184,22.8879621 L16.7258184,22.0076558 L29.9304119,22.0076558 L29.9304119,22.8879621 L16.7258184,22.8879621 Z M31.0199877,15.4635027 L26.7151324,11.0529652 L26.7151324,15.4635027 L31.0199877,15.4635027 Z M25.5288808,10.0874168 L14.8645995,10.0874168 C14.6463148,10.0874168 14.46936,10.2671122 14.46936,10.4887776 L14.46936,24.9042445 C14.069044,25.5708078 13.6474551,25.5708078 13.2045935,24.9042445 L13.2045935,10.4887776 C13.2045935,9.55778277 13.9478035,8.80306233 14.8645995,8.80306233 L26.2998974,8.80306233 L32.5713306,15.2284563 L32.5713306,29.2828597 C32.5713306,30.6128524 31.509602,31.6910244 30.1998934,31.6910244 L14.8645995,31.6910244 C14.3305018,31.2678638 14.3305018,30.8397456 14.8645995,30.4066699 L30.1998934,30.4066699 C30.8110908,30.4066699 31.3065641,29.903523 31.3065641,29.2828597 L31.3065641,16.7258184 L25.5288808,16.7258184 L25.5288808,10.0874168 Z M11.5231243,28.1697995 L18.4864309,28.1697995 L18.4864309,29.0501057 L11.443981,29.0501057 L11.443981,28.2765853 L11.0478636,28.8110559 L12.3242873,31.0825634 L11.3538251,31.6910244 L9.68336857,28.7183009 L11.3947449,26.409187 L12.2833674,27.1440238 L11.5231243,28.1697995 Z" id="Rectangle-4-Copy" fill="#506773"></path>
                </g>
                <g id="Group-34-Copy-2" transform="translate(468.900000, 12.600000)">
                    <circle id="Oval-8" stroke="#5F67FA" stroke-width="1.62" cx="19.35" cy="19.35" r="19.35"></circle>
                    <polygon id="Path" fill="#506773" points="28.21875 13.3563772 28.21875 14.5125 21.76875 14.5125 21.76875 8.0625 22.9248728 8.0625 22.9248728 13.3563772"></polygon>
                    <path d="M27.9564759,24.5590098 L28.8727911,23.8372649 L30.6375,26.1052392 L28.9149862,29.025 L27.9142809,28.4273795 L29.2304825,26.1963416 L27.9564759,24.5590098 Z M27.9431307,14.4019348 L27.9431307,22.4130095 C27.9431307,22.7343598 28.2036365,22.9948656 28.5249868,22.9948656 L28.5249868,22.9948656 C28.846337,22.9948656 29.1068429,22.7343598 29.1068429,22.4130095 L29.1068429,13.9200009 L23.3364945,8.0625 L12.8148722,8.0625 C11.9713278,8.0625 11.2875,8.75051628 11.2875,9.59922737 L11.2875,27.390837 C11.2875,28.2395481 11.9713278,28.9275644 12.8148722,28.9275644 L25.2850924,28.9275644 C25.6084109,28.9275644 25.8705124,28.6654629 25.8705124,28.3421444 L25.8705124,28.3421444 C25.8705124,28.0188259 25.6084109,27.7567245 25.2850924,27.7567245 L12.8148722,27.7567245 C12.6140283,27.7567245 12.4512122,27.5929111 12.4512122,27.390837 L12.4512122,9.59922737 C12.4512122,9.3971533 12.6140283,9.2333399 12.8148722,9.2333399 L22.8514382,9.2333399 L27.9431307,14.4019348 Z M14.0149504,15.0509506 L14.0149504,13.8801107 L21.2881516,13.8801107 L21.2881516,15.0509506 L14.0149504,15.0509506 Z M14.0149504,24.7835573 L14.0149504,23.6127174 L23.324648,23.6127174 L23.324648,24.7835573 L14.0149504,24.7835573 Z M14.0149504,18.1792798 L14.0149504,17.0084399 L26.3795252,17.0084399 L26.3795252,18.1792798 L14.0149504,18.1792798 Z M14.0149504,21.3559884 L14.0149504,20.1851485 L26.3795252,20.1851485 L26.3795252,21.3559884 L14.0149504,21.3559884 Z M23.8794078,26.7626779 L23.8794078,25.591838 L30.1343609,25.591838 L30.1343609,26.7626779 L23.8794078,26.7626779 Z" id="Path-5" fill="#506773" fill-rule="nonzero"></path>
                </g>
                <g id="Group-43" transform="translate(204.300000, 12.600000)">
                    <circle id="Oval-8" stroke="#5F67FA" stroke-width="1.62" cx="20.0376746" cy="19.5120225" r="19.3959184"></circle>
                    <path d="M13.9480935,26.433492 C11.9061497,24.5639761 10.7081633,21.9167186 10.7081633,19.0726531 C10.7081633,13.5604004 15.1767269,9.09183673 20.6889796,9.09183673 C26.2012322,9.09183673 30.6697959,13.5604004 30.6697959,19.0726531 C30.6697959,24.5849057 26.2012322,29.0534694 20.6889796,29.0534694 C20.6130262,29.0534694 20.520163,29.054863 20.3908098,29.0577751 C20.3153812,29.0594731 20.2071104,29.0621888 19.9919984,29.0675616 C17.2459209,29.1339928 14.9278762,28.9754083 12.0440117,28.289043 C11.5561666,28.1729349 11.1619011,27.6116701 11.7367006,27.1438485 C11.8570085,27.0459315 11.9918873,26.9893719 12.2144435,26.917411 C12.3514292,26.8731183 12.5174656,26.8258244 12.7563932,26.7616451 C12.8255523,26.7430681 13.2568919,26.6288433 13.3836602,26.5945603 C13.604251,26.5349042 13.7906425,26.4819217 13.9480935,26.433492 Z M19.9626812,27.8556712 C20.1760151,27.8503419 20.2862505,27.8475769 20.3635263,27.8458372 C20.5012148,27.8427375 20.6020356,27.8412245 20.6889796,27.8412245 C25.5317279,27.8412245 29.457551,23.9154013 29.457551,19.0726531 C29.457551,14.2299048 25.5317279,10.3040816 20.6889796,10.3040816 C15.8462313,10.3040816 11.9204082,14.2299048 11.9204082,19.0726531 C11.9204082,21.8111262 13.1832049,24.339889 15.3022427,25.9920731 C15.6593698,26.2705202 15.6872859,26.7434064 15.3884885,27.0638882 C15.2592126,27.2025459 15.0899438,27.2999959 14.8577709,27.3972981 C14.7447925,27.4446466 14.6185164,27.4909694 14.472359,27.5390115 C16.3255139,27.834289 18.0302681,27.9024188 19.9626812,27.8556712 Z M24.8914286,20.0567184 C25.4270321,20.0567184 25.8612245,19.622526 25.8612245,19.0869225 C25.8612245,18.551319 25.4270321,18.1171266 24.8914286,18.1171266 C24.3558251,18.1171266 23.9216327,18.551319 23.9216327,19.0869225 C23.9216327,19.622526 24.3558251,20.0567184 24.8914286,20.0567184 Z M20.8506122,20.0567184 C21.3862157,20.0567184 21.8204082,19.622526 21.8204082,19.0869225 C21.8204082,18.551319 21.3862157,18.1171266 20.8506122,18.1171266 C20.3150087,18.1171266 19.8808163,18.551319 19.8808163,19.0869225 C19.8808163,19.622526 20.3150087,20.0567184 20.8506122,20.0567184 Z M16.8097959,20.0567184 C17.3453994,20.0567184 17.7795918,19.622526 17.7795918,19.0869225 C17.7795918,18.551319 17.3453994,18.1171266 16.8097959,18.1171266 C16.2741924,18.1171266 15.84,18.551319 15.84,19.0869225 C15.84,19.622526 16.2741924,20.0567184 16.8097959,20.0567184 Z" id="Oval-3" fill="#506773" fill-rule="nonzero"></path>
                </g>
                <g id="Group-29-Copy" transform="translate(468.900000, 234.000000)">
                    <circle id="Oval-8" stroke="#178CEB" stroke-width="1.62" cx="19.35" cy="19.35" r="19.35"></circle>
                    <g id="数据分析-(1)" transform="translate(8.062500, 8.868750)" fill="#506773" fill-rule="nonzero">
                        <path d="M20.15625,10.9048856 C20.15625,7.72603437 18.5523884,4.92455472 16.1120424,3.25807042 C16.1595536,3.06074255 16.1912277,2.85621293 16.1912277,2.64304122 C16.1912277,1.18396724 15.0077678,0 13.5478795,0 C12.4349665,0 11.4876228,0.68848702 11.0974553,1.66216325 C11.0326674,1.6607229 10.9693192,1.6520808 10.9045312,1.6520808 C5.84099328,1.6520808 1.7334375,5.72106796 1.65857143,10.7680524 C0.686752221,11.1583871 0,12.106137 0,13.2166464 C0,14.6757204 1.18345983,15.8596876 2.64334822,15.8596876 C2.79020089,15.8596876 2.93273437,15.8395227 3.07382812,15.8164771 C4.71080357,18.4206289 7.60178571,20.15625 10.9030915,20.15625 C12.1470201,20.15625 13.3333594,19.9070696 14.4174777,19.4605612 C14.8868303,19.888345 15.5059152,20.15625 16.1897879,20.15625 C17.6496763,20.15625 18.8331361,18.9722828 18.8331361,17.5117684 C18.8331361,17.0350128 18.6978013,16.5942658 18.4760826,16.2082522 C19.532846,14.7059677 20.15625,12.8796046 20.15625,10.9048856 Z M17.5858215,15.2886565 C17.188563,15.0524815 16.7289611,14.9075888 16.2331129,14.9075888 C14.7629667,14.9075888 13.5711913,16.0986066 13.5711913,17.5678185 C13.5711913,17.853257 13.6277354,18.1242064 13.7118266,18.3821154 C12.8390179,18.7095728 11.8966164,18.8964844 10.9092697,18.8964844 C8.12411094,18.8964844 5.67676687,17.4707404 4.24721637,15.3118394 C4.85470283,14.825 5.25341115,14.0845984 5.25341115,13.2442208 C5.25341115,11.893821 4.24286682,10.7911877 2.93945312,10.6202143 C3.09603675,6.35167582 6.6003203,2.93945313 10.9092697,2.93945313 C10.9208684,2.93945313 10.9310174,2.94090205 10.9426162,2.94090205 C11.1078989,4.25073192 12.2155831,5.26642964 13.5711913,5.26642964 C14.3425106,5.26642964 15.0311886,4.93317647 15.5183377,4.41011387 C17.5597242,5.85469392 18.8964844,8.22803609 18.8964844,10.9172443 C18.8950346,12.5327977 18.4107852,14.032437 17.5858215,15.2886565 Z" id="Shape"></path>
                    </g>
                </g>
                <g id="大数据-(2)" transform="translate(33.300000, 394.200000)" fill="#506773" fill-rule="nonzero">
                    <path d="M25.65007,13.2812057 C25.5321567,13.2812057 25.4172862,13.2934184 25.3044295,13.3115044 L20.3937299,5.19432641 C20.8629668,4.64279573 21.1499863,3.91963422 21.1499863,3.12496763 C21.1499863,1.39901034 19.8069375,0 18.15002,0 C16.4931024,0 15.1500537,1.39901034 15.1500537,3.12496763 C15.1500537,4.13209846 15.6093116,5.02553901 16.3197899,5.5971601 L10.830308,16.3605853 C10.5810566,16.2906185 10.3203048,16.2499715 10.0500214,16.2499715 C9.5517424,16.2499715 9.08250543,16.3784383 8.66911508,16.6025093 L4.11904683,10.9924838 C4.36793332,10.6066799 4.50059437,10.1522672 4.50003897,9.68744627 C4.50003897,8.39308318 3.49260697,7.34372054 2.25001949,7.34372054 C1.00743201,7.34372054 0,8.39308318 0,9.68744627 C0,10.981856 1.00743201,12.031172 2.25001949,12.031172 C2.4749825,12.0313148 2.698689,11.9962428 2.91364569,11.9271307 L7.55164552,17.645952 C7.22389908,18.1579023 7.04935085,18.7596416 7.05009984,19.3749858 C7.05009984,21.100943 8.39314861,22.5 10.0500662,22.5 C11.706939,22.5 13.0500325,21.100943 13.0500325,19.3750324 C13.0500325,18.4940376 12.6987536,17.6996973 12.1356782,17.1315722 L17.7045894,6.21189866 C17.8503366,6.23441297 17.9982764,6.2500751 18.1500647,6.2500751 C18.5010751,6.2500751 18.8365129,6.18411703 19.1496657,6.06846899 L23.9817862,14.056248 C23.6214681,14.4719004 23.4000953,15.0209605 23.4000953,15.6250246 C23.4000953,16.9194343 24.4074825,17.9687503 25.65007,17.9687503 C26.892747,17.9687503 27.9,16.9194343 27.9,15.6250246 C27.9,14.3305683 26.8927022,13.2812989 25.6500253,13.2812989 L25.65007,13.2812057 Z" id="Shape"></path>
                </g>
                <g id="36线路" transform="translate(36.900000, 108.000000)" fill="#506773" fill-rule="nonzero">
                    <path d="M16.65,9.9 L5.0175,9.9 C3.3975,9.9 1.98,8.73 1.8,7.11 C1.5975,5.22 3.0825,3.6 4.95,3.6 L16.8975,3.6 L16.8975,5.4 L21.5775,2.7 L16.8975,0 L16.8975,1.8 L4.95,1.8 C2.205,1.8 0,4.005 0,6.75 C0,9.495 2.205,11.7 4.95,11.7 L16.5825,11.7 C18.2025,11.7 19.62,12.87 19.8,14.49 C20.025,16.38 18.5175,18 16.6725,18 L4.7475,18 L4.7475,16.2 L0.0225,18.9675 L4.7475,21.6 L4.7475,19.8 L16.65,19.8 C19.395,19.8 21.6,17.595 21.6,14.85 C21.6,12.105 19.395,9.9 16.65,9.9 Z" id="Shape"></path>
                </g>
                <g id="36线路-copy-2" transform="translate(204.300000, 90.000000)">
                    <circle id="Oval-8" stroke="#00B5D1" stroke-width="1.62" cx="19.35" cy="19.35" r="19.35"></circle>
                    <path d="M24.3386719,19.0476563 L15.2204883,19.0476563 C13.9506445,19.0476563 12.8395313,18.1305469 12.6984375,16.8607031 C12.539707,15.3792188 13.7037305,14.109375 15.1675781,14.109375 L24.5326758,14.109375 L24.5326758,15.5203125 L28.2011133,13.4039063 L24.5326758,11.2875 L24.5326758,12.6984375 L15.1675781,12.6984375 C13.0158984,12.6984375 11.2875,14.4268359 11.2875,16.5785156 C11.2875,18.7301953 13.0158984,20.4585938 15.1675781,20.4585938 L24.2857617,20.4585938 C25.5556055,20.4585938 26.6667188,21.3757031 26.8078125,22.6455469 C26.9841797,24.1270313 25.8025195,25.396875 24.3563086,25.396875 L15.0088477,25.396875 L15.0088477,23.9859375 L11.3051367,26.1552539 L15.0088477,28.21875 L15.0088477,26.8078125 L24.3386719,26.8078125 C26.4903516,26.8078125 28.21875,25.0794141 28.21875,22.9277344 C28.21875,20.7760547 26.4903516,19.0476563 24.3386719,19.0476563 Z" id="Shape" fill="#506773" fill-rule="nonzero"></path>
                </g>
                <text id="流程控制" font-family="PingFangSC-Regular, PingFang SC" font-size="10.8" font-weight="normal" fill="#4A4A4A">
                    <tspan x="202.5" y="143.3">流程控制</tspan>
                </text>
                <text id="数据库" font-family="PingFangSC-Regular, PingFang SC" font-size="10.8" font-weight="normal" fill="#4A4A4A">
                    <tspan x="207.9" y="216.2">数据库</tspan>
                </text>
                <text id="大数据" font-family="PingFangSC-Regular, PingFang SC" font-size="10.8" font-weight="normal" fill="#4A4A4A">
                    <tspan x="207.9" y="433.1">大数据</tspan>
                </text>
                <text id="执行" font-family="PingFangSC-Regular, PingFang SC" font-size="10.8" font-weight="normal" fill="#4A4A4A">
                    <tspan x="213.3" y="508.7">执行</tspan>
                </text>
                <text id="日志" font-family="PingFangSC-Regular, PingFang SC" font-size="10.8" font-weight="normal" fill="#4A4A4A">
                    <tspan x="213.3" y="361.1">日志</tspan>
                </text>
                <text id="文件" font-family="PingFangSC-Regular, PingFang SC" font-size="10.8" font-weight="normal" fill="#4A4A4A">
                    <tspan x="351" y="361.1">文件</tspan>
                </text>
                <text id="云" font-family="PingFangSC-Regular, PingFang SC" font-size="10.8" font-weight="normal" fill="#4A4A4A">
                    <tspan x="218.7" y="289.1">云</tspan>
                </text>
                <text id="网络通信" font-family="PingFangSC-Regular, PingFang SC" font-size="10.8" font-weight="normal" fill="#4A4A4A">
                    <tspan x="340.2" y="289.1">网络通信</tspan>
                </text>
                <text id="连接器" font-family="PingFangSC-Regular, PingFang SC" font-size="10.8" font-weight="normal" fill="#4A4A4A">
                    <tspan x="471.6" y="289.1">连接器</tspan>
                </text>
                <text id="数据转换" font-family="PingFangSC-Regular, PingFang SC" font-size="10.8" font-weight="normal" fill="#4A4A4A">
                    <tspan x="340.2" y="143.3">数据转换</tspan>
                </text>
                <g id="流程-(1)-copy-2" transform="translate(342.000000, 90.000000)">
                    <circle id="Oval-8" stroke="#00B5D1" stroke-width="1.62" cx="19.35" cy="19.35" r="19.35"></circle>
                    <path d="M21.3118425,9.675 L18.194228,9.675 C16.9030854,9.675 15.8562158,10.7164643 15.8562158,12.0007261 C15.8562158,13.2849879 16.9030854,14.3263501 18.194228,14.3263501 L21.3118425,14.3263501 C22.6030108,14.3263501 23.6500342,13.2850389 23.6500342,12.0007516 C23.6500342,10.7164643 22.6030108,9.675 21.3118425,9.675 Z M21.3118425,12.7760106 L18.194228,12.7760106 C17.7643106,12.7747364 17.4161118,12.4283864 17.4148308,12.0007516 C17.4161118,11.5731167 17.7643106,11.2267667 18.194228,11.2254925 L21.3118425,11.2254925 C21.74176,11.2267667 22.0899587,11.5731167 22.0912397,12.0007516 C22.0899587,12.4283864 21.74176,12.7747364 21.3118425,12.7760106 L21.3118425,12.7760106 Z M21.3118425,17.4273607 L18.194228,17.4273607 C16.9030854,17.4273607 15.8562158,18.468825 15.8562158,19.7531123 C15.8562158,21.0373995 16.9030854,22.0787108 18.194228,22.0787108 L21.3118425,22.0787108 C22.6030108,22.0787108 23.6500342,21.0373995 23.6500342,19.7531123 C23.6500342,18.468825 22.6030108,17.4273607 21.3118425,17.4273607 Z M21.3118425,20.5283713 L18.194228,20.5283713 C17.7643106,20.5270971 17.4161118,20.1807471 17.4148308,19.7531123 C17.4161118,19.3254774 17.7643106,18.9791274 18.194228,18.9778532 L21.3118425,18.9778532 C21.74176,18.9791274 22.0899587,19.3254774 22.0912397,19.7531123 C22.0899587,20.1807471 21.74176,20.5270971 21.3118425,20.5283713 Z M21.3118425,25.1797214 L18.194228,25.1797214 C16.9030854,25.1797214 15.8562158,26.2211856 15.8562158,27.5054729 C15.8562158,28.7897602 16.9030854,29.83125 18.194228,29.83125 L21.3118425,29.83125 C22.6030108,29.83125 23.6500342,28.7897857 23.6500342,27.5054729 C23.6500342,26.2211602 22.6030108,25.1797214 21.3118425,25.1797214 Z M21.3118425,28.280732 L18.194228,28.280732 C17.7643106,28.2794578 17.4161118,27.9331078 17.4148308,27.5054729 C17.4161259,27.0778481 17.7643205,26.7315136 18.194228,26.7302394 L21.3118425,26.7302394 C21.74175,26.7315136 22.0899447,27.0778481 22.0912397,27.5054729 C22.0899587,27.9331078 21.74176,28.2794578 21.3118425,28.280732 L21.3118425,28.280732 Z M12.7386782,26.7302394 C11.9047304,26.7302394 11.122821,26.4072233 10.5329923,25.8232037 C9.94582965,25.2366597 9.62129443,24.4587489 9.62129443,23.6292034 C9.62129443,22.7996833 9.94582965,22.0219255 10.5329923,21.4353815 C11.122821,20.8486845 11.9047047,20.5283713 12.7386782,20.5283713 L14.2974727,20.5283713 L14.2974727,18.9778532 L12.7386782,18.9778532 C10.156393,18.9778532 8.0625,21.0604503 8.0625,23.6290504 C8.0625,26.197625 10.1562136,28.280579 12.7386782,28.280579 L12.7386782,29.8310715 L15.0768699,27.50532 L12.7386782,25.1795429 L12.7386782,26.7300609 L12.7386782,26.7302394 Z M26.7673923,11.225314 L25.208803,11.225314 L25.208803,12.7758321 L26.7673923,12.7758321 C27.6013658,12.7758321 28.383429,13.0988227 28.9731039,13.6826893 C29.5627531,14.2694118 29.8849556,15.0471442 29.8849556,15.8766897 C29.8849556,16.7062097 29.5602409,17.4839676 28.9731039,18.0706645 C28.383429,18.6547096 27.6013658,18.9775218 26.7673923,18.9775218 L26.7673923,17.4272077 L24.4293801,19.7531123 L26.7673923,22.0787108 L26.7673923,20.5283713 C29.3497032,20.5283713 31.44375,18.4454428 31.44375,15.8768427 C31.44375,13.3082426 29.349857,11.2254925 26.7673923,11.2254925 L26.7673923,11.225314 Z" id="Shape" fill="#506773" fill-rule="nonzero"></path>
                </g>
                <g id="Group-45-Copy-2" transform="translate(204.300000, 234.000000)">
                    <circle id="Oval-8" stroke="#178CEB" stroke-width="1.62" cx="20.0376746" cy="19.5120225" r="19.3959184"></circle>
                    <path d="M25.5329546,15.525425 L24.8193631,15.7427663 L24.7056124,15.0055343 C24.2774428,12.2305152 21.8781155,10.1550539 19.0403942,10.1550539 C15.8743819,10.1550539 13.3078219,12.7216139 13.3078219,15.8876262 C13.3078219,16.1500103 13.3254068,16.4100117 13.360214,16.6665184 L13.4878326,17.6069827 L12.5659309,17.3814681 C12.2267229,17.2984914 11.8765184,17.2561169 11.5202332,17.2561169 C9.09936477,17.2561169 7.13686311,19.2186185 7.13686311,21.639487 C7.13686311,24.0603555 9.09936477,26.0228571 11.5202332,26.0228571 C11.5854196,26.0228571 11.6504155,26.0214387 11.7435984,26.0179953 L27.0984958,26.0228571 C30.0613052,26.0228571 32.4631369,23.6210255 32.4631369,20.658216 C32.4631369,17.6954065 30.0613052,15.2935749 27.0984958,15.2935749 C26.5614552,15.2935749 26.0357196,15.372296 25.5329546,15.525425 Z M27.0984958,14.0005137 C30.7754432,14.0005137 33.7561981,16.9812685 33.7561981,20.658216 C33.7561981,24.3351635 30.7754432,27.3159184 27.0982911,27.3159183 L11.7715936,27.3104412 C11.6880284,27.3140896 11.604228,27.3159184 11.5202332,27.3159184 C8.38522677,27.3159184 5.84380189,24.7744935 5.84380189,21.639487 C5.84380189,18.5044805 8.38522677,15.9630557 11.5202332,15.9630557 C11.6862732,15.9630557 11.8514451,15.9702023 12.0154147,15.9843929 C12.0149788,15.9521636 12.0147606,15.9199075 12.0147606,15.8876262 C12.0147606,12.007476 15.1602439,8.86199268 19.0403942,8.86199268 C22.2793422,8.86199268 25.051615,11.0674161 25.841597,14.1191022 C26.2527511,14.0404998 26.6730905,14.0005137 27.0984958,14.0005137 Z M21.7828969,19.9291845 L20.5015814,19.7552942 C20.9467745,16.4748769 23.7578728,14.0005137 27.0984958,14.0005137 L27.0984958,15.2935749 C24.4069295,15.2935749 22.1413728,17.2877457 21.7828969,19.9291845 Z M11.7151939,26.0186106 L11.7715936,27.3104412 C11.6880284,27.3140896 11.604228,27.3159184 11.5202332,27.3159184 L11.5202332,26.0228571 C11.5854196,26.0228571 11.6504155,26.0214387 11.7151939,26.0186106 Z" id="Combined-Shape" fill="#506773" fill-rule="nonzero"></path>
                </g>
                <g id="Group-42-Copy-2" transform="translate(342.000000, 234.000000)">
                    <g id="Group-43-Copy" stroke="#178CEB" stroke-width="1.62">
                        <g id="Group-35">
                            <g id="Group-31-Copy-5">
                                <g id="Group-30-Copy-2">
                                    <g id="Group-29-Copy-3">
                                        <circle id="Oval-8" cx="19.35" cy="19.35" r="19.35"></circle>
                                    </g>
                                </g>
                            </g>
                        </g>
                    </g>
                    <g id="网络" transform="translate(8.062500, 8.868750)" fill="#506773" fill-rule="nonzero">
                        <path d="M10.8843523,4.53084052e-05 C4.89795856,4.53084052e-05 0,4.84860602 0,10.884375 C0,16.92028 4.89795856,21.7687047 10.8843523,21.7687047 C13.7736115,21.7770473 16.546939,20.632988 18.5899623,18.5899689 C20.6329856,16.5469499 21.7770473,13.7736282 21.7687047,10.884375 C21.7770473,7.99512183 20.6329856,5.22180011 18.5899623,3.17878108 C16.546939,1.13576205 13.7736115,-0.00829732407 10.8843523,4.53084052e-05 Z M7.9653051,1.43473602 L7.37156368,2.17691125 C7.37156368,2.22643495 7.32203988,2.22643495 7.32203988,2.27595865 C6.92625762,2.82017513 6.5798631,3.46330296 6.28312845,4.15595449 C6.28312845,4.20534214 6.2337407,4.25486584 6.2337407,4.25486584 C6.2337407,4.30438954 6.18421689,4.35391324 6.18421689,4.40330089 C5.59047547,4.10643079 5.04639391,3.76017305 4.55156404,3.36439162 C5.49169998,2.47364528 6.67904676,1.83051745 7.9653051,1.43473602 Z M3.75999952,4.00751945 C4.35374094,4.50221223 4.99687011,4.94751737 5.78843463,5.29377511 C5.78843463,5.34329881 5.73891083,5.39282251 5.73891083,5.39282251 C5.49156392,6.13499774 5.29360476,6.97608432 5.19469321,7.81703484 C5.19469321,7.91608224 5.14516941,8.01499359 5.14516941,8.16342863 C5.09564561,8.50968637 5.04625786,8.80655646 5.04625786,9.1528142 C5.04625786,9.30124925 5.04625786,9.40016059 4.99673405,9.54859564 C4.99673405,9.84546573 4.99673405,10.0928121 4.94721025,10.3896822 L0.989387628,10.3896822 C1.13782298,7.91594618 2.17687047,5.68955655 3.75999952,4.00751945 Z M0.989387628,11.3790678 L4.9473463,11.3790678 C4.9473463,11.6759379 4.9473463,11.9726719 4.99687011,12.2202904 C4.99687011,12.3687255 4.99687011,12.4676368 5.04639391,12.6160719 C5.09578166,12.9623296 5.09578166,13.2593357 5.14530546,13.6053214 C5.14530546,13.7045048 5.19482927,13.8034162 5.19482927,13.9518512 C5.34326462,14.7928017 5.54108772,15.6338883 5.73904688,16.3760635 C5.73904688,16.4253151 5.78857069,16.4751109 5.78857069,16.4751109 C5.06033675,16.8155446 4.37865637,17.2477608 3.76013557,17.7612306 C2.17687047,16.0791935 1.13782298,13.8528038 0.989387628,11.3790678 Z M4.50217629,18.4044944 C4.99687011,18.008713 5.54108772,17.6624553 6.13482915,17.3654491 C6.13482915,17.4148368 6.18421689,17.4643605 6.18421689,17.5140202 C6.18421689,17.5632718 6.2337407,17.6127955 6.2337407,17.6127955 C6.53061141,18.3055831 6.87686987,18.9485749 7.27265213,19.4929274 C7.27265213,19.542179 7.32203988,19.542179 7.32203988,19.5919748 L7.9157813,20.334014 C6.67904676,19.9382325 5.49169998,19.2951047 4.50217629,18.4044944 Z M10.3896585,20.7296594 C9.00435259,20.4327893 7.81686975,19.0476223 7.02530522,17.0191914 C8.06421665,16.623546 9.20217569,16.4254512 10.3896585,16.3760635 L10.3896585,20.7296594 Z M10.3896585,15.3371543 C9.05387639,15.3865419 7.81686975,15.6340244 6.67904676,16.0299419 C6.23387675,14.6443667 5.98639379,13.061513 5.93686999,11.3296801 L10.3896585,11.3296801 L10.3896585,15.3371543 L10.3896585,15.3371543 Z M10.3896585,10.3896822 L5.93686999,10.3896822 C5.98639379,8.65798536 6.2337407,7.07485961 6.67904676,5.68955655 C7.81686975,6.08533798 9.05387639,6.33268438 10.3896585,6.38220808 L10.3896585,10.3896822 L10.3896585,10.3896822 Z M10.3896585,5.44221015 C9.2425842,5.39529949 8.10880466,5.17856685 7.02530522,4.79908232 C7.81686975,2.72112773 9.05374034,1.33582467 10.3896585,1.08847828 L10.3896585,5.44221015 Z M20.7794531,10.3896822 L16.8213584,10.3896822 C16.8213584,10.0928121 16.8213584,9.79594203 16.7719706,9.54859564 C16.7719706,9.40016059 16.7719706,9.30124925 16.7223108,9.1528142 C16.6730591,8.80655646 16.6730591,8.50968637 16.6235353,8.16342863 C16.6235353,8.06438123 16.5738754,7.96546988 16.5738754,7.81703484 C16.4254401,6.97608432 16.227617,6.13499774 16.0299299,5.39282251 C16.0299299,5.34329881 15.9802701,5.29377511 15.9802701,5.29377511 C16.7085337,4.95326331 17.3902551,4.52100441 18.0088412,4.00751945 C19.5919703,5.68955655 20.6310178,7.91594618 20.7794531,10.3896822 L20.7794531,10.3896822 Z M17.2665284,3.36425556 C16.7718346,3.760037 16.2274809,4.10643079 15.6338755,4.40316483 C15.6338755,4.35377719 15.5844878,4.30425348 15.5844878,4.25472978 C15.5844878,4.20520608 15.534964,4.15581844 15.534964,4.15581844 C15.2380933,3.46316691 14.8918348,2.82003908 14.4959165,2.27582259 C14.4959165,2.22629889 14.4465288,2.22629889 14.4465288,2.17677519 L13.8529234,1.43459996 C15.0895219,1.83051745 16.2770047,2.47364528 17.2665284,3.36425556 L17.2665284,3.36425556 Z M11.3790462,1.03895458 C12.7644882,1.33582467 13.9518349,2.72099168 14.7433995,4.74955862 C13.704488,5.14534006 12.566529,5.34316275 11.3790462,5.39268645 L11.3790462,1.03895458 Z M11.3790462,6.43159572 C12.7148283,6.38220808 13.9518349,6.13472563 15.0895219,5.73894419 C15.534964,7.12438331 15.7823109,8.70750906 15.8316987,10.4390699 L11.3789101,10.4390699 L11.3789101,6.43159572 L11.3790462,6.43159572 Z M11.3790462,11.3790678 L15.8318347,11.3790678 C15.782447,13.1107646 15.534964,14.6940264 15.0896579,16.0791935 C13.951971,15.683412 12.7149644,15.4360656 11.3791822,15.3865419 L11.3791822,11.3790678 L11.3790462,11.3790678 Z M11.3790462,20.7296594 L11.3790462,16.3266759 C12.5261221,16.3735726 13.6599037,16.5903056 14.7433995,16.9698037 C13.9518349,19.0476223 12.7643521,20.4329253 11.3790462,20.7296594 L11.3790462,20.7296594 Z M13.8033996,20.334014 C14.0012227,20.0866676 14.1990458,19.8391851 14.397005,19.5919748 C14.397005,19.5423151 14.4463927,19.5423151 14.4463927,19.4929274 C14.842311,18.9485749 15.1885695,18.305447 15.4854402,17.6127955 C15.4854402,17.5634079 15.5348279,17.5140202 15.5348279,17.5140202 C15.5348279,17.4643605 15.5843517,17.4148368 15.5843517,17.3654491 C16.1780932,17.6624553 16.7220387,18.008713 17.2170046,18.4044944 C16.2770047,19.2951047 15.0895219,19.9382325 13.8033996,20.334014 Z M18.0087052,17.7612306 C17.4149638,17.2665378 16.7718346,16.8213687 15.980134,16.4751109 C15.980134,16.4254512 16.0297939,16.3760635 16.0297939,16.3760635 C16.2768687,15.6338883 16.4749639,14.7926657 16.5737394,13.9518512 C16.5737394,13.8528038 16.6233992,13.7538925 16.6233992,13.6053214 C16.672787,13.2591997 16.7221747,12.9621935 16.7221747,12.6160719 C16.7221747,12.4676368 16.7221747,12.3687255 16.7718346,12.2202904 C16.7718346,11.9234203 16.7718346,11.6759379 16.8212223,11.3790678 L20.7793171,11.3790678 C20.6310178,13.8528038 19.5919703,16.0791935 18.0087052,17.7612306 L18.0087052,17.7612306 Z" id="Shape"></path>
                    </g>
                </g>
                <path d="M155.7375,1.42108547e-12 L155.7375,523.8" id="Line-21" stroke="#D9D9D9" stroke-width="0.9" stroke-linecap="square"></path>
                <path d="M291.6375,1.42108547e-12 L291.6375,523.8" id="Line-21-Copy" stroke="#D9D9D9" stroke-width="0.9" stroke-linecap="square"></path>
                <path d="M428.4375,1.42108547e-12 L428.4375,523.8" id="Line-21-Copy-2" stroke="#D9D9D9" stroke-width="0.9" stroke-linecap="square"></path>
            </g>
        </g>
    </g>
</svg>