<?xml version="1.0" encoding="UTF-8"?>
<svg width="80px" height="80px" viewBox="0 0 80 80" version="1.1" xmlns="http://www.w3.org/2000/svg" xmlns:xlink="http://www.w3.org/1999/xlink">
    <!-- Generator: Sketch 54.1 (76490) - https://sketchapp.com -->
    <title>画板复制 5</title>
    <desc>Created with Sketch.</desc>
    <defs>
        <linearGradient x1="57.0158453%" y1="98.2610034%" x2="50%" y2="1.73899661%" id="linearGradient-1">
            <stop stop-color="#40BCF9" stop-opacity="0" offset="0%"></stop>
            <stop stop-color="#1E87F0" offset="100%"></stop>
        </linearGradient>
        <linearGradient x1="50%" y1="0%" x2="57.5938899%" y2="97.2654113%" id="linearGradient-2">
            <stop stop-color="#3D1BFF" offset="0%"></stop>
            <stop stop-color="#00A7E7" offset="100%"></stop>
        </linearGradient>
        <linearGradient x1="50%" y1="0.865784499%" x2="57.5938899%" y2="96.446978%" id="linearGradient-3">
            <stop stop-color="#3D1BFF" offset="0%"></stop>
            <stop stop-color="#00A7E7" offset="100%"></stop>
        </linearGradient>
    </defs>
    <g id="Page-1" stroke="none" stroke-width="1" fill="none" fill-rule="evenodd">
        <g id="画板" transform="translate(-951.000000, -399.000000)" fill-rule="nonzero">
            <g id="编组" transform="translate(951.000000, 399.000000)">
                <rect id="矩形" fill="url(#linearGradient-1)" x="0" y="0" width="57" height="56"></rect>
                <path d="M66,79.5 C73.4558441,79.5 79.5,73.4558441 79.5,66 C79.5,58.5441559 73.4558441,52.5 66,52.5 C58.5441559,52.5 52.5,58.5441559 52.5,66 C52.5,73.4558441 58.5441559,79.5 66,79.5 Z M66,76.5 C60.2010101,76.5 55.5,71.7989899 55.5,66 C55.5,60.2010101 60.2010101,55.5 66,55.5 C71.7989899,55.5 76.5,60.2010101 76.5,66 C76.5,71.7989899 71.7989899,76.5 66,76.5 Z" id="椭圆形" fill="url(#linearGradient-2)"></path>
                <path d="M56.5738119,52.6017319 L56.5738119,29.990087 C51.8011367,29.7675932 48,25.8276981 48,21 C48,16.0294373 52.0294373,12 57,12 C61.9705627,12 66,16.0294373 66,21 C66,25.0761552 63.2902158,28.5194065 59.5738119,29.6265892 L59.5738119,58 L29.5,58 L29.5,55 L54.7366087,55 L22.71903,23.8331089 C21.2470224,24.8826321 19.4456082,25.5 17.5,25.5 C12.5294373,25.5 8.5,21.4705627 8.5,16.5 C8.5,11.5294373 12.5294373,7.5 17.5,7.5 C22.4705627,7.5 26.5,11.5294373 26.5,16.5 C26.5,18.4417926 25.8850512,20.2399563 24.8392786,21.7103658 L56.5738119,52.6017319 Z M57,27 C60.3137085,27 63,24.3137085 63,21 C63,17.6862915 60.3137085,15 57,15 C53.6862915,15 51,17.6862915 51,21 C51,24.3137085 53.6862915,27 57,27 Z M20.5,64.5 C15.5294373,64.5 11.5,60.4705627 11.5,55.5 C11.5,50.5294373 15.5294373,46.5 20.5,46.5 C25.4705627,46.5 29.5,50.5294373 29.5,55.5 C29.5,60.4705627 25.4705627,64.5 20.5,64.5 Z M20.5,61.5 C23.8137085,61.5 26.5,58.8137085 26.5,55.5 C26.5,52.1862915 23.8137085,49.5 20.5,49.5 C17.1862915,49.5 14.5,52.1862915 14.5,55.5 C14.5,58.8137085 17.1862915,61.5 20.5,61.5 Z M17.5,22.5 C20.8137085,22.5 23.5,19.8137085 23.5,16.5 C23.5,13.1862915 20.8137085,10.5 17.5,10.5 C14.1862915,10.5 11.5,13.1862915 11.5,16.5 C11.5,19.8137085 14.1862915,22.5 17.5,22.5 Z" id="形状结合" fill="url(#linearGradient-3)"></path>
            </g>
        </g>
    </g>
</svg>