<?xml version="1.0" encoding="UTF-8"?>
<svg width="580px" height="280px" viewBox="0 0 580 280" version="1.1" xmlns="http://www.w3.org/2000/svg" xmlns:xlink="http://www.w3.org/1999/xlink">
    <!-- Generator: Sketch 52 (66869) - http://www.bohemiancoding.com/sketch -->
    <title>数聚蜂巢架构2 平台组成</title>
    <desc>Created with Sketch.</desc>
    <defs>
        <polygon id="path-1" points="11.106383 8.82268085 11.106383 0.0283404255 0.369191489 0.0283404255 0.369191489 17.6170213 11.106383 17.6170213"></polygon>
        <polygon id="path-3" points="0 17.9717362 17.6170213 17.9717362 17.6170213 0.383055319 0 0.383055319"></polygon>
    </defs>
    <g id="数聚蜂巢架构2-平台组成" stroke="none" stroke-width="1" fill="none" fill-rule="evenodd">
        <path d="M104.5,59 L104.5,29" id="路径-24-copy-8" stroke="#3261AF" fill-rule="nonzero"></path>
        <path d="M104.5,251.478353 L104.5,221.478353" id="路径-24-copy-16" stroke="#3261AF" fill-rule="nonzero"></path>
        <path d="M179.5,59 L179.5,29" id="路径-24-copy-9" stroke="#3261AF" fill-rule="nonzero"></path>
        <path d="M179.5,251.478353 L179.5,221.478353" id="路径-24-copy-17" stroke="#3261AF" fill-rule="nonzero"></path>
        <path d="M254.5,59 L254.5,29" id="路径-24-copy-10" stroke="#3261AF" fill-rule="nonzero"></path>
        <path d="M254.5,251.478353 L254.5,221.478353" id="路径-24-copy-18" stroke="#3261AF" fill-rule="nonzero"></path>
        <path d="M329.5,59 L329.5,29" id="路径-24-copy-11" stroke="#3261AF" fill-rule="nonzero"></path>
        <path d="M329.5,251.478353 L329.5,221.478353" id="路径-24-copy-19" stroke="#3261AF" fill-rule="nonzero"></path>
        <path d="M329.5,59 L329.5,29" id="路径-24-copy-12" stroke="#3261AF" fill-rule="nonzero"></path>
        <path d="M329.5,251.478353 L329.5,221.478353" id="路径-24-copy-20" stroke="#3261AF" fill-rule="nonzero"></path>
        <path d="M403.5,59 L403.5,29" id="路径-24-copy-13" stroke="#3261AF" fill-rule="nonzero"></path>
        <path d="M403.5,251.478353 L403.5,221.478353" id="路径-24-copy-21" stroke="#3261AF" fill-rule="nonzero"></path>
        <path d="M477.5,59 L477.5,29" id="路径-24-copy-14" stroke="#3261AF" fill-rule="nonzero"></path>
        <path d="M477.5,251.478353 L477.5,221.478353" id="路径-24-copy-22" stroke="#3261AF" fill-rule="nonzero"></path>
        <path d="M551.5,59 L551.5,29" id="路径-24-copy-15" stroke="#3261AF" fill-rule="nonzero"></path>
        <path d="M551.5,251.478353 L551.5,221.478353" id="路径-24-copy-23" stroke="#3261AF" fill-rule="nonzero"></path>
        <rect id="Rectangle-Copy-47" fill="#E1EDFF" x="0" y="75" width="66" height="30" rx="3"></rect>
        <rect id="Rectangle-Copy-50" fill="#A1CAFF" x="76" y="57" width="504" height="167" rx="3"></rect>
        <rect id="Rectangle-Copy-51" stroke="#3261AF" x="134.5" y="71.5" width="212" height="139" rx="3"></rect>
        <path d="M165.207107,151.5 L172,158.292893 L178.792893,151.5 L175.5,151.5 L175.5,142.5 L168.5,142.5 L168.5,151.5 L165.207107,151.5 Z" id="合并形状" stroke="#3261AF" fill="#A1CAFF" fill-rule="nonzero"></path>
        <path d="M234.207107,151.5 L241,158.292893 L247.792893,151.5 L244.5,151.5 L244.5,142.5 L237.5,142.5 L237.5,151.5 L234.207107,151.5 Z" id="合并形状-copy" stroke="#3261AF" fill="#A1CAFF" fill-rule="nonzero"></path>
        <path d="M303.207107,151.5 L310,158.292893 L316.792893,151.5 L313.5,151.5 L313.5,142.5 L306.5,142.5 L306.5,151.5 L303.207107,151.5 Z" id="合并形状-copy-2" stroke="#3261AF" fill="#A1CAFF" fill-rule="nonzero"></path>
        <rect id="Rectangle-Copy-46" fill="#3261AF" x="144" y="109" width="56" height="30" rx="3"></rect>
        <rect id="Rectangle-Copy-68" fill="#3261AF" x="144" y="161" width="193" height="30" rx="3"></rect>
        <rect id="Rectangle-Copy-66" fill="#3261AF" x="213" y="109" width="56" height="30" rx="3"></rect>
        <rect id="Rectangle-Copy-67" fill="#3261AF" x="281" y="109" width="56" height="30" rx="3"></rect>
        <text id="数据流转-与同步" font-family="PingFangSC-Regular, PingFang SC" font-size="10" font-weight="normal" fill="#FFFFFF">
            <tspan x="152" y="121">数据流转</tspan>
            <tspan x="157" y="135">与同步</tspan>
        </text>
        <text id="流程编排-与重建" font-family="PingFangSC-Regular, PingFang SC" font-size="10" font-weight="normal" fill="#FFFFFF">
            <tspan x="221" y="121">流程编排</tspan>
            <tspan x="226" y="135">与重建</tspan>
        </text>
        <text id="集成管理-与监控" font-family="PingFangSC-Regular, PingFang SC" font-size="10" font-weight="normal" fill="#FFFFFF">
            <tspan x="289" y="121">集成管理</tspan>
            <tspan x="294" y="135">与监控</tspan>
        </text>
        <g id="Group" transform="translate(288.000000, 170.000000)">
            <polygon id="Triangle" stroke="#FFFFFF" points="8.32 1.28 14.72 14.08 1.92 14.08"></polygon>
            <circle id="Oval" fill="#A1CAFF" cx="8.32" cy="1.92" r="1.92"></circle>
            <circle id="Oval-Copy" fill="#A1CAFF" cx="1.92" cy="14.08" r="1.92"></circle>
            <circle id="Oval-Copy-2" fill="#A1CAFF" cx="14.72" cy="14.08" r="1.92"></circle>
        </g>
        <g id="分组-3" transform="translate(260.000000, 170.000000)" fill-rule="nonzero">
            <rect id="矩形" fill="#A1CAFF" x="0" y="2.90909091" width="17.4545455" height="13.0909091"></rect>
            <polygon id="矩形-copy" fill="#FFFFFF" points="0 0 6.23376623 0 8.72727273 2.90909091 0 2.90909091"></polygon>
        </g>
        <g id="分组" transform="translate(233.000000, 170.000000)">
            <path d="M2.28571429,13.7910001 C3.34963272,14.8515416 4.72963491,15.6320214 6.28571429,16 C5.89288455,15.11283 5.57208639,14.1533364 5.32452582,13.1428571 C4.26499287,13.2890432 3.2482184,13.5064245 2.28571429,13.7910001" id="Fill-1" fill="#FFFFFF"></path>
            <path d="M5.14285714,4.2609653 C3.83344733,4.08135034 2.5882375,3.80152571 1.43038912,3.42857143 C0.620187578,4.58533967 0.108049359,5.95167684 0,7.42857143 L4.83962185,7.42857143 C4.87009154,6.3393358 4.96464878,5.27624183 5.14285714,4.2609653" id="Fill-3" fill="#A1CAFF"></path>
            <path d="M13.7142857,13.7910001 C12.7517816,13.5064245 11.7350071,13.2890432 10.6754742,13.1428571 C10.4279136,14.1533364 10.1071154,15.11283 9.71428571,16 C11.2704747,15.6320214 12.6503673,14.8515416 13.7142857,13.7910001" id="Fill-5" fill="#FFFFFF"></path>
            <path d="M11.1603782,7.42857143 L16,7.42857143 C15.8919506,5.95178576 15.3797,4.58533967 14.5694984,3.42857143 C13.4123247,3.80152571 12.1665527,4.08145926 10.8571429,4.2609653 C11.0354637,5.27624183 11.1299085,6.3393358 11.1603782,7.42857143" id="Fill-7" fill="#A1CAFF"></path>
            <path d="M16,8.57142857 L11.1603782,8.57142857 C11.1299085,9.66072353 11.0354637,10.7238754 10.8571429,11.7389894 C12.1665527,11.9194855 13.4123247,12.198454 14.5694984,12.5714286 C15.3797,11.4149241 15.8919506,10.0481857 16,8.57142857" id="Fill-9" fill="#A1CAFF"></path>
            <path d="M10.2857143,8.57142857 L5.71428571,8.57142857 C5.74471961,9.54713384 5.83731176,10.507072 6.01174205,11.4285714 C6.66225304,11.3738503 7.32448591,11.34211 8.00005377,11.34211 C8.67562163,11.34211 9.3378545,11.3738503 9.98825795,11.4285714 C10.1627958,10.507072 10.2552804,9.54713384 10.2857143,8.57142857" id="Fill-11" fill="#A1CAFF"></path>
            <path d="M6.28571429,12.6502816 C6.57527139,13.8412267 6.96613128,14.9636915 7.44911338,15.9722691 C7.631986,15.9852878 7.81390891,16 7.99994724,16 C8.18598557,16 8.36780295,15.9852878 8.55067557,15.9722691 C9.03386872,14.9636915 9.42451756,13.8412267 9.71428571,12.6502816 C9.15026139,12.6008529 8.57821726,12.5714286 7.99994724,12.5714286 C7.42167721,12.5714286 6.84963309,12.6008529 6.28571429,12.6502816" id="Fill-13" fill="#FFFFFF"></path>
            <path d="M5.71428571,7.42857143 L10.2857143,7.42857143 C10.2552804,6.45272791 10.1627958,5.49285817 9.98825795,4.57142857 C9.33774696,4.6260486 8.67562163,4.65789311 8.00005377,4.65789311 C7.32448591,4.65789311 6.6621455,4.6260486 6.01174205,4.57142857 C5.83720422,5.49285817 5.74471961,6.45262485 5.71428571,7.42857143" id="Fill-15" fill="#A1CAFF"></path>
            <path d="M13.7142857,2.20892062 C12.6503673,1.14851973 11.2704747,0.367965368 9.71428571,0 C10.1071154,0.887240721 10.4279136,1.84659732 10.6754742,2.85714286 C11.7350071,2.71126977 12.7517816,2.49348598 13.7142857,2.20892062" id="Fill-17" fill="#FFFFFF"></path>
            <path d="M6.28571429,0 C4.72963491,0.367862785 3.34963272,1.14841714 2.28571429,2.20892062 C3.24832803,2.49348598 4.26488324,2.71126977 5.32441618,2.85714286 C5.57197676,1.84649474 5.89288455,0.887138138 6.28571429,0" id="Fill-19" fill="#FFFFFF"></path>
            <path d="M9.71428571,3.34961501 C9.42451756,2.15913 9.03386872,1.0363824 8.55067557,0.0277300029 C8.36780295,0.0155584367 8.18598557,0 7.99994724,0 C7.81390891,0 7.631986,0.0155584367 7.44911338,0.0277300029 C6.96613128,1.03627656 6.57527139,2.15913 6.28571429,3.34961501 C6.84963309,3.39904215 7.42157169,3.42857143 7.99994724,3.42857143 C8.57811174,3.42857143 9.15015587,3.39904215 9.71428571,3.34961501" id="Fill-21" fill="#FFFFFF"></path>
            <path d="M5.14285714,11.7388804 C4.96464878,10.7238754 4.87009154,9.6606146 4.83962185,8.57142857 L0,8.57142857 C0.108049359,10.0480768 0.620187578,11.4147063 1.43038912,12.5714286 C2.5882375,12.198454 3.83344733,11.9193766 5.14285714,11.7388804" id="Fill-23" fill="#A1CAFF"></path>
        </g>
        <g id="Group-2" transform="translate(206.000000, 170.000000)">
            <path d="M15.4482759,2.29009655 C15.4482759,3.4454069 11.990069,4.38223448 7.72413793,4.38223448 C3.4582069,4.38223448 0,3.4454069 0,2.29009655 C0,1.13478621 3.4582069,0.197958621 7.72413793,0.197958621 C11.990069,0.197958621 15.4482759,1.13478621 15.4482759,2.29009655" id="Fill-86" fill="#FFFFFF"></path>
            <path d="M15.4482759,7.92226207 C15.4482759,9.07757241 11.990069,10.0144 7.72413793,10.0144 C3.4582069,10.0144 0,9.07757241 0,7.92226207 C0,6.76695172 3.4582069,5.83012414 7.72413793,5.83012414 C11.990069,5.83012414 15.4482759,6.76695172 15.4482759,7.92226207" id="Fill-87" fill="#A1CAFF"></path>
            <path d="M15.4482759,13.5544828 C15.4482759,14.7097931 11.990069,15.6466207 7.72413793,15.6466207 C3.4582069,15.6466207 0,14.7097931 0,13.5544828 C0,12.3991724 3.4582069,11.4623448 7.72413793,11.4623448 C11.990069,11.4623448 15.4482759,12.3991724 15.4482759,13.5544828" id="Fill-88" fill="#A1CAFF"></path>
        </g>
        <g id="Group-18-Copy" transform="translate(179.000000, 170.000000)">
            <polygon id="Fill-83" fill="#A1CAFF" points="5.31806897 2.84910345 11.0918621 2.84910345 11.0918621 0.409931034 5.31806897 0.409931034"></polygon>
            <polygon id="Fill-84" fill="#FFFFFF" points="5.31806897 9.19282759 11.0918621 9.19282759 11.0918621 7.07586207 5.31806897 7.07586207"></polygon>
            <polygon id="Fill-85" fill="#A1CAFF" points="5.31806897 15.8582069 11.0918621 15.8582069 11.0918621 13.7412414 5.31806897 13.7412414"></polygon>
            <path d="M11.3688828,1.4688 L12.596469,1.4688 C14.4370207,1.4688 15.9294345,2.96066207 15.9294345,4.80176552 C15.9294345,6.64231724 14.4370207,8.13417931 12.596469,8.13417931 L11.9995034,8.13417931" id="Stroke-86" stroke="#FFFFFF" stroke-linecap="round"></path>
            <polygon id="Fill-87" fill="#FFFFFF" points="13.0984276 7.19895172 12.1627034 8.13412414 13.0984276 9.06984828 12.3044966 9.06984828 11.3687724 8.13412414 12.3044966 7.19895172"></polygon>
            <path d="M5.0416,8.13428966 L3.81401379,8.13428966 C1.97346207,8.13428966 0.481048276,9.62615172 0.481048276,11.4672552 C0.481048276,13.3078069 1.97346207,14.799669 3.81401379,14.799669 L4.41097931,14.799669" id="Stroke-88" stroke="#FFFFFF" stroke-linecap="round"></path>
            <polygon id="Fill-89" fill="#FFFFFF" points="3.31205517 15.7351724 4.24777931 14.8 3.31205517 13.8642759 4.10598621 13.8642759 5.04171034 14.8 4.10598621 15.7351724"></polygon>
        </g>
        <g id="分组-2" transform="translate(149.000000, 170.000000)" fill-rule="nonzero">
            <polyline id="路径-2" stroke="#FFFFFF" points="2.28571429 12.953219 2.28571429 8 17.1732391 8 17.1732391 2.28571429"></polyline>
            <circle id="椭圆形" fill="#A1CAFF" cx="9.71428571" cy="8" r="2.28571429"></circle>
            <circle id="椭圆形" fill="#A1CAFF" cx="2.28571429" cy="13.7142857" r="2.28571429"></circle>
            <circle id="椭圆形" fill="#A1CAFF" cx="17.1428571" cy="2.28571429" r="2.28571429"></circle>
        </g>
        <rect id="Rectangle-Copy-52" stroke="#3261AF" x="357.5" y="71.5" width="212" height="139" rx="3"></rect>
        <text id="数-聚-蜂-巢" font-family="PingFangSC-Semibold, PingFang SC" font-size="18" font-weight="500" fill="#001B47">
            <tspan x="96" y="110">数</tspan>
            <tspan x="96" y="135">聚</tspan>
            <tspan x="96" y="160">蜂</tspan>
            <tspan x="96" y="185">巢</tspan>
        </text>
        <rect id="Rectangle-Copy-48" fill="#A1CAFF" x="0" y="125" width="66" height="30" rx="3"></rect>
        <rect id="Rectangle-Copy-49" fill="#3261AF" x="0" y="175" width="66" height="30" rx="3"></rect>
        <text id="能力化" font-family="PingFangSC-Regular, PingFang SC" font-size="14" font-weight="normal" fill="#214278">
            <tspan x="12" y="95">能力化</tspan>
        </text>
        <text id="微服务化" font-family="PingFangSC-Regular, PingFang SC" font-size="14" font-weight="normal" fill="#214278">
            <tspan x="5" y="145">微服务化</tspan>
        </text>
        <text id="API化解耦" font-family="PingFangSC-Regular, PingFang SC" font-size="14" font-weight="normal" fill="#FFFFFF">
            <tspan x="1.248" y="195">API化解耦</tspan>
        </text>
        <rect id="Rectangle-Copy-47" fill="#E1EDFF" x="76" y="0" width="56" height="30" rx="3"></rect>
        <g id="Group-8" transform="translate(98.000000, 6.000000)">
            <rect id="Rectangle" fill="#3261AF" x="0" y="0" width="12.4137931" height="18"></rect>
            <rect id="Rectangle" fill="#A1CAFF" x="1.24137931" y="1.24137931" width="9.93103448" height="11.7931034"></rect>
            <circle id="Oval" fill="#A1CAFF" cx="6.20689655" cy="15.5172414" r="1.24137931"></circle>
        </g>
        <rect id="Rectangle-Copy-59" fill="#3261AF" x="76" y="250" width="56" height="30" rx="3"></rect>
        <rect id="矩形" fill="#A1CAFF" fill-rule="nonzero" x="95" y="257" width="18" height="12"></rect>
        <rect id="矩形-copy-2" fill="#A1CAFF" fill-rule="nonzero" x="95" y="271" width="18" height="2"></rect>
        <rect id="Rectangle-Copy-53" fill="#E1EDFF" x="151" y="0" width="56" height="30" rx="3"></rect>
        <g id="Group-40-Copy" transform="translate(170.000000, 6.000000)">
            <path d="M17.3464138,13.2376345 L1.20848276,13.2376345 C0.865862069,13.2376345 0.587793103,12.9595655 0.587793103,12.6169448 L0.587793103,0.823841379 C0.587793103,0.48122069 0.865862069,0.203151724 1.20848276,0.203151724 L17.3464138,0.203151724 C17.6890345,0.203151724 17.9671034,0.48122069 17.9671034,0.823841379 L17.9671034,12.6169448 C17.9671034,12.9595655 17.6890345,13.2376345 17.3464138,13.2376345" id="Fill-80" fill="#A1CAFF"></path>
            <path d="M15.5829724,11.3313103 L2.9718,11.3313103 C2.62917931,11.3313103 2.35111034,11.0532414 2.35111034,10.7106207 L2.35111034,2.73041379 C2.35111034,2.38717241 2.62917931,2.10972414 2.9718,2.10972414 L15.5829724,2.10972414 C15.9255931,2.10972414 16.2036621,2.38717241 16.2036621,2.73041379 L16.2036621,10.7106207 C16.2036621,11.0532414 15.9255931,11.3313103 15.5829724,11.3313103" id="Fill-81" fill="#3261AF"></path>
            <path d="M11.997931,17.5824621 L6.55696552,17.5824621 C6.21434483,17.5824621 5.93627586,17.3043931 5.93627586,16.9617724 L5.93627586,16.0307379 C5.93627586,15.6881172 6.21434483,15.4100483 6.55696552,15.4100483 L11.997931,15.4100483 C12.3405517,15.4100483 12.6186207,15.6881172 12.6186207,16.0307379 L12.6186207,16.9617724 C12.6186207,17.3043931 12.3405517,17.5824621 11.997931,17.5824621" id="Fill-82" fill="#3261AF"></path>
        </g>
        <rect id="Rectangle-Copy-60" fill="#3261AF" x="151" y="250" width="56" height="30" rx="3"></rect>
        <g id="Group-2-Copy" transform="translate(170.000000, 256.000000)">
            <path d="M17.3793103,2.57635862 C17.3793103,3.87608276 13.4888276,4.93001379 8.68965517,4.93001379 C3.89048276,4.93001379 0,3.87608276 0,2.57635862 C0,1.27663448 3.89048276,0.222703448 8.68965517,0.222703448 C13.4888276,0.222703448 17.3793103,1.27663448 17.3793103,2.57635862" id="Fill-86" fill="#FFFFFF"></path>
            <path d="M17.3793103,8.91254483 C17.3793103,10.212269 13.4888276,11.2662 8.68965517,11.2662 C3.89048276,11.2662 0,10.212269 0,8.91254483 C0,7.61282069 3.89048276,6.55888966 8.68965517,6.55888966 C13.4888276,6.55888966 17.3793103,7.61282069 17.3793103,8.91254483" id="Fill-87" fill="#A1CAFF"></path>
            <path d="M17.3793103,15.2487931 C17.3793103,16.5485172 13.4888276,17.6024483 8.68965517,17.6024483 C3.89048276,17.6024483 0,16.5485172 0,15.2487931 C0,13.949069 3.89048276,12.8951379 8.68965517,12.8951379 C13.4888276,12.8951379 17.3793103,13.949069 17.3793103,15.2487931" id="Fill-88" fill="#A1CAFF"></path>
        </g>
        <rect id="Rectangle-Copy-54" fill="#E1EDFF" x="225" y="0" width="56" height="30" rx="3"></rect>
        <path d="M253,6.01446179 C253.165441,6.00486504 253.332153,6 253.5,6 C258.19442,6 262,9.80557963 262,14.5 C262,14.6678474 261.995135,14.8345585 261.985538,15 L253,15 L253,6.01446179 Z" id="合并形状" fill="#3261AF" fill-rule="nonzero"></path>
        <path d="M252,7 L252,15.9855382 L260.985538,15.9855382 C260.726729,20.4472279 257.026573,23.9855382 252.5,23.9855382 C247.80558,23.9855382 244,20.1799586 244,15.4855382 C244,10.9589652 247.53831,7.2588089 252,7 Z" id="合并形状" fill="#A1CAFF" fill-rule="nonzero"></path>
        <rect id="Rectangle-Copy-61" fill="#3261AF" x="225" y="250" width="56" height="30" rx="3"></rect>
        <g id="Group" transform="translate(240.000000, 257.000000)">
            <circle id="Oval-2" fill="#FFFFFF" cx="6.21" cy="10.35" r="6.21"></circle>
            <circle id="Oval-2-Copy" fill="#A1CAFF" cx="13.455" cy="8.28" r="8.28"></circle>
            <circle id="Oval-2-Copy-2" fill="#FFFFFF" cx="20.7" cy="11.385" r="5.175"></circle>
        </g>
        <rect id="Rectangle-Copy-55" fill="#E1EDFF" x="300" y="0" width="56" height="30" rx="3"></rect>
        <rect id="Rectangle-Copy-62" fill="#3261AF" x="300" y="250" width="56" height="30" rx="3"></rect>
        <g id="Group-3" transform="translate(319.000000, 256.000000)">
            <path d="M16.7832621,17.9049724 L0.645331034,17.9049724 C0.302710345,17.9049724 0.0246413793,17.6269034 0.0246413793,17.2842828 L0.0246413793,3.42242069 L17.4039517,3.42242069 L17.4039517,17.2842828 C17.4039517,17.6269034 17.1258828,17.9049724 16.7832621,17.9049724" id="Fill-70" fill="#A1CAFF"></path>
            <path d="M2.6343931,6.12757241 L14.7943241,6.12757241" id="Stroke-71" stroke="#FFFFFF" stroke-linecap="round"></path>
            <path d="M2.6343931,8.39557241 L14.7943241,8.39557241" id="Stroke-72" stroke="#FFFFFF" stroke-linecap="round"></path>
            <path d="M2.6343931,10.6635724 L14.7943241,10.6635724" id="Stroke-73" stroke="#FFFFFF" stroke-linecap="round"></path>
            <path d="M2.6343931,12.9315724 L14.7943241,12.9315724" id="Stroke-74" stroke="#FFFFFF" stroke-linecap="round"></path>
            <path d="M2.6343931,15.1995724 L14.7943241,15.1995724" id="Stroke-75" stroke="#FFFFFF" stroke-linecap="round"></path>
            <path d="M4.27444138,1.97391724 C4.07457931,1.97391724 3.91257931,1.81191724 3.91257931,1.61205517 C3.91257931,1.41157241 4.07457931,1.24957241 4.27444138,1.24957241 C4.47430345,1.24957241 4.63630345,1.41157241 4.63630345,1.61205517 C4.63630345,1.81191724 4.47430345,1.97391724 4.27444138,1.97391724 M2.87664828,1.97391724 C2.67616552,1.97391724 2.51416552,1.81191724 2.51416552,1.61205517 C2.51416552,1.41157241 2.67616552,1.24957241 2.87664828,1.24957241 C3.07651034,1.24957241 3.23851034,1.41157241 3.23851034,1.61205517 C3.23851034,1.81191724 3.07651034,1.97391724 2.87664828,1.97391724 M1.47823448,1.97391724 C1.27837241,1.97391724 1.11637241,1.81191724 1.11637241,1.61205517 C1.11637241,1.41157241 1.27837241,1.24957241 1.47823448,1.24957241 C1.67809655,1.24957241 1.84071724,1.41157241 1.84071724,1.61205517 C1.84071724,1.81191724 1.67809655,1.97391724 1.47823448,1.97391724 M17.0420276,0.525848276 L0.386441379,0.525848276 C0.18657931,0.525848276 0.0245793103,0.687848276 0.0245793103,0.887710345 L0.0245793103,2.69826207 L17.4038897,2.69826207 L17.4038897,0.887710345 C17.4038897,0.687848276 17.2418897,0.525848276 17.0420276,0.525848276" id="Fill-76" fill="#FFFFFF"></path>
        </g>
        <rect id="Rectangle-Copy-56" fill="#E1EDFF" x="375" y="0" width="56" height="30" rx="3"></rect>
        <g id="Page-1" transform="translate(392.000000, 6.000000)">
            <polygon id="Fill-1" fill="#A1CAFF" points="6.91741763 -2.46508751e-06 1.23254375e-05 6.91740283 10.8702347 17.7876499 17.7876647 10.8702446"></polygon>
            <polygon id="Fill-2" fill="#A1CAFF" points="14.8230346 -2.46508751e-06 3.95281218 10.8702446 10.8702421 17.7876499 21.7404399 6.91740283"></polygon>
            <polygon id="Fill-3" fill="#3261AF" points="3.95281958 10.8702347 10.8702249 17.78764 17.7876548 10.8702347 10.8702249 3.95282944"></polygon>
        </g>
        <rect id="Rectangle-Copy-63" fill="#3261AF" x="375" y="250" width="56" height="30" rx="3"></rect>
        <g id="Group-31" transform="translate(396.000000, 256.000000)">
            <path d="M14.3486069,4.96508276 L14.3486069,17.1200483 C14.3486069,17.3223931 14.1853655,17.4819103 13.9867448,17.4819103 L0.430882759,17.4819103 C0.231641379,17.4819103 0.0684,17.3223931 0.0684,17.1200483 L0.0684,0.464462069 C0.0684,0.26522069 0.231641379,0.1026 0.430882759,0.1026 L9.48984828,0.1026 L14.3486069,4.96508276 Z" id="Fill-46" fill="#A1CAFF"></path>
            <path d="M14.3486069,4.96508276 L9.85171034,4.96508276 C9.65184828,4.96508276 9.48984828,4.80308276 9.48984828,4.60322069 L9.48984828,0.1026 L14.3486069,4.96508276 Z" id="Fill-47" fill="#FFFFFF"></path>
            <path d="M3.06670345,4.1048069 L6.28125517,4.1048069" id="Stroke-48" stroke="#FFFFFF" stroke-linecap="round"></path>
            <path d="M3.06670345,5.97978621 L6.28125517,5.97978621" id="Stroke-49" stroke="#FFFFFF" stroke-linecap="round"></path>
            <path d="M3.06670345,7.85470345 L11.3504276,7.85470345" id="Stroke-50" stroke="#FFFFFF" stroke-linecap="round"></path>
            <path d="M3.06670345,9.72962069 L11.3504276,9.72962069" id="Stroke-51" stroke="#FFFFFF" stroke-linecap="round"></path>
            <path d="M3.06670345,11.6045379 L11.3504276,11.6045379" id="Stroke-52" stroke="#FFFFFF" stroke-linecap="round"></path>
            <path d="M3.06670345,13.4794552 L11.3504276,13.4794552" id="Stroke-53" stroke="#FFFFFF" stroke-linecap="round"></path>
        </g>
        <rect id="Rectangle-Copy-57" fill="#E1EDFF" x="449" y="0" width="56" height="30" rx="3"></rect>
        <text id="UI" font-family="PingFangSC-Semibold, PingFang SC" font-size="16" font-weight="500" fill="#3261AF">
            <tspan x="469.072" y="21">UI</tspan>
        </text>
        <rect id="Rectangle-Copy-64" fill="#3261AF" x="449" y="250" width="56" height="30" rx="3"></rect>
        <g id="Group-5-Copy-2" transform="translate(468.000000, 256.000000)">
            <path d="M2.55568966,16.154131 C2.15596552,16.154131 1.83134483,15.830131 1.83134483,15.4297862 C1.83134483,15.0300621 2.15596552,14.7060621 2.55568966,14.7060621 C2.95541379,14.7060621 3.28003448,15.0300621 3.28003448,15.4297862 C3.28003448,15.830131 2.95541379,16.154131 2.55568966,16.154131 M17.0171379,13.0767517 L0.362172414,13.0767517 C0.162310345,13.0767517 0.000310344828,13.2387517 0.000310344828,13.4386138 L0.000310344828,17.4215793 C0.000310344828,17.6214414 0.162310345,17.7834414 0.362172414,17.7834414 L17.0171379,17.7834414 C17.217,17.7834414 17.3796207,17.6214414 17.3796207,17.4215793 L17.3796207,13.4386138 C17.3796207,13.2387517 17.217,13.0767517 17.0171379,13.0767517" id="Fill-95" fill="#A1CAFF"></path>
            <path d="M2.55568966,9.81794483 C2.15596552,9.81794483 1.83134483,9.49394483 1.83134483,9.0936 C1.83134483,8.69387586 2.15596552,8.36987586 2.55568966,8.36987586 C2.95541379,8.36987586 3.28003448,8.69387586 3.28003448,9.0936 C3.28003448,9.49394483 2.95541379,9.81794483 2.55568966,9.81794483 M17.0171379,6.74056552 L0.362172414,6.74056552 C0.162310345,6.74056552 0.000310344828,6.90256552 0.000310344828,7.10242759 L0.000310344828,11.0853931 C0.000310344828,11.2852552 0.162310345,11.4472552 0.362172414,11.4472552 L17.0171379,11.4472552 C17.217,11.4472552 17.3796207,11.2852552 17.3796207,11.0853931 L17.3796207,7.10242759 C17.3796207,6.90256552 17.217,6.74056552 17.0171379,6.74056552" id="Fill-96" fill="#FFFFFF"></path>
            <path d="M2.55568966,3.48175862 C2.15596552,3.48175862 1.83134483,3.15775862 1.83134483,2.75741379 C1.83134483,2.35768966 2.15596552,2.03368966 2.55568966,2.03368966 C2.95541379,2.03368966 3.28003448,2.35768966 3.28003448,2.75741379 C3.28003448,3.15775862 2.95541379,3.48175862 2.55568966,3.48175862 M17.0171379,0.40437931 L0.362172414,0.40437931 C0.162310345,0.40437931 0.000310344828,0.56637931 0.000310344828,0.766241379 L0.000310344828,4.7492069 C0.000310344828,4.94906897 0.162310345,5.11106897 0.362172414,5.11106897 L17.0171379,5.11106897 C17.217,5.11106897 17.3796207,4.94906897 17.3796207,4.7492069 L17.3796207,0.766241379 C17.3796207,0.56637931 17.217,0.40437931 17.0171379,0.40437931" id="Fill-97" fill="#FFFFFF"></path>
        </g>
        <rect id="Rectangle-Copy-58" fill="#E1EDFF" x="524" y="0" width="56" height="30" rx="3"></rect>
        <g id="Page-1-Copy-3" transform="translate(543.000000, 6.000000)">
            <path d="M17.6170213,17.9717362 L0,17.9717362 L0,8.8974383 C0,8.72011915 0.121404255,8.5661617 0.293744681,8.52518298 L17.6170213,4.38250213 L17.6170213,17.9717362 Z" id="Fill-1" fill="#3261AF"></path>
            <g id="Group-5" transform="translate(6.510638, 0.354715)">
                <mask id="mask-2" fill="white">
                    <use xlink:href="#path-1"></use>
                </mask>
                <g id="Clip-4"></g>
                <path d="M11.106383,17.6170213 L0.369191489,17.6170213 L0.369191489,0.411319149 C0.369191489,0.189191489 0.557617021,0.0134042553 0.779361702,0.029106383 L10.7505957,0.740680851 C10.9508936,0.754851064 11.106383,0.921829787 11.106383,1.12251064 L11.106383,17.6170213 Z" id="Fill-3" fill="#A1CAFF" mask="url(#mask-2)"></path>
            </g>
            <mask id="mask-4" fill="white">
                <use xlink:href="#path-3"></use>
            </mask>
            <g id="Clip-7"></g>
            <path d="M8.91174468,5.38114043 L8.91174468,4.88114043 L8.41174468,5.38114043 L8.91174468,5.38114043 Z M9.47659574,5.38114043 L9.97659574,5.38114043 L9.47659574,4.88114043 L9.47659574,5.38114043 Z M9.47659574,5.94599149 L9.47659574,6.44599149 L9.97659574,5.94599149 L9.47659574,5.94599149 Z M8.91174468,5.94599149 L8.41174468,5.94599149 L8.91174468,6.44599149 L8.91174468,5.94599149 Z" id="Stroke-6" stroke="#3261AF" mask="url(#mask-4)"></path>
            <path d="M11.9736596,5.38114043 L11.9736596,4.88114043 L11.4736596,5.38114043 L11.9736596,5.38114043 Z M12.5385106,5.38114043 L13.0385106,5.38114043 L12.5385106,4.88114043 L12.5385106,5.38114043 Z M12.5385106,5.94599149 L12.5385106,6.44599149 L13.0385106,5.94599149 L12.5385106,5.94599149 Z M11.9736596,5.94599149 L11.4736596,5.94599149 L11.9736596,6.44599149 L11.9736596,5.94599149 Z" id="Stroke-8" stroke="#3261AF" mask="url(#mask-4)"></path>
            <path d="M15.0359574,5.38114043 L15.0359574,4.88114043 L14.5359574,5.38114043 L15.0359574,5.38114043 Z M15.6008085,5.38114043 L16.1008085,5.38114043 L15.6008085,4.88114043 L15.6008085,5.38114043 Z M15.6008085,5.94599149 L15.6008085,6.44599149 L16.1008085,5.94599149 L15.6008085,5.94599149 Z M15.0359574,5.94599149 L14.5359574,5.94599149 L15.0359574,6.44599149 L15.0359574,5.94599149 Z" id="Stroke-9" stroke="#3261AF" mask="url(#mask-4)"></path>
            <path d="M8.91174468,9.67739574 L8.91174468,9.17739574 L8.41174468,9.67739574 L8.91174468,9.67739574 Z M9.47659574,9.67739574 L9.97659574,9.67739574 L9.47659574,9.17739574 L9.47659574,9.67739574 Z M9.47659574,10.2422468 L9.47659574,10.7422468 L9.97659574,10.2422468 L9.47659574,10.2422468 Z M8.91174468,10.2422468 L8.41174468,10.2422468 L8.91174468,10.7422468 L8.91174468,10.2422468 Z" id="Stroke-10" stroke="#3261AF" mask="url(#mask-4)"></path>
            <path d="M11.9736596,9.67739574 L11.9736596,9.17739574 L11.4736596,9.67739574 L11.9736596,9.67739574 Z M12.5385106,9.67739574 L13.0385106,9.67739574 L12.5385106,9.17739574 L12.5385106,9.67739574 Z M12.5385106,10.2422468 L12.5385106,10.7422468 L13.0385106,10.2422468 L12.5385106,10.2422468 Z M11.9736596,10.2422468 L11.4736596,10.2422468 L11.9736596,10.7422468 L11.9736596,10.2422468 Z" id="Stroke-11" stroke="#3261AF" mask="url(#mask-4)"></path>
            <path d="M15.0359574,9.67739574 L15.0359574,9.17739574 L14.5359574,9.67739574 L15.0359574,9.67739574 Z M15.6008085,9.67739574 L16.1008085,9.67739574 L15.6008085,9.17739574 L15.6008085,9.67739574 Z M15.6008085,10.2422468 L15.6008085,10.7422468 L16.1008085,10.2422468 L15.6008085,10.2422468 Z M15.0359574,10.2422468 L14.5359574,10.2422468 L15.0359574,10.7422468 L15.0359574,10.2422468 Z" id="Stroke-12" stroke="#3261AF" mask="url(#mask-4)"></path>
            <path d="M8.91174468,13.974034 L8.91174468,13.474034 L8.41174468,13.974034 L8.91174468,13.974034 Z M9.47659574,13.974034 L9.97659574,13.974034 L9.47659574,13.474034 L9.47659574,13.974034 Z M9.47659574,14.5388851 L9.47659574,15.0388851 L9.97659574,14.5388851 L9.47659574,14.5388851 Z M8.91174468,14.5388851 L8.41174468,14.5388851 L8.91174468,15.0388851 L8.91174468,14.5388851 Z" id="Stroke-13" stroke="#3261AF" mask="url(#mask-4)"></path>
            <path d="M11.9736596,13.974034 L11.9736596,13.474034 L11.4736596,13.974034 L11.9736596,13.974034 Z M12.5385106,13.974034 L13.0385106,13.974034 L12.5385106,13.474034 L12.5385106,13.974034 Z M12.5385106,14.5388851 L12.5385106,15.0388851 L13.0385106,14.5388851 L12.5385106,14.5388851 Z M11.9736596,14.5388851 L11.4736596,14.5388851 L11.9736596,15.0388851 L11.9736596,14.5388851 Z" id="Stroke-14" stroke="#3261AF" mask="url(#mask-4)"></path>
            <path d="M15.0359574,13.974034 L15.0359574,13.474034 L14.5359574,13.974034 L15.0359574,13.974034 Z M15.6008085,13.974034 L16.1008085,13.974034 L15.6008085,13.474034 L15.6008085,13.974034 Z M15.6008085,14.5388851 L15.6008085,15.0388851 L16.1008085,14.5388851 L15.6008085,14.5388851 Z M15.0359574,14.5388851 L14.5359574,14.5388851 L15.0359574,15.0388851 L15.0359574,14.5388851 Z" id="Stroke-15" stroke="#3261AF" mask="url(#mask-4)"></path>
        </g>
        <rect id="Rectangle-Copy-65" fill="#3261AF" x="524" y="250" width="56" height="30" rx="3"></rect>
        <g id="Group-4-Copy" transform="translate(543.000000, 256.000000)">
            <path d="M3.98277931,8.56998621 L7.96574483,8.56998621 L7.96574483,4.58702069 C7.96574483,2.38729655 6.18250345,0.604675862 3.98277931,0.604675862 C1.78305517,0.604675862 -0.000186206897,2.38729655 -0.000186206897,4.58702069 C-0.000186206897,6.78674483 1.78305517,8.56998621 3.98277931,8.56998621" id="Fill-5" fill="#FFFFFF"></path>
            <path d="M13.396531,8.56998621 L9.41356552,8.56998621 L9.41356552,4.58702069 C9.41356552,2.38729655 11.1968069,0.604675862 13.396531,0.604675862 C15.5962552,0.604675862 17.3794966,2.38729655 17.3794966,4.58702069 C17.3794966,6.78674483 15.5962552,8.56998621 13.396531,8.56998621" id="Fill-7" fill="#A1CAFF"></path>
            <path d="M3.98277931,10.0182414 L7.96574483,10.0182414 L7.96574483,14.0012069 C7.96574483,16.200931 6.18250345,17.9835517 3.98277931,17.9835517 C1.78305517,17.9835517 -0.000186206897,16.200931 -0.000186206897,14.0012069 C-0.000186206897,11.8014828 1.78305517,10.0182414 3.98277931,10.0182414" id="Fill-9" fill="#A1CAFF"></path>
            <path d="M13.396531,10.0182414 L9.41356552,10.0182414 L9.41356552,14.0012069 C9.41356552,16.200931 11.1968069,17.9835517 13.396531,17.9835517 C15.5962552,17.9835517 17.3794966,16.200931 17.3794966,14.0012069 C17.3794966,11.8014828 15.5962552,10.0182414 13.396531,10.0182414" id="Fill-11" fill="#A1CAFF"></path>
        </g>
        <circle id="椭圆形" fill="#A1CAFF" fill-rule="nonzero" cx="328" cy="15" r="9"></circle>
        <g id="分组" transform="translate(323.000000, 12.000000)" fill-rule="nonzero" stroke="#3261AF">
            <path d="M0.0909902577,3.84099026 C0.0909902577,4.66941738 0.762563133,5.34099026 1.59099026,5.34099026 C2.41941738,5.34099026 3.09099026,4.66941738 3.09099026,3.84099026" id="椭圆形" transform="translate(1.590990, 4.590990) rotate(-315.000000) translate(-1.590990, -4.590990) "></path>
            <path d="M7.09099026,0.840990258 C7.09099026,1.66941738 7.76256313,2.34099026 8.59099026,2.34099026 C9.41941738,2.34099026 10.0909903,1.66941738 10.0909903,0.840990258" id="椭圆形-copy-2" transform="translate(8.590990, 1.590990) scale(-1, -1) rotate(-315.000000) translate(-8.590990, -1.590990) "></path>
            <path d="M3.15729611,5.1300509 L7,1.04576015" id="路径-22"></path>
        </g>
        <path d="" id="路径-20" stroke="#979797" fill-rule="nonzero"></path>
        <path d="" id="路径-21" stroke="#979797" fill-rule="nonzero"></path>
        <polyline id="路径-23" stroke="#FFFFFF" fill-rule="nonzero" points="98 264.379133 101.269025 262.06956 104.849858 265.478353 109.817527 260"></polyline>
        <g id="分组-4" transform="translate(316.000000, 168.000000)" fill-rule="nonzero">
            <rect id="矩形" stroke="#FFFFFF" x="1.83333333" y="5.16666667" width="12.3333333" height="6.66666667"></rect>
            <rect id="矩形" fill="#FFFFFF" x="14" y="12.3333333" width="1" height="2"></rect>
            <rect id="矩形-copy-3" fill="#FFFFFF" x="1.33333333" y="2.66666667" width="1" height="2"></rect>
            <circle id="椭圆形" fill="#A1CAFF" cx="1.66666667" cy="1.66666667" r="1.66666667"></circle>
            <circle id="椭圆形-copy-3" fill="#A1CAFF" cx="14.3333333" cy="15.3333333" r="1.66666667"></circle>
        </g>
        <text id="集成编排平台" font-family="PingFangSC-Regular, PingFang SC" font-size="14" font-weight="normal" fill="#001B47">
            <tspan x="199" y="95">集成编排平台</tspan>
        </text>
        <text id="API-管理平台" font-family="PingFangSC-Regular, PingFang SC" font-size="14" font-weight="normal" fill="#001B47">
            <tspan x="422.417" y="95">API 管理平台</tspan>
        </text>
        <rect id="Rectangle-Copy-69" fill="#FFFFFF" x="372" y="170" width="56" height="20" rx="3"></rect>
        <rect id="Rectangle-Copy-70" fill="#FFFFFF" x="436" y="170" width="56" height="20" rx="3"></rect>
        <rect id="Rectangle-Copy-71" fill="#E1EDFF" x="499" y="170" width="56" height="20" rx="3"></rect>
        <rect id="Rectangle-Copy-72" fill="#3261AF" x="499" y="110" width="56" height="20" rx="3"></rect>
        <rect id="Rectangle-Copy-75" fill="#3261AF" x="499" y="140" width="56" height="20" rx="3"></rect>
        <rect id="Rectangle-Copy-73" fill="#457FDE" x="373" y="110" width="119" height="20" rx="3"></rect>
        <rect id="Rectangle-Copy-74" fill="#457FDE" x="373" y="140" width="56" height="20" rx="3"></rect>
        <text id="测试" font-family="PingFangSC-Regular, PingFang SC" font-size="12" font-weight="normal" fill="#001B47">
            <tspan x="388" y="184">测试</tspan>
        </text>
        <text id="集成" font-family="PingFangSC-Regular, PingFang SC" font-size="12" font-weight="normal" fill="#001B47">
            <tspan x="452" y="184">集成</tspan>
        </text>
        <text id="管理" font-family="PingFangSC-Regular, PingFang SC" font-size="12" font-weight="normal" fill="#001B47">
            <tspan x="515" y="184">管理</tspan>
        </text>
        <text id="运维" font-family="PingFangSC-Regular, PingFang SC" font-size="12" font-weight="normal" fill="#FFFFFF">
            <tspan x="515" y="124">运维</tspan>
        </text>
        <text id="部署" font-family="PingFangSC-Regular, PingFang SC" font-size="12" font-weight="normal" fill="#FFFFFF">
            <tspan x="515" y="154">部署</tspan>
        </text>
        <text id="设计" font-family="PingFangSC-Regular, PingFang SC" font-size="12" font-weight="normal" fill="#FFFFFF">
            <tspan x="421" y="124">设计</tspan>
        </text>
        <text id="发布" font-family="PingFangSC-Regular, PingFang SC" font-size="12" font-weight="normal" fill="#FFFFFF">
            <tspan x="389" y="154">发布</tspan>
        </text>
        <text id="API-全生命周期" font-family="PingFangSC-Regular, PingFang SC" font-size="12" font-weight="normal" fill="#001B47">
            <tspan x="454.784" y="144">API</tspan>
            <tspan x="434" y="161">全生命周期</tspan>
        </text>
        <polygon id="矩形" fill="#3261AF" fill-rule="nonzero" transform="translate(430.242641, 180.242641) rotate(-315.000000) translate(-430.242641, -180.242641) " points="427.242641 177.242641 433.242641 177.242641 433.242641 183.242641"></polygon>
        <polygon id="矩形-copy-4" fill="#3261AF" fill-rule="nonzero" transform="translate(493.242641, 180.242641) rotate(-315.000000) translate(-493.242641, -180.242641) " points="490.242641 177.242641 496.242641 177.242641 496.242641 183.242641"></polygon>
        <polygon id="矩形-copy-9" fill="#3261AF" fill-rule="nonzero" transform="translate(497.242641, 120.242641) rotate(-135.000000) translate(-497.242641, -120.242641) " points="494.242641 117.242641 500.242641 117.242641 500.242641 123.242641"></polygon>
        <polygon id="矩形-copy-5" fill="#3261AF" fill-rule="nonzero" transform="translate(527.242641, 166.242641) rotate(-45.000000) translate(-527.242641, -166.242641) " points="524.242641 163.242641 530.242641 163.242641 530.242641 169.242641"></polygon>
        <polygon id="矩形-copy-7" fill="#3261AF" fill-rule="nonzero" transform="translate(401.000000, 133.242641) rotate(-225.000000) translate(-401.000000, -133.242641) " points="398 130.242641 404 130.242641 404 136.242641"></polygon>
        <polygon id="矩形-copy-6" fill="#3261AF" fill-rule="nonzero" transform="translate(527.242641, 137.242641) rotate(-45.000000) translate(-527.242641, -137.242641) " points="524.242641 134.242641 530.242641 134.242641 530.242641 140.242641"></polygon>
        <polygon id="矩形-copy-8" fill="#3261AF" fill-rule="nonzero" transform="translate(401.000000, 163.242641) rotate(-225.000000) translate(-401.000000, -163.242641) " points="398 160.242641 404 160.242641 404 166.242641"></polygon>
    </g>
</svg>