<?xml version="1.0" encoding="UTF-8"?>
<svg width="580px" height="240px" viewBox="0 0 580 240" version="1.1" xmlns="http://www.w3.org/2000/svg" xmlns:xlink="http://www.w3.org/1999/xlink">
    <!-- Generator: Sketch 52 (66869) - http://www.bohemiancoding.com/sketch -->
    <title>边缘计算直播</title>
    <desc>Created with Sketch.</desc>
    <defs>
        <polyline id="path-1" points="200.461087 16 580 16 580 180 194 180"></polyline>
        <mask id="mask-2" maskContentUnits="userSpaceOnUse" maskUnits="objectBoundingBox" x="0" y="0" width="386" height="164" fill="white">
            <use xlink:href="#path-1"></use>
        </mask>
        <rect id="path-3" x="0" y="0" width="56" height="30" rx="3"></rect>
        <mask id="mask-4" maskContentUnits="userSpaceOnUse" maskUnits="objectBoundingBox" x="0" y="0" width="56" height="30" fill="white">
            <use xlink:href="#path-3"></use>
        </mask>
        <rect id="path-5" x="0" y="0" width="56" height="30" rx="3"></rect>
        <mask id="mask-6" maskContentUnits="userSpaceOnUse" maskUnits="objectBoundingBox" x="0" y="0" width="56" height="30" fill="white">
            <use xlink:href="#path-5"></use>
        </mask>
        <rect id="path-7" x="0" y="0" width="56" height="30" rx="3"></rect>
        <mask id="mask-8" maskContentUnits="userSpaceOnUse" maskUnits="objectBoundingBox" x="0" y="0" width="56" height="30" fill="white">
            <use xlink:href="#path-7"></use>
        </mask>
        <rect id="path-9" x="0" y="0" width="56" height="30" rx="3"></rect>
        <mask id="mask-10" maskContentUnits="userSpaceOnUse" maskUnits="objectBoundingBox" x="0" y="0" width="56" height="30" fill="white">
            <use xlink:href="#path-9"></use>
        </mask>
        <rect id="path-11" x="0" y="0" width="56" height="30" rx="3"></rect>
        <mask id="mask-12" maskContentUnits="userSpaceOnUse" maskUnits="objectBoundingBox" x="0" y="0" width="56" height="30" fill="white">
            <use xlink:href="#path-11"></use>
        </mask>
        <rect id="path-13" x="0" y="0" width="56" height="30" rx="3"></rect>
        <mask id="mask-14" maskContentUnits="userSpaceOnUse" maskUnits="objectBoundingBox" x="0" y="0" width="56" height="30" fill="white">
            <use xlink:href="#path-13"></use>
        </mask>
    </defs>
    <g id="边缘计算直播" stroke="none" stroke-width="1" fill="none" fill-rule="evenodd">
        <use id="路径-26-copy-2" stroke="#3261AF" mask="url(#mask-2)" stroke-width="2" stroke-dasharray="2" xlink:href="#path-1"></use>
        <g id="分组-copy" transform="translate(93.000000, 100.000000)" fill-rule="nonzero" stroke="#3261AF">
            <path d="M22.5270584,0.5 L0.615433169,0.5" id="路径-10"></path>
        </g>
        <path id="Rectangle-3-Copy-15" d="M132.568966,180.5 L115.931034,180.5 C114.988911,180.5 114.5,178.997469 114.5,177.138728 L114.5,17.8612717 C114.5,16.0025313 114.988911,14.5 115.931034,14.5 L132.568966,14.5 L132.568966,10.5 L141.568966,15 L132.568966,19.5 L132.568966,15.5 L115.931034,15.5 C115.844765,15.5 115.5,16.5595386 115.5,17.8612717 L115.5,177.138728 C115.5,178.440461 115.844765,179.5 115.931034,179.5 L132.568966,179.5 L132.568966,175.5 L141.568966,180 L132.568966,184.5 L132.568966,180.5 Z" fill="#3261AF" fill-rule="nonzero"></path>
        <g id="分组-4" transform="translate(0.000000, 53.000000)">
            <rect id="Rectangle-3-Copy-10" fill="#A1CAFF" x="0" y="0" width="94" height="95" rx="3"></rect>
            <rect id="Rectangle-Copy-66" fill="#3261AF" x="19" y="13" width="56" height="30" rx="3"></rect>
            <text id="直播" font-family="PingFangSC-Regular, PingFang SC" font-size="14" font-weight="normal" fill="#001B47">
                <tspan x="33" y="61">直播</tspan>
            </text>
            <g id="分组-2" transform="translate(36.000000, 21.000000)" fill-rule="nonzero">
                <rect id="矩形" fill="#A1CAFF" x="0" y="0" width="16" height="14"></rect>
                <polygon id="矩形-copy" fill="#A1CAFF" points="18 5 22 3 22 11 18 9"></polygon>
                <polygon id="矩形" fill="#FFFFFF" transform="translate(7.000000, 7.000000) rotate(-315.000000) translate(-7.000000, -7.000000) " points="4 4 10 4 10 10"></polygon>
            </g>
        </g>
        <rect id="Rectangle-3-Copy-14" fill="#A1CAFF" opacity="0.879999995" transform="translate(344.500000, 97.500000) scale(-1, 1) translate(-344.500000, -97.500000) " x="146" y="50" width="397" height="95" rx="3"></rect>
        <path d="M464,90 L380,90 L380,89 L465,89 L467,89 L464,92 L464,90 Z M383,86 L467,86 L467,87 L382,87 L380,87 L383,84 L383,86 Z" id="合并形状" fill="#3261AF" fill-rule="nonzero"></path>
        <path d="M306,90 L222,90 L222,89 L307,89 L309,89 L306,92 L306,90 Z M225,86 L309,86 L309,87 L224,87 L222,87 L225,84 L225,86 Z" id="合并形状" fill="#3261AF" fill-rule="nonzero"></path>
        <path d="M187,126 L501,126 L501,110 L501,108 L504,111 L502,111 L502,127 L501,127 L187,127 L186,127 L186,108 L187,108 L187,126 Z M190,124 L189,124 L189,110 L189,108 L192,111 L190,111 L190,123 L498,123 L498,107 L499,107 L499,124 L498,124 L190,124 Z" id="合并形状" fill="#3261AF" fill-rule="nonzero"></path>
        <g id="分组-6" transform="translate(161.000000, 73.000000)">
            <rect id="Rectangle-Copy-71" fill="#3261AF" x="0" y="0" width="56" height="30" rx="3"></rect>
            <text id="center" font-family="PingFangSC-Regular, PingFang SC" font-size="14" font-weight="normal" fill="#FFFFFF">
                <tspan x="7.448" y="19">center</tspan>
            </text>
        </g>
        <g id="分组-6-copy" transform="translate(472.000000, 73.000000)">
            <rect id="Rectangle-Copy-71" fill="#3261AF" x="0" y="0" width="56" height="30" rx="3"></rect>
            <text id="center" font-family="PingFangSC-Regular, PingFang SC" font-size="14" font-weight="normal" fill="#FFFFFF">
                <tspan x="7.448" y="19">center</tspan>
            </text>
        </g>
        <g id="分组-5" transform="translate(317.000000, 60.000000)">
            <circle id="椭圆形" fill="#3261AF" fill-rule="nonzero" cx="28" cy="28" r="25"></circle>
            <path d="M28,56 C43.463973,56 56,43.463973 56,28 C56,12.536027 43.463973,0 28,0 C12.536027,0 0,12.536027 0,28 C0,43.463973 12.536027,56 28,56 Z" id="椭圆形" stroke="#3261AF" stroke-dasharray="2" fill-rule="nonzero"></path>
            <text id="center" font-family="PingFangSC-Regular, PingFang SC" font-size="14" font-weight="normal" fill="#FFFFFF">
                <tspan x="7.448" y="33">center</tspan>
            </text>
        </g>
        <g id="分组-3" transform="translate(146.000000, 0.000000)">
            <use id="Rectangle-Copy-67" stroke="#3261AF" mask="url(#mask-4)" stroke-width="2" fill="#A1CAFF" stroke-dasharray="2" xlink:href="#path-3"></use>
            <text id="edge" font-family="PingFangSC-Regular, PingFang SC" font-size="14" font-weight="normal" fill="#001B47">
                <tspan x="11.991" y="20">edge</tspan>
            </text>
        </g>
        <g id="分组-3-copy" transform="translate(317.000000, 0.000000)">
            <use id="Rectangle-Copy-67" stroke="#3261AF" mask="url(#mask-6)" stroke-width="2" fill="#A1CAFF" stroke-dasharray="2" xlink:href="#path-5"></use>
            <text id="edge" font-family="PingFangSC-Regular, PingFang SC" font-size="14" font-weight="normal" fill="#001B47">
                <tspan x="11.991" y="20">edge</tspan>
            </text>
        </g>
        <g id="分组-3-copy-2" transform="translate(317.000000, 165.000000)">
            <use id="Rectangle-Copy-67" stroke="#3261AF" mask="url(#mask-8)" stroke-width="2" fill="#A1CAFF" stroke-dasharray="2" xlink:href="#path-7"></use>
            <text id="edge" font-family="PingFangSC-Regular, PingFang SC" font-size="14" font-weight="normal" fill="#001B47">
                <tspan x="11.991" y="20">edge</tspan>
            </text>
        </g>
        <g id="分组-11" transform="translate(487.000000, 0.000000)">
            <use id="Rectangle-Copy-70" stroke="#3261AF" mask="url(#mask-10)" stroke-width="2" fill="#A1CAFF" stroke-dasharray="2" xlink:href="#path-9"></use>
            <text id="edge-copy-2" font-family="PingFangSC-Regular, PingFang SC" font-size="14" font-weight="normal" fill="#001B47">
                <tspan x="11.991" y="20">edge</tspan>
            </text>
        </g>
        <g id="分组-9" transform="translate(487.000000, 165.000000)">
            <use id="Rectangle-Copy-72" stroke="#3261AF" mask="url(#mask-12)" stroke-width="2" fill="#A1CAFF" stroke-dasharray="2" xlink:href="#path-11"></use>
            <text id="edge-copy-3" font-family="PingFangSC-Regular, PingFang SC" font-size="14" font-weight="normal" fill="#001B47">
                <tspan x="11.991" y="20">edge</tspan>
            </text>
        </g>
        <g id="分组-7" transform="translate(146.000000, 165.000000)">
            <use id="Rectangle-Copy-68" stroke="#3261AF" mask="url(#mask-14)" stroke-width="2" fill="#A1CAFF" stroke-dasharray="2" xlink:href="#path-13"></use>
            <text id="edge-copy" font-family="PingFangSC-Regular, PingFang SC" font-size="14" font-weight="normal" fill="#001B47">
                <tspan x="11.991" y="20">edge</tspan>
            </text>
        </g>
        <g id="分组-8" transform="translate(109.000000, 210.000000)">
            <rect id="Rectangle-3-Copy-11" fill="#E1EDFF" x="0" y="0" width="60" height="30" rx="3"></rect>
            <rect id="Rectangle-Copy-69" stroke="#A1CAFF" fill="#FFFFFF" x="5.5" y="5.5" width="20" height="19" rx="3"></rect>
            <text id="用户" font-family="PingFangSC-Regular, PingFang SC" font-size="12" font-weight="normal" fill="#214278">
                <tspan x="31" y="20">用户</tspan>
            </text>
            <g id="分组" transform="translate(10.000000, 10.000000)" fill-rule="nonzero">
                <circle id="椭圆形" fill="#A1CAFF" cx="4.1" cy="2.3" r="2.3"></circle>
                <path d="M8.2,8.1254834 C8.2,5.62612793 6.36436747,3.6 4.1,3.6 C1.83563253,3.6 0,5.62612793 0,8.1254834 C0,10.6248389 8.2,10.6248389 8.2,8.1254834 Z" id="椭圆形-copy" fill="#A1CAFF"></path>
                <path d="M8.2,0.9 L10.6,0.9" id="路径-5" stroke="#3261AF" stroke-width="0.6" stroke-linecap="round" stroke-linejoin="bevel"></path>
                <path d="M8.2,2.7 L10.6,2.7" id="路径-5-copy" stroke="#3261AF" stroke-width="0.6" stroke-linecap="round" stroke-linejoin="bevel"></path>
                <path d="M8.2,4.7 L10.6,4.7" id="路径-5-copy-2" stroke="#3261AF" stroke-width="0.6" stroke-linecap="round" stroke-linejoin="bevel"></path>
                <path d="M9.4,6.5 L10.6,6.5" id="路径-5-copy-3" stroke="#3261AF" stroke-width="0.6" stroke-linecap="round" stroke-linejoin="bevel"></path>
                <path d="M9.4,8.3 L10.6,8.3" id="路径-5-copy-4" stroke="#3261AF" stroke-width="0.6" stroke-linecap="round" stroke-linejoin="bevel"></path>
            </g>
        </g>
        <g id="分组-8-copy-2" transform="translate(280.000000, 210.000000)">
            <rect id="Rectangle-3-Copy-11" fill="#E1EDFF" x="0" y="0" width="60" height="30" rx="3"></rect>
            <rect id="Rectangle-Copy-69" stroke="#A1CAFF" fill="#FFFFFF" x="5.5" y="5.5" width="20" height="19" rx="3"></rect>
            <text id="用户" font-family="PingFangSC-Regular, PingFang SC" font-size="12" font-weight="normal" fill="#214278">
                <tspan x="31" y="20">用户</tspan>
            </text>
            <g id="分组" transform="translate(10.000000, 10.000000)" fill-rule="nonzero">
                <circle id="椭圆形" fill="#A1CAFF" cx="4.1" cy="2.3" r="2.3"></circle>
                <path d="M8.2,8.1254834 C8.2,5.62612793 6.36436747,3.6 4.1,3.6 C1.83563253,3.6 0,5.62612793 0,8.1254834 C0,10.6248389 8.2,10.6248389 8.2,8.1254834 Z" id="椭圆形-copy" fill="#A1CAFF"></path>
                <path d="M8.2,0.9 L10.6,0.9" id="路径-5" stroke="#3261AF" stroke-width="0.6" stroke-linecap="round" stroke-linejoin="bevel"></path>
                <path d="M8.2,2.7 L10.6,2.7" id="路径-5-copy" stroke="#3261AF" stroke-width="0.6" stroke-linecap="round" stroke-linejoin="bevel"></path>
                <path d="M8.2,4.7 L10.6,4.7" id="路径-5-copy-2" stroke="#3261AF" stroke-width="0.6" stroke-linecap="round" stroke-linejoin="bevel"></path>
                <path d="M9.4,6.5 L10.6,6.5" id="路径-5-copy-3" stroke="#3261AF" stroke-width="0.6" stroke-linecap="round" stroke-linejoin="bevel"></path>
                <path d="M9.4,8.3 L10.6,8.3" id="路径-5-copy-4" stroke="#3261AF" stroke-width="0.6" stroke-linecap="round" stroke-linejoin="bevel"></path>
            </g>
        </g>
        <g id="分组-8-copy-4" transform="translate(450.000000, 210.000000)">
            <rect id="Rectangle-3-Copy-11" fill="#E1EDFF" x="0" y="0" width="60" height="30" rx="3"></rect>
            <rect id="Rectangle-Copy-69" stroke="#A1CAFF" fill="#FFFFFF" x="5.5" y="5.5" width="20" height="19" rx="3"></rect>
            <text id="用户" font-family="PingFangSC-Regular, PingFang SC" font-size="12" font-weight="normal" fill="#214278">
                <tspan x="31" y="20">用户</tspan>
            </text>
            <g id="分组" transform="translate(10.000000, 10.000000)" fill-rule="nonzero">
                <circle id="椭圆形" fill="#A1CAFF" cx="4.1" cy="2.3" r="2.3"></circle>
                <path d="M8.2,8.1254834 C8.2,5.62612793 6.36436747,3.6 4.1,3.6 C1.83563253,3.6 0,5.62612793 0,8.1254834 C0,10.6248389 8.2,10.6248389 8.2,8.1254834 Z" id="椭圆形-copy" fill="#A1CAFF"></path>
                <path d="M8.2,0.9 L10.6,0.9" id="路径-5" stroke="#3261AF" stroke-width="0.6" stroke-linecap="round" stroke-linejoin="bevel"></path>
                <path d="M8.2,2.7 L10.6,2.7" id="路径-5-copy" stroke="#3261AF" stroke-width="0.6" stroke-linecap="round" stroke-linejoin="bevel"></path>
                <path d="M8.2,4.7 L10.6,4.7" id="路径-5-copy-2" stroke="#3261AF" stroke-width="0.6" stroke-linecap="round" stroke-linejoin="bevel"></path>
                <path d="M9.4,6.5 L10.6,6.5" id="路径-5-copy-3" stroke="#3261AF" stroke-width="0.6" stroke-linecap="round" stroke-linejoin="bevel"></path>
                <path d="M9.4,8.3 L10.6,8.3" id="路径-5-copy-4" stroke="#3261AF" stroke-width="0.6" stroke-linecap="round" stroke-linejoin="bevel"></path>
            </g>
        </g>
        <g id="分组-8-copy" transform="translate(179.000000, 210.000000)">
            <rect id="Rectangle-3-Copy-11" fill="#E1EDFF" x="0" y="0" width="60" height="30" rx="3"></rect>
            <rect id="Rectangle-Copy-69" stroke="#A1CAFF" fill="#FFFFFF" x="5.5" y="5.5" width="20" height="19" rx="3"></rect>
            <text id="用户" font-family="PingFangSC-Regular, PingFang SC" font-size="12" font-weight="normal" fill="#214278">
                <tspan x="31" y="20">用户</tspan>
            </text>
            <g id="分组" transform="translate(10.000000, 10.000000)" fill-rule="nonzero">
                <circle id="椭圆形" fill="#A1CAFF" cx="4.1" cy="2.3" r="2.3"></circle>
                <path d="M8.2,8.1254834 C8.2,5.62612793 6.36436747,3.6 4.1,3.6 C1.83563253,3.6 0,5.62612793 0,8.1254834 C0,10.6248389 8.2,10.6248389 8.2,8.1254834 Z" id="椭圆形-copy" fill="#A1CAFF"></path>
                <path d="M8.2,0.9 L10.6,0.9" id="路径-5" stroke="#3261AF" stroke-width="0.6" stroke-linecap="round" stroke-linejoin="bevel"></path>
                <path d="M8.2,2.7 L10.6,2.7" id="路径-5-copy" stroke="#3261AF" stroke-width="0.6" stroke-linecap="round" stroke-linejoin="bevel"></path>
                <path d="M8.2,4.7 L10.6,4.7" id="路径-5-copy-2" stroke="#3261AF" stroke-width="0.6" stroke-linecap="round" stroke-linejoin="bevel"></path>
                <path d="M9.4,6.5 L10.6,6.5" id="路径-5-copy-3" stroke="#3261AF" stroke-width="0.6" stroke-linecap="round" stroke-linejoin="bevel"></path>
                <path d="M9.4,8.3 L10.6,8.3" id="路径-5-copy-4" stroke="#3261AF" stroke-width="0.6" stroke-linecap="round" stroke-linejoin="bevel"></path>
            </g>
        </g>
        <g id="分组-8-copy-3" transform="translate(350.000000, 210.000000)">
            <rect id="Rectangle-3-Copy-11" fill="#E1EDFF" x="0" y="0" width="60" height="30" rx="3"></rect>
            <rect id="Rectangle-Copy-69" stroke="#A1CAFF" fill="#FFFFFF" x="5.5" y="5.5" width="20" height="19" rx="3"></rect>
            <text id="用户" font-family="PingFangSC-Regular, PingFang SC" font-size="12" font-weight="normal" fill="#214278">
                <tspan x="31" y="20">用户</tspan>
            </text>
            <g id="分组" transform="translate(10.000000, 10.000000)" fill-rule="nonzero">
                <circle id="椭圆形" fill="#A1CAFF" cx="4.1" cy="2.3" r="2.3"></circle>
                <path d="M8.2,8.1254834 C8.2,5.62612793 6.36436747,3.6 4.1,3.6 C1.83563253,3.6 0,5.62612793 0,8.1254834 C0,10.6248389 8.2,10.6248389 8.2,8.1254834 Z" id="椭圆形-copy" fill="#A1CAFF"></path>
                <path d="M8.2,0.9 L10.6,0.9" id="路径-5" stroke="#3261AF" stroke-width="0.6" stroke-linecap="round" stroke-linejoin="bevel"></path>
                <path d="M8.2,2.7 L10.6,2.7" id="路径-5-copy" stroke="#3261AF" stroke-width="0.6" stroke-linecap="round" stroke-linejoin="bevel"></path>
                <path d="M8.2,4.7 L10.6,4.7" id="路径-5-copy-2" stroke="#3261AF" stroke-width="0.6" stroke-linecap="round" stroke-linejoin="bevel"></path>
                <path d="M9.4,6.5 L10.6,6.5" id="路径-5-copy-3" stroke="#3261AF" stroke-width="0.6" stroke-linecap="round" stroke-linejoin="bevel"></path>
                <path d="M9.4,8.3 L10.6,8.3" id="路径-5-copy-4" stroke="#3261AF" stroke-width="0.6" stroke-linecap="round" stroke-linejoin="bevel"></path>
            </g>
        </g>
        <g id="分组-8-copy-5" transform="translate(520.000000, 210.000000)">
            <rect id="Rectangle-3-Copy-11" fill="#E1EDFF" x="0" y="0" width="60" height="30" rx="3"></rect>
            <rect id="Rectangle-Copy-69" stroke="#A1CAFF" fill="#FFFFFF" x="5.5" y="5.5" width="20" height="19" rx="3"></rect>
            <text id="用户" font-family="PingFangSC-Regular, PingFang SC" font-size="12" font-weight="normal" fill="#214278">
                <tspan x="31" y="20">用户</tspan>
            </text>
            <g id="分组" transform="translate(10.000000, 10.000000)" fill-rule="nonzero">
                <circle id="椭圆形" fill="#A1CAFF" cx="4.1" cy="2.3" r="2.3"></circle>
                <path d="M8.2,8.1254834 C8.2,5.62612793 6.36436747,3.6 4.1,3.6 C1.83563253,3.6 0,5.62612793 0,8.1254834 C0,10.6248389 8.2,10.6248389 8.2,8.1254834 Z" id="椭圆形-copy" fill="#A1CAFF"></path>
                <path d="M8.2,0.9 L10.6,0.9" id="路径-5" stroke="#3261AF" stroke-width="0.6" stroke-linecap="round" stroke-linejoin="bevel"></path>
                <path d="M8.2,2.7 L10.6,2.7" id="路径-5-copy" stroke="#3261AF" stroke-width="0.6" stroke-linecap="round" stroke-linejoin="bevel"></path>
                <path d="M8.2,4.7 L10.6,4.7" id="路径-5-copy-2" stroke="#3261AF" stroke-width="0.6" stroke-linecap="round" stroke-linejoin="bevel"></path>
                <path d="M9.4,6.5 L10.6,6.5" id="路径-5-copy-3" stroke="#3261AF" stroke-width="0.6" stroke-linecap="round" stroke-linejoin="bevel"></path>
                <path d="M9.4,8.3 L10.6,8.3" id="路径-5-copy-4" stroke="#3261AF" stroke-width="0.6" stroke-linecap="round" stroke-linejoin="bevel"></path>
            </g>
        </g>
        <path d="M179,42 L166,42 L166,41 L180,41 L182,41 L179,44 L179,42 Z M169,38 L182,38 L182,39 L168,39 L166,39 L169,36 L169,38 Z" id="合并形状-copy-4" fill="#3261AF" fill-rule="nonzero" transform="translate(174.000000, 40.000000) rotate(-270.000000) translate(-174.000000, -40.000000) "></path>
        <path d="M350,42 L337,42 L337,41 L351,41 L353,41 L350,44 L350,42 Z M340,38 L353,38 L353,39 L339,39 L337,39 L340,36 L340,38 Z" id="合并形状-copy-4" fill="#3261AF" fill-rule="nonzero" transform="translate(345.000000, 40.000000) rotate(-270.000000) translate(-345.000000, -40.000000) "></path>
        <path d="M520,42 L507,42 L507,41 L521,41 L523,41 L520,44 L520,42 Z M510,38 L523,38 L523,39 L509,39 L507,39 L510,36 L510,38 Z" id="合并形状-copy-7" fill="#3261AF" fill-rule="nonzero" transform="translate(515.000000, 40.000000) rotate(-270.000000) translate(-515.000000, -40.000000) "></path>
        <path d="M179,157 L166,157 L166,156 L180,156 L182,156 L179,159 L179,157 Z M169,153 L182,153 L182,154 L168,154 L166,154 L169,151 L169,153 Z" id="合并形状-copy-4" fill="#3261AF" fill-rule="nonzero" transform="translate(174.000000, 155.000000) rotate(-270.000000) translate(-174.000000, -155.000000) "></path>
        <path d="M350,157 L337,157 L337,156 L351,156 L353,156 L350,159 L350,157 Z M340,153 L353,153 L353,154 L339,154 L337,154 L340,151 L340,153 Z" id="合并形状-copy-4" fill="#3261AF" fill-rule="nonzero" transform="translate(345.000000, 155.000000) rotate(-270.000000) translate(-345.000000, -155.000000) "></path>
        <path d="M520,157 L507,157 L507,156 L521,156 L523,156 L520,159 L520,157 Z M510,153 L523,153 L523,154 L509,154 L507,154 L510,151 L510,153 Z" id="合并形状-copy-7" fill="#3261AF" fill-rule="nonzero" transform="translate(515.000000, 155.000000) rotate(-270.000000) translate(-515.000000, -155.000000) "></path>
        <g id="分组-10" transform="translate(151.000000, 197.000000)" fill="#A1CAFF" fill-rule="nonzero">
            <path d="M44.5,6.5 L47.5,6.5 L44.5,9.5 L44.5,7.5 L36.5,7.5 L36.5,6.5 L44.5,6.5 Z M39.5,4.5 L36.5,4.5 L39.5,1.5 L39.5,3.5 L47.5,3.5 L47.5,4.5 L39.5,4.5 Z" id="合并形状-copy-4" transform="translate(42.000000, 5.500000) rotate(-270.000000) translate(-42.000000, -5.500000) "></path>
            <path d="M6.5,6.5 L9.5,6.5 L6.5,9.5 L6.5,7.5 L-1.5,7.5 L-1.5,6.5 L6.5,6.5 Z M1.5,4.5 L-1.5,4.5 L1.5,1.5 L1.5,3.5 L9.5,3.5 L9.5,4.5 L1.5,4.5 Z" id="合并形状-copy-8" transform="translate(4.000000, 5.500000) rotate(-270.000000) translate(-4.000000, -5.500000) "></path>
        </g>
        <g id="分组-10-copy" transform="translate(322.000000, 197.000000)" fill="#A1CAFF" fill-rule="nonzero">
            <path d="M44.5,6.5 L47.5,6.5 L44.5,9.5 L44.5,7.5 L36.5,7.5 L36.5,6.5 L44.5,6.5 Z M39.5,4.5 L36.5,4.5 L39.5,1.5 L39.5,3.5 L47.5,3.5 L47.5,4.5 L39.5,4.5 Z" id="合并形状-copy-4" transform="translate(42.000000, 5.500000) rotate(-270.000000) translate(-42.000000, -5.500000) "></path>
            <path d="M6.5,6.5 L9.5,6.5 L6.5,9.5 L6.5,7.5 L-1.5,7.5 L-1.5,6.5 L6.5,6.5 Z M1.5,4.5 L-1.5,4.5 L1.5,1.5 L1.5,3.5 L9.5,3.5 L9.5,4.5 L1.5,4.5 Z" id="合并形状-copy-8" transform="translate(4.000000, 5.500000) rotate(-270.000000) translate(-4.000000, -5.500000) "></path>
        </g>
        <g id="分组-10-copy-2" transform="translate(492.000000, 197.000000)" fill="#A1CAFF" fill-rule="nonzero">
            <path d="M44.5,6.5 L47.5,6.5 L44.5,9.5 L44.5,7.5 L36.5,7.5 L36.5,6.5 L44.5,6.5 Z M39.5,4.5 L36.5,4.5 L39.5,1.5 L39.5,3.5 L47.5,3.5 L47.5,4.5 L39.5,4.5 Z" id="合并形状-copy-4" transform="translate(42.000000, 5.500000) rotate(-270.000000) translate(-42.000000, -5.500000) "></path>
            <path d="M6.5,6.5 L9.5,6.5 L6.5,9.5 L6.5,7.5 L-1.5,7.5 L-1.5,6.5 L6.5,6.5 Z M1.5,4.5 L-1.5,4.5 L1.5,1.5 L1.5,3.5 L9.5,3.5 L9.5,4.5 L1.5,4.5 Z" id="合并形状-copy-8" transform="translate(4.000000, 5.500000) rotate(-270.000000) translate(-4.000000, -5.500000) "></path>
        </g>
    </g>
</svg>