<?xml version="1.0" encoding="UTF-8"?>
<svg width="64px" height="64px" viewBox="0 0 64 64" version="1.1" xmlns="http://www.w3.org/2000/svg" xmlns:xlink="http://www.w3.org/1999/xlink">
    <!-- Generator: Sketch 54.1 (76490) - https://sketchapp.com -->
    <title>教育复制 2</title>
    <desc>Created with Sketch.</desc>
    <defs>
        <linearGradient x1="57.0158453%" y1="75.5102041%" x2="50%" y2="24.4897959%" id="linearGradient-1">
            <stop stop-color="#40BCF9" stop-opacity="0" offset="0%"></stop>
            <stop stop-color="#1E87F0" offset="100%"></stop>
        </linearGradient>
        <linearGradient x1="50%" y1="100%" x2="50%" y2="1.45716772e-14%" id="linearGradient-2">
            <stop stop-color="#40BCF9" stop-opacity="0" offset="0%"></stop>
            <stop stop-color="#1E87F0" offset="100%"></stop>
        </linearGradient>
        <linearGradient x1="5.16423932%" y1="51.9197239%" x2="102.429651%" y2="45.9196134%" id="linearGradient-3">
            <stop stop-color="#00A7E7" offset="0%"></stop>
            <stop stop-color="#3D1BFF" offset="100%"></stop>
        </linearGradient>
        <linearGradient x1="50%" y1="0.0043401208%" x2="57.5938899%" y2="97.2613085%" id="linearGradient-4">
            <stop stop-color="#3D1BFF" offset="0%"></stop>
            <stop stop-color="#00A7E7" offset="100%"></stop>
        </linearGradient>
        <linearGradient x1="50%" y1="0%" x2="50.6926283%" y2="97.2654113%" id="linearGradient-5">
            <stop stop-color="#3D1BFF" offset="0%"></stop>
            <stop stop-color="#00A7E7" offset="100%"></stop>
        </linearGradient>
    </defs>
    <g id="教育复制-2" stroke="none" stroke-width="1" fill="none" fill-rule="evenodd">
        <path d="M30.8304349,3.28407927 L4.91211772,21.1777266 C3.69596076,21.9349755 3.69596076,23.8286154 4.91211772,24.6806128 L17.0760265,33.1065043 L30.8304349,42.5739643 C31.4854798,43.1420119 32.514575,43.1420119 33.16962,42.5739643 L46.9240284,33.1065043 L59.0877178,24.6806128 C60.3040941,23.9230681 60.3040941,22.029724 59.0877178,21.1777266 L33.16962,3.28407927 C32.4209345,2.90530691 31.4854798,2.90530691 30.8304349,3.28407927 Z" id="路径" fill="url(#linearGradient-1)"></path>
        <path d="M46,61 C37.7157288,61 31,54.2842712 31,46 C31,37.7157288 37.7157288,31 46,31 C54.2842712,31 61,37.7157288 61,46 C61,54.2842712 54.2842712,61 46,61 Z M53.5,46.5 L42.5,40.5 L42.5,52.5 L53.5,46.5 Z" id="形状结合" fill="url(#linearGradient-2)"></path>
        <g id="编组-3复制" transform="translate(3.000000, 4.000000)">
            <g id="编组-3复制-2">
                <path d="M42,29.5 C42.8516699,30.177717 45.786691,32.1841295 47.4900307,33.5395635 C48.1699898,34.0469455 48.1699898,35.2309029 47.4900307,35.6536552 L29.7226308,47.7464576 C29.2126283,48.0845141 28.6174815,48.0845141 28.2773692,47.7464576 L10.5099693,35.6536552 C9.83001024,35.1462732 9.83001024,33.962514 10.5099693,33.5395635 C12.9176182,31.9664242 14.7233548,30.7865697 15.9271793,30 M27.872205,0.26987531 L2.87954208,17.2688403 C1.70681931,17.9882267 1.70681931,19.7871846 2.87954208,20.5965822 L14.6090255,28.6011791 L27.872205,37.5952661 C28.5038555,38.1349113 29.4961974,38.1349113 30.1278478,37.5952661 L43.3910274,28.6011791 L55.1202993,20.5965822 C56.2932336,19.8769147 56.2932336,18.0782378 55.1202993,17.2688403 L30.1278478,0.26987531 C29.4059012,-0.0899584366 28.5038555,-0.0899584366 27.872205,0.26987531 Z" id="形状结合" stroke="url(#linearGradient-3)" stroke-width="2"></path>
                <g id="编组-7" transform="translate(0.000000, 25.000000)">
                    <path d="M3.99986979,0 C2.44451035,0 1,1.22211774 1,2.99986979 C1,4.77762185 2.22203093,5.99973959 3.99986979,5.99973959 C5.77762185,5.99973959 7,4.77762185 7,2.99986979 C7,1.22211774 5.55557645,0 3.99986979,0 Z" id="路径" fill="url(#linearGradient-4)"></path>
                    <path d="M4.00010392,7 L0.896164562,27.5519948 C0.648738099,29.1902701 1.7762439,30.7189335 3.41451926,30.9663599 C3.56280362,30.9887551 3.71255852,31 3.8625245,31 L4.13666445,31 C5.7935187,31 7.13666445,29.6568542 7.13666445,28 C7.13666445,27.8500826 7.12542685,27.700376 7.1030461,27.5521385 L4.00010392,7 Z" id="路径" fill="url(#linearGradient-5)"></path>
                </g>
            </g>
        </g>
    </g>
</svg>