<?xml version="1.0" encoding="UTF-8"?>
<svg width="64px" height="64px" viewBox="0 0 64 64" version="1.1" xmlns="http://www.w3.org/2000/svg" xmlns:xlink="http://www.w3.org/1999/xlink">
    <!-- Generator: Sketch 54.1 (76490) - https://sketchapp.com -->
    <title>传媒行业复制 4</title>
    <desc>Created with Sketch.</desc>
    <defs>
        <linearGradient x1="57.0158453%" y1="66.4780521%" x2="50%" y2="33.5219479%" id="linearGradient-1">
            <stop stop-color="#40BCF9" stop-opacity="0" offset="0%"></stop>
            <stop stop-color="#1E87F0" offset="100%"></stop>
        </linearGradient>
        <linearGradient x1="57.0158453%" y1="100%" x2="50%" y2="3.061617e-15%" id="linearGradient-2">
            <stop stop-color="#FFFFFF" stop-opacity="0" offset="0%"></stop>
            <stop stop-color="#FFFFFF" stop-opacity="0.5" offset="100%"></stop>
        </linearGradient>
        <linearGradient x1="103.507923%" y1="48.2959678%" x2="3.50792265%" y2="51.7040322%" id="linearGradient-3">
            <stop stop-color="#FFFFFF" stop-opacity="0" offset="0%"></stop>
            <stop stop-color="#FFFFFF" stop-opacity="0.4" offset="100%"></stop>
        </linearGradient>
        <linearGradient x1="50%" y1="0%" x2="57.3202588%" y2="97.2654113%" id="linearGradient-4">
            <stop stop-color="#3D1BFF" offset="0%"></stop>
            <stop stop-color="#00A7E7" offset="100%"></stop>
        </linearGradient>
    </defs>
    <g id="传媒行业复制-4" stroke="none" stroke-width="1" fill="none" fill-rule="evenodd">
        <g id="编组-3" transform="translate(4.000000, 4.000000)">
            <path d="M1,24 L32,24 L32,55 L1,55 L1,24 Z M34,39.5 L55,24 L55,55 L34,39.5 Z" id="形状结合" fill="url(#linearGradient-1)"></path>
            <rect id="矩形复制" fill="url(#linearGradient-2)" x="0" y="23" width="33" height="33"></rect>
            <polygon id="三角形复制" fill="url(#linearGradient-3)" transform="translate(44.500000, 39.500000) scale(-1, 1) rotate(-270.000000) translate(-44.500000, -39.500000) " points="44.5 28 61 51 28 51"></polygon>
            <path d="M1,24 L32,24 L32,55 L1,55 L1,24 Z M34,39.5 L55,24 L55,55 L34,39.5 Z M8.5,23 C4.35786438,23 1,19.6421356 1,15.5 C1,11.3578644 4.35786438,8 8.5,8 C12.6421356,8 16,11.3578644 16,15.5 C16,19.6421356 12.6421356,23 8.5,23 Z M27.5,23 C21.1487254,23 16,17.8512746 16,11.5 C16,5.14872538 21.1487254,0 27.5,0 C33.8512746,0 39,5.14872538 39,11.5 C39,17.8512746 33.8512746,23 27.5,23 Z" id="形状结合" stroke="url(#linearGradient-4)" stroke-width="2"></path>
        </g>
    </g>
</svg>