<?xml version="1.0" encoding="UTF-8"?>
<svg width="64px" height="64px" viewBox="0 0 64 64" version="1.1" xmlns="http://www.w3.org/2000/svg" xmlns:xlink="http://www.w3.org/1999/xlink">
    <!-- Generator: Sketch 54.1 (76490) - https://sketchapp.com -->
    <title>电子商务复制 2</title>
    <desc>Created with Sketch.</desc>
    <defs>
        <linearGradient x1="61.9210357%" y1="52.4176117%" x2="42.3751536%" y2="44.8463778%" id="linearGradient-1">
            <stop stop-color="#1E87F0" offset="0%"></stop>
            <stop stop-color="#40BCF9" stop-opacity="0" offset="100%"></stop>
        </linearGradient>
        <linearGradient x1="50%" y1="23.3434114%" x2="57.5938899%" y2="75.1986924%" id="linearGradient-2">
            <stop stop-color="#3D1BFF" offset="0%"></stop>
            <stop stop-color="#00A7E7" offset="100%"></stop>
        </linearGradient>
        <linearGradient x1="50%" y1="29.5910494%" x2="57.5938899%" y2="69.2927489%" id="linearGradient-3">
            <stop stop-color="#3D1BFF" offset="0%"></stop>
            <stop stop-color="#00A7E7" offset="100%"></stop>
        </linearGradient>
        <linearGradient x1="50%" y1="0%" x2="56.6151219%" y2="97.2654113%" id="linearGradient-4">
            <stop stop-color="#3D1BFF" offset="0%"></stop>
            <stop stop-color="#00A7E7" offset="100%"></stop>
        </linearGradient>
        <linearGradient x1="50%" y1="0%" x2="57.5938899%" y2="97.2654113%" id="linearGradient-5">
            <stop stop-color="#3D1BFF" offset="0%"></stop>
            <stop stop-color="#00A7E7" offset="100%"></stop>
        </linearGradient>
        <linearGradient x1="56.9571945%" y1="100%" x2="50%" y2="3.061617e-15%" id="linearGradient-6">
            <stop stop-color="#40BCF9" stop-opacity="0" offset="0%"></stop>
            <stop stop-color="#1E87F0" offset="100%"></stop>
        </linearGradient>
    </defs>
    <g id="电子商务复制-2" stroke="none" stroke-width="1" fill="none" fill-rule="evenodd">
        <g id="编组-4" transform="translate(0.500000, 9.000000)">
            <rect id="矩形" fill="url(#linearGradient-1)" x="0.5" y="0" width="62" height="10" rx="1"></rect>
            <path d="M0.5,0 L62.5,0 L62.5,46 L0.5,46 L0.5,0 Z" id="形状结合" stroke="url(#linearGradient-2)" stroke-width="2" stroke-linecap="round" stroke-linejoin="round"></path>
            <polygon id="矩形" stroke="url(#linearGradient-3)" stroke-width="2" stroke-linejoin="round" points="0.5 23 36.5 23 36.5 46 0.5 46"></polygon>
            <g id="编组-3" transform="translate(10.500000, 13.000000)">
                <path d="M1,15.5 L1,7.1 C1,3.45492065 4.13400675,0.5 8,0.5 C11.8659932,0.5 15,3.45492065 15,7.1 L15,15.5" id="形状" stroke="url(#linearGradient-4)" stroke-width="2" stroke-linecap="round" stroke-linejoin="round"></path>
                <circle id="椭圆形复制-3" fill="url(#linearGradient-5)" cx="1" cy="16" r="2"></circle>
                <circle id="椭圆形复制-4" fill="url(#linearGradient-5)" cx="15" cy="16" r="2"></circle>
            </g>
            <circle id="椭圆形" fill="url(#linearGradient-5)" cx="6" cy="4.5" r="2.5"></circle>
            <circle id="椭圆形复制" fill="url(#linearGradient-5)" cx="12" cy="4.5" r="2.5"></circle>
            <circle id="椭圆形复制-2" fill="url(#linearGradient-5)" cx="18" cy="4.5" r="2.5"></circle>
        </g>
        <path d="M52.4930681,36.5069319 L60.5506114,44.4110227 L53.1321712,51.6370529 L45.1717578,43.8282422 L40,49 L40,31 L58,31 L52.4930681,36.5069319 Z" id="形状结合" fill="url(#linearGradient-6)"></path>
    </g>
</svg>