<?xml version="1.0" encoding="UTF-8"?>
<svg width="64px" height="64px" viewBox="0 0 64 64" version="1.1" xmlns="http://www.w3.org/2000/svg" xmlns:xlink="http://www.w3.org/1999/xlink">
    <!-- Generator: Sketch 54.1 (76490) - https://sketchapp.com -->
    <title>互联网金融复制 2</title>
    <desc>Created with Sketch.</desc>
    <defs>
        <linearGradient x1="103.507923%" y1="49.9392673%" x2="3.50792265%" y2="50.0607327%" id="linearGradient-1">
            <stop stop-color="#40BCF9" stop-opacity="0" offset="0%"></stop>
            <stop stop-color="#1E87F0" offset="100%"></stop>
        </linearGradient>
        <linearGradient x1="50%" y1="31.6828255%" x2="57.5938899%" y2="67.3153757%" id="linearGradient-2">
            <stop stop-color="#3D1BFF" offset="0%"></stop>
            <stop stop-color="#00A7E7" offset="100%"></stop>
        </linearGradient>
        <linearGradient x1="50%" y1="49.8866213%" x2="57.5938899%" y2="50.1071778%" id="linearGradient-3">
            <stop stop-color="#3D1BFF" offset="0%"></stop>
            <stop stop-color="#00A7E7" offset="100%"></stop>
        </linearGradient>
        <linearGradient x1="57.0158453%" y1="99.0344105%" x2="50%" y2="0.965589534%" id="linearGradient-4">
            <stop stop-color="#40BCF9" stop-opacity="0" offset="0%"></stop>
            <stop stop-color="#1E87F0" offset="100%"></stop>
        </linearGradient>
    </defs>
    <g id="互联网金融复制-2" stroke="none" stroke-width="1" fill="none" fill-rule="evenodd">
        <g id="编组-4" transform="translate(3.000000, 3.000000)">
            <g id="编组-3" transform="translate(19.000000, 35.000000)">
                <rect id="矩形" fill="url(#linearGradient-1)" x="0" y="5" width="38" height="5"></rect>
                <rect id="矩形" stroke="url(#linearGradient-2)" stroke-width="2" x="1" y="1" width="36" height="21" rx="2"></rect>
                <path d="M5,17.5 L16.6370506,17.5 L5,17.5 Z M21,17.5 L26,17.5 L21,17.5 Z" id="形状结合" stroke="url(#linearGradient-3)" stroke-width="2" stroke-linecap="round" stroke-linejoin="round"></path>
            </g>
            <path d="M51.4997,25.5 C51.4997,39.5832611 40.0829611,51 25.9997,51 C25.9997,51 25.9997,0 25.9997,0 C40.0829611,4.26325641e-14 51.4997,11.4167389 51.4997,25.5 Z M12.4574,3.3901 C12.8744,3.1411 13.2994,2.9081 13.7284,2.6841 C13.8584,2.6161 13.9894,2.5481 14.1204,2.4831 C14.5974,2.2451 15.0794,2.0171 15.5714,1.8091 C15.6074,1.7931 15.6454,1.7801 15.6824,1.7651 C16.1454,1.5721 16.6154,1.3961 17.0894,1.2311 C17.2314,1.1821 17.3734,1.1331 17.5164,1.0861 C17.9844,0.9331 18.4564,0.7901 18.9334,0.6631 C18.9834,0.6501 19.0324,0.6341 19.0814,0.6211 C19.6034,0.4861 20.1324,0.3721 20.6644,0.2701 C20.8064,0.2431 20.9494,0.2191 21.0924,0.1941 C21.1354,0.1861 21.1784,0.1831 21.2204,0.1751 C19.1394,1.6071 17.2414,3.2931 15.5714,5.1951 C14.3784,4.7491 13.2184,4.2241 12.1074,3.6061 C12.1744,3.5651 12.2374,3.5191 12.3034,3.4781 C12.3544,3.4481 12.4074,3.4201 12.4574,3.3901 Z M14.226,6.8238 C10.309,11.9558 8.105,18.2118 7.998,24.8088 L2.48689958e-14,24.8088 C0.157,16.6328 4.157,9.3978 10.275,4.8428 C11.538,5.6068 12.856,6.2728 14.226,6.8238 Z M0.034,26.809 L8.05,26.809 C8.353,33.04 10.533,38.915 14.252,43.784 C12.873,44.338 11.546,45.006 10.275,45.775 C4.407,41.406 0.485,34.574 0.034,26.809 Z M20.6644,50.3479 C20.1324,50.2459 19.6034,50.1319 19.0804,49.9969 C19.0324,49.9839 18.9854,49.9689 18.9374,49.9559 C18.4584,49.8289 17.9854,49.6859 17.5164,49.5309 C17.3734,49.4849 17.2314,49.4359 17.0894,49.3869 C16.6154,49.2219 16.1454,49.0459 15.6824,48.8529 C15.6454,48.8379 15.6074,48.8239 15.5714,48.8089 C15.0794,48.6019 14.5974,48.3729 14.1204,48.1349 C13.9884,48.0699 13.8584,48.0019 13.7284,47.9339 C13.2994,47.7109 12.8744,47.4769 12.4574,47.2289 C12.4064,47.1979 12.3544,47.1709 12.3034,47.1399 C12.2374,47.0989 12.1744,47.0529 12.1074,47.0119 C13.2184,46.3939 14.3784,45.8679 15.5714,45.4229 C17.2414,47.3249 19.1394,49.0109 21.2194,50.4429 C21.1774,50.4359 21.1344,50.4309 21.0924,50.4239 C20.9494,50.3989 20.8064,50.3749 20.6644,50.3479 Z M23.987,49.8443 C21.646,48.4573 19.511,46.7423 17.653,44.7523 C19.701,44.1843 21.822,43.8713 23.987,43.8293 L23.987,49.8443 Z M23.987,41.8296 C21.329,41.8766 18.729,42.3066 16.238,43.0896 C12.538,38.4666 10.364,32.8166 10.051,26.8086 L23.987,26.8086 L23.987,41.8296 Z M23.987,24.8091 L10.009,24.8091 C10.12,18.4311 12.332,12.4101 16.238,7.5291 C18.729,8.3111 21.329,8.7411 23.987,8.7881 L23.987,24.8091 Z M23.987,6.7886 C21.822,6.7466 19.701,6.4346 17.653,5.8656 C19.511,3.8756 21.646,2.1606 23.987,0.7736 L23.987,6.7886 Z" id="形状结合" fill="url(#linearGradient-4)"></path>
        </g>
    </g>
</svg>