<?xml version="1.0" encoding="UTF-8"?>
<svg width="64px" height="64px" viewBox="0 0 64 64" version="1.1" xmlns="http://www.w3.org/2000/svg" xmlns:xlink="http://www.w3.org/1999/xlink">
    <!-- Generator: Sketch 54.1 (76490) - https://sketchapp.com -->
    <title>游戏复制 2</title>
    <desc>Created with Sketch.</desc>
    <defs>
        <linearGradient x1="57.0158453%" y1="68.5668945%" x2="50%" y2="31.4331055%" id="linearGradient-1">
            <stop stop-color="#40BCF9" stop-opacity="0" offset="0%"></stop>
            <stop stop-color="#1E87F0" offset="100%"></stop>
        </linearGradient>
        <linearGradient x1="50%" y1="0%" x2="50.2510377%" y2="97.2654113%" id="linearGradient-2">
            <stop stop-color="#3D1BFF" offset="0%"></stop>
            <stop stop-color="#00A7E7" offset="100%"></stop>
        </linearGradient>
        <linearGradient x1="50%" y1="46.1419753%" x2="57.5938899%" y2="53.6470225%" id="linearGradient-3">
            <stop stop-color="#3D1BFF" offset="0%"></stop>
            <stop stop-color="#00A7E7" offset="100%"></stop>
        </linearGradient>
        <linearGradient x1="50%" y1="31.2174818%" x2="57.5938899%" y2="67.755269%" id="linearGradient-4">
            <stop stop-color="#3D1BFF" offset="0%"></stop>
            <stop stop-color="#00A7E7" offset="100%"></stop>
        </linearGradient>
        <linearGradient x1="50%" y1="0%" x2="57.5938899%" y2="97.2654113%" id="linearGradient-5">
            <stop stop-color="#3D1BFF" offset="0%"></stop>
            <stop stop-color="#00A7E7" offset="100%"></stop>
        </linearGradient>
        <linearGradient x1="50%" y1="39.5510204%" x2="57.5938899%" y2="59.8775064%" id="linearGradient-6">
            <stop stop-color="#3D1BFF" offset="0%"></stop>
            <stop stop-color="#00A7E7" offset="100%"></stop>
        </linearGradient>
    </defs>
    <g id="游戏复制-2" stroke="none" stroke-width="1" fill="none" fill-rule="evenodd">
        <g id="编组-3" transform="translate(0.000000, 4.000000)">
            <path d="M22,10 L22,6 C22,4.8954305 22.8954305,4 24,4 L40,4 C41.1045695,4 42,4.8954305 42,6 L42,10 L58,10 C61.3137085,10 64,12.6862915 64,16 L64,37 C64,40.3137085 61.3137085,43 58,43 L6,43 C2.6862915,43 4.05812251e-16,40.3137085 0,37 L0,16 C-4.05812251e-16,12.6862915 2.6862915,10 6,10 L22,10 Z" id="形状结合" fill="url(#linearGradient-1)"></path>
            <path d="M32,0 C31.3333333,0.666666667 31,1.66666667 31,3 C31,5 33,6.5 33,8 C33,9 32.6666667,10 32,11" id="路径-2" stroke="url(#linearGradient-2)" stroke-width="2" stroke-linecap="round"></path>
            <g id="编组-8" transform="translate(1.000000, 11.000000)">
                <polyline id="路径" stroke="url(#linearGradient-3)" stroke-width="2" stroke-linejoin="round" points="22 5 22 0 40 0 40 5"></polyline>
                <path d="M41.7013095,29 L20.2986905,29 L18.041603,37.5341203 C17.3454023,40.1664773 14.9639107,42 12.2410448,42 L4,42 C1.790861,42 -8.75973383e-16,40.209139 -3.10862447e-15,38 L-4.77395901e-15,23 L0,10 C-2.705415e-16,7.790861 1.790861,6 4,6 L58,6 C60.209139,6 62,7.790861 62,10 L62,23 L62,38 C62,40.209139 60.209139,42 58,42 L49.7589552,42 C47.0360893,42 44.6545977,40.1664773 43.958397,37.5341203 L41.7013095,29 Z" id="形状结合" stroke="url(#linearGradient-4)" stroke-width="2" stroke-linejoin="round"></path>
                <circle id="椭圆形" fill="url(#linearGradient-5)" cx="49" cy="21" r="3"></circle>
                <circle id="椭圆形复制" fill="url(#linearGradient-5)" cx="53" cy="14" r="3"></circle>
                <path d="M13,18 L5,18 L13,18 L13,10 L13,18 Z M13,18 L21,18 L13,18 L13,26 L13,18 Z M23,24.5 L27,24.5 L23,24.5 Z M36,24.5 L40,24.5 L36,24.5 Z" id="形状结合" stroke="url(#linearGradient-6)" stroke-width="2" stroke-linecap="round" stroke-linejoin="round"></path>
            </g>
        </g>
    </g>
</svg>