<?xml version="1.0" encoding="UTF-8"?>
<svg width="64px" height="64px" viewBox="0 0 64 64" version="1.1" xmlns="http://www.w3.org/2000/svg" xmlns:xlink="http://www.w3.org/1999/xlink">
    <!-- Generator: Sketch 54.1 (76490) - https://sketchapp.com -->
    <title>出版社复制 2</title>
    <desc>Created with Sketch.</desc>
    <defs>
        <linearGradient x1="57.0158453%" y1="56.8587106%" x2="50%" y2="43.1412894%" id="linearGradient-1">
            <stop stop-color="#40BCF9" stop-opacity="0" offset="0%"></stop>
            <stop stop-color="#1E87F0" offset="100%"></stop>
        </linearGradient>
        <linearGradient x1="50%" y1="47.1021948%" x2="57.5938899%" y2="52.7393191%" id="linearGradient-2">
            <stop stop-color="#3D1BFF" offset="0%"></stop>
            <stop stop-color="#00A7E7" offset="100%"></stop>
        </linearGradient>
        <linearGradient x1="50%" y1="43.1412894%" x2="57.5938899%" y2="56.4835955%" id="linearGradient-3">
            <stop stop-color="#3D1BFF" offset="0%"></stop>
            <stop stop-color="#00A7E7" offset="100%"></stop>
        </linearGradient>
        <linearGradient x1="50%" y1="44.4444444%" x2="57.5938899%" y2="55.2517124%" id="linearGradient-4">
            <stop stop-color="#3D1BFF" offset="0%"></stop>
            <stop stop-color="#00A7E7" offset="100%"></stop>
        </linearGradient>
    </defs>
    <g id="出版社复制-2" stroke="none" stroke-width="1" fill="none" fill-rule="evenodd">
        <g id="编组-6" transform="translate(5.000000, 6.000000)">
            <path d="M4,39 L34.42,39 L34.42,39.0189448 C37.0378546,39.2742573 39.1,42.0783851 39.1,45.5 C39.1,48.9216149 37.0378546,51.7257427 34.42,51.9810552 L4,52" id="路径复制" fill="url(#linearGradient-1)"></path>
            <path d="M15,20 L45.42,20 L45.42,20.0189448 C48.0378546,20.2742573 50.1,23.0783851 50.1,26.5 C50.1,29.9216149 48.0378546,32.7257427 45.42,32.9810552 L15,33" id="路径复制-2" fill="url(#linearGradient-1)" transform="translate(32.550000, 26.500000) scale(-1, 1) translate(-32.550000, -26.500000) "></path>
            <path d="M4,0 L34.42,0 L34.42,0.0189448167 C37.0378546,0.274257251 39.1,3.07838512 39.1,6.5 C39.1,9.92161488 37.0378546,12.7257427 34.42,12.9810552 L4,13" id="路径复制" fill="url(#linearGradient-1)"></path>
            <g id="编组-5" stroke-linecap="round" stroke-linejoin="round" stroke-width="2">
                <g id="编组-3">
                    <path d="M0,0 L49.0153846,0 L49.0153846,0.0189448167 C51.8036321,0.274257251 54,3.07838512 54,6.5 C54,9.92161488 51.8036321,12.7257427 49.0153846,12.9810552 L49.0153846,13 L0,13" id="路径" stroke="url(#linearGradient-2)"></path>
                    <path d="M5,0 L35.42,0 L35.42,0.0189448167 C38.0378546,0.274257251 40.1,3.07838512 40.1,6.5 C40.1,9.92161488 38.0378546,12.7257427 35.42,12.9810552 L5,13" id="路径复制" stroke="url(#linearGradient-3)"></path>
                </g>
            </g>
            <g id="编组-3复制" transform="translate(27.000000, 26.500000) scale(-1, 1) translate(-27.000000, -26.500000) translate(0.000000, 20.000000)" stroke-linecap="round" stroke-linejoin="round" stroke-width="2">
                <path d="M0,0 L49.0153846,0 L49.0153846,0.0189448167 C51.8036321,0.274257251 54,3.07838512 54,6.5 C54,9.92161488 51.8036321,12.7257427 49.0153846,12.9810552 L49.0153846,13 L0,13" id="路径" stroke="url(#linearGradient-2)"></path>
                <path d="M5,0 L35.42,0 L35.42,0.0189448167 C38.0378546,0.274257251 40.1,3.07838512 40.1,6.5 C40.1,9.92161488 38.0378546,12.7257427 35.42,12.9810552 L44,13 L5,13" id="路径复制" stroke="url(#linearGradient-4)"></path>
            </g>
            <g id="编组-4" transform="translate(0.000000, 39.000000)" stroke-linecap="round" stroke-linejoin="round" stroke-width="2">
                <path d="M0,0 L49.0153846,0 L49.0153846,0.0189448167 C51.8036321,0.274257251 54,3.07838512 54,6.5 C54,9.92161488 51.8036321,12.7257427 49.0153846,12.9810552 L49.0153846,13 L0,13" id="路径" stroke="url(#linearGradient-2)"></path>
                <path d="M5,0 L35.42,0 L35.42,0.0189448167 C38.0378546,0.274257251 40.1,3.07838512 40.1,6.5 C40.1,9.92161488 38.0378546,12.7257427 35.42,12.9810552 L44,13 L5,13" id="路径复制" stroke="url(#linearGradient-4)"></path>
            </g>
        </g>
    </g>
</svg>