<?xml version="1.0" encoding="UTF-8"?>
<svg width="580px" height="240px" viewBox="0 0 580 240" version="1.1" xmlns="http://www.w3.org/2000/svg" xmlns:xlink="http://www.w3.org/1999/xlink">
    <!-- Generator: Sketch 52 (66869) - http://www.bohemiancoding.com/sketch -->
    <title>CDN产品应用场景 动态加速  </title>
    <desc>Created with Sketch.</desc>
    <g id="CDN产品应用场景-动态加速--" stroke="none" stroke-width="1" fill="none" fill-rule="evenodd">
        <path d="M86,1.5 L86,0.5 L88,0.5 L88,1.5 L86,1.5 Z M90,1.5 L90,0.5 L92,0.5 L92,1.5 L90,1.5 Z M94,1.5 L94,0.5 L96,0.5 L96,1.5 L94,1.5 Z M98,1.5 L98,0.5 L100,0.5 L100,1.5 L98,1.5 Z M102,1.5 L102,0.5 L104,0.5 L104,1.5 L102,1.5 Z M106,1.5 L106,0.5 L108,0.5 L108,1.5 L106,1.5 Z M110,1.5 L110,0.5 L112,0.5 L112,1.5 L110,1.5 Z M114,1.5 L114,0.5 L116,0.5 L116,1.5 L114,1.5 Z M118,1.5 L118,0.5 L120,0.5 L120,1.5 L118,1.5 Z M122,1.5 L122,0.5 L124,0.5 L124,1.5 L122,1.5 Z M126,1.5 L126,0.5 L128,0.5 L128,1.5 L126,1.5 Z M130,1.5 L130,0.5 L132,0.5 L132,1.5 L130,1.5 Z M134,1.5 L134,0.5 L136,0.5 L136,1.5 L134,1.5 Z M138,1.5 L138,0.5 L140,0.5 L140,1.5 L138,1.5 Z M142,1.5 L142,0.5 L144,0.5 L144,1.5 L142,1.5 Z M146,1.5 L146,0.5 L148,0.5 L148,1.5 L146,1.5 Z M150,1.5 L150,0.5 L152,0.5 L152,1.5 L150,1.5 Z M154,1.5 L154,0.5 L156,0.5 L156,1.5 L154,1.5 Z M158,1.5 L158,0.5 L160,0.5 L160,1.5 L158,1.5 Z M162,1.5 L162,0.5 L164,0.5 L164,1.5 L162,1.5 Z M166,1.5 L166,0.5 L168,0.5 L168,1.5 L166,1.5 Z M170,1.5 L170,0.5 L172,0.5 L172,1.5 L170,1.5 Z M174,1.5 L174,0.5 L176,0.5 L176,1.5 L174,1.5 Z M178,1.5 L178,0.5 L180,0.5 L180,1.5 L178,1.5 Z M182,1.5 L182,0.5 L184,0.5 L184,1.5 L182,1.5 Z M186,1.5 L186,0.5 L188,0.5 L188,1.5 L186,1.5 Z M190,1.5 L190,0.5 L192,0.5 L192,1.5 L190,1.5 Z M194,1.5 L194,0.5 L196,0.5 L196,1.5 L194,1.5 Z M198,1.5 L198,0.5 L200,0.5 L200,1.5 L198,1.5 Z M202,1.5 L202,0.5 L204,0.5 L204,1.5 L202,1.5 Z M206,1.5 L206,0.5 L208,0.5 L208,1.5 L206,1.5 Z M210,1.5 L210,0.5 L212,0.5 L212,1.5 L210,1.5 Z M214,1.5 L214,0.5 L216,0.5 L216,1.5 L214,1.5 Z M218,1.5 L218,0.5 L220,0.5 L220,1.5 L218,1.5 Z M222,1.5 L222,0.5 L224,0.5 L224,1.5 L222,1.5 Z M226,1.5 L226,0.5 L228,0.5 L228,1.5 L226,1.5 Z M230,1.5 L230,0.5 L232,0.5 L232,1.5 L230,1.5 Z M234,1.5 L234,0.5 L236,0.5 L236,1.5 L234,1.5 Z M238,1.5 L238,0.5 L240,0.5 L240,1.5 L238,1.5 Z M242,1.5 L242,0.5 L244,0.5 L244,1.5 L242,1.5 Z M246,1.5 L246,0.5 L248,0.5 L248,1.5 L246,1.5 Z M250,1.5 L250,0.5 L252,0.5 L252,1.5 L250,1.5 Z M254,1.5 L254,0.5 L256,0.5 L256,1.5 L254,1.5 Z M258,1.5 L258,0.5 L260,0.5 L260,1.5 L258,1.5 Z M262,1.5 L262,0.5 L264,0.5 L264,1.5 L262,1.5 Z M266,1.5 L266,0.5 L268,0.5 L268,1.5 L266,1.5 Z M270,1.5 L270,0.5 L272,0.5 L272,1.5 L270,1.5 Z M274,1.5 L274,0.5 L276,0.5 L276,1.5 L274,1.5 Z M278,1.5 L278,0.5 L280,0.5 L280,1.5 L278,1.5 Z M282,1.5 L282,0.5 L284,0.5 L284,1.5 L282,1.5 Z M286,1.5 L286,0.5 L288,0.5 L288,1.5 L286,1.5 Z M290,1.5 L290,0.5 L292,0.5 L292,1.5 L290,1.5 Z M294,1.5 L294,0.5 L296,0.5 L296,1.5 L294,1.5 Z M298,1.5 L298,0.5 L300,0.5 L300,1.5 L298,1.5 Z M302,1.5 L302,0.5 L304,0.5 L304,1.5 L302,1.5 Z M306,1.5 L306,0.5 L308,0.5 L308,1.5 L306,1.5 Z M310,1.5 L310,0.5 L312,0.5 L312,1.5 L310,1.5 Z M314,1.5 L314,0.5 L316,0.5 L316,1.5 L314,1.5 Z M318,1.5 L318,0.5 L320,0.5 L320,1.5 L318,1.5 Z M322,1.5 L322,0.5 L324,0.5 L324,1.5 L322,1.5 Z M326,1.5 L326,0.5 L328,0.5 L328,1.5 L326,1.5 Z M330,1.5 L330,0.5 L332,0.5 L332,1.5 L330,1.5 Z M334,1.5 L334,0.5 L336,0.5 L336,1.5 L334,1.5 Z M338,1.5 L338,0.5 L340,0.5 L340,1.5 L338,1.5 Z M342,1.5 L342,0.5 L344,0.5 L344,1.5 L342,1.5 Z M346,1.5 L346,0.5 L348,0.5 L348,1.5 L346,1.5 Z M350,1.5 L350,0.5 L352,0.5 L352,1.5 L350,1.5 Z M354,1.5 L354,0.5 L356,0.5 L356,1.5 L354,1.5 Z M358,1.5 L358,0.5 L360,0.5 L360,1.5 L358,1.5 Z M362,1.5 L362,0.5 L364,0.5 L364,1.5 L362,1.5 Z M366,1.5 L366,0.5 L368,0.5 L368,1.5 L366,1.5 Z M370,1.5 L370,0.5 L372,0.5 L372,1.5 L370,1.5 Z M374,1.5 L374,0.5 L376,0.5 L376,1.5 L374,1.5 Z M378,1.5 L378,0.5 L380,0.5 L380,1.5 L378,1.5 Z M382,1.5 L382,0.5 L384,0.5 L384,1.5 L382,1.5 Z M386,1.5 L386,0.5 L388,0.5 L388,1.5 L386,1.5 Z M390,1.5 L390,0.5 L392,0.5 L392,1.5 L390,1.5 Z M394,1.5 L394,0.5 L396,0.5 L396,1.5 L394,1.5 Z M398,1.5 L398,0.5 L400,0.5 L400,1.5 L398,1.5 Z M402,1.5 L402,0.5 L404,0.5 L404,1.5 L402,1.5 Z M406,1.5 L406,0.5 L408,0.5 L408,1.5 L406,1.5 Z M410,1.5 L410,0.5 L412,0.5 L412,1.5 L410,1.5 Z M414,1.5 L414,0.5 L416,0.5 L416,1.5 L414,1.5 Z M418,1.5 L418,0.5 L420,0.5 L420,1.5 L418,1.5 Z M422,1.5 L422,0.5 L424,0.5 L424,1.5 L422,1.5 Z M426,1.5 L426,0.5 L428,0.5 L428,1.5 L426,1.5 Z M430,1.5 L430,0.5 L432,0.5 L432,1.5 L430,1.5 Z M434,1.5 L434,0.5 L436,0.5 L436,1.5 L434,1.5 Z M438,1.5 L438,0.5 L440,0.5 L440,1.5 L438,1.5 Z M442,1.5 L442,0.5 L444,0.5 L444,1.5 L442,1.5 Z M446,1.5 L446,0.5 L448,0.5 L448,1.5 L446,1.5 Z M450,1.5 L450,0.5 L452,0.5 L452,1.5 L450,1.5 Z M454,1.5 L454,0.5 L456,0.5 L456,1.5 L454,1.5 Z M458,1.5 L458,0.5 L460,0.5 L460,1.5 L458,1.5 Z M462,1.5 L462,0.5 L464,0.5 L464,1.5 L462,1.5 Z M466,1.5 L466,0.5 L468,0.5 L468,1.5 L466,1.5 Z M470,1.5 L470,0.5 L472,0.5 L472,1.5 L470,1.5 Z M474,1.5 L474,0.5 L476,0.5 L476,1.5 L474,1.5 Z M478,1.5 L478,0.5 L480,0.5 L480,1.5 L478,1.5 Z M482,1.5 L482,0.5 L484,0.5 L484,1.5 L482,1.5 Z M486,1.5 L486,0.5 L488,0.5 L488,1.5 L486,1.5 Z M490,1.5 L490,0.5 L492,0.5 L492,1.5 L490,1.5 Z M494,1.5 L494,0.5 L496,0.5 L496,1.5 L494,1.5 Z M498,1.5 L498,0.5 L500,0.5 L500,1.5 L498,1.5 Z M502,1.5 L502,0.5 L504,0.5 L504,1.5 L502,1.5 Z M506,1.5 L506,0.5 L508,0.5 L508,1.5 L506,1.5 Z M510,1.5 L510,0.5 L512,0.5 L512,1.5 L510,1.5 Z M514,1.5 L514,0.5 L517,0.5 L517,1.5 L516,1.5 L514,1.5 Z M517.57121,2.05531426 L518.200238,1.27793133 C518.820705,1.77998866 519.254879,2.48017493 519.422708,3.2655549 L518.444787,3.4745294 C518.325124,2.91455032 518.014992,2.41440534 517.57121,2.05531426 Z M518.5,5.40779881 L519.5,5.40779881 L519.5,7.40779881 L518.5,7.40779881 L518.5,5.40779881 Z M518.5,9.40779881 L519.5,9.40779881 L519.5,11.4077988 L518.5,11.4077988 L518.5,9.40779881 Z M518.5,13.4077988 L519.5,13.4077988 L519.5,15.4077988 L518.5,15.4077988 L518.5,13.4077988 Z M518.5,17.4077988 L519.5,17.4077988 L519.5,19.4077988 L518.5,19.4077988 L518.5,17.4077988 Z M518.5,21.4077988 L519.5,21.4077988 L519.5,23.4077988 L518.5,23.4077988 L518.5,21.4077988 Z M518.5,25.4077988 L519.5,25.4077988 L519.5,27.4077988 L518.5,27.4077988 L518.5,25.4077988 Z M518.5,29.4077988 L519.5,29.4077988 L519.5,31.4077988 L518.5,31.4077988 L518.5,29.4077988 Z M518.5,33.4077988 L519.5,33.4077988 L519.5,35.4077988 L518.5,35.4077988 L518.5,33.4077988 Z M518.5,37.4077988 L519.5,37.4077988 L519.5,39.4077988 L518.5,39.4077988 L518.5,37.4077988 Z M518.5,41.4077988 L519.5,41.4077988 L519.5,43.4077988 L518.5,43.4077988 L518.5,41.4077988 Z M518.5,45.4077988 L519.5,45.4077988 L519.5,47.4077988 L518.5,47.4077988 L518.5,45.4077988 Z M518.5,49.4077988 L519.5,49.4077988 L519.5,51.4077988 L518.5,51.4077988 L518.5,49.4077988 Z M518.5,53.4077988 L519.5,53.4077988 L519.5,55.4077988 L518.5,55.4077988 L518.5,53.4077988 Z M518.5,57.4077988 L519.5,57.4077988 L519.5,59.4077988 L518.5,59.4077988 L518.5,57.4077988 Z M518.5,61.4077988 L519.5,61.4077988 L519.5,63.4077988 L518.5,63.4077988 L518.5,61.4077988 Z M518.5,65.4077988 L519.5,65.4077988 L519.5,67.4077988 L518.5,67.4077988 L518.5,65.4077988 Z M518.5,69.4077988 L519.5,69.4077988 L519.5,71.4077988 L518.5,71.4077988 L518.5,69.4077988 Z M518.5,73.4077988 L519.5,73.4077988 L519.5,75.4077988 L518.5,75.4077988 L518.5,73.4077988 Z M518.5,77.4077988 L519.5,77.4077988 L519.5,79.4077988 L518.5,79.4077988 L518.5,77.4077988 Z M518.5,81.4077988 L519.5,81.4077988 L519.5,83.4077988 L518.5,83.4077988 L518.5,81.4077988 Z M518.5,85.4077988 L519.5,85.4077988 L519.5,87.4077988 L518.5,87.4077988 L518.5,85.4077988 Z M518.5,89.4077988 L519.5,89.4077988 L519.5,91.4077988 L518.5,91.4077988 L518.5,89.4077988 Z M518.5,93.4077988 L519.5,93.4077988 L519.5,95.4077988 L518.5,95.4077988 L518.5,93.4077988 Z M518.5,97.4077988 L519.5,97.4077988 L519.5,99.4077988 L518.5,99.4077988 L518.5,97.4077988 Z M518.5,101.407799 L519.5,101.407799 L519.5,103.407799 L518.5,103.407799 L518.5,101.407799 Z M518.5,105.407799 L519.5,105.407799 L519.5,107.407799 L518.5,107.407799 L518.5,105.407799 Z M518.5,109.407799 L519.5,109.407799 L519.5,111.407799 L518.5,111.407799 L518.5,109.407799 Z M518.5,113.407799 L519.5,113.407799 L519.5,115.407799 L518.5,115.407799 L518.5,113.407799 Z M518.5,117.407799 L519.5,117.407799 L519.5,119.407799 L518.5,119.407799 L518.5,117.407799 Z M518.5,121.407799 L519.5,121.407799 L519.5,123.407799 L518.5,123.407799 L518.5,121.407799 Z M518.5,125.407799 L519.5,125.407799 L519.5,127.407799 L518.5,127.407799 L518.5,125.407799 Z M518.5,129.407799 L519.5,129.407799 L519.5,131.407799 L518.5,131.407799 L518.5,129.407799 Z M518.5,133.407799 L519.5,133.407799 L519.5,135.407799 L518.5,135.407799 L518.5,133.407799 Z M518.5,137.407799 L519.5,137.407799 L519.5,139.407799 L518.5,139.407799 L518.5,137.407799 Z M518.5,141.407799 L519.5,141.407799 L519.5,143.407799 L518.5,143.407799 L518.5,141.407799 Z M518.5,145.407799 L519.5,145.407799 L519.5,147.407799 L518.5,147.407799 L518.5,145.407799 Z M518.5,149.407799 L519.5,149.407799 L519.5,151.407799 L518.5,151.407799 L518.5,149.407799 Z M518.5,153.407799 L519.5,153.407799 L519.5,155.407799 L518.5,155.407799 L518.5,153.407799 Z M518.5,157.407799 L519.5,157.407799 L519.5,159.407799 L518.5,159.407799 L518.5,157.407799 Z M518.5,161.407799 L519.5,161.407799 L519.5,163.407799 L518.5,163.407799 L518.5,161.407799 Z M518.5,165.407799 L519.5,165.407799 L519.5,167.407799 L518.5,167.407799 L518.5,165.407799 Z M518.5,169.407799 L519.5,169.407799 L519.5,171.407799 L518.5,171.407799 L518.5,169.407799 Z M518.5,173.407799 L519.5,173.407799 L519.5,175.407799 L518.5,175.407799 L518.5,173.407799 Z M518.5,177.407799 L519.5,177.407799 L519.5,179.407799 L518.5,179.407799 L518.5,177.407799 Z M518.5,181.407799 L519.5,181.407799 L519.5,183.407799 L518.5,183.407799 L518.5,181.407799 Z M518.5,185.407799 L519.5,185.407799 L519.5,187.407799 L518.5,187.407799 L518.5,185.407799 Z M518.5,189.407799 L519.5,189.407799 L519.5,191.407799 L518.5,191.407799 L518.5,189.407799 Z M518.5,193.407799 L519.5,193.407799 L519.5,195.407799 L518.5,195.407799 L518.5,193.407799 Z M518.5,197.407799 L519.5,197.407799 L519.5,199.407799 L518.5,199.407799 L518.5,197.407799 Z M518.5,201.407799 L519.5,201.407799 L519.5,203.407799 L518.5,203.407799 L518.5,201.407799 Z M518.5,205.407799 L519.5,205.407799 L519.5,207.407799 L518.5,207.407799 L518.5,205.407799 Z M518.5,209.407799 L519.5,209.407799 L519.5,211.407799 L518.5,211.407799 L518.5,209.407799 Z M518.5,213.407799 L519.5,213.407799 L519.5,215.407799 L518.5,215.407799 L518.5,213.407799 Z M518.5,217.407799 L519.5,217.407799 L519.5,219.407799 L518.5,219.407799 L518.5,217.407799 Z M518.5,221.407799 L519.5,221.407799 L519.5,223.407799 L518.5,223.407799 L518.5,221.407799 Z M518.5,225.407799 L519.5,225.407799 L519.5,227.407799 L518.5,227.407799 L518.5,225.407799 Z M518.5,229.407799 L519.5,229.407799 L519.5,231.407799 L518.5,231.407799 L518.5,229.407799 Z M518.5,233.407799 L519.5,233.407799 L519.5,235.407799 L518.5,235.407799 L518.5,233.407799 Z M518.22554,237.140234 L519.115084,237.597084 C518.750171,238.307615 518.150579,238.875111 517.420297,239.199688 L517.014151,238.285879 C517.535677,238.054085 517.964794,237.647938 518.22554,237.140234 Z M515.184402,238.5 L515.184402,239.5 L513.184402,239.5 L513.184402,238.5 L515.184402,238.5 Z M511.184402,238.5 L511.184402,239.5 L509.184402,239.5 L509.184402,238.5 L511.184402,238.5 Z M507.184402,238.5 L507.184402,239.5 L505.184402,239.5 L505.184402,238.5 L507.184402,238.5 Z M503.184402,238.5 L503.184402,239.5 L501.184402,239.5 L501.184402,238.5 L503.184402,238.5 Z M499.184402,238.5 L499.184402,239.5 L497.184402,239.5 L497.184402,238.5 L499.184402,238.5 Z M495.184402,238.5 L495.184402,239.5 L493.184402,239.5 L493.184402,238.5 L495.184402,238.5 Z M491.184402,238.5 L491.184402,239.5 L489.184402,239.5 L489.184402,238.5 L491.184402,238.5 Z M487.184402,238.5 L487.184402,239.5 L485.184402,239.5 L485.184402,238.5 L487.184402,238.5 Z M483.184402,238.5 L483.184402,239.5 L481.184402,239.5 L481.184402,238.5 L483.184402,238.5 Z M479.184402,238.5 L479.184402,239.5 L477.184402,239.5 L477.184402,238.5 L479.184402,238.5 Z M475.184402,238.5 L475.184402,239.5 L473.184402,239.5 L473.184402,238.5 L475.184402,238.5 Z M471.184402,238.5 L471.184402,239.5 L469.184402,239.5 L469.184402,238.5 L471.184402,238.5 Z M467.184402,238.5 L467.184402,239.5 L465.184402,239.5 L465.184402,238.5 L467.184402,238.5 Z M463.184402,238.5 L463.184402,239.5 L461.184402,239.5 L461.184402,238.5 L463.184402,238.5 Z M459.184402,238.5 L459.184402,239.5 L457.184402,239.5 L457.184402,238.5 L459.184402,238.5 Z M455.184402,238.5 L455.184402,239.5 L453.184402,239.5 L453.184402,238.5 L455.184402,238.5 Z M451.184402,238.5 L451.184402,239.5 L449.184402,239.5 L449.184402,238.5 L451.184402,238.5 Z M447.184402,238.5 L447.184402,239.5 L445.184402,239.5 L445.184402,238.5 L447.184402,238.5 Z M443.184402,238.5 L443.184402,239.5 L441.184402,239.5 L441.184402,238.5 L443.184402,238.5 Z M439.184402,238.5 L439.184402,239.5 L437.184402,239.5 L437.184402,238.5 L439.184402,238.5 Z M435.184402,238.5 L435.184402,239.5 L433.184402,239.5 L433.184402,238.5 L435.184402,238.5 Z M431.184402,238.5 L431.184402,239.5 L429.184402,239.5 L429.184402,238.5 L431.184402,238.5 Z M427.184402,238.5 L427.184402,239.5 L425.184402,239.5 L425.184402,238.5 L427.184402,238.5 Z M423.184402,238.5 L423.184402,239.5 L421.184402,239.5 L421.184402,238.5 L423.184402,238.5 Z M419.184402,238.5 L419.184402,239.5 L417.184402,239.5 L417.184402,238.5 L419.184402,238.5 Z M415.184402,238.5 L415.184402,239.5 L413.184402,239.5 L413.184402,238.5 L415.184402,238.5 Z M411.184402,238.5 L411.184402,239.5 L409.184402,239.5 L409.184402,238.5 L411.184402,238.5 Z M407.184402,238.5 L407.184402,239.5 L405.184402,239.5 L405.184402,238.5 L407.184402,238.5 Z M403.184402,238.5 L403.184402,239.5 L401.184402,239.5 L401.184402,238.5 L403.184402,238.5 Z M399.184402,238.5 L399.184402,239.5 L397.184402,239.5 L397.184402,238.5 L399.184402,238.5 Z M395.184402,238.5 L395.184402,239.5 L393.184402,239.5 L393.184402,238.5 L395.184402,238.5 Z M391.184402,238.5 L391.184402,239.5 L389.184402,239.5 L389.184402,238.5 L391.184402,238.5 Z M387.184402,238.5 L387.184402,239.5 L385.184402,239.5 L385.184402,238.5 L387.184402,238.5 Z M383.184402,238.5 L383.184402,239.5 L381.184402,239.5 L381.184402,238.5 L383.184402,238.5 Z M379.184402,238.5 L379.184402,239.5 L377.184402,239.5 L377.184402,238.5 L379.184402,238.5 Z M375.184402,238.5 L375.184402,239.5 L373.184402,239.5 L373.184402,238.5 L375.184402,238.5 Z M371.184402,238.5 L371.184402,239.5 L369.184402,239.5 L369.184402,238.5 L371.184402,238.5 Z M367.184402,238.5 L367.184402,239.5 L365.184402,239.5 L365.184402,238.5 L367.184402,238.5 Z M363.184402,238.5 L363.184402,239.5 L361.184402,239.5 L361.184402,238.5 L363.184402,238.5 Z M359.184402,238.5 L359.184402,239.5 L357.184402,239.5 L357.184402,238.5 L359.184402,238.5 Z M355.184402,238.5 L355.184402,239.5 L353.184402,239.5 L353.184402,238.5 L355.184402,238.5 Z M351.184402,238.5 L351.184402,239.5 L349.184402,239.5 L349.184402,238.5 L351.184402,238.5 Z M347.184402,238.5 L347.184402,239.5 L345.184402,239.5 L345.184402,238.5 L347.184402,238.5 Z M343.184402,238.5 L343.184402,239.5 L341.184402,239.5 L341.184402,238.5 L343.184402,238.5 Z M339.184402,238.5 L339.184402,239.5 L337.184402,239.5 L337.184402,238.5 L339.184402,238.5 Z M335.184402,238.5 L335.184402,239.5 L333.184402,239.5 L333.184402,238.5 L335.184402,238.5 Z M331.184402,238.5 L331.184402,239.5 L329.184402,239.5 L329.184402,238.5 L331.184402,238.5 Z M327.184402,238.5 L327.184402,239.5 L325.184402,239.5 L325.184402,238.5 L327.184402,238.5 Z M323.184402,238.5 L323.184402,239.5 L321.184402,239.5 L321.184402,238.5 L323.184402,238.5 Z M319.184402,238.5 L319.184402,239.5 L317.184402,239.5 L317.184402,238.5 L319.184402,238.5 Z M315.184402,238.5 L315.184402,239.5 L313.184402,239.5 L313.184402,238.5 L315.184402,238.5 Z M311.184402,238.5 L311.184402,239.5 L309.184402,239.5 L309.184402,238.5 L311.184402,238.5 Z M307.184402,238.5 L307.184402,239.5 L305.184402,239.5 L305.184402,238.5 L307.184402,238.5 Z M303.184402,238.5 L303.184402,239.5 L301.184402,239.5 L301.184402,238.5 L303.184402,238.5 Z M299.184402,238.5 L299.184402,239.5 L297.184402,239.5 L297.184402,238.5 L299.184402,238.5 Z M295.184402,238.5 L295.184402,239.5 L293.184402,239.5 L293.184402,238.5 L295.184402,238.5 Z M291.184402,238.5 L291.184402,239.5 L289.184402,239.5 L289.184402,238.5 L291.184402,238.5 Z M287.184402,238.5 L287.184402,239.5 L285.184402,239.5 L285.184402,238.5 L287.184402,238.5 Z M283.184402,238.5 L283.184402,239.5 L281.184402,239.5 L281.184402,238.5 L283.184402,238.5 Z M279.184402,238.5 L279.184402,239.5 L277.184402,239.5 L277.184402,238.5 L279.184402,238.5 Z M275.184402,238.5 L275.184402,239.5 L273.184402,239.5 L273.184402,238.5 L275.184402,238.5 Z M271.184402,238.5 L271.184402,239.5 L269.184402,239.5 L269.184402,238.5 L271.184402,238.5 Z M267.184402,238.5 L267.184402,239.5 L265.184402,239.5 L265.184402,238.5 L267.184402,238.5 Z M263.184402,238.5 L263.184402,239.5 L261.184402,239.5 L261.184402,238.5 L263.184402,238.5 Z M259.184402,238.5 L259.184402,239.5 L257.184402,239.5 L257.184402,238.5 L259.184402,238.5 Z M255.184402,238.5 L255.184402,239.5 L253.184402,239.5 L253.184402,238.5 L255.184402,238.5 Z M251.184402,238.5 L251.184402,239.5 L249.184402,239.5 L249.184402,238.5 L251.184402,238.5 Z M247.184402,238.5 L247.184402,239.5 L245.184402,239.5 L245.184402,238.5 L247.184402,238.5 Z M243.184402,238.5 L243.184402,239.5 L241.184402,239.5 L241.184402,238.5 L243.184402,238.5 Z M239.184402,238.5 L239.184402,239.5 L237.184402,239.5 L237.184402,238.5 L239.184402,238.5 Z M235.184402,238.5 L235.184402,239.5 L233.184402,239.5 L233.184402,238.5 L235.184402,238.5 Z M231.184402,238.5 L231.184402,239.5 L229.184402,239.5 L229.184402,238.5 L231.184402,238.5 Z M227.184402,238.5 L227.184402,239.5 L225.184402,239.5 L225.184402,238.5 L227.184402,238.5 Z M223.184402,238.5 L223.184402,239.5 L221.184402,239.5 L221.184402,238.5 L223.184402,238.5 Z M219.184402,238.5 L219.184402,239.5 L217.184402,239.5 L217.184402,238.5 L219.184402,238.5 Z M215.184402,238.5 L215.184402,239.5 L213.184402,239.5 L213.184402,238.5 L215.184402,238.5 Z M211.184402,238.5 L211.184402,239.5 L209.184402,239.5 L209.184402,238.5 L211.184402,238.5 Z M207.184402,238.5 L207.184402,239.5 L205.184402,239.5 L205.184402,238.5 L207.184402,238.5 Z M203.184402,238.5 L203.184402,239.5 L201.184402,239.5 L201.184402,238.5 L203.184402,238.5 Z M199.184402,238.5 L199.184402,239.5 L197.184402,239.5 L197.184402,238.5 L199.184402,238.5 Z M195.184402,238.5 L195.184402,239.5 L193.184402,239.5 L193.184402,238.5 L195.184402,238.5 Z M191.184402,238.5 L191.184402,239.5 L189.184402,239.5 L189.184402,238.5 L191.184402,238.5 Z M187.184402,238.5 L187.184402,239.5 L185.184402,239.5 L185.184402,238.5 L187.184402,238.5 Z M183.184402,238.5 L183.184402,239.5 L181.184402,239.5 L181.184402,238.5 L183.184402,238.5 Z M179.184402,238.5 L179.184402,239.5 L177.184402,239.5 L177.184402,238.5 L179.184402,238.5 Z M175.184402,238.5 L175.184402,239.5 L173.184402,239.5 L173.184402,238.5 L175.184402,238.5 Z M171.184402,238.5 L171.184402,239.5 L169.184402,239.5 L169.184402,238.5 L171.184402,238.5 Z M167.184402,238.5 L167.184402,239.5 L165.184402,239.5 L165.184402,238.5 L167.184402,238.5 Z M163.184402,238.5 L163.184402,239.5 L161.184402,239.5 L161.184402,238.5 L163.184402,238.5 Z M159.184402,238.5 L159.184402,239.5 L157.184402,239.5 L157.184402,238.5 L159.184402,238.5 Z M155.184402,238.5 L155.184402,239.5 L153.184402,239.5 L153.184402,238.5 L155.184402,238.5 Z M151.184402,238.5 L151.184402,239.5 L149.184402,239.5 L149.184402,238.5 L151.184402,238.5 Z M147.184402,238.5 L147.184402,239.5 L145.184402,239.5 L145.184402,238.5 L147.184402,238.5 Z M143.184402,238.5 L143.184402,239.5 L141.184402,239.5 L141.184402,238.5 L143.184402,238.5 Z M139.184402,238.5 L139.184402,239.5 L137.184402,239.5 L137.184402,238.5 L139.184402,238.5 Z M135.184402,238.5 L135.184402,239.5 L133.184402,239.5 L133.184402,238.5 L135.184402,238.5 Z M131.184402,238.5 L131.184402,239.5 L129.184402,239.5 L129.184402,238.5 L131.184402,238.5 Z M127.184402,238.5 L127.184402,239.5 L125.184402,239.5 L125.184402,238.5 L127.184402,238.5 Z M123.184402,238.5 L123.184402,239.5 L121.184402,239.5 L121.184402,238.5 L123.184402,238.5 Z M119.184402,238.5 L119.184402,239.5 L117.184402,239.5 L117.184402,238.5 L119.184402,238.5 Z M115.184402,238.5 L115.184402,239.5 L113.184402,239.5 L113.184402,238.5 L115.184402,238.5 Z M111.184402,238.5 L111.184402,239.5 L109.184402,239.5 L109.184402,238.5 L111.184402,238.5 Z M107.184402,238.5 L107.184402,239.5 L105.184402,239.5 L105.184402,238.5 L107.184402,238.5 Z M103.184402,238.5 L103.184402,239.5 L101.184402,239.5 L101.184402,238.5 L103.184402,238.5 Z M99.1844024,238.5 L99.1844024,239.5 L97.1844024,239.5 L97.1844024,238.5 L99.1844024,238.5 Z M95.1844024,238.5 L95.1844024,239.5 L93.1844024,239.5 L93.1844024,238.5 L95.1844024,238.5 Z M91.1844024,238.5 L91.1844024,239.5 L89.1844024,239.5 L89.1844024,238.5 L91.1844024,238.5 Z M87.1844024,238.5 L87.1844024,239.5 L86,239.5 C85.6783936,239.5 85.3620705,239.456487 85.0575528,239.371518 L85.3263144,238.408312 C85.5435405,238.468924 85.7694547,238.5 86,238.5 L87.1844024,238.5 Z M83.9276525,237.398887 L83.0994236,237.959276 C82.7109969,237.385201 82.5,236.707692 82.5,236 L82.5,235.776604 L83.5,235.776604 L83.5,236 C83.5,236.506348 83.6503076,236.988984 83.9276525,237.398887 Z M83.5,233.776604 L82.5,233.776604 L82.5,231.776604 L83.5,231.776604 L83.5,233.776604 Z M83.5,229.776604 L82.5,229.776604 L82.5,227.776604 L83.5,227.776604 L83.5,229.776604 Z M83.5,225.776604 L82.5,225.776604 L82.5,223.776604 L83.5,223.776604 L83.5,225.776604 Z M83.5,221.776604 L82.5,221.776604 L82.5,219.776604 L83.5,219.776604 L83.5,221.776604 Z M83.5,217.776604 L82.5,217.776604 L82.5,215.776604 L83.5,215.776604 L83.5,217.776604 Z M83.5,213.776604 L82.5,213.776604 L82.5,211.776604 L83.5,211.776604 L83.5,213.776604 Z M83.5,209.776604 L82.5,209.776604 L82.5,207.776604 L83.5,207.776604 L83.5,209.776604 Z M83.5,205.776604 L82.5,205.776604 L82.5,203.776604 L83.5,203.776604 L83.5,205.776604 Z M83.5,201.776604 L82.5,201.776604 L82.5,199.776604 L83.5,199.776604 L83.5,201.776604 Z M83.5,197.776604 L82.5,197.776604 L82.5,195.776604 L83.5,195.776604 L83.5,197.776604 Z M83.5,193.776604 L82.5,193.776604 L82.5,191.776604 L83.5,191.776604 L83.5,193.776604 Z M83.5,189.776604 L82.5,189.776604 L82.5,187.776604 L83.5,187.776604 L83.5,189.776604 Z M83.5,185.776604 L82.5,185.776604 L82.5,183.776604 L83.5,183.776604 L83.5,185.776604 Z M83.5,181.776604 L82.5,181.776604 L82.5,179.776604 L83.5,179.776604 L83.5,181.776604 Z M83.5,177.776604 L82.5,177.776604 L82.5,175.776604 L83.5,175.776604 L83.5,177.776604 Z M83.5,173.776604 L82.5,173.776604 L82.5,171.776604 L83.5,171.776604 L83.5,173.776604 Z M83.5,169.776604 L82.5,169.776604 L82.5,167.776604 L83.5,167.776604 L83.5,169.776604 Z M83.5,165.776604 L82.5,165.776604 L82.5,163.776604 L83.5,163.776604 L83.5,165.776604 Z M83.5,161.776604 L82.5,161.776604 L82.5,159.776604 L83.5,159.776604 L83.5,161.776604 Z M83.5,157.776604 L82.5,157.776604 L82.5,155.776604 L83.5,155.776604 L83.5,157.776604 Z M83.5,153.776604 L82.5,153.776604 L82.5,151.776604 L83.5,151.776604 L83.5,153.776604 Z M83.5,149.776604 L82.5,149.776604 L82.5,147.776604 L83.5,147.776604 L83.5,149.776604 Z M83.5,145.776604 L82.5,145.776604 L82.5,143.776604 L83.5,143.776604 L83.5,145.776604 Z M83.5,141.776604 L82.5,141.776604 L82.5,139.776604 L83.5,139.776604 L83.5,141.776604 Z M83.5,137.776604 L82.5,137.776604 L82.5,135.776604 L83.5,135.776604 L83.5,137.776604 Z M83.5,133.776604 L82.5,133.776604 L82.5,131.776604 L83.5,131.776604 L83.5,133.776604 Z M83.5,129.776604 L82.5,129.776604 L82.5,127.776604 L83.5,127.776604 L83.5,129.776604 Z M83.5,125.776604 L82.5,125.776604 L82.5,123.776604 L83.5,123.776604 L83.5,125.776604 Z M83.5,121.776604 L82.5,121.776604 L82.5,119.776604 L83.5,119.776604 L83.5,121.776604 Z M83.5,117.776604 L82.5,117.776604 L82.5,115.776604 L83.5,115.776604 L83.5,117.776604 Z M83.5,113.776604 L82.5,113.776604 L82.5,111.776604 L83.5,111.776604 L83.5,113.776604 Z M83.5,109.776604 L82.5,109.776604 L82.5,107.776604 L83.5,107.776604 L83.5,109.776604 Z M83.5,105.776604 L82.5,105.776604 L82.5,103.776604 L83.5,103.776604 L83.5,105.776604 Z M83.5,101.776604 L82.5,101.776604 L82.5,99.7766036 L83.5,99.7766036 L83.5,101.776604 Z M83.5,97.7766036 L82.5,97.7766036 L82.5,95.7766036 L83.5,95.7766036 L83.5,97.7766036 Z M83.5,93.7766036 L82.5,93.7766036 L82.5,91.7766036 L83.5,91.7766036 L83.5,93.7766036 Z M83.5,89.7766036 L82.5,89.7766036 L82.5,87.7766036 L83.5,87.7766036 L83.5,89.7766036 Z M83.5,85.7766036 L82.5,85.7766036 L82.5,83.7766036 L83.5,83.7766036 L83.5,85.7766036 Z M83.5,81.7766036 L82.5,81.7766036 L82.5,79.7766036 L83.5,79.7766036 L83.5,81.7766036 Z M83.5,77.7766036 L82.5,77.7766036 L82.5,75.7766036 L83.5,75.7766036 L83.5,77.7766036 Z M83.5,73.7766036 L82.5,73.7766036 L82.5,71.7766036 L83.5,71.7766036 L83.5,73.7766036 Z M83.5,69.7766036 L82.5,69.7766036 L82.5,67.7766036 L83.5,67.7766036 L83.5,69.7766036 Z M83.5,65.7766036 L82.5,65.7766036 L82.5,63.7766036 L83.5,63.7766036 L83.5,65.7766036 Z M83.5,61.7766036 L82.5,61.7766036 L82.5,59.7766036 L83.5,59.7766036 L83.5,61.7766036 Z M83.5,57.7766036 L82.5,57.7766036 L82.5,55.7766036 L83.5,55.7766036 L83.5,57.7766036 Z M83.5,53.7766036 L82.5,53.7766036 L82.5,51.7766036 L83.5,51.7766036 L83.5,53.7766036 Z M83.5,49.7766036 L82.5,49.7766036 L82.5,47.7766036 L83.5,47.7766036 L83.5,49.7766036 Z M83.5,45.7766036 L82.5,45.7766036 L82.5,43.7766036 L83.5,43.7766036 L83.5,45.7766036 Z M83.5,41.7766036 L82.5,41.7766036 L82.5,39.7766036 L83.5,39.7766036 L83.5,41.7766036 Z M83.5,37.7766036 L82.5,37.7766036 L82.5,35.7766036 L83.5,35.7766036 L83.5,37.7766036 Z M83.5,33.7766036 L82.5,33.7766036 L82.5,31.7766036 L83.5,31.7766036 L83.5,33.7766036 Z M83.5,29.7766036 L82.5,29.7766036 L82.5,27.7766036 L83.5,27.7766036 L83.5,29.7766036 Z M83.5,25.7766036 L82.5,25.7766036 L82.5,23.7766036 L83.5,23.7766036 L83.5,25.7766036 Z M83.5,21.7766036 L82.5,21.7766036 L82.5,19.7766036 L83.5,19.7766036 L83.5,21.7766036 Z M83.5,17.7766036 L82.5,17.7766036 L82.5,15.7766036 L83.5,15.7766036 L83.5,17.7766036 Z M83.5,13.7766036 L82.5,13.7766036 L82.5,11.7766036 L83.5,11.7766036 L83.5,13.7766036 Z M83.5,9.77660357 L82.5,9.77660357 L82.5,7.77660357 L83.5,7.77660357 L83.5,9.77660357 Z M83.5,5.77660357 L82.5,5.77660357 L82.5,4 C82.5,3.91298602 82.503185,3.82630889 82.5095269,3.74009076 L83.5068326,3.81344867 C83.5022859,3.87526122 83.5,3.93746925 83.5,4 L83.5,5.77660357 Z M84.1864763,2.27919676 L83.4612031,1.59073558 C84.0102928,1.01228605 84.7410799,0.635042921 85.5400168,0.530013119 L85.6703573,1.52148241 C85.1005296,1.59639307 84.5791311,1.86554672 84.1864763,2.27919676 Z" id="Rectangle-3-Copy-14" fill="#A1CAFF" fill-rule="nonzero"></path>
        <g id="分组-8-copy-11" transform="translate(453.000000, 124.000000)">
            <rect id="Rectangle-3-Copy-11" stroke="#A1CAFF" fill="#E1EDFF" x="0.5" y="0.5" width="61" height="80" rx="3"></rect>
            <text id="DOLFIN智能-流量调度中心" font-family="PingFangSC-Regular, PingFang SC" font-size="10" font-weight="normal" fill="#001B47">
                <tspan x="3.03" y="59">DOLFIN智能</tspan>
                <tspan x="1" y="73">流量调度中心</tspan>
            </text>
            <rect id="矩形" stroke="#A1CAFF" fill="#FFFFFF" x="18.5" y="17.5" width="25" height="25" rx="3"></rect>
        </g>
        <g id="分组-4" transform="translate(534.000000, 45.000000)">
            <g id="分组-3-copy-2">
                <rect id="Rectangle-3-Copy-12" fill="#A1CAFF" x="0" y="0" width="46" height="65" rx="3"></rect>
                <rect id="Rectangle-Copy-72" fill="#3261AF" x="10" y="10" width="26" height="26" rx="3"></rect>
                <text id="用户" font-family="PingFangSC-Regular, PingFang SC" font-size="12" font-weight="normal" fill="#001B47">
                    <tspan x="11" y="51">用户</tspan>
                </text>
            </g>
            <g id="Group-3" transform="translate(16.000000, 15.000000)">
                <path d="M15.3136552,12.5144276 L3.66455172,12.5144276 C3.296,12.5144276 3.0102069,12.1960828 3.04551724,11.8313931 C3.32468966,9.18201379 5.20165517,7.00766897 7.69048276,6.29263448 C6.82151724,5.71001379 6.24937931,4.72297931 6.24937931,3.60022069 C6.24937931,1.5798069 8.09434483,-0.00419310345 10.1897931,0.435531034 C10.3183448,0.46422069 10.4402759,0.496772414 10.5616552,0.539255172 C10.9588966,0.675531034 11.3197241,0.8896 11.6308966,1.1616 C12.1384828,1.60518621 12.5031724,2.20546207 12.649931,2.87801379 C12.918069,4.12932414 12.464,5.28794483 11.6270345,6.02835862 C11.52,6.12491034 11.4057931,6.21042759 11.2838621,6.29263448 C11.3986207,6.32463448 11.5128276,6.36049655 11.6270345,6.40353103 C13.9481379,7.2118069 15.664,9.3033931 15.9288276,11.8313931 C15.968,12.1960828 15.6783448,12.5144276 15.3136552,12.5144276 Z" id="Fill-43" fill="#FFFFFF"></path>
                <path d="M13.3702621,15.1190069 C13.4094345,15.4836966 13.1197793,15.8020414 12.7550897,15.8020414 L1.10598621,15.8020414 C0.737434483,15.8020414 0.451641379,15.4836966 0.486951724,15.1190069 C0.766124138,12.4696276 2.64308966,10.2952828 5.13191724,9.58024828 C4.26295172,8.99762759 3.69081379,8.0105931 3.69081379,6.88783448 C3.69081379,4.86742069 5.53577931,3.28342069 7.63122759,3.72314483 C7.75977931,3.75183448 7.88171034,3.78438621 8.00308966,3.82686897 C8.40033103,3.96314483 8.76115862,4.17721379 9.07233103,4.44921379 C9.57991724,4.8928 9.9446069,5.49307586 10.0913655,6.16562759 C10.3595034,7.41693793 9.90543448,8.57555862 9.06846897,9.31597241 C8.96143448,9.41252414 8.84722759,9.49804138 8.72529655,9.58024828 C8.84005517,9.61224828 8.95426207,9.64811034 9.06846897,9.69114483 C11.3895724,10.4994207 13.1054345,12.5910069 13.3702621,15.1190069" id="Fill-44" fill="#A1CAFF"></path>
                <path d="M6.9289931,10.8752 L6.9289931,13.4489931" id="Stroke-45" stroke="#FFFFFF" stroke-linecap="round"></path>
            </g>
        </g>
        <g id="分组-5" transform="translate(478.000000, 147.000000)" fill-rule="nonzero">
            <polygon id="矩形" fill="#A1CAFF" transform="translate(5.939697, 5.939697) rotate(-315.000000) translate(-5.939697, -5.939697) " points="1.73969696 1.73969696 10.139697 1.73969696 1.73969696 10.139697"></polygon>
            <polygon id="矩形-copy-4" fill="#3261AF" transform="translate(5.939697, 8.806364) scale(1, -1) rotate(-315.000000) translate(-5.939697, -8.806364) " points="1.73969696 4.60636363 10.139697 4.60636363 1.73969696 13.0063636"></polygon>
        </g>
        <g id="分组-3-copy-3" transform="translate(534.000000, 130.000000)">
            <rect id="Rectangle-3-Copy-12" fill="#A1CAFF" x="0" y="0" width="46" height="74" rx="3"></rect>
            <rect id="Rectangle-Copy-72" fill="#3261AF" x="10" y="10" width="26" height="26" rx="3"></rect>
            <text id="Local-DNS" font-family="PingFangSC-Regular, PingFang SC" font-size="12" font-weight="normal" fill="#001B47">
                <tspan x="7.91" y="51">Local</tspan>
                <tspan x="10.658" y="68">DNS</tspan>
            </text>
            <text id="DNS" font-family="PingFangSC-Regular, PingFang SC" font-size="12" font-weight="normal" fill="#FFFFFF">
                <tspan x="11.158" y="28">DNS</tspan>
            </text>
        </g>
        <path d="M559,116 L559,127 L558,127 L558,115 L558,113 L561,116 L559,116 Z M555,124 L555,113 L556,113 L556,125 L556,127 L553,124 L555,124 Z" id="合并形状" fill="#3261AF" fill-rule="nonzero" transform="translate(557.000000, 120.000000) rotate(-180.000000) translate(-557.000000, -120.000000) "></path>
        <path d="M527,193 L527,204 L526,204 L526,192 L526,190 L529,193 L527,193 Z M523,201 L523,190 L524,190 L524,202 L524,204 L521,201 L523,201 Z" id="合并形状-copy-3" fill="#3261AF" fill-rule="nonzero" transform="translate(525.000000, 197.000000) rotate(-270.000000) translate(-525.000000, -197.000000) "></path>
        <text id="获取最佳CDN-边缘节点" font-family="PingFangSC-Regular, PingFang SC" font-size="10" font-weight="normal" fill="#001B47">
            <tspan x="497.235" y="218">获取最佳CDN</tspan>
            <tspan x="508" y="232">边缘节点</tspan>
        </text>
        <path id="路径-45" d="M391.231582,29 L417.22104,29 L417.72104,29 L417.72104,29.5 L417.72104,212 L417.72104,212.5 L417.22104,212.5 L391.231582,212.5 L391.231582,216.5 L382.231582,212 L391.231582,207.5 L391.231582,211.5 L416.72104,211.5 L416.72104,30 L391.231582,30 L391.231582,34 L382.231582,29.5 L391.231582,25 L391.231582,29 Z" fill="#A1CAFF" fill-rule="nonzero"></path>
        <path d="M96,10 L286,10 C287.656854,10 289,11.3431458 289,13 L289,227 C289,228.656854 287.656854,230 286,230 L96,230 C94.3431458,230 93,228.656854 93,227 L93,13 C93,11.3431458 94.3431458,10 96,10 Z" id="Rectangle-3-Copy-14" fill="#E1EDFF"></path>
        <g id="分组-6" transform="translate(277.000000, 94.000000)" fill="#3261AF" fill-rule="nonzero">
            <path d="M126.5,129.5 L126.5,-119.5 L127.5,-119.5 L127.5,130.5 L127.5,132.5 L124.5,129.5 L126.5,129.5 Z" id="合并形状" transform="translate(126.000000, 6.500000) rotate(-90.000000) translate(-126.000000, -6.500000) "></path>
            <path d="M126.5,124.5 L126.5,-124.5 L127.5,-124.5 L127.5,125.5 L127.5,127.5 L124.5,124.5 L126.5,124.5 Z" id="合并形状-copy-2" transform="translate(126.000000, 1.500000) scale(-1, -1) rotate(-90.000000) translate(-126.000000, -1.500000) "></path>
        </g>
        <text id="CDN父集群" font-family="PingFangSC-Regular, PingFang SC" font-size="12" font-weight="normal" fill="#001B47">
            <tspan x="110.582" y="28">CDN父集群</tspan>
        </text>
        <text id="CDN父节点" font-family="PingFangSC-Regular, PingFang SC" font-size="10" font-weight="normal" fill="#001B47">
            <tspan x="115.235" y="86">CDN父节点</tspan>
        </text>
        <text id="CDN边缘点" font-family="PingFangSC-Regular, PingFang SC" font-size="10" font-weight="normal" fill="#001B47">
            <tspan x="209.235" y="86">CDN边缘点</tspan>
        </text>
        <text id="CDN父节点" font-family="PingFangSC-Regular, PingFang SC" font-size="10" font-weight="normal" fill="#001B47">
            <tspan x="115.235" y="149">CDN父节点</tspan>
        </text>
        <text id="CDN边缘点" font-family="PingFangSC-Regular, PingFang SC" font-size="10" font-weight="normal" fill="#001B47">
            <tspan x="209.235" y="149">CDN边缘点</tspan>
        </text>
        <text id="CDN父节点" font-family="PingFangSC-Regular, PingFang SC" font-size="10" font-weight="normal" fill="#001B47">
            <tspan x="115.235" y="211">CDN父节点</tspan>
        </text>
        <text id="CDN边缘点" font-family="PingFangSC-Regular, PingFang SC" font-size="10" font-weight="normal" fill="#001B47">
            <tspan x="209.235" y="211">CDN边缘点</tspan>
        </text>
        <text id="CDN边缘集群" font-family="PingFangSC-Regular, PingFang SC" font-size="12" font-weight="normal" fill="#001B47">
            <tspan x="197.582" y="28">CDN边缘集群</tspan>
        </text>
        <rect id="Rectangle-3-Copy-15" stroke="#A1CAFF" x="105.5" y="35.5" width="71" height="183" rx="3"></rect>
        <rect id="Rectangle-3-Copy-16" stroke="#A1CAFF" x="199.5" y="35.5" width="71" height="183" rx="3"></rect>
        <rect id="Rectangle-Copy-73" stroke="#A1CAFF" fill="#FFFFFF" x="113.5" y="40.5" width="55" height="29" rx="3"></rect>
        <g id="Group-Copy-7" transform="translate(131.000000, 45.000000)">
            <polygon id="Triangle" stroke="#3261AF" points="10.4 1.6 18.4 17.6 2.4 17.6"></polygon>
            <circle id="Oval" fill="#A1CAFF" cx="10.4" cy="2.4" r="2.4"></circle>
            <circle id="Oval-Copy" fill="#A1CAFF" cx="2.4" cy="17.6" r="2.4"></circle>
            <circle id="Oval-Copy-2" fill="#A1CAFF" cx="18.4" cy="17.6" r="2.4"></circle>
        </g>
        <rect id="Rectangle-Copy-74" stroke="#A1CAFF" fill="#FFFFFF" x="207.5" y="40.5" width="55" height="29" rx="3"></rect>
        <rect id="Rectangle-Copy-75" stroke="#A1CAFF" fill="#FFFFFF" x="113.5" y="103.5" width="55" height="29" rx="3"></rect>
        <rect id="Rectangle-Copy-76" stroke="#A1CAFF" fill="#FFFFFF" x="207.5" y="103.5" width="55" height="29" rx="3"></rect>
        <rect id="Rectangle-Copy-77" stroke="#A1CAFF" fill="#FFFFFF" x="113.5" y="165.5" width="55" height="29" rx="3"></rect>
        <rect id="Rectangle-Copy-78" stroke="#A1CAFF" fill="#FFFFFF" x="207.5" y="165.5" width="55" height="29" rx="3"></rect>
        <g id="Group-Copy-8" transform="translate(131.000000, 108.000000)">
            <polygon id="Triangle" stroke="#3261AF" points="10.4 1.6 18.4 17.6 2.4 17.6"></polygon>
            <circle id="Oval" fill="#A1CAFF" cx="10.4" cy="2.4" r="2.4"></circle>
            <circle id="Oval-Copy" fill="#A1CAFF" cx="2.4" cy="17.6" r="2.4"></circle>
            <circle id="Oval-Copy-2" fill="#A1CAFF" cx="18.4" cy="17.6" r="2.4"></circle>
        </g>
        <g id="Group-Copy-9" transform="translate(131.000000, 170.000000)">
            <polygon id="Triangle" stroke="#3261AF" points="10.4 1.6 18.4 17.6 2.4 17.6"></polygon>
            <circle id="Oval" fill="#A1CAFF" cx="10.4" cy="2.4" r="2.4"></circle>
            <circle id="Oval-Copy" fill="#A1CAFF" cx="2.4" cy="17.6" r="2.4"></circle>
            <circle id="Oval-Copy-2" fill="#A1CAFF" cx="18.4" cy="17.6" r="2.4"></circle>
        </g>
        <g id="Group-Copy-10" transform="translate(224.000000, 45.000000)">
            <polygon id="Triangle" stroke="#3261AF" points="10.4 1.6 18.4 17.6 2.4 17.6"></polygon>
            <circle id="Oval" fill="#A1CAFF" cx="10.4" cy="2.4" r="2.4"></circle>
            <circle id="Oval-Copy" fill="#A1CAFF" cx="2.4" cy="17.6" r="2.4"></circle>
            <circle id="Oval-Copy-2" fill="#A1CAFF" cx="18.4" cy="17.6" r="2.4"></circle>
        </g>
        <g id="Group-Copy-11" transform="translate(224.000000, 108.000000)">
            <polygon id="Triangle" stroke="#3261AF" points="10.4 1.6 18.4 17.6 2.4 17.6"></polygon>
            <circle id="Oval" fill="#A1CAFF" cx="10.4" cy="2.4" r="2.4"></circle>
            <circle id="Oval-Copy" fill="#A1CAFF" cx="2.4" cy="17.6" r="2.4"></circle>
            <circle id="Oval-Copy-2" fill="#A1CAFF" cx="18.4" cy="17.6" r="2.4"></circle>
        </g>
        <g id="Group-Copy-12" transform="translate(224.000000, 170.000000)">
            <polygon id="Triangle" stroke="#3261AF" points="10.4 1.6 18.4 17.6 2.4 17.6"></polygon>
            <circle id="Oval" fill="#A1CAFF" cx="10.4" cy="2.4" r="2.4"></circle>
            <circle id="Oval-Copy" fill="#A1CAFF" cx="2.4" cy="17.6" r="2.4"></circle>
            <circle id="Oval-Copy-2" fill="#A1CAFF" cx="18.4" cy="17.6" r="2.4"></circle>
        </g>
        <text id="请求-内容-copy" font-family="PingFangSC-Regular, PingFang SC" font-size="12" font-weight="normal" fill="#001B47">
            <tspan x="53" y="88">请求</tspan>
            <tspan x="53" y="105">内容</tspan>
        </text>
        <text id="源站-返回-内容-copy" font-family="PingFangSC-Regular, PingFang SC" font-size="12" font-weight="normal" fill="#001B47">
            <tspan x="53" y="142">源站</tspan>
            <tspan x="53" y="159">返回</tspan>
            <tspan x="53" y="176">内容</tspan>
        </text>
        <g id="分组-8-copy-12" transform="translate(318.000000, 10.000000)">
            <rect id="Rectangle-3-Copy-11" stroke="#A1CAFF" fill="#E1EDFF" x="0.5" y="0.5" width="61" height="37" rx="3"></rect>
            <text id="CDN全实时-配置中心" font-family="PingFangSC-Regular, PingFang SC" font-size="10" font-weight="normal" fill="#001B47">
                <tspan x="5.235" y="16">CDN全实时</tspan>
                <tspan x="11" y="30">配置中心</tspan>
            </text>
        </g>
        <g id="分组-8-copy-14" transform="translate(318.000000, 149.000000)">
            <rect id="Rectangle-3-Copy-11" stroke="#A1CAFF" fill="#E1EDFF" x="0.5" y="0.5" width="61" height="37" rx="3"></rect>
            <text id="CDN全立体-监控中心" font-family="PingFangSC-Regular, PingFang SC" font-size="10" font-weight="normal" fill="#001B47">
                <tspan x="5.235" y="16">CDN全立体</tspan>
                <tspan x="11" y="30">监控中心</tspan>
            </text>
        </g>
        <g id="分组-8-copy-18" transform="translate(318.000000, 106.000000)">
            <rect id="Rectangle-3-Copy-11" stroke="#A1CAFF" fill="#E1EDFF" x="0.5" y="0.5" width="61" height="37" rx="3"></rect>
            <text id="CDN动态加-速调度中心" font-family="PingFangSC-Regular, PingFang SC" font-size="10" font-weight="normal" fill="#001B47">
                <tspan x="5.235" y="16">CDN动态加</tspan>
                <tspan x="6" y="30">速调度中心</tspan>
            </text>
        </g>
        <g id="分组-8-copy-15" transform="translate(318.000000, 53.000000)">
            <rect id="Rectangle-3-Copy-11" stroke="#A1CAFF" fill="#E1EDFF" x="0.5" y="0.5" width="61" height="37" rx="3"></rect>
            <text id="CDN全日志-中心" font-family="PingFangSC-Regular, PingFang SC" font-size="10" font-weight="normal" fill="#001B47">
                <tspan x="5.235" y="16">CDN全日志</tspan>
                <tspan x="21" y="30">中心</tspan>
            </text>
        </g>
        <g id="分组-8-copy-16" transform="translate(385.000000, 53.000000)">
            <rect id="Rectangle-3-Copy-11" stroke="#A1CAFF" fill="#E1EDFF" x="0.5" y="0.5" width="61" height="37" rx="3"></rect>
            <text id="CDN控制-管理中心" font-family="PingFangSC-Regular, PingFang SC" font-size="10" font-weight="normal" fill="#001B47">
                <tspan x="10.235" y="16">CDN控制</tspan>
                <tspan x="11" y="30">管理中心</tspan>
            </text>
        </g>
        <g id="分组-8-copy-17" transform="translate(318.000000, 192.000000)">
            <rect id="Rectangle-3-Copy-11" stroke="#A1CAFF" fill="#E1EDFF" x="0.5" y="0.5" width="61" height="37" rx="3"></rect>
            <text id="CDN-HTTPS-证书管理中心" font-family="PingFangSC-Regular, PingFang SC" font-size="9" font-weight="normal" fill="#001B47">
                <tspan x="5.269" y="16">CDN HTTPS</tspan>
                <tspan x="4" y="29">证书管理中心</tspan>
            </text>
        </g>
        <g id="分组-3-copy-4" transform="translate(0.000000, 83.000000)">
            <rect id="Rectangle-3-Copy-12" fill="#A1CAFF" x="0" y="0" width="46" height="74" rx="3"></rect>
            <rect id="Rectangle-Copy-72" fill="#3261AF" x="10" y="10" width="26" height="26" rx="3"></rect>
            <text id="客户-源站" font-family="PingFangSC-Regular, PingFang SC" font-size="12" font-weight="normal" fill="#001B47">
                <tspan x="11" y="51">客户</tspan>
                <tspan x="11" y="68">源站</tspan>
            </text>
            <g id="分组-3-copy" transform="translate(14.000000, 15.000000)" fill-rule="nonzero">
                <g id="分组-6-copy" fill="#A1CAFF">
                    <g id="分组-2">
                        <g id="分组">
                            <circle id="椭圆形" cx="6.56" cy="3.68" r="3.68"></circle>
                            <path d="M13.12,13.0007734 C13.12,9.00180469 10.182988,5.76 6.56,5.76 C2.93701204,5.76 0,9.00180469 0,13.0007734 C0,16.9997422 13.12,16.9997422 13.12,13.0007734 Z" id="椭圆形-copy"></path>
                        </g>
                    </g>
                </g>
                <rect id="矩形" fill="#FFFFFF" x="10.4" y="12.8" width="6.72" height="1.28"></rect>
                <rect id="矩形-copy-2" fill="#FFFFFF" x="10.4" y="10.4" width="6.72" height="1.28"></rect>
                <rect id="矩形-copy-3" fill="#FFFFFF" x="10.4" y="8" width="6.72" height="1.28"></rect>
            </g>
        </g>
        <text id="请求内容-copy" font-family="PingFangSC-Regular, PingFang SC" font-size="10" font-weight="normal" fill="#001B47">
            <tspan x="474" y="89">请求内容</tspan>
        </text>
        <polygon id="路径-43-copy-6" fill="#A1CAFF" fill-rule="nonzero" transform="translate(303.750635, 211.500000) scale(-1, 1) translate(-303.750635, -211.500000) " points="307.501269 212 291 212 291 211 307.501269 211 307.501269 207 316.501269 211.5 307.501269 216 307.501269 212"></polygon>
        <polygon id="路径-43-copy-7" fill="#A1CAFF" fill-rule="nonzero" transform="translate(303.750635, 168.500000) scale(-1, 1) translate(-303.750635, -168.500000) " points="307.501269 169 291 169 291 168 307.501269 168 307.501269 164 316.501269 168.5 307.501269 173 307.501269 169"></polygon>
        <polygon id="路径-43-copy-11" fill="#A1CAFF" fill-rule="nonzero" transform="translate(399.712094, 168.500000) scale(-1, 1) translate(-399.712094, -168.500000) " points="408.425457 169 381.998731 169 381.998731 168 408.425457 168 408.425457 164 417.425457 168.5 408.425457 173 408.425457 169"></polygon>
        <polygon id="路径-43-copy-8" fill="#A1CAFF" fill-rule="nonzero" transform="translate(303.750635, 125.500000) scale(-1, 1) translate(-303.750635, -125.500000) " points="307.501269 126 291 126 291 125 307.501269 125 307.501269 121 316.501269 125.5 307.501269 130 307.501269 126"></polygon>
        <polygon id="路径-43-copy-12" fill="#A1CAFF" fill-rule="nonzero" transform="translate(399.745497, 125.500000) scale(-1, 1) translate(-399.745497, -125.500000) " points="408.492264 126 381.998731 126 381.998731 125 408.492264 125 408.492264 121 417.492264 125.5 408.492264 130 408.492264 126"></polygon>
        <polygon id="路径-43-copy-9" fill="#A1CAFF" fill-rule="nonzero" transform="translate(303.750635, 73.500000) scale(-1, 1) translate(-303.750635, -73.500000) " points="307.501269 74 291 74 291 73 307.501269 73 307.501269 69 316.501269 73.5 307.501269 78 307.501269 74"></polygon>
        <polygon id="路径-43-copy-10" fill="#A1CAFF" fill-rule="nonzero" transform="translate(303.750635, 29.500000) scale(-1, 1) translate(-303.750635, -29.500000) " points="307.501269 30 291 30 291 29 307.501269 29 307.501269 25 316.501269 29.5 307.501269 34 307.501269 30"></polygon>
        <path d="M190,113 L190,129 L189,129 L189,112 L189,110 L192,113 L190,113 Z M186,126 L186,110 L187,110 L187,127 L187,129 L184,126 L186,126 Z" id="合并形状" fill="#3261AF" fill-rule="nonzero" transform="translate(188.000000, 119.500000) rotate(-90.000000) translate(-188.000000, -119.500000) "></path>
        <path d="M106,122 L51,122 L51,121 L107,121 L109,121 L106,124 L106,122 Z M54,118 L109,118 L109,119 L53,119 L51,119 L54,116 L54,118 Z" id="合并形状" fill="#3261AF" fill-rule="nonzero"></path>
        <polygon id="路径-43-copy-8" fill="#A1CAFF" fill-rule="nonzero" transform="translate(349.500000, 98.642052) scale(-1, 1) rotate(-270.000000) translate(-349.500000, -98.642052) " points="342.857948 99.1420517 342.857948 98.1420517 347.142052 98.1420517 347.142052 94.1420517 356.142052 98.6420517 347.142052 103.142052 347.142052 99.1420517"></polygon>
        <text id="缓存并返回内容给客户" font-family="PingFangSC-Regular, PingFang SC" font-size="10" font-weight="normal" fill="#001B47">
            <tspan x="415" y="114">缓存并返回内容给客户</tspan>
        </text>
    </g>
</svg>