<?xml version="1.0" encoding="UTF-8"?>
<svg width="580px" height="240px" viewBox="0 0 580 240" version="1.1" xmlns="http://www.w3.org/2000/svg" xmlns:xlink="http://www.w3.org/1999/xlink">
    <!-- Generator: Sketch 52 (66869) - http://www.bohemiancoding.com/sketch -->
    <title>CDN产品应用场景 下载加速</title>
    <desc>Created with Sketch.</desc>
    <defs>
        <rect id="path-1" x="0" y="0" width="62" height="38" rx="3"></rect>
        <mask id="mask-2" maskContentUnits="userSpaceOnUse" maskUnits="objectBoundingBox" x="0" y="0" width="62" height="38" fill="white">
            <use xlink:href="#path-1"></use>
        </mask>
    </defs>
    <g id="CDN产品应用场景-下载加速" stroke="none" stroke-width="1" fill="none" fill-rule="evenodd">
        <path d="M89,9.1038288e-15 L89,1 L87,1 L87,9.1038288e-15 L89,9.1038288e-15 Z M86.7355275,1.01721706 C86.2802544,1.07706814 85.8635502,1.29217706 85.5491129,1.62342735 L84.8238397,0.934966169 C85.2850894,0.449053484 85.9073681,0.117484399 86.605187,0.0257477662 L86.7355275,1.01721706 Z" id="Rectangle-3-Copy-12" fill="#A1CAFF" fill-rule="nonzero"></path>
        <path id="路径-46" d="M394,29.5 L417.958369,29.5 L418.458369,29.5 L418.458369,30 L418.458369,177.776604 L418.458369,178.276604 L417.958369,178.276604 L393,178.276604 L393,182.276604 L384,177.776604 L393,173.276604 L393,177.276604 L417.458369,177.276604 L417.458369,30.5 L394,30.5 L394,34.5 L385,30 L394,25.5 L394,29.5 Z" fill="#A1CAFF" fill-rule="nonzero"></path>
        <polygon id="路径-43-copy-4" fill="#3261AF" fill-rule="nonzero" transform="translate(304.642052, 135.500000) scale(-1, 1) translate(-304.642052, -135.500000) " points="307.284103 136 293 136 293 135 307.284103 135 307.284103 131 316.284103 135.5 307.284103 140 307.284103 136"></polygon>
        <polygon id="路径-43-copy-6" fill="#A1CAFF" fill-rule="nonzero" transform="translate(304.642052, 29.500000) scale(-1, 1) translate(-304.642052, -29.500000) " points="307.284103 30 293 30 293 29 307.284103 29 307.284103 25 316.284103 29.5 307.284103 34 307.284103 30"></polygon>
        <polygon id="路径-43-copy-5" fill="#A1CAFF" fill-rule="nonzero" transform="translate(304.642052, 177.500000) scale(-1, 1) translate(-304.642052, -177.500000) " points="307.284103 178 293 178 293 177 307.284103 177 307.284103 173 316.284103 177.5 307.284103 182 307.284103 178"></polygon>
        <polygon id="路径-43-copy-7" fill="#A1CAFF" fill-rule="nonzero" transform="translate(304.642052, 76.500000) scale(-1, 1) translate(-304.642052, -76.500000) " points="307.284103 77 293 77 293 76 307.284103 76 307.284103 72 316.284103 76.5 307.284103 81 307.284103 77"></polygon>
        <polygon id="路径-43-copy-8" fill="#A1CAFF" fill-rule="nonzero" transform="translate(349.500000, 103.642052) scale(-1, 1) rotate(-270.000000) translate(-349.500000, -103.642052) " points="352.142052 104.142052 337.857948 104.142052 337.857948 103.142052 352.142052 103.142052 352.142052 99.1420517 361.142052 103.642052 352.142052 108.142052 352.142052 104.142052"></polygon>
        <path d="M97,10 L287,10 C288.656854,10 290,11.3431458 290,13 L290,204 C290,205.656854 288.656854,207 287,207 L97,207 C95.3431458,207 94,205.656854 94,204 L94,13 C94,11.3431458 95.3431458,10 97,10 Z" id="Rectangle-3-Copy-13" fill="#E1EDFF"></path>
        <text id="CDN父集群" font-family="PingFangSC-Regular, PingFang SC" font-size="12" font-weight="normal" fill="#001B47">
            <tspan x="111.582" y="28">CDN父集群</tspan>
        </text>
        <text id="请求-内容" font-family="PingFangSC-Regular, PingFang SC" font-size="12" font-weight="normal" fill="#001B47">
            <tspan x="54" y="68">请求</tspan>
            <tspan x="54" y="85">内容</tspan>
        </text>
        <text id="源站-返回-内容" font-family="PingFangSC-Regular, PingFang SC" font-size="12" font-weight="normal" fill="#001B47">
            <tspan x="54" y="122">源站</tspan>
            <tspan x="54" y="139">返回</tspan>
            <tspan x="54" y="156">内容</tspan>
        </text>
        <text id="CDN父节点" font-family="PingFangSC-Regular, PingFang SC" font-size="10" font-weight="normal" fill="#001B47">
            <tspan x="116.235" y="86">CDN父节点</tspan>
        </text>
        <text id="CDN边缘点" font-family="PingFangSC-Regular, PingFang SC" font-size="10" font-weight="normal" fill="#001B47">
            <tspan x="210.235" y="86">CDN边缘点</tspan>
        </text>
        <text id="CDN父节点" font-family="PingFangSC-Regular, PingFang SC" font-size="10" font-weight="normal" fill="#001B47">
            <tspan x="116.235" y="140">CDN父节点</tspan>
        </text>
        <text id="CDN边缘点" font-family="PingFangSC-Regular, PingFang SC" font-size="10" font-weight="normal" fill="#001B47">
            <tspan x="210.235" y="140">CDN边缘点</tspan>
        </text>
        <text id="CDN父节点" font-family="PingFangSC-Regular, PingFang SC" font-size="10" font-weight="normal" fill="#001B47">
            <tspan x="116.235" y="194">CDN父节点</tspan>
        </text>
        <text id="CDN边缘点" font-family="PingFangSC-Regular, PingFang SC" font-size="10" font-weight="normal" fill="#001B47">
            <tspan x="210.235" y="194">CDN边缘点</tspan>
        </text>
        <text id="CDN边缘集群" font-family="PingFangSC-Regular, PingFang SC" font-size="12" font-weight="normal" fill="#001B47">
            <tspan x="198.582" y="28">CDN边缘集群</tspan>
        </text>
        <rect id="Rectangle-3-Copy-10" stroke="#A1CAFF" x="106.5" y="35.5" width="71" height="166" rx="3"></rect>
        <rect id="Rectangle-3-Copy-11" stroke="#A1CAFF" x="200.5" y="35.5" width="71" height="166" rx="3"></rect>
        <rect id="Rectangle-Copy-66" stroke="#A1CAFF" fill="#FFFFFF" x="114.5" y="40.5" width="55" height="29" rx="3"></rect>
        <g id="Group-Copy" transform="translate(132.000000, 45.000000)">
            <polygon id="Triangle" stroke="#3261AF" points="10.4 1.6 18.4 17.6 2.4 17.6"></polygon>
            <circle id="Oval" fill="#A1CAFF" cx="10.4" cy="2.4" r="2.4"></circle>
            <circle id="Oval-Copy" fill="#A1CAFF" cx="2.4" cy="17.6" r="2.4"></circle>
            <circle id="Oval-Copy-2" fill="#A1CAFF" cx="18.4" cy="17.6" r="2.4"></circle>
        </g>
        <rect id="Rectangle-Copy-69" stroke="#A1CAFF" fill="#FFFFFF" x="208.5" y="40.5" width="55" height="29" rx="3"></rect>
        <rect id="Rectangle-Copy-67" stroke="#A1CAFF" fill="#FFFFFF" x="114.5" y="94.5" width="55" height="29" rx="3"></rect>
        <rect id="Rectangle-Copy-70" stroke="#A1CAFF" fill="#FFFFFF" x="208.5" y="94.5" width="55" height="29" rx="3"></rect>
        <rect id="Rectangle-Copy-68" stroke="#88B6F2" fill="#FFFFFF" x="114.5" y="148.5" width="55" height="29" rx="3"></rect>
        <rect id="Rectangle-Copy-71" stroke="#A1CAFF" fill="#FFFFFF" x="208.5" y="148.5" width="55" height="29" rx="3"></rect>
        <g id="Group-Copy-2" transform="translate(132.000000, 99.000000)">
            <polygon id="Triangle" stroke="#3261AF" points="10.4 1.6 18.4 17.6 2.4 17.6"></polygon>
            <circle id="Oval" fill="#A1CAFF" cx="10.4" cy="2.4" r="2.4"></circle>
            <circle id="Oval-Copy" fill="#A1CAFF" cx="2.4" cy="17.6" r="2.4"></circle>
            <circle id="Oval-Copy-2" fill="#A1CAFF" cx="18.4" cy="17.6" r="2.4"></circle>
        </g>
        <g id="Group-Copy-3" transform="translate(132.000000, 153.000000)">
            <polygon id="Triangle" stroke="#3261AF" points="10.4 1.6 18.4 17.6 2.4 17.6"></polygon>
            <circle id="Oval" fill="#A1CAFF" cx="10.4" cy="2.4" r="2.4"></circle>
            <circle id="Oval-Copy" fill="#A1CAFF" cx="2.4" cy="17.6" r="2.4"></circle>
            <circle id="Oval-Copy-2" fill="#A1CAFF" cx="18.4" cy="17.6" r="2.4"></circle>
        </g>
        <g id="Group-Copy-4" transform="translate(225.000000, 45.000000)">
            <polygon id="Triangle" stroke="#3261AF" points="10.4 1.6 18.4 17.6 2.4 17.6"></polygon>
            <circle id="Oval" fill="#A1CAFF" cx="10.4" cy="2.4" r="2.4"></circle>
            <circle id="Oval-Copy" fill="#A1CAFF" cx="2.4" cy="17.6" r="2.4"></circle>
            <circle id="Oval-Copy-2" fill="#A1CAFF" cx="18.4" cy="17.6" r="2.4"></circle>
        </g>
        <g id="Group-Copy-5" transform="translate(225.000000, 99.000000)">
            <polygon id="Triangle" stroke="#3261AF" points="10.4 1.6 18.4 17.6 2.4 17.6"></polygon>
            <circle id="Oval" fill="#A1CAFF" cx="10.4" cy="2.4" r="2.4"></circle>
            <circle id="Oval-Copy" fill="#A1CAFF" cx="2.4" cy="17.6" r="2.4"></circle>
            <circle id="Oval-Copy-2" fill="#A1CAFF" cx="18.4" cy="17.6" r="2.4"></circle>
        </g>
        <g id="Group-Copy-6" transform="translate(225.000000, 153.000000)">
            <polygon id="Triangle" stroke="#3261AF" points="10.4 1.6 18.4 17.6 2.4 17.6"></polygon>
            <circle id="Oval" fill="#A1CAFF" cx="10.4" cy="2.4" r="2.4"></circle>
            <circle id="Oval-Copy" fill="#A1CAFF" cx="2.4" cy="17.6" r="2.4"></circle>
            <circle id="Oval-Copy-2" fill="#A1CAFF" cx="18.4" cy="17.6" r="2.4"></circle>
        </g>
        <g id="分组-8-copy-6" transform="translate(319.000000, 10.000000)">
            <rect id="Rectangle-3-Copy-11" stroke="#A1CAFF" fill="#E1EDFF" x="0.5" y="0.5" width="61" height="37" rx="3"></rect>
            <text id="CDN全实时-配置中心" font-family="PingFangSC-Regular, PingFang SC" font-size="10" font-weight="normal" fill="#001B47">
                <tspan x="5.235" y="16">CDN全实时</tspan>
                <tspan x="11" y="30">配置中心</tspan>
            </text>
        </g>
        <g id="分组-8-copy-11" transform="translate(453.000000, 124.000000)">
            <rect id="Rectangle-3-Copy-11" stroke="#A1CAFF" fill="#E1EDFF" x="0.5" y="0.5" width="61" height="80" rx="3"></rect>
            <text id="DOLFIN智能-流量调度中心" font-family="PingFangSC-Regular, PingFang SC" font-size="10" font-weight="normal" fill="#001B47">
                <tspan x="3.03" y="59">DOLFIN智能</tspan>
                <tspan x="1" y="73">流量调度中心</tspan>
            </text>
            <rect id="矩形" stroke="#A1CAFF" fill="#FFFFFF" x="18.5" y="17.5" width="25" height="25" rx="3"></rect>
        </g>
        <g id="分组-8-copy-8" transform="translate(319.000000, 116.000000)">
            <use id="Rectangle-3-Copy-11" stroke="#3261AF" mask="url(#mask-2)" stroke-width="2" fill="#E1EDFF" stroke-dasharray="2" xlink:href="#path-1"></use>
            <text id="CDN预热-控制中心" font-family="PingFangSC-Regular, PingFang SC" font-size="10" font-weight="normal" fill="#001B47">
                <tspan x="10.235" y="16">CDN预热</tspan>
                <tspan x="11" y="30">控制中心</tspan>
            </text>
        </g>
        <g id="分组-8-copy-7" transform="translate(319.000000, 53.000000)">
            <rect id="Rectangle-3-Copy-11" stroke="#A1CAFF" fill="#E1EDFF" x="0.5" y="0.5" width="61" height="37" rx="3"></rect>
            <text id="CDN全日志-中心" font-family="PingFangSC-Regular, PingFang SC" font-size="10" font-weight="normal" fill="#001B47">
                <tspan x="5.235" y="16">CDN全日志</tspan>
                <tspan x="21" y="30">中心</tspan>
            </text>
        </g>
        <g id="分组-8-copy-10" transform="translate(386.000000, 53.000000)">
            <rect id="Rectangle-3-Copy-11" stroke="#A1CAFF" fill="#E1EDFF" x="0.5" y="0.5" width="61" height="37" rx="3"></rect>
            <text id="CDN控制-管理中心" font-family="PingFangSC-Regular, PingFang SC" font-size="10" font-weight="normal" fill="#001B47">
                <tspan x="10.235" y="16">CDN控制</tspan>
                <tspan x="11" y="30">管理中心</tspan>
            </text>
        </g>
        <g id="分组-8-copy-9" transform="translate(319.000000, 159.000000)">
            <rect id="Rectangle-3-Copy-11" stroke="#A1CAFF" fill="#E1EDFF" x="0.5" y="0.5" width="61" height="37" rx="3"></rect>
            <text id="CDN全立体-监控中心" font-family="PingFangSC-Regular, PingFang SC" font-size="10" font-weight="normal" fill="#001B47">
                <tspan x="5.235" y="16">CDN全立体</tspan>
                <tspan x="11" y="30">监控中心</tspan>
            </text>
        </g>
        <path d="M191,103 L191,119 L190,119 L190,102 L190,100 L193,103 L191,103 Z M187,116 L187,100 L188,100 L188,117 L188,119 L185,116 L187,116 Z" id="合并形状" fill="#3261AF" fill-rule="nonzero" transform="translate(189.000000, 109.500000) rotate(-90.000000) translate(-189.000000, -109.500000) "></path>
        <path d="M106,102 L51,102 L51,101 L107,101 L109,101 L106,104 L106,102 Z M54,98 L109,98 L109,99 L53,99 L51,99 L54,96 L54,98 Z" id="合并形状" fill="#3261AF" fill-rule="nonzero"></path>
        <path d="M403.5,225.5 L403.5,-23.5 L404.5,-23.5 L404.5,226.5 L404.5,228.5 L401.5,225.5 L403.5,225.5 Z" id="合并形状" fill="#3261AF" fill-rule="nonzero" transform="translate(403.000000, 102.500000) rotate(-90.000000) translate(-403.000000, -102.500000) "></path>
        <path d="M403.5,220.5 L403.5,-28.5 L404.5,-28.5 L404.5,221.5 L404.5,223.5 L401.5,220.5 L403.5,220.5 Z" id="合并形状-copy-2" fill="#3261AF" fill-rule="nonzero" transform="translate(403.000000, 97.500000) scale(-1, -1) rotate(-90.000000) translate(-403.000000, -97.500000) "></path>
        <g id="分组-3" transform="translate(0.000000, 63.000000)">
            <rect id="Rectangle-3-Copy-12" fill="#A1CAFF" x="0" y="0" width="46" height="74" rx="3"></rect>
            <rect id="Rectangle-Copy-72" fill="#3261AF" x="10" y="10" width="26" height="26" rx="3"></rect>
            <text id="客户-源站" font-family="PingFangSC-Regular, PingFang SC" font-size="12" font-weight="normal" fill="#001B47">
                <tspan x="11" y="51">客户</tspan>
                <tspan x="11" y="68">源站</tspan>
            </text>
            <g id="分组-3-copy" transform="translate(14.000000, 15.000000)" fill-rule="nonzero">
                <g id="分组-6-copy" fill="#A1CAFF">
                    <g id="分组-2">
                        <g id="分组">
                            <circle id="椭圆形" cx="6.56" cy="3.68" r="3.68"></circle>
                            <path d="M13.12,13.0007734 C13.12,9.00180469 10.182988,5.76 6.56,5.76 C2.93701204,5.76 0,9.00180469 0,13.0007734 C0,16.9997422 13.12,16.9997422 13.12,13.0007734 Z" id="椭圆形-copy"></path>
                        </g>
                    </g>
                </g>
                <rect id="矩形" fill="#FFFFFF" x="10.4" y="12.8" width="6.72" height="1.28"></rect>
                <rect id="矩形-copy-2" fill="#FFFFFF" x="10.4" y="10.4" width="6.72" height="1.28"></rect>
                <rect id="矩形-copy-3" fill="#FFFFFF" x="10.4" y="8" width="6.72" height="1.28"></rect>
            </g>
        </g>
        <g id="分组-4" transform="translate(534.000000, 45.000000)">
            <g id="分组-3-copy-2">
                <rect id="Rectangle-3-Copy-12" fill="#A1CAFF" x="0" y="0" width="46" height="65" rx="3"></rect>
                <rect id="Rectangle-Copy-72" fill="#3261AF" x="10" y="10" width="26" height="26" rx="3"></rect>
                <text id="用户" font-family="PingFangSC-Regular, PingFang SC" font-size="12" font-weight="normal" fill="#001B47">
                    <tspan x="11" y="51">用户</tspan>
                </text>
            </g>
            <g id="Group-3" transform="translate(16.000000, 15.000000)">
                <path d="M15.3136552,12.5144276 L3.66455172,12.5144276 C3.296,12.5144276 3.0102069,12.1960828 3.04551724,11.8313931 C3.32468966,9.18201379 5.20165517,7.00766897 7.69048276,6.29263448 C6.82151724,5.71001379 6.24937931,4.72297931 6.24937931,3.60022069 C6.24937931,1.5798069 8.09434483,-0.00419310345 10.1897931,0.435531034 C10.3183448,0.46422069 10.4402759,0.496772414 10.5616552,0.539255172 C10.9588966,0.675531034 11.3197241,0.8896 11.6308966,1.1616 C12.1384828,1.60518621 12.5031724,2.20546207 12.649931,2.87801379 C12.918069,4.12932414 12.464,5.28794483 11.6270345,6.02835862 C11.52,6.12491034 11.4057931,6.21042759 11.2838621,6.29263448 C11.3986207,6.32463448 11.5128276,6.36049655 11.6270345,6.40353103 C13.9481379,7.2118069 15.664,9.3033931 15.9288276,11.8313931 C15.968,12.1960828 15.6783448,12.5144276 15.3136552,12.5144276 Z" id="Fill-43" fill="#FFFFFF"></path>
                <path d="M13.3702621,15.1190069 C13.4094345,15.4836966 13.1197793,15.8020414 12.7550897,15.8020414 L1.10598621,15.8020414 C0.737434483,15.8020414 0.451641379,15.4836966 0.486951724,15.1190069 C0.766124138,12.4696276 2.64308966,10.2952828 5.13191724,9.58024828 C4.26295172,8.99762759 3.69081379,8.0105931 3.69081379,6.88783448 C3.69081379,4.86742069 5.53577931,3.28342069 7.63122759,3.72314483 C7.75977931,3.75183448 7.88171034,3.78438621 8.00308966,3.82686897 C8.40033103,3.96314483 8.76115862,4.17721379 9.07233103,4.44921379 C9.57991724,4.8928 9.9446069,5.49307586 10.0913655,6.16562759 C10.3595034,7.41693793 9.90543448,8.57555862 9.06846897,9.31597241 C8.96143448,9.41252414 8.84722759,9.49804138 8.72529655,9.58024828 C8.84005517,9.61224828 8.95426207,9.64811034 9.06846897,9.69114483 C11.3895724,10.4994207 13.1054345,12.5910069 13.3702621,15.1190069" id="Fill-44" fill="#A1CAFF"></path>
                <path d="M6.9289931,10.8752 L6.9289931,13.4489931" id="Stroke-45" stroke="#FFFFFF" stroke-linecap="round"></path>
            </g>
        </g>
        <g id="分组-5" transform="translate(478.000000, 147.000000)" fill-rule="nonzero">
            <polygon id="矩形" fill="#A1CAFF" transform="translate(5.939697, 5.939697) rotate(-315.000000) translate(-5.939697, -5.939697) " points="1.73969696 1.73969696 10.139697 1.73969696 1.73969696 10.139697"></polygon>
            <polygon id="矩形-copy-4" fill="#3261AF" transform="translate(5.939697, 8.806364) scale(1, -1) rotate(-315.000000) translate(-5.939697, -8.806364) " points="1.73969696 4.60636363 10.139697 4.60636363 1.73969696 13.0063636"></polygon>
        </g>
        <text id="请求内容" font-family="PingFangSC-Regular, PingFang SC" font-size="10" font-weight="normal" fill="#001B47">
            <tspan x="475" y="93">请求内容</tspan>
        </text>
        <text id="缓存并返回内容给客户" font-family="PingFangSC-Regular, PingFang SC" font-size="10" font-weight="normal" fill="#001B47">
            <tspan x="415" y="116">缓存并返回内容给客户</tspan>
        </text>
        <polygon id="路径-47" fill="#3261AF" fill-rule="nonzero" points="23.5 222.776604 443.346326 222.776604 443.346326 135.5 393.766257 135.5 393.766257 139.5 384.766257 135 393.766257 130.5 393.766257 134.5 443.846326 134.5 444.346326 134.5 444.346326 135 444.346326 223.276604 444.346326 223.776604 443.846326 223.776604 23 223.776604 22.5 223.776604 22.5 223.276604 22.5 150.5 18.5 150.5 23 141.5 27.5 150.5 23.5 150.5"></polygon>
        <path d="M87,1.5 L87,0.5 L89,0.5 L89,1.5 L87,1.5 Z M91,1.5 L91,0.5 L93,0.5 L93,1.5 L91,1.5 Z M95,1.5 L95,0.5 L97,0.5 L97,1.5 L95,1.5 Z M99,1.5 L99,0.5 L101,0.5 L101,1.5 L99,1.5 Z M103,1.5 L103,0.5 L105,0.5 L105,1.5 L103,1.5 Z M107,1.5 L107,0.5 L109,0.5 L109,1.5 L107,1.5 Z M111,1.5 L111,0.5 L113,0.5 L113,1.5 L111,1.5 Z M115,1.5 L115,0.5 L117,0.5 L117,1.5 L115,1.5 Z M119,1.5 L119,0.5 L121,0.5 L121,1.5 L119,1.5 Z M123,1.5 L123,0.5 L125,0.5 L125,1.5 L123,1.5 Z M127,1.5 L127,0.5 L129,0.5 L129,1.5 L127,1.5 Z M131,1.5 L131,0.5 L133,0.5 L133,1.5 L131,1.5 Z M135,1.5 L135,0.5 L137,0.5 L137,1.5 L135,1.5 Z M139,1.5 L139,0.5 L141,0.5 L141,1.5 L139,1.5 Z M143,1.5 L143,0.5 L145,0.5 L145,1.5 L143,1.5 Z M147,1.5 L147,0.5 L149,0.5 L149,1.5 L147,1.5 Z M151,1.5 L151,0.5 L153,0.5 L153,1.5 L151,1.5 Z M155,1.5 L155,0.5 L157,0.5 L157,1.5 L155,1.5 Z M159,1.5 L159,0.5 L161,0.5 L161,1.5 L159,1.5 Z M163,1.5 L163,0.5 L165,0.5 L165,1.5 L163,1.5 Z M167,1.5 L167,0.5 L169,0.5 L169,1.5 L167,1.5 Z M171,1.5 L171,0.5 L173,0.5 L173,1.5 L171,1.5 Z M175,1.5 L175,0.5 L177,0.5 L177,1.5 L175,1.5 Z M179,1.5 L179,0.5 L181,0.5 L181,1.5 L179,1.5 Z M183,1.5 L183,0.5 L185,0.5 L185,1.5 L183,1.5 Z M187,1.5 L187,0.5 L189,0.5 L189,1.5 L187,1.5 Z M191,1.5 L191,0.5 L193,0.5 L193,1.5 L191,1.5 Z M195,1.5 L195,0.5 L197,0.5 L197,1.5 L195,1.5 Z M199,1.5 L199,0.5 L201,0.5 L201,1.5 L199,1.5 Z M203,1.5 L203,0.5 L205,0.5 L205,1.5 L203,1.5 Z M207,1.5 L207,0.5 L209,0.5 L209,1.5 L207,1.5 Z M211,1.5 L211,0.5 L213,0.5 L213,1.5 L211,1.5 Z M215,1.5 L215,0.5 L217,0.5 L217,1.5 L215,1.5 Z M219,1.5 L219,0.5 L221,0.5 L221,1.5 L219,1.5 Z M223,1.5 L223,0.5 L225,0.5 L225,1.5 L223,1.5 Z M227,1.5 L227,0.5 L229,0.5 L229,1.5 L227,1.5 Z M231,1.5 L231,0.5 L233,0.5 L233,1.5 L231,1.5 Z M235,1.5 L235,0.5 L237,0.5 L237,1.5 L235,1.5 Z M239,1.5 L239,0.5 L241,0.5 L241,1.5 L239,1.5 Z M243,1.5 L243,0.5 L245,0.5 L245,1.5 L243,1.5 Z M247,1.5 L247,0.5 L249,0.5 L249,1.5 L247,1.5 Z M251,1.5 L251,0.5 L253,0.5 L253,1.5 L251,1.5 Z M255,1.5 L255,0.5 L257,0.5 L257,1.5 L255,1.5 Z M259,1.5 L259,0.5 L261,0.5 L261,1.5 L259,1.5 Z M263,1.5 L263,0.5 L265,0.5 L265,1.5 L263,1.5 Z M267,1.5 L267,0.5 L269,0.5 L269,1.5 L267,1.5 Z M271,1.5 L271,0.5 L273,0.5 L273,1.5 L271,1.5 Z M275,1.5 L275,0.5 L277,0.5 L277,1.5 L275,1.5 Z M279,1.5 L279,0.5 L281,0.5 L281,1.5 L279,1.5 Z M283,1.5 L283,0.5 L285,0.5 L285,1.5 L283,1.5 Z M287,1.5 L287,0.5 L289,0.5 L289,1.5 L287,1.5 Z M291,1.5 L291,0.5 L293,0.5 L293,1.5 L291,1.5 Z M295,1.5 L295,0.5 L297,0.5 L297,1.5 L295,1.5 Z M299,1.5 L299,0.5 L301,0.5 L301,1.5 L299,1.5 Z M303,1.5 L303,0.5 L305,0.5 L305,1.5 L303,1.5 Z M307,1.5 L307,0.5 L309,0.5 L309,1.5 L307,1.5 Z M311,1.5 L311,0.5 L313,0.5 L313,1.5 L311,1.5 Z M315,1.5 L315,0.5 L317,0.5 L317,1.5 L315,1.5 Z M319,1.5 L319,0.5 L321,0.5 L321,1.5 L319,1.5 Z M323,1.5 L323,0.5 L325,0.5 L325,1.5 L323,1.5 Z M327,1.5 L327,0.5 L329,0.5 L329,1.5 L327,1.5 Z M331,1.5 L331,0.5 L333,0.5 L333,1.5 L331,1.5 Z M335,1.5 L335,0.5 L337,0.5 L337,1.5 L335,1.5 Z M339,1.5 L339,0.5 L341,0.5 L341,1.5 L339,1.5 Z M343,1.5 L343,0.5 L345,0.5 L345,1.5 L343,1.5 Z M347,1.5 L347,0.5 L349,0.5 L349,1.5 L347,1.5 Z M351,1.5 L351,0.5 L353,0.5 L353,1.5 L351,1.5 Z M355,1.5 L355,0.5 L357,0.5 L357,1.5 L355,1.5 Z M359,1.5 L359,0.5 L361,0.5 L361,1.5 L359,1.5 Z M363,1.5 L363,0.5 L365,0.5 L365,1.5 L363,1.5 Z M367,1.5 L367,0.5 L369,0.5 L369,1.5 L367,1.5 Z M371,1.5 L371,0.5 L373,0.5 L373,1.5 L371,1.5 Z M375,1.5 L375,0.5 L377,0.5 L377,1.5 L375,1.5 Z M379,1.5 L379,0.5 L381,0.5 L381,1.5 L379,1.5 Z M383,1.5 L383,0.5 L385,0.5 L385,1.5 L383,1.5 Z M387,1.5 L387,0.5 L389,0.5 L389,1.5 L387,1.5 Z M391,1.5 L391,0.5 L393,0.5 L393,1.5 L391,1.5 Z M395,1.5 L395,0.5 L397,0.5 L397,1.5 L395,1.5 Z M399,1.5 L399,0.5 L401,0.5 L401,1.5 L399,1.5 Z M403,1.5 L403,0.5 L405,0.5 L405,1.5 L403,1.5 Z M407,1.5 L407,0.5 L409,0.5 L409,1.5 L407,1.5 Z M411,1.5 L411,0.5 L413,0.5 L413,1.5 L411,1.5 Z M415,1.5 L415,0.5 L417,0.5 L417,1.5 L415,1.5 Z M419,1.5 L419,0.5 L421,0.5 L421,1.5 L419,1.5 Z M423,1.5 L423,0.5 L425,0.5 L425,1.5 L423,1.5 Z M427,1.5 L427,0.5 L429,0.5 L429,1.5 L427,1.5 Z M431,1.5 L431,0.5 L433,0.5 L433,1.5 L431,1.5 Z M435,1.5 L435,0.5 L437,0.5 L437,1.5 L435,1.5 Z M439,1.5 L439,0.5 L441,0.5 L441,1.5 L439,1.5 Z M443,1.5 L443,0.5 L445,0.5 L445,1.5 L443,1.5 Z M447,1.5 L447,0.5 L449,0.5 L449,1.5 L447,1.5 Z M451,1.5 L451,0.5 L453,0.5 L453,1.5 L451,1.5 Z M455,1.5 L455,0.5 L457,0.5 L457,1.5 L455,1.5 Z M459,1.5 L459,0.5 L461,0.5 L461,1.5 L459,1.5 Z M463,1.5 L463,0.5 L465,0.5 L465,1.5 L463,1.5 Z M467,1.5 L467,0.5 L469,0.5 L469,1.5 L467,1.5 Z M471,1.5 L471,0.5 L473,0.5 L473,1.5 L471,1.5 Z M475,1.5 L475,0.5 L477,0.5 L477,1.5 L475,1.5 Z M479,1.5 L479,0.5 L481,0.5 L481,1.5 L479,1.5 Z M483,1.5 L483,0.5 L485,0.5 L485,1.5 L483,1.5 Z M487,1.5 L487,0.5 L489,0.5 L489,1.5 L487,1.5 Z M491,1.5 L491,0.5 L493,0.5 L493,1.5 L491,1.5 Z M495,1.5 L495,0.5 L497,0.5 L497,1.5 L495,1.5 Z M499,1.5 L499,0.5 L501,0.5 L501,1.5 L499,1.5 Z M503,1.5 L503,0.5 L505,0.5 L505,1.5 L503,1.5 Z M507,1.5 L507,0.5 L509,0.5 L509,1.5 L507,1.5 Z M511,1.5 L511,0.5 L513,0.5 L513,1.5 L511,1.5 Z M515,1.5 L515,0.5 L518,0.5 L518,1.5 L517,1.5 L515,1.5 Z M518.57121,2.05531426 L519.200238,1.27793133 C519.820705,1.77998866 520.254879,2.48017493 520.422708,3.2655549 L519.444787,3.4745294 C519.325124,2.91455032 519.014992,2.41440534 518.57121,2.05531426 Z M519.5,5.40779881 L520.5,5.40779881 L520.5,7.40779881 L519.5,7.40779881 L519.5,5.40779881 Z M519.5,9.40779881 L520.5,9.40779881 L520.5,11.4077988 L519.5,11.4077988 L519.5,9.40779881 Z M519.5,13.4077988 L520.5,13.4077988 L520.5,15.4077988 L519.5,15.4077988 L519.5,13.4077988 Z M519.5,17.4077988 L520.5,17.4077988 L520.5,19.4077988 L519.5,19.4077988 L519.5,17.4077988 Z M519.5,21.4077988 L520.5,21.4077988 L520.5,23.4077988 L519.5,23.4077988 L519.5,21.4077988 Z M519.5,25.4077988 L520.5,25.4077988 L520.5,27.4077988 L519.5,27.4077988 L519.5,25.4077988 Z M519.5,29.4077988 L520.5,29.4077988 L520.5,31.4077988 L519.5,31.4077988 L519.5,29.4077988 Z M519.5,33.4077988 L520.5,33.4077988 L520.5,35.4077988 L519.5,35.4077988 L519.5,33.4077988 Z M519.5,37.4077988 L520.5,37.4077988 L520.5,39.4077988 L519.5,39.4077988 L519.5,37.4077988 Z M519.5,41.4077988 L520.5,41.4077988 L520.5,43.4077988 L519.5,43.4077988 L519.5,41.4077988 Z M519.5,45.4077988 L520.5,45.4077988 L520.5,47.4077988 L519.5,47.4077988 L519.5,45.4077988 Z M519.5,49.4077988 L520.5,49.4077988 L520.5,51.4077988 L519.5,51.4077988 L519.5,49.4077988 Z M519.5,53.4077988 L520.5,53.4077988 L520.5,55.4077988 L519.5,55.4077988 L519.5,53.4077988 Z M519.5,57.4077988 L520.5,57.4077988 L520.5,59.4077988 L519.5,59.4077988 L519.5,57.4077988 Z M519.5,61.4077988 L520.5,61.4077988 L520.5,63.4077988 L519.5,63.4077988 L519.5,61.4077988 Z M519.5,65.4077988 L520.5,65.4077988 L520.5,67.4077988 L519.5,67.4077988 L519.5,65.4077988 Z M519.5,69.4077988 L520.5,69.4077988 L520.5,71.4077988 L519.5,71.4077988 L519.5,69.4077988 Z M519.5,73.4077988 L520.5,73.4077988 L520.5,75.4077988 L519.5,75.4077988 L519.5,73.4077988 Z M519.5,77.4077988 L520.5,77.4077988 L520.5,79.4077988 L519.5,79.4077988 L519.5,77.4077988 Z M519.5,81.4077988 L520.5,81.4077988 L520.5,83.4077988 L519.5,83.4077988 L519.5,81.4077988 Z M519.5,85.4077988 L520.5,85.4077988 L520.5,87.4077988 L519.5,87.4077988 L519.5,85.4077988 Z M519.5,89.4077988 L520.5,89.4077988 L520.5,91.4077988 L519.5,91.4077988 L519.5,89.4077988 Z M519.5,93.4077988 L520.5,93.4077988 L520.5,95.4077988 L519.5,95.4077988 L519.5,93.4077988 Z M519.5,97.4077988 L520.5,97.4077988 L520.5,99.4077988 L519.5,99.4077988 L519.5,97.4077988 Z M519.5,101.407799 L520.5,101.407799 L520.5,103.407799 L519.5,103.407799 L519.5,101.407799 Z M519.5,105.407799 L520.5,105.407799 L520.5,107.407799 L519.5,107.407799 L519.5,105.407799 Z M519.5,109.407799 L520.5,109.407799 L520.5,111.407799 L519.5,111.407799 L519.5,109.407799 Z M519.5,113.407799 L520.5,113.407799 L520.5,115.407799 L519.5,115.407799 L519.5,113.407799 Z M519.5,117.407799 L520.5,117.407799 L520.5,119.407799 L519.5,119.407799 L519.5,117.407799 Z M519.5,121.407799 L520.5,121.407799 L520.5,123.407799 L519.5,123.407799 L519.5,121.407799 Z M519.5,125.407799 L520.5,125.407799 L520.5,127.407799 L519.5,127.407799 L519.5,125.407799 Z M519.5,129.407799 L520.5,129.407799 L520.5,131.407799 L519.5,131.407799 L519.5,129.407799 Z M519.5,133.407799 L520.5,133.407799 L520.5,135.407799 L519.5,135.407799 L519.5,133.407799 Z M519.5,137.407799 L520.5,137.407799 L520.5,139.407799 L519.5,139.407799 L519.5,137.407799 Z M519.5,141.407799 L520.5,141.407799 L520.5,143.407799 L519.5,143.407799 L519.5,141.407799 Z M519.5,145.407799 L520.5,145.407799 L520.5,147.407799 L519.5,147.407799 L519.5,145.407799 Z M519.5,149.407799 L520.5,149.407799 L520.5,151.407799 L519.5,151.407799 L519.5,149.407799 Z M519.5,153.407799 L520.5,153.407799 L520.5,155.407799 L519.5,155.407799 L519.5,153.407799 Z M519.5,157.407799 L520.5,157.407799 L520.5,159.407799 L519.5,159.407799 L519.5,157.407799 Z M519.5,161.407799 L520.5,161.407799 L520.5,163.407799 L519.5,163.407799 L519.5,161.407799 Z M519.5,165.407799 L520.5,165.407799 L520.5,167.407799 L519.5,167.407799 L519.5,165.407799 Z M519.5,169.407799 L520.5,169.407799 L520.5,171.407799 L519.5,171.407799 L519.5,169.407799 Z M519.5,173.407799 L520.5,173.407799 L520.5,175.407799 L519.5,175.407799 L519.5,173.407799 Z M519.5,177.407799 L520.5,177.407799 L520.5,179.407799 L519.5,179.407799 L519.5,177.407799 Z M519.5,181.407799 L520.5,181.407799 L520.5,183.407799 L519.5,183.407799 L519.5,181.407799 Z M519.5,185.407799 L520.5,185.407799 L520.5,187.407799 L519.5,187.407799 L519.5,185.407799 Z M519.5,189.407799 L520.5,189.407799 L520.5,191.407799 L519.5,191.407799 L519.5,189.407799 Z M519.5,193.407799 L520.5,193.407799 L520.5,195.407799 L519.5,195.407799 L519.5,193.407799 Z M519.5,197.407799 L520.5,197.407799 L520.5,199.407799 L519.5,199.407799 L519.5,197.407799 Z M519.5,201.407799 L520.5,201.407799 L520.5,203.407799 L519.5,203.407799 L519.5,201.407799 Z M519.5,205.407799 L520.5,205.407799 L520.5,207.407799 L519.5,207.407799 L519.5,205.407799 Z M519.5,209.407799 L520.5,209.407799 L520.5,211.407799 L519.5,211.407799 L519.5,209.407799 Z M519.5,213.407799 L520.5,213.407799 L520.5,215.407799 L519.5,215.407799 L519.5,213.407799 Z M519.5,217.407799 L520.5,217.407799 L520.5,219.407799 L519.5,219.407799 L519.5,217.407799 Z M519.5,221.407799 L520.5,221.407799 L520.5,223.407799 L519.5,223.407799 L519.5,221.407799 Z M519.5,225.407799 L520.5,225.407799 L520.5,227.407799 L519.5,227.407799 L519.5,225.407799 Z M519.5,229.407799 L520.5,229.407799 L520.5,231.407799 L519.5,231.407799 L519.5,229.407799 Z M519.5,233.407799 L520.5,233.407799 L520.5,235.407799 L519.5,235.407799 L519.5,233.407799 Z M519.22554,237.140234 L520.115084,237.597084 C519.750171,238.307615 519.150579,238.875111 518.420297,239.199688 L518.014151,238.285879 C518.535677,238.054085 518.964794,237.647938 519.22554,237.140234 Z M516.184402,238.5 L516.184402,239.5 L514.184402,239.5 L514.184402,238.5 L516.184402,238.5 Z M512.184402,238.5 L512.184402,239.5 L510.184402,239.5 L510.184402,238.5 L512.184402,238.5 Z M508.184402,238.5 L508.184402,239.5 L506.184402,239.5 L506.184402,238.5 L508.184402,238.5 Z M504.184402,238.5 L504.184402,239.5 L502.184402,239.5 L502.184402,238.5 L504.184402,238.5 Z M500.184402,238.5 L500.184402,239.5 L498.184402,239.5 L498.184402,238.5 L500.184402,238.5 Z M496.184402,238.5 L496.184402,239.5 L494.184402,239.5 L494.184402,238.5 L496.184402,238.5 Z M492.184402,238.5 L492.184402,239.5 L490.184402,239.5 L490.184402,238.5 L492.184402,238.5 Z M488.184402,238.5 L488.184402,239.5 L486.184402,239.5 L486.184402,238.5 L488.184402,238.5 Z M484.184402,238.5 L484.184402,239.5 L482.184402,239.5 L482.184402,238.5 L484.184402,238.5 Z M480.184402,238.5 L480.184402,239.5 L478.184402,239.5 L478.184402,238.5 L480.184402,238.5 Z M476.184402,238.5 L476.184402,239.5 L474.184402,239.5 L474.184402,238.5 L476.184402,238.5 Z M472.184402,238.5 L472.184402,239.5 L470.184402,239.5 L470.184402,238.5 L472.184402,238.5 Z M468.184402,238.5 L468.184402,239.5 L466.184402,239.5 L466.184402,238.5 L468.184402,238.5 Z M464.184402,238.5 L464.184402,239.5 L462.184402,239.5 L462.184402,238.5 L464.184402,238.5 Z M460.184402,238.5 L460.184402,239.5 L458.184402,239.5 L458.184402,238.5 L460.184402,238.5 Z M456.184402,238.5 L456.184402,239.5 L454.184402,239.5 L454.184402,238.5 L456.184402,238.5 Z M452.184402,238.5 L452.184402,239.5 L450.184402,239.5 L450.184402,238.5 L452.184402,238.5 Z M448.184402,238.5 L448.184402,239.5 L446.184402,239.5 L446.184402,238.5 L448.184402,238.5 Z M444.184402,238.5 L444.184402,239.5 L442.184402,239.5 L442.184402,238.5 L444.184402,238.5 Z M440.184402,238.5 L440.184402,239.5 L438.184402,239.5 L438.184402,238.5 L440.184402,238.5 Z M436.184402,238.5 L436.184402,239.5 L434.184402,239.5 L434.184402,238.5 L436.184402,238.5 Z M432.184402,238.5 L432.184402,239.5 L430.184402,239.5 L430.184402,238.5 L432.184402,238.5 Z M428.184402,238.5 L428.184402,239.5 L426.184402,239.5 L426.184402,238.5 L428.184402,238.5 Z M424.184402,238.5 L424.184402,239.5 L422.184402,239.5 L422.184402,238.5 L424.184402,238.5 Z M420.184402,238.5 L420.184402,239.5 L418.184402,239.5 L418.184402,238.5 L420.184402,238.5 Z M416.184402,238.5 L416.184402,239.5 L414.184402,239.5 L414.184402,238.5 L416.184402,238.5 Z M412.184402,238.5 L412.184402,239.5 L410.184402,239.5 L410.184402,238.5 L412.184402,238.5 Z M408.184402,238.5 L408.184402,239.5 L406.184402,239.5 L406.184402,238.5 L408.184402,238.5 Z M404.184402,238.5 L404.184402,239.5 L402.184402,239.5 L402.184402,238.5 L404.184402,238.5 Z M400.184402,238.5 L400.184402,239.5 L398.184402,239.5 L398.184402,238.5 L400.184402,238.5 Z M396.184402,238.5 L396.184402,239.5 L394.184402,239.5 L394.184402,238.5 L396.184402,238.5 Z M392.184402,238.5 L392.184402,239.5 L390.184402,239.5 L390.184402,238.5 L392.184402,238.5 Z M388.184402,238.5 L388.184402,239.5 L386.184402,239.5 L386.184402,238.5 L388.184402,238.5 Z M384.184402,238.5 L384.184402,239.5 L382.184402,239.5 L382.184402,238.5 L384.184402,238.5 Z M380.184402,238.5 L380.184402,239.5 L378.184402,239.5 L378.184402,238.5 L380.184402,238.5 Z M376.184402,238.5 L376.184402,239.5 L374.184402,239.5 L374.184402,238.5 L376.184402,238.5 Z M372.184402,238.5 L372.184402,239.5 L370.184402,239.5 L370.184402,238.5 L372.184402,238.5 Z M368.184402,238.5 L368.184402,239.5 L366.184402,239.5 L366.184402,238.5 L368.184402,238.5 Z M364.184402,238.5 L364.184402,239.5 L362.184402,239.5 L362.184402,238.5 L364.184402,238.5 Z M360.184402,238.5 L360.184402,239.5 L358.184402,239.5 L358.184402,238.5 L360.184402,238.5 Z M356.184402,238.5 L356.184402,239.5 L354.184402,239.5 L354.184402,238.5 L356.184402,238.5 Z M352.184402,238.5 L352.184402,239.5 L350.184402,239.5 L350.184402,238.5 L352.184402,238.5 Z M348.184402,238.5 L348.184402,239.5 L346.184402,239.5 L346.184402,238.5 L348.184402,238.5 Z M344.184402,238.5 L344.184402,239.5 L342.184402,239.5 L342.184402,238.5 L344.184402,238.5 Z M340.184402,238.5 L340.184402,239.5 L338.184402,239.5 L338.184402,238.5 L340.184402,238.5 Z M336.184402,238.5 L336.184402,239.5 L334.184402,239.5 L334.184402,238.5 L336.184402,238.5 Z M332.184402,238.5 L332.184402,239.5 L330.184402,239.5 L330.184402,238.5 L332.184402,238.5 Z M328.184402,238.5 L328.184402,239.5 L326.184402,239.5 L326.184402,238.5 L328.184402,238.5 Z M324.184402,238.5 L324.184402,239.5 L322.184402,239.5 L322.184402,238.5 L324.184402,238.5 Z M320.184402,238.5 L320.184402,239.5 L318.184402,239.5 L318.184402,238.5 L320.184402,238.5 Z M316.184402,238.5 L316.184402,239.5 L314.184402,239.5 L314.184402,238.5 L316.184402,238.5 Z M312.184402,238.5 L312.184402,239.5 L310.184402,239.5 L310.184402,238.5 L312.184402,238.5 Z M308.184402,238.5 L308.184402,239.5 L306.184402,239.5 L306.184402,238.5 L308.184402,238.5 Z M304.184402,238.5 L304.184402,239.5 L302.184402,239.5 L302.184402,238.5 L304.184402,238.5 Z M300.184402,238.5 L300.184402,239.5 L298.184402,239.5 L298.184402,238.5 L300.184402,238.5 Z M296.184402,238.5 L296.184402,239.5 L294.184402,239.5 L294.184402,238.5 L296.184402,238.5 Z M292.184402,238.5 L292.184402,239.5 L290.184402,239.5 L290.184402,238.5 L292.184402,238.5 Z M288.184402,238.5 L288.184402,239.5 L286.184402,239.5 L286.184402,238.5 L288.184402,238.5 Z M284.184402,238.5 L284.184402,239.5 L282.184402,239.5 L282.184402,238.5 L284.184402,238.5 Z M280.184402,238.5 L280.184402,239.5 L278.184402,239.5 L278.184402,238.5 L280.184402,238.5 Z M276.184402,238.5 L276.184402,239.5 L274.184402,239.5 L274.184402,238.5 L276.184402,238.5 Z M272.184402,238.5 L272.184402,239.5 L270.184402,239.5 L270.184402,238.5 L272.184402,238.5 Z M268.184402,238.5 L268.184402,239.5 L266.184402,239.5 L266.184402,238.5 L268.184402,238.5 Z M264.184402,238.5 L264.184402,239.5 L262.184402,239.5 L262.184402,238.5 L264.184402,238.5 Z M260.184402,238.5 L260.184402,239.5 L258.184402,239.5 L258.184402,238.5 L260.184402,238.5 Z M256.184402,238.5 L256.184402,239.5 L254.184402,239.5 L254.184402,238.5 L256.184402,238.5 Z M252.184402,238.5 L252.184402,239.5 L250.184402,239.5 L250.184402,238.5 L252.184402,238.5 Z M248.184402,238.5 L248.184402,239.5 L246.184402,239.5 L246.184402,238.5 L248.184402,238.5 Z M244.184402,238.5 L244.184402,239.5 L242.184402,239.5 L242.184402,238.5 L244.184402,238.5 Z M240.184402,238.5 L240.184402,239.5 L238.184402,239.5 L238.184402,238.5 L240.184402,238.5 Z M236.184402,238.5 L236.184402,239.5 L234.184402,239.5 L234.184402,238.5 L236.184402,238.5 Z M232.184402,238.5 L232.184402,239.5 L230.184402,239.5 L230.184402,238.5 L232.184402,238.5 Z M228.184402,238.5 L228.184402,239.5 L226.184402,239.5 L226.184402,238.5 L228.184402,238.5 Z M224.184402,238.5 L224.184402,239.5 L222.184402,239.5 L222.184402,238.5 L224.184402,238.5 Z M220.184402,238.5 L220.184402,239.5 L218.184402,239.5 L218.184402,238.5 L220.184402,238.5 Z M216.184402,238.5 L216.184402,239.5 L214.184402,239.5 L214.184402,238.5 L216.184402,238.5 Z M212.184402,238.5 L212.184402,239.5 L210.184402,239.5 L210.184402,238.5 L212.184402,238.5 Z M208.184402,238.5 L208.184402,239.5 L206.184402,239.5 L206.184402,238.5 L208.184402,238.5 Z M204.184402,238.5 L204.184402,239.5 L202.184402,239.5 L202.184402,238.5 L204.184402,238.5 Z M200.184402,238.5 L200.184402,239.5 L198.184402,239.5 L198.184402,238.5 L200.184402,238.5 Z M196.184402,238.5 L196.184402,239.5 L194.184402,239.5 L194.184402,238.5 L196.184402,238.5 Z M192.184402,238.5 L192.184402,239.5 L190.184402,239.5 L190.184402,238.5 L192.184402,238.5 Z M188.184402,238.5 L188.184402,239.5 L186.184402,239.5 L186.184402,238.5 L188.184402,238.5 Z M184.184402,238.5 L184.184402,239.5 L182.184402,239.5 L182.184402,238.5 L184.184402,238.5 Z M180.184402,238.5 L180.184402,239.5 L178.184402,239.5 L178.184402,238.5 L180.184402,238.5 Z M176.184402,238.5 L176.184402,239.5 L174.184402,239.5 L174.184402,238.5 L176.184402,238.5 Z M172.184402,238.5 L172.184402,239.5 L170.184402,239.5 L170.184402,238.5 L172.184402,238.5 Z M168.184402,238.5 L168.184402,239.5 L166.184402,239.5 L166.184402,238.5 L168.184402,238.5 Z M164.184402,238.5 L164.184402,239.5 L162.184402,239.5 L162.184402,238.5 L164.184402,238.5 Z M160.184402,238.5 L160.184402,239.5 L158.184402,239.5 L158.184402,238.5 L160.184402,238.5 Z M156.184402,238.5 L156.184402,239.5 L154.184402,239.5 L154.184402,238.5 L156.184402,238.5 Z M152.184402,238.5 L152.184402,239.5 L150.184402,239.5 L150.184402,238.5 L152.184402,238.5 Z M148.184402,238.5 L148.184402,239.5 L146.184402,239.5 L146.184402,238.5 L148.184402,238.5 Z M144.184402,238.5 L144.184402,239.5 L142.184402,239.5 L142.184402,238.5 L144.184402,238.5 Z M140.184402,238.5 L140.184402,239.5 L138.184402,239.5 L138.184402,238.5 L140.184402,238.5 Z M136.184402,238.5 L136.184402,239.5 L134.184402,239.5 L134.184402,238.5 L136.184402,238.5 Z M132.184402,238.5 L132.184402,239.5 L130.184402,239.5 L130.184402,238.5 L132.184402,238.5 Z M128.184402,238.5 L128.184402,239.5 L126.184402,239.5 L126.184402,238.5 L128.184402,238.5 Z M124.184402,238.5 L124.184402,239.5 L122.184402,239.5 L122.184402,238.5 L124.184402,238.5 Z M120.184402,238.5 L120.184402,239.5 L118.184402,239.5 L118.184402,238.5 L120.184402,238.5 Z M116.184402,238.5 L116.184402,239.5 L114.184402,239.5 L114.184402,238.5 L116.184402,238.5 Z M112.184402,238.5 L112.184402,239.5 L110.184402,239.5 L110.184402,238.5 L112.184402,238.5 Z M108.184402,238.5 L108.184402,239.5 L106.184402,239.5 L106.184402,238.5 L108.184402,238.5 Z M104.184402,238.5 L104.184402,239.5 L102.184402,239.5 L102.184402,238.5 L104.184402,238.5 Z M100.184402,238.5 L100.184402,239.5 L98.1844024,239.5 L98.1844024,238.5 L100.184402,238.5 Z M96.1844024,238.5 L96.1844024,239.5 L94.1844024,239.5 L94.1844024,238.5 L96.1844024,238.5 Z M92.1844024,238.5 L92.1844024,239.5 L90.1844024,239.5 L90.1844024,238.5 L92.1844024,238.5 Z M88.1844024,238.5 L88.1844024,239.5 L87,239.5 C86.6783936,239.5 86.3620705,239.456487 86.0575528,239.371518 L86.3263144,238.408312 C86.5435405,238.468924 86.7694547,238.5 87,238.5 L88.1844024,238.5 Z M84.9276525,237.398887 L84.0994236,237.959276 C83.7109969,237.385201 83.5,236.707692 83.5,236 L83.5,235.776604 L84.5,235.776604 L84.5,236 C84.5,236.506348 84.6503076,236.988984 84.9276525,237.398887 Z M84.5,233.776604 L83.5,233.776604 L83.5,231.776604 L84.5,231.776604 L84.5,233.776604 Z M84.5,229.776604 L83.5,229.776604 L83.5,227.776604 L84.5,227.776604 L84.5,229.776604 Z M84.5,225.776604 L83.5,225.776604 L83.5,223.776604 L84.5,223.776604 L84.5,225.776604 Z M84.5,221.776604 L83.5,221.776604 L83.5,219.776604 L84.5,219.776604 L84.5,221.776604 Z M84.5,217.776604 L83.5,217.776604 L83.5,215.776604 L84.5,215.776604 L84.5,217.776604 Z M84.5,213.776604 L83.5,213.776604 L83.5,211.776604 L84.5,211.776604 L84.5,213.776604 Z M84.5,209.776604 L83.5,209.776604 L83.5,207.776604 L84.5,207.776604 L84.5,209.776604 Z M84.5,205.776604 L83.5,205.776604 L83.5,203.776604 L84.5,203.776604 L84.5,205.776604 Z M84.5,201.776604 L83.5,201.776604 L83.5,199.776604 L84.5,199.776604 L84.5,201.776604 Z M84.5,197.776604 L83.5,197.776604 L83.5,195.776604 L84.5,195.776604 L84.5,197.776604 Z M84.5,193.776604 L83.5,193.776604 L83.5,191.776604 L84.5,191.776604 L84.5,193.776604 Z M84.5,189.776604 L83.5,189.776604 L83.5,187.776604 L84.5,187.776604 L84.5,189.776604 Z M84.5,185.776604 L83.5,185.776604 L83.5,183.776604 L84.5,183.776604 L84.5,185.776604 Z M84.5,181.776604 L83.5,181.776604 L83.5,179.776604 L84.5,179.776604 L84.5,181.776604 Z M84.5,177.776604 L83.5,177.776604 L83.5,175.776604 L84.5,175.776604 L84.5,177.776604 Z M84.5,173.776604 L83.5,173.776604 L83.5,171.776604 L84.5,171.776604 L84.5,173.776604 Z M84.5,169.776604 L83.5,169.776604 L83.5,167.776604 L84.5,167.776604 L84.5,169.776604 Z M84.5,165.776604 L83.5,165.776604 L83.5,163.776604 L84.5,163.776604 L84.5,165.776604 Z M84.5,161.776604 L83.5,161.776604 L83.5,159.776604 L84.5,159.776604 L84.5,161.776604 Z M84.5,157.776604 L83.5,157.776604 L83.5,155.776604 L84.5,155.776604 L84.5,157.776604 Z M84.5,153.776604 L83.5,153.776604 L83.5,151.776604 L84.5,151.776604 L84.5,153.776604 Z M84.5,149.776604 L83.5,149.776604 L83.5,147.776604 L84.5,147.776604 L84.5,149.776604 Z M84.5,145.776604 L83.5,145.776604 L83.5,143.776604 L84.5,143.776604 L84.5,145.776604 Z M84.5,141.776604 L83.5,141.776604 L83.5,139.776604 L84.5,139.776604 L84.5,141.776604 Z M84.5,137.776604 L83.5,137.776604 L83.5,135.776604 L84.5,135.776604 L84.5,137.776604 Z M84.5,133.776604 L83.5,133.776604 L83.5,131.776604 L84.5,131.776604 L84.5,133.776604 Z M84.5,129.776604 L83.5,129.776604 L83.5,127.776604 L84.5,127.776604 L84.5,129.776604 Z M84.5,125.776604 L83.5,125.776604 L83.5,123.776604 L84.5,123.776604 L84.5,125.776604 Z M84.5,121.776604 L83.5,121.776604 L83.5,119.776604 L84.5,119.776604 L84.5,121.776604 Z M84.5,117.776604 L83.5,117.776604 L83.5,115.776604 L84.5,115.776604 L84.5,117.776604 Z M84.5,113.776604 L83.5,113.776604 L83.5,111.776604 L84.5,111.776604 L84.5,113.776604 Z M84.5,109.776604 L83.5,109.776604 L83.5,107.776604 L84.5,107.776604 L84.5,109.776604 Z M84.5,105.776604 L83.5,105.776604 L83.5,103.776604 L84.5,103.776604 L84.5,105.776604 Z M84.5,101.776604 L83.5,101.776604 L83.5,99.7766036 L84.5,99.7766036 L84.5,101.776604 Z M84.5,97.7766036 L83.5,97.7766036 L83.5,95.7766036 L84.5,95.7766036 L84.5,97.7766036 Z M84.5,93.7766036 L83.5,93.7766036 L83.5,91.7766036 L84.5,91.7766036 L84.5,93.7766036 Z M84.5,89.7766036 L83.5,89.7766036 L83.5,87.7766036 L84.5,87.7766036 L84.5,89.7766036 Z M84.5,85.7766036 L83.5,85.7766036 L83.5,83.7766036 L84.5,83.7766036 L84.5,85.7766036 Z M84.5,81.7766036 L83.5,81.7766036 L83.5,79.7766036 L84.5,79.7766036 L84.5,81.7766036 Z M84.5,77.7766036 L83.5,77.7766036 L83.5,75.7766036 L84.5,75.7766036 L84.5,77.7766036 Z M84.5,73.7766036 L83.5,73.7766036 L83.5,71.7766036 L84.5,71.7766036 L84.5,73.7766036 Z M84.5,69.7766036 L83.5,69.7766036 L83.5,67.7766036 L84.5,67.7766036 L84.5,69.7766036 Z M84.5,65.7766036 L83.5,65.7766036 L83.5,63.7766036 L84.5,63.7766036 L84.5,65.7766036 Z M84.5,61.7766036 L83.5,61.7766036 L83.5,59.7766036 L84.5,59.7766036 L84.5,61.7766036 Z M84.5,57.7766036 L83.5,57.7766036 L83.5,55.7766036 L84.5,55.7766036 L84.5,57.7766036 Z M84.5,53.7766036 L83.5,53.7766036 L83.5,51.7766036 L84.5,51.7766036 L84.5,53.7766036 Z M84.5,49.7766036 L83.5,49.7766036 L83.5,47.7766036 L84.5,47.7766036 L84.5,49.7766036 Z M84.5,45.7766036 L83.5,45.7766036 L83.5,43.7766036 L84.5,43.7766036 L84.5,45.7766036 Z M84.5,41.7766036 L83.5,41.7766036 L83.5,39.7766036 L84.5,39.7766036 L84.5,41.7766036 Z M84.5,37.7766036 L83.5,37.7766036 L83.5,35.7766036 L84.5,35.7766036 L84.5,37.7766036 Z M84.5,33.7766036 L83.5,33.7766036 L83.5,31.7766036 L84.5,31.7766036 L84.5,33.7766036 Z M84.5,29.7766036 L83.5,29.7766036 L83.5,27.7766036 L84.5,27.7766036 L84.5,29.7766036 Z M84.5,25.7766036 L83.5,25.7766036 L83.5,23.7766036 L84.5,23.7766036 L84.5,25.7766036 Z M84.5,21.7766036 L83.5,21.7766036 L83.5,19.7766036 L84.5,19.7766036 L84.5,21.7766036 Z M84.5,17.7766036 L83.5,17.7766036 L83.5,15.7766036 L84.5,15.7766036 L84.5,17.7766036 Z M84.5,13.7766036 L83.5,13.7766036 L83.5,11.7766036 L84.5,11.7766036 L84.5,13.7766036 Z M84.5,9.77660357 L83.5,9.77660357 L83.5,7.77660357 L84.5,7.77660357 L84.5,9.77660357 Z M84.5,5.77660357 L83.5,5.77660357 L83.5,4 C83.5,3.91298602 83.503185,3.82630889 83.5095269,3.74009076 L84.5068326,3.81344867 C84.5022859,3.87526122 84.5,3.93746925 84.5,4 L84.5,5.77660357 Z M85.1864763,2.27919676 L84.4612031,1.59073558 C85.0102928,1.01228605 85.7410799,0.635042921 86.5400168,0.530013119 L86.6703573,1.52148241 C86.1005296,1.59639307 85.5791311,1.86554672 85.1864763,2.27919676 Z" id="Rectangle-3-Copy-12" fill="#A1CAFF" fill-rule="nonzero"></path>
        <path d="M87,1.5 L87,0.5 L89,0.5 L89,1.5 L87,1.5 Z M91,1.5 L91,0.5 L93,0.5 L93,1.5 L91,1.5 Z M95,1.5 L95,0.5 L97,0.5 L97,1.5 L95,1.5 Z M99,1.5 L99,0.5 L101,0.5 L101,1.5 L99,1.5 Z M103,1.5 L103,0.5 L105,0.5 L105,1.5 L103,1.5 Z M107,1.5 L107,0.5 L109,0.5 L109,1.5 L107,1.5 Z M111,1.5 L111,0.5 L113,0.5 L113,1.5 L111,1.5 Z M115,1.5 L115,0.5 L117,0.5 L117,1.5 L115,1.5 Z M119,1.5 L119,0.5 L121,0.5 L121,1.5 L119,1.5 Z M123,1.5 L123,0.5 L125,0.5 L125,1.5 L123,1.5 Z M127,1.5 L127,0.5 L129,0.5 L129,1.5 L127,1.5 Z M131,1.5 L131,0.5 L133,0.5 L133,1.5 L131,1.5 Z M135,1.5 L135,0.5 L137,0.5 L137,1.5 L135,1.5 Z M139,1.5 L139,0.5 L141,0.5 L141,1.5 L139,1.5 Z M143,1.5 L143,0.5 L145,0.5 L145,1.5 L143,1.5 Z M147,1.5 L147,0.5 L149,0.5 L149,1.5 L147,1.5 Z M151,1.5 L151,0.5 L153,0.5 L153,1.5 L151,1.5 Z M155,1.5 L155,0.5 L157,0.5 L157,1.5 L155,1.5 Z M159,1.5 L159,0.5 L161,0.5 L161,1.5 L159,1.5 Z M163,1.5 L163,0.5 L165,0.5 L165,1.5 L163,1.5 Z M167,1.5 L167,0.5 L169,0.5 L169,1.5 L167,1.5 Z M171,1.5 L171,0.5 L173,0.5 L173,1.5 L171,1.5 Z M175,1.5 L175,0.5 L177,0.5 L177,1.5 L175,1.5 Z M179,1.5 L179,0.5 L181,0.5 L181,1.5 L179,1.5 Z M183,1.5 L183,0.5 L185,0.5 L185,1.5 L183,1.5 Z M187,1.5 L187,0.5 L189,0.5 L189,1.5 L187,1.5 Z M191,1.5 L191,0.5 L193,0.5 L193,1.5 L191,1.5 Z M195,1.5 L195,0.5 L197,0.5 L197,1.5 L195,1.5 Z M199,1.5 L199,0.5 L201,0.5 L201,1.5 L199,1.5 Z M203,1.5 L203,0.5 L205,0.5 L205,1.5 L203,1.5 Z M207,1.5 L207,0.5 L209,0.5 L209,1.5 L207,1.5 Z M211,1.5 L211,0.5 L213,0.5 L213,1.5 L211,1.5 Z M215,1.5 L215,0.5 L217,0.5 L217,1.5 L215,1.5 Z M219,1.5 L219,0.5 L221,0.5 L221,1.5 L219,1.5 Z M223,1.5 L223,0.5 L225,0.5 L225,1.5 L223,1.5 Z M227,1.5 L227,0.5 L229,0.5 L229,1.5 L227,1.5 Z M231,1.5 L231,0.5 L233,0.5 L233,1.5 L231,1.5 Z M235,1.5 L235,0.5 L237,0.5 L237,1.5 L235,1.5 Z M239,1.5 L239,0.5 L241,0.5 L241,1.5 L239,1.5 Z M243,1.5 L243,0.5 L245,0.5 L245,1.5 L243,1.5 Z M247,1.5 L247,0.5 L249,0.5 L249,1.5 L247,1.5 Z M251,1.5 L251,0.5 L253,0.5 L253,1.5 L251,1.5 Z M255,1.5 L255,0.5 L257,0.5 L257,1.5 L255,1.5 Z M259,1.5 L259,0.5 L261,0.5 L261,1.5 L259,1.5 Z M263,1.5 L263,0.5 L265,0.5 L265,1.5 L263,1.5 Z M267,1.5 L267,0.5 L269,0.5 L269,1.5 L267,1.5 Z M271,1.5 L271,0.5 L273,0.5 L273,1.5 L271,1.5 Z M275,1.5 L275,0.5 L277,0.5 L277,1.5 L275,1.5 Z M279,1.5 L279,0.5 L281,0.5 L281,1.5 L279,1.5 Z M283,1.5 L283,0.5 L285,0.5 L285,1.5 L283,1.5 Z M287,1.5 L287,0.5 L289,0.5 L289,1.5 L287,1.5 Z M291,1.5 L291,0.5 L293,0.5 L293,1.5 L291,1.5 Z M295,1.5 L295,0.5 L297,0.5 L297,1.5 L295,1.5 Z M299,1.5 L299,0.5 L301,0.5 L301,1.5 L299,1.5 Z M303,1.5 L303,0.5 L305,0.5 L305,1.5 L303,1.5 Z M307,1.5 L307,0.5 L309,0.5 L309,1.5 L307,1.5 Z M311,1.5 L311,0.5 L313,0.5 L313,1.5 L311,1.5 Z M315,1.5 L315,0.5 L317,0.5 L317,1.5 L315,1.5 Z M319,1.5 L319,0.5 L321,0.5 L321,1.5 L319,1.5 Z M323,1.5 L323,0.5 L325,0.5 L325,1.5 L323,1.5 Z M327,1.5 L327,0.5 L329,0.5 L329,1.5 L327,1.5 Z M331,1.5 L331,0.5 L333,0.5 L333,1.5 L331,1.5 Z M335,1.5 L335,0.5 L337,0.5 L337,1.5 L335,1.5 Z M339,1.5 L339,0.5 L341,0.5 L341,1.5 L339,1.5 Z M343,1.5 L343,0.5 L345,0.5 L345,1.5 L343,1.5 Z M347,1.5 L347,0.5 L349,0.5 L349,1.5 L347,1.5 Z M351,1.5 L351,0.5 L353,0.5 L353,1.5 L351,1.5 Z M355,1.5 L355,0.5 L357,0.5 L357,1.5 L355,1.5 Z M359,1.5 L359,0.5 L361,0.5 L361,1.5 L359,1.5 Z M363,1.5 L363,0.5 L365,0.5 L365,1.5 L363,1.5 Z M367,1.5 L367,0.5 L369,0.5 L369,1.5 L367,1.5 Z M371,1.5 L371,0.5 L373,0.5 L373,1.5 L371,1.5 Z M375,1.5 L375,0.5 L377,0.5 L377,1.5 L375,1.5 Z M379,1.5 L379,0.5 L381,0.5 L381,1.5 L379,1.5 Z M383,1.5 L383,0.5 L385,0.5 L385,1.5 L383,1.5 Z M387,1.5 L387,0.5 L389,0.5 L389,1.5 L387,1.5 Z M391,1.5 L391,0.5 L393,0.5 L393,1.5 L391,1.5 Z M395,1.5 L395,0.5 L397,0.5 L397,1.5 L395,1.5 Z M399,1.5 L399,0.5 L401,0.5 L401,1.5 L399,1.5 Z M403,1.5 L403,0.5 L405,0.5 L405,1.5 L403,1.5 Z M407,1.5 L407,0.5 L409,0.5 L409,1.5 L407,1.5 Z M411,1.5 L411,0.5 L413,0.5 L413,1.5 L411,1.5 Z M415,1.5 L415,0.5 L417,0.5 L417,1.5 L415,1.5 Z M419,1.5 L419,0.5 L421,0.5 L421,1.5 L419,1.5 Z M423,1.5 L423,0.5 L425,0.5 L425,1.5 L423,1.5 Z M427,1.5 L427,0.5 L429,0.5 L429,1.5 L427,1.5 Z M431,1.5 L431,0.5 L433,0.5 L433,1.5 L431,1.5 Z M435,1.5 L435,0.5 L437,0.5 L437,1.5 L435,1.5 Z M439,1.5 L439,0.5 L441,0.5 L441,1.5 L439,1.5 Z M443,1.5 L443,0.5 L445,0.5 L445,1.5 L443,1.5 Z M447,1.5 L447,0.5 L449,0.5 L449,1.5 L447,1.5 Z M451,1.5 L451,0.5 L453,0.5 L453,1.5 L451,1.5 Z M455,1.5 L455,0.5 L457,0.5 L457,1.5 L455,1.5 Z M459,1.5 L459,0.5 L461,0.5 L461,1.5 L459,1.5 Z M463,1.5 L463,0.5 L465,0.5 L465,1.5 L463,1.5 Z M467,1.5 L467,0.5 L469,0.5 L469,1.5 L467,1.5 Z M471,1.5 L471,0.5 L473,0.5 L473,1.5 L471,1.5 Z M475,1.5 L475,0.5 L477,0.5 L477,1.5 L475,1.5 Z M479,1.5 L479,0.5 L481,0.5 L481,1.5 L479,1.5 Z M483,1.5 L483,0.5 L485,0.5 L485,1.5 L483,1.5 Z M487,1.5 L487,0.5 L489,0.5 L489,1.5 L487,1.5 Z M491,1.5 L491,0.5 L493,0.5 L493,1.5 L491,1.5 Z M495,1.5 L495,0.5 L497,0.5 L497,1.5 L495,1.5 Z M499,1.5 L499,0.5 L501,0.5 L501,1.5 L499,1.5 Z M503,1.5 L503,0.5 L505,0.5 L505,1.5 L503,1.5 Z M507,1.5 L507,0.5 L509,0.5 L509,1.5 L507,1.5 Z M511,1.5 L511,0.5 L513,0.5 L513,1.5 L511,1.5 Z M515,1.5 L515,0.5 L518,0.5 L518,1.5 L517,1.5 L515,1.5 Z M518.57121,2.05531426 L519.200238,1.27793133 C519.820705,1.77998866 520.254879,2.48017493 520.422708,3.2655549 L519.444787,3.4745294 C519.325124,2.91455032 519.014992,2.41440534 518.57121,2.05531426 Z M519.5,5.40779881 L520.5,5.40779881 L520.5,7.40779881 L519.5,7.40779881 L519.5,5.40779881 Z M519.5,9.40779881 L520.5,9.40779881 L520.5,11.4077988 L519.5,11.4077988 L519.5,9.40779881 Z M519.5,13.4077988 L520.5,13.4077988 L520.5,15.4077988 L519.5,15.4077988 L519.5,13.4077988 Z M519.5,17.4077988 L520.5,17.4077988 L520.5,19.4077988 L519.5,19.4077988 L519.5,17.4077988 Z M519.5,21.4077988 L520.5,21.4077988 L520.5,23.4077988 L519.5,23.4077988 L519.5,21.4077988 Z M519.5,25.4077988 L520.5,25.4077988 L520.5,27.4077988 L519.5,27.4077988 L519.5,25.4077988 Z M519.5,29.4077988 L520.5,29.4077988 L520.5,31.4077988 L519.5,31.4077988 L519.5,29.4077988 Z M519.5,33.4077988 L520.5,33.4077988 L520.5,35.4077988 L519.5,35.4077988 L519.5,33.4077988 Z M519.5,37.4077988 L520.5,37.4077988 L520.5,39.4077988 L519.5,39.4077988 L519.5,37.4077988 Z M519.5,41.4077988 L520.5,41.4077988 L520.5,43.4077988 L519.5,43.4077988 L519.5,41.4077988 Z M519.5,45.4077988 L520.5,45.4077988 L520.5,47.4077988 L519.5,47.4077988 L519.5,45.4077988 Z M519.5,49.4077988 L520.5,49.4077988 L520.5,51.4077988 L519.5,51.4077988 L519.5,49.4077988 Z M519.5,53.4077988 L520.5,53.4077988 L520.5,55.4077988 L519.5,55.4077988 L519.5,53.4077988 Z M519.5,57.4077988 L520.5,57.4077988 L520.5,59.4077988 L519.5,59.4077988 L519.5,57.4077988 Z M519.5,61.4077988 L520.5,61.4077988 L520.5,63.4077988 L519.5,63.4077988 L519.5,61.4077988 Z M519.5,65.4077988 L520.5,65.4077988 L520.5,67.4077988 L519.5,67.4077988 L519.5,65.4077988 Z M519.5,69.4077988 L520.5,69.4077988 L520.5,71.4077988 L519.5,71.4077988 L519.5,69.4077988 Z M519.5,73.4077988 L520.5,73.4077988 L520.5,75.4077988 L519.5,75.4077988 L519.5,73.4077988 Z M519.5,77.4077988 L520.5,77.4077988 L520.5,79.4077988 L519.5,79.4077988 L519.5,77.4077988 Z M519.5,81.4077988 L520.5,81.4077988 L520.5,83.4077988 L519.5,83.4077988 L519.5,81.4077988 Z M519.5,85.4077988 L520.5,85.4077988 L520.5,87.4077988 L519.5,87.4077988 L519.5,85.4077988 Z M519.5,89.4077988 L520.5,89.4077988 L520.5,91.4077988 L519.5,91.4077988 L519.5,89.4077988 Z M519.5,93.4077988 L520.5,93.4077988 L520.5,95.4077988 L519.5,95.4077988 L519.5,93.4077988 Z M519.5,97.4077988 L520.5,97.4077988 L520.5,99.4077988 L519.5,99.4077988 L519.5,97.4077988 Z M519.5,101.407799 L520.5,101.407799 L520.5,103.407799 L519.5,103.407799 L519.5,101.407799 Z M519.5,105.407799 L520.5,105.407799 L520.5,107.407799 L519.5,107.407799 L519.5,105.407799 Z M519.5,109.407799 L520.5,109.407799 L520.5,111.407799 L519.5,111.407799 L519.5,109.407799 Z M519.5,113.407799 L520.5,113.407799 L520.5,115.407799 L519.5,115.407799 L519.5,113.407799 Z M519.5,117.407799 L520.5,117.407799 L520.5,119.407799 L519.5,119.407799 L519.5,117.407799 Z M519.5,121.407799 L520.5,121.407799 L520.5,123.407799 L519.5,123.407799 L519.5,121.407799 Z M519.5,125.407799 L520.5,125.407799 L520.5,127.407799 L519.5,127.407799 L519.5,125.407799 Z M519.5,129.407799 L520.5,129.407799 L520.5,131.407799 L519.5,131.407799 L519.5,129.407799 Z M519.5,133.407799 L520.5,133.407799 L520.5,135.407799 L519.5,135.407799 L519.5,133.407799 Z M519.5,137.407799 L520.5,137.407799 L520.5,139.407799 L519.5,139.407799 L519.5,137.407799 Z M519.5,141.407799 L520.5,141.407799 L520.5,143.407799 L519.5,143.407799 L519.5,141.407799 Z M519.5,145.407799 L520.5,145.407799 L520.5,147.407799 L519.5,147.407799 L519.5,145.407799 Z M519.5,149.407799 L520.5,149.407799 L520.5,151.407799 L519.5,151.407799 L519.5,149.407799 Z M519.5,153.407799 L520.5,153.407799 L520.5,155.407799 L519.5,155.407799 L519.5,153.407799 Z M519.5,157.407799 L520.5,157.407799 L520.5,159.407799 L519.5,159.407799 L519.5,157.407799 Z M519.5,161.407799 L520.5,161.407799 L520.5,163.407799 L519.5,163.407799 L519.5,161.407799 Z M519.5,165.407799 L520.5,165.407799 L520.5,167.407799 L519.5,167.407799 L519.5,165.407799 Z M519.5,169.407799 L520.5,169.407799 L520.5,171.407799 L519.5,171.407799 L519.5,169.407799 Z M519.5,173.407799 L520.5,173.407799 L520.5,175.407799 L519.5,175.407799 L519.5,173.407799 Z M519.5,177.407799 L520.5,177.407799 L520.5,179.407799 L519.5,179.407799 L519.5,177.407799 Z M519.5,181.407799 L520.5,181.407799 L520.5,183.407799 L519.5,183.407799 L519.5,181.407799 Z M519.5,185.407799 L520.5,185.407799 L520.5,187.407799 L519.5,187.407799 L519.5,185.407799 Z M519.5,189.407799 L520.5,189.407799 L520.5,191.407799 L519.5,191.407799 L519.5,189.407799 Z M519.5,193.407799 L520.5,193.407799 L520.5,195.407799 L519.5,195.407799 L519.5,193.407799 Z M519.5,197.407799 L520.5,197.407799 L520.5,199.407799 L519.5,199.407799 L519.5,197.407799 Z M519.5,201.407799 L520.5,201.407799 L520.5,203.407799 L519.5,203.407799 L519.5,201.407799 Z M519.5,205.407799 L520.5,205.407799 L520.5,207.407799 L519.5,207.407799 L519.5,205.407799 Z M519.5,209.407799 L520.5,209.407799 L520.5,211.407799 L519.5,211.407799 L519.5,209.407799 Z M519.5,213.407799 L520.5,213.407799 L520.5,215.407799 L519.5,215.407799 L519.5,213.407799 Z M519.5,217.407799 L520.5,217.407799 L520.5,219.407799 L519.5,219.407799 L519.5,217.407799 Z M519.5,221.407799 L520.5,221.407799 L520.5,223.407799 L519.5,223.407799 L519.5,221.407799 Z M519.5,225.407799 L520.5,225.407799 L520.5,227.407799 L519.5,227.407799 L519.5,225.407799 Z M519.5,229.407799 L520.5,229.407799 L520.5,231.407799 L519.5,231.407799 L519.5,229.407799 Z M519.5,233.407799 L520.5,233.407799 L520.5,235.407799 L519.5,235.407799 L519.5,233.407799 Z M519.22554,237.140234 L520.115084,237.597084 C519.750171,238.307615 519.150579,238.875111 518.420297,239.199688 L518.014151,238.285879 C518.535677,238.054085 518.964794,237.647938 519.22554,237.140234 Z M516.184402,238.5 L516.184402,239.5 L514.184402,239.5 L514.184402,238.5 L516.184402,238.5 Z M512.184402,238.5 L512.184402,239.5 L510.184402,239.5 L510.184402,238.5 L512.184402,238.5 Z M508.184402,238.5 L508.184402,239.5 L506.184402,239.5 L506.184402,238.5 L508.184402,238.5 Z M504.184402,238.5 L504.184402,239.5 L502.184402,239.5 L502.184402,238.5 L504.184402,238.5 Z M500.184402,238.5 L500.184402,239.5 L498.184402,239.5 L498.184402,238.5 L500.184402,238.5 Z M496.184402,238.5 L496.184402,239.5 L494.184402,239.5 L494.184402,238.5 L496.184402,238.5 Z M492.184402,238.5 L492.184402,239.5 L490.184402,239.5 L490.184402,238.5 L492.184402,238.5 Z M488.184402,238.5 L488.184402,239.5 L486.184402,239.5 L486.184402,238.5 L488.184402,238.5 Z M484.184402,238.5 L484.184402,239.5 L482.184402,239.5 L482.184402,238.5 L484.184402,238.5 Z M480.184402,238.5 L480.184402,239.5 L478.184402,239.5 L478.184402,238.5 L480.184402,238.5 Z M476.184402,238.5 L476.184402,239.5 L474.184402,239.5 L474.184402,238.5 L476.184402,238.5 Z M472.184402,238.5 L472.184402,239.5 L470.184402,239.5 L470.184402,238.5 L472.184402,238.5 Z M468.184402,238.5 L468.184402,239.5 L466.184402,239.5 L466.184402,238.5 L468.184402,238.5 Z M464.184402,238.5 L464.184402,239.5 L462.184402,239.5 L462.184402,238.5 L464.184402,238.5 Z M460.184402,238.5 L460.184402,239.5 L458.184402,239.5 L458.184402,238.5 L460.184402,238.5 Z M456.184402,238.5 L456.184402,239.5 L454.184402,239.5 L454.184402,238.5 L456.184402,238.5 Z M452.184402,238.5 L452.184402,239.5 L450.184402,239.5 L450.184402,238.5 L452.184402,238.5 Z M448.184402,238.5 L448.184402,239.5 L446.184402,239.5 L446.184402,238.5 L448.184402,238.5 Z M444.184402,238.5 L444.184402,239.5 L442.184402,239.5 L442.184402,238.5 L444.184402,238.5 Z M440.184402,238.5 L440.184402,239.5 L438.184402,239.5 L438.184402,238.5 L440.184402,238.5 Z M436.184402,238.5 L436.184402,239.5 L434.184402,239.5 L434.184402,238.5 L436.184402,238.5 Z M432.184402,238.5 L432.184402,239.5 L430.184402,239.5 L430.184402,238.5 L432.184402,238.5 Z M428.184402,238.5 L428.184402,239.5 L426.184402,239.5 L426.184402,238.5 L428.184402,238.5 Z M424.184402,238.5 L424.184402,239.5 L422.184402,239.5 L422.184402,238.5 L424.184402,238.5 Z M420.184402,238.5 L420.184402,239.5 L418.184402,239.5 L418.184402,238.5 L420.184402,238.5 Z M416.184402,238.5 L416.184402,239.5 L414.184402,239.5 L414.184402,238.5 L416.184402,238.5 Z M412.184402,238.5 L412.184402,239.5 L410.184402,239.5 L410.184402,238.5 L412.184402,238.5 Z M408.184402,238.5 L408.184402,239.5 L406.184402,239.5 L406.184402,238.5 L408.184402,238.5 Z M404.184402,238.5 L404.184402,239.5 L402.184402,239.5 L402.184402,238.5 L404.184402,238.5 Z M400.184402,238.5 L400.184402,239.5 L398.184402,239.5 L398.184402,238.5 L400.184402,238.5 Z M396.184402,238.5 L396.184402,239.5 L394.184402,239.5 L394.184402,238.5 L396.184402,238.5 Z M392.184402,238.5 L392.184402,239.5 L390.184402,239.5 L390.184402,238.5 L392.184402,238.5 Z M388.184402,238.5 L388.184402,239.5 L386.184402,239.5 L386.184402,238.5 L388.184402,238.5 Z M384.184402,238.5 L384.184402,239.5 L382.184402,239.5 L382.184402,238.5 L384.184402,238.5 Z M380.184402,238.5 L380.184402,239.5 L378.184402,239.5 L378.184402,238.5 L380.184402,238.5 Z M376.184402,238.5 L376.184402,239.5 L374.184402,239.5 L374.184402,238.5 L376.184402,238.5 Z M372.184402,238.5 L372.184402,239.5 L370.184402,239.5 L370.184402,238.5 L372.184402,238.5 Z M368.184402,238.5 L368.184402,239.5 L366.184402,239.5 L366.184402,238.5 L368.184402,238.5 Z M364.184402,238.5 L364.184402,239.5 L362.184402,239.5 L362.184402,238.5 L364.184402,238.5 Z M360.184402,238.5 L360.184402,239.5 L358.184402,239.5 L358.184402,238.5 L360.184402,238.5 Z M356.184402,238.5 L356.184402,239.5 L354.184402,239.5 L354.184402,238.5 L356.184402,238.5 Z M352.184402,238.5 L352.184402,239.5 L350.184402,239.5 L350.184402,238.5 L352.184402,238.5 Z M348.184402,238.5 L348.184402,239.5 L346.184402,239.5 L346.184402,238.5 L348.184402,238.5 Z M344.184402,238.5 L344.184402,239.5 L342.184402,239.5 L342.184402,238.5 L344.184402,238.5 Z M340.184402,238.5 L340.184402,239.5 L338.184402,239.5 L338.184402,238.5 L340.184402,238.5 Z M336.184402,238.5 L336.184402,239.5 L334.184402,239.5 L334.184402,238.5 L336.184402,238.5 Z M332.184402,238.5 L332.184402,239.5 L330.184402,239.5 L330.184402,238.5 L332.184402,238.5 Z M328.184402,238.5 L328.184402,239.5 L326.184402,239.5 L326.184402,238.5 L328.184402,238.5 Z M324.184402,238.5 L324.184402,239.5 L322.184402,239.5 L322.184402,238.5 L324.184402,238.5 Z M320.184402,238.5 L320.184402,239.5 L318.184402,239.5 L318.184402,238.5 L320.184402,238.5 Z M316.184402,238.5 L316.184402,239.5 L314.184402,239.5 L314.184402,238.5 L316.184402,238.5 Z M312.184402,238.5 L312.184402,239.5 L310.184402,239.5 L310.184402,238.5 L312.184402,238.5 Z M308.184402,238.5 L308.184402,239.5 L306.184402,239.5 L306.184402,238.5 L308.184402,238.5 Z M304.184402,238.5 L304.184402,239.5 L302.184402,239.5 L302.184402,238.5 L304.184402,238.5 Z M300.184402,238.5 L300.184402,239.5 L298.184402,239.5 L298.184402,238.5 L300.184402,238.5 Z M296.184402,238.5 L296.184402,239.5 L294.184402,239.5 L294.184402,238.5 L296.184402,238.5 Z M292.184402,238.5 L292.184402,239.5 L290.184402,239.5 L290.184402,238.5 L292.184402,238.5 Z M288.184402,238.5 L288.184402,239.5 L286.184402,239.5 L286.184402,238.5 L288.184402,238.5 Z M284.184402,238.5 L284.184402,239.5 L282.184402,239.5 L282.184402,238.5 L284.184402,238.5 Z M280.184402,238.5 L280.184402,239.5 L278.184402,239.5 L278.184402,238.5 L280.184402,238.5 Z M276.184402,238.5 L276.184402,239.5 L274.184402,239.5 L274.184402,238.5 L276.184402,238.5 Z M272.184402,238.5 L272.184402,239.5 L270.184402,239.5 L270.184402,238.5 L272.184402,238.5 Z M268.184402,238.5 L268.184402,239.5 L266.184402,239.5 L266.184402,238.5 L268.184402,238.5 Z M264.184402,238.5 L264.184402,239.5 L262.184402,239.5 L262.184402,238.5 L264.184402,238.5 Z M260.184402,238.5 L260.184402,239.5 L258.184402,239.5 L258.184402,238.5 L260.184402,238.5 Z M256.184402,238.5 L256.184402,239.5 L254.184402,239.5 L254.184402,238.5 L256.184402,238.5 Z M252.184402,238.5 L252.184402,239.5 L250.184402,239.5 L250.184402,238.5 L252.184402,238.5 Z M248.184402,238.5 L248.184402,239.5 L246.184402,239.5 L246.184402,238.5 L248.184402,238.5 Z M244.184402,238.5 L244.184402,239.5 L242.184402,239.5 L242.184402,238.5 L244.184402,238.5 Z M240.184402,238.5 L240.184402,239.5 L238.184402,239.5 L238.184402,238.5 L240.184402,238.5 Z M236.184402,238.5 L236.184402,239.5 L234.184402,239.5 L234.184402,238.5 L236.184402,238.5 Z M232.184402,238.5 L232.184402,239.5 L230.184402,239.5 L230.184402,238.5 L232.184402,238.5 Z M228.184402,238.5 L228.184402,239.5 L226.184402,239.5 L226.184402,238.5 L228.184402,238.5 Z M224.184402,238.5 L224.184402,239.5 L222.184402,239.5 L222.184402,238.5 L224.184402,238.5 Z M220.184402,238.5 L220.184402,239.5 L218.184402,239.5 L218.184402,238.5 L220.184402,238.5 Z M216.184402,238.5 L216.184402,239.5 L214.184402,239.5 L214.184402,238.5 L216.184402,238.5 Z M212.184402,238.5 L212.184402,239.5 L210.184402,239.5 L210.184402,238.5 L212.184402,238.5 Z M208.184402,238.5 L208.184402,239.5 L206.184402,239.5 L206.184402,238.5 L208.184402,238.5 Z M204.184402,238.5 L204.184402,239.5 L202.184402,239.5 L202.184402,238.5 L204.184402,238.5 Z M200.184402,238.5 L200.184402,239.5 L198.184402,239.5 L198.184402,238.5 L200.184402,238.5 Z M196.184402,238.5 L196.184402,239.5 L194.184402,239.5 L194.184402,238.5 L196.184402,238.5 Z M192.184402,238.5 L192.184402,239.5 L190.184402,239.5 L190.184402,238.5 L192.184402,238.5 Z M188.184402,238.5 L188.184402,239.5 L186.184402,239.5 L186.184402,238.5 L188.184402,238.5 Z M184.184402,238.5 L184.184402,239.5 L182.184402,239.5 L182.184402,238.5 L184.184402,238.5 Z M180.184402,238.5 L180.184402,239.5 L178.184402,239.5 L178.184402,238.5 L180.184402,238.5 Z M176.184402,238.5 L176.184402,239.5 L174.184402,239.5 L174.184402,238.5 L176.184402,238.5 Z M172.184402,238.5 L172.184402,239.5 L170.184402,239.5 L170.184402,238.5 L172.184402,238.5 Z M168.184402,238.5 L168.184402,239.5 L166.184402,239.5 L166.184402,238.5 L168.184402,238.5 Z M164.184402,238.5 L164.184402,239.5 L162.184402,239.5 L162.184402,238.5 L164.184402,238.5 Z M160.184402,238.5 L160.184402,239.5 L158.184402,239.5 L158.184402,238.5 L160.184402,238.5 Z M156.184402,238.5 L156.184402,239.5 L154.184402,239.5 L154.184402,238.5 L156.184402,238.5 Z M152.184402,238.5 L152.184402,239.5 L150.184402,239.5 L150.184402,238.5 L152.184402,238.5 Z M148.184402,238.5 L148.184402,239.5 L146.184402,239.5 L146.184402,238.5 L148.184402,238.5 Z M144.184402,238.5 L144.184402,239.5 L142.184402,239.5 L142.184402,238.5 L144.184402,238.5 Z M140.184402,238.5 L140.184402,239.5 L138.184402,239.5 L138.184402,238.5 L140.184402,238.5 Z M136.184402,238.5 L136.184402,239.5 L134.184402,239.5 L134.184402,238.5 L136.184402,238.5 Z M132.184402,238.5 L132.184402,239.5 L130.184402,239.5 L130.184402,238.5 L132.184402,238.5 Z M128.184402,238.5 L128.184402,239.5 L126.184402,239.5 L126.184402,238.5 L128.184402,238.5 Z M124.184402,238.5 L124.184402,239.5 L122.184402,239.5 L122.184402,238.5 L124.184402,238.5 Z M120.184402,238.5 L120.184402,239.5 L118.184402,239.5 L118.184402,238.5 L120.184402,238.5 Z M116.184402,238.5 L116.184402,239.5 L114.184402,239.5 L114.184402,238.5 L116.184402,238.5 Z M112.184402,238.5 L112.184402,239.5 L110.184402,239.5 L110.184402,238.5 L112.184402,238.5 Z M108.184402,238.5 L108.184402,239.5 L106.184402,239.5 L106.184402,238.5 L108.184402,238.5 Z M104.184402,238.5 L104.184402,239.5 L102.184402,239.5 L102.184402,238.5 L104.184402,238.5 Z M100.184402,238.5 L100.184402,239.5 L98.1844024,239.5 L98.1844024,238.5 L100.184402,238.5 Z M96.1844024,238.5 L96.1844024,239.5 L94.1844024,239.5 L94.1844024,238.5 L96.1844024,238.5 Z M92.1844024,238.5 L92.1844024,239.5 L90.1844024,239.5 L90.1844024,238.5 L92.1844024,238.5 Z M88.1844024,238.5 L88.1844024,239.5 L87,239.5 C86.6783936,239.5 86.3620705,239.456487 86.0575528,239.371518 L86.3263144,238.408312 C86.5435405,238.468924 86.7694547,238.5 87,238.5 L88.1844024,238.5 Z M84.9276525,237.398887 L84.0994236,237.959276 C83.7109969,237.385201 83.5,236.707692 83.5,236 L83.5,235.776604 L84.5,235.776604 L84.5,236 C84.5,236.506348 84.6503076,236.988984 84.9276525,237.398887 Z M84.5,233.776604 L83.5,233.776604 L83.5,231.776604 L84.5,231.776604 L84.5,233.776604 Z M84.5,229.776604 L83.5,229.776604 L83.5,227.776604 L84.5,227.776604 L84.5,229.776604 Z M84.5,225.776604 L83.5,225.776604 L83.5,223.776604 L84.5,223.776604 L84.5,225.776604 Z M84.5,221.776604 L83.5,221.776604 L83.5,219.776604 L84.5,219.776604 L84.5,221.776604 Z M84.5,217.776604 L83.5,217.776604 L83.5,215.776604 L84.5,215.776604 L84.5,217.776604 Z M84.5,213.776604 L83.5,213.776604 L83.5,211.776604 L84.5,211.776604 L84.5,213.776604 Z M84.5,209.776604 L83.5,209.776604 L83.5,207.776604 L84.5,207.776604 L84.5,209.776604 Z M84.5,205.776604 L83.5,205.776604 L83.5,203.776604 L84.5,203.776604 L84.5,205.776604 Z M84.5,201.776604 L83.5,201.776604 L83.5,199.776604 L84.5,199.776604 L84.5,201.776604 Z M84.5,197.776604 L83.5,197.776604 L83.5,195.776604 L84.5,195.776604 L84.5,197.776604 Z M84.5,193.776604 L83.5,193.776604 L83.5,191.776604 L84.5,191.776604 L84.5,193.776604 Z M84.5,189.776604 L83.5,189.776604 L83.5,187.776604 L84.5,187.776604 L84.5,189.776604 Z M84.5,185.776604 L83.5,185.776604 L83.5,183.776604 L84.5,183.776604 L84.5,185.776604 Z M84.5,181.776604 L83.5,181.776604 L83.5,179.776604 L84.5,179.776604 L84.5,181.776604 Z M84.5,177.776604 L83.5,177.776604 L83.5,175.776604 L84.5,175.776604 L84.5,177.776604 Z M84.5,173.776604 L83.5,173.776604 L83.5,171.776604 L84.5,171.776604 L84.5,173.776604 Z M84.5,169.776604 L83.5,169.776604 L83.5,167.776604 L84.5,167.776604 L84.5,169.776604 Z M84.5,165.776604 L83.5,165.776604 L83.5,163.776604 L84.5,163.776604 L84.5,165.776604 Z M84.5,161.776604 L83.5,161.776604 L83.5,159.776604 L84.5,159.776604 L84.5,161.776604 Z M84.5,157.776604 L83.5,157.776604 L83.5,155.776604 L84.5,155.776604 L84.5,157.776604 Z M84.5,153.776604 L83.5,153.776604 L83.5,151.776604 L84.5,151.776604 L84.5,153.776604 Z M84.5,149.776604 L83.5,149.776604 L83.5,147.776604 L84.5,147.776604 L84.5,149.776604 Z M84.5,145.776604 L83.5,145.776604 L83.5,143.776604 L84.5,143.776604 L84.5,145.776604 Z M84.5,141.776604 L83.5,141.776604 L83.5,139.776604 L84.5,139.776604 L84.5,141.776604 Z M84.5,137.776604 L83.5,137.776604 L83.5,135.776604 L84.5,135.776604 L84.5,137.776604 Z M84.5,133.776604 L83.5,133.776604 L83.5,131.776604 L84.5,131.776604 L84.5,133.776604 Z M84.5,129.776604 L83.5,129.776604 L83.5,127.776604 L84.5,127.776604 L84.5,129.776604 Z M84.5,125.776604 L83.5,125.776604 L83.5,123.776604 L84.5,123.776604 L84.5,125.776604 Z M84.5,121.776604 L83.5,121.776604 L83.5,119.776604 L84.5,119.776604 L84.5,121.776604 Z M84.5,117.776604 L83.5,117.776604 L83.5,115.776604 L84.5,115.776604 L84.5,117.776604 Z M84.5,113.776604 L83.5,113.776604 L83.5,111.776604 L84.5,111.776604 L84.5,113.776604 Z M84.5,109.776604 L83.5,109.776604 L83.5,107.776604 L84.5,107.776604 L84.5,109.776604 Z M84.5,105.776604 L83.5,105.776604 L83.5,103.776604 L84.5,103.776604 L84.5,105.776604 Z M84.5,101.776604 L83.5,101.776604 L83.5,99.7766036 L84.5,99.7766036 L84.5,101.776604 Z M84.5,97.7766036 L83.5,97.7766036 L83.5,95.7766036 L84.5,95.7766036 L84.5,97.7766036 Z M84.5,93.7766036 L83.5,93.7766036 L83.5,91.7766036 L84.5,91.7766036 L84.5,93.7766036 Z M84.5,89.7766036 L83.5,89.7766036 L83.5,87.7766036 L84.5,87.7766036 L84.5,89.7766036 Z M84.5,85.7766036 L83.5,85.7766036 L83.5,83.7766036 L84.5,83.7766036 L84.5,85.7766036 Z M84.5,81.7766036 L83.5,81.7766036 L83.5,79.7766036 L84.5,79.7766036 L84.5,81.7766036 Z M84.5,77.7766036 L83.5,77.7766036 L83.5,75.7766036 L84.5,75.7766036 L84.5,77.7766036 Z M84.5,73.7766036 L83.5,73.7766036 L83.5,71.7766036 L84.5,71.7766036 L84.5,73.7766036 Z M84.5,69.7766036 L83.5,69.7766036 L83.5,67.7766036 L84.5,67.7766036 L84.5,69.7766036 Z M84.5,65.7766036 L83.5,65.7766036 L83.5,63.7766036 L84.5,63.7766036 L84.5,65.7766036 Z M84.5,61.7766036 L83.5,61.7766036 L83.5,59.7766036 L84.5,59.7766036 L84.5,61.7766036 Z M84.5,57.7766036 L83.5,57.7766036 L83.5,55.7766036 L84.5,55.7766036 L84.5,57.7766036 Z M84.5,53.7766036 L83.5,53.7766036 L83.5,51.7766036 L84.5,51.7766036 L84.5,53.7766036 Z M84.5,49.7766036 L83.5,49.7766036 L83.5,47.7766036 L84.5,47.7766036 L84.5,49.7766036 Z M84.5,45.7766036 L83.5,45.7766036 L83.5,43.7766036 L84.5,43.7766036 L84.5,45.7766036 Z M84.5,41.7766036 L83.5,41.7766036 L83.5,39.7766036 L84.5,39.7766036 L84.5,41.7766036 Z M84.5,37.7766036 L83.5,37.7766036 L83.5,35.7766036 L84.5,35.7766036 L84.5,37.7766036 Z M84.5,33.7766036 L83.5,33.7766036 L83.5,31.7766036 L84.5,31.7766036 L84.5,33.7766036 Z M84.5,29.7766036 L83.5,29.7766036 L83.5,27.7766036 L84.5,27.7766036 L84.5,29.7766036 Z M84.5,25.7766036 L83.5,25.7766036 L83.5,23.7766036 L84.5,23.7766036 L84.5,25.7766036 Z M84.5,21.7766036 L83.5,21.7766036 L83.5,19.7766036 L84.5,19.7766036 L84.5,21.7766036 Z M84.5,17.7766036 L83.5,17.7766036 L83.5,15.7766036 L84.5,15.7766036 L84.5,17.7766036 Z M84.5,13.7766036 L83.5,13.7766036 L83.5,11.7766036 L84.5,11.7766036 L84.5,13.7766036 Z M84.5,9.77660357 L83.5,9.77660357 L83.5,7.77660357 L84.5,7.77660357 L84.5,9.77660357 Z M84.5,5.77660357 L83.5,5.77660357 L83.5,4 C83.5,3.91298602 83.503185,3.82630889 83.5095269,3.74009076 L84.5068326,3.81344867 C84.5022859,3.87526122 84.5,3.93746925 84.5,4 L84.5,5.77660357 Z M85.1864763,2.27919676 L84.4612031,1.59073558 C85.0102928,1.01228605 85.7410799,0.635042921 86.5400168,0.530013119 L86.6703573,1.52148241 C86.1005296,1.59639307 85.5791311,1.86554672 85.1864763,2.27919676 Z" id="Rectangle-3-Copy-12" fill="#A1CAFF" fill-rule="nonzero"></path>
        <g id="分组-3-copy-3" transform="translate(534.000000, 130.000000)">
            <rect id="Rectangle-3-Copy-12" fill="#A1CAFF" x="0" y="0" width="46" height="74" rx="3"></rect>
            <rect id="Rectangle-Copy-72" fill="#3261AF" x="10" y="10" width="26" height="26" rx="3"></rect>
            <text id="Local-DNS" font-family="PingFangSC-Regular, PingFang SC" font-size="12" font-weight="normal" fill="#001B47">
                <tspan x="7.91" y="51">Local</tspan>
                <tspan x="10.658" y="68">DNS</tspan>
            </text>
            <text id="DNS" font-family="PingFangSC-Regular, PingFang SC" font-size="12" font-weight="normal" fill="#FFFFFF">
                <tspan x="11.158" y="28">DNS</tspan>
            </text>
        </g>
        <path d="M559,116 L559,127 L558,127 L558,115 L558,113 L561,116 L559,116 Z M555,124 L555,113 L556,113 L556,125 L556,127 L553,124 L555,124 Z" id="合并形状" fill="#3261AF" fill-rule="nonzero" transform="translate(557.000000, 120.000000) rotate(-180.000000) translate(-557.000000, -120.000000) "></path>
        <path d="M527,193 L527,204 L526,204 L526,192 L526,190 L529,193 L527,193 Z M523,201 L523,190 L524,190 L524,202 L524,204 L521,201 L523,201 Z" id="合并形状-copy-3" fill="#3261AF" fill-rule="nonzero" transform="translate(525.000000, 197.000000) rotate(-270.000000) translate(-525.000000, -197.000000) "></path>
        <text id="获取最佳CDN-边缘节点" font-family="PingFangSC-Regular, PingFang SC" font-size="10" font-weight="normal" fill="#001B47">
            <tspan x="497.235" y="218">获取最佳CDN</tspan>
            <tspan x="508" y="232">边缘节点</tspan>
        </text>
    </g>
</svg>