<?xml version="1.0" encoding="UTF-8"?>
<svg width="580px" height="240px" viewBox="0 0 580 240" version="1.1" xmlns="http://www.w3.org/2000/svg" xmlns:xlink="http://www.w3.org/1999/xlink">
    <!-- Generator: Sketch 52 (66869) - http://www.bohemiancoding.com/sketch -->
    <title>CDN产品应用场景 视频加速</title>
    <desc>Created with Sketch.</desc>
    <g id="CDN产品应用场景-视频加速" stroke="none" stroke-width="1" fill="none" fill-rule="evenodd">
        <path d="M87,1.5 L87,0.5 L89,0.5 L89,1.5 L87,1.5 Z M91,1.5 L91,0.5 L93,0.5 L93,1.5 L91,1.5 Z M95,1.5 L95,0.5 L97,0.5 L97,1.5 L95,1.5 Z M99,1.5 L99,0.5 L101,0.5 L101,1.5 L99,1.5 Z M103,1.5 L103,0.5 L105,0.5 L105,1.5 L103,1.5 Z M107,1.5 L107,0.5 L109,0.5 L109,1.5 L107,1.5 Z M111,1.5 L111,0.5 L113,0.5 L113,1.5 L111,1.5 Z M115,1.5 L115,0.5 L117,0.5 L117,1.5 L115,1.5 Z M119,1.5 L119,0.5 L121,0.5 L121,1.5 L119,1.5 Z M123,1.5 L123,0.5 L125,0.5 L125,1.5 L123,1.5 Z M127,1.5 L127,0.5 L129,0.5 L129,1.5 L127,1.5 Z M131,1.5 L131,0.5 L133,0.5 L133,1.5 L131,1.5 Z M135,1.5 L135,0.5 L137,0.5 L137,1.5 L135,1.5 Z M139,1.5 L139,0.5 L141,0.5 L141,1.5 L139,1.5 Z M143,1.5 L143,0.5 L145,0.5 L145,1.5 L143,1.5 Z M147,1.5 L147,0.5 L149,0.5 L149,1.5 L147,1.5 Z M151,1.5 L151,0.5 L153,0.5 L153,1.5 L151,1.5 Z M155,1.5 L155,0.5 L157,0.5 L157,1.5 L155,1.5 Z M159,1.5 L159,0.5 L161,0.5 L161,1.5 L159,1.5 Z M163,1.5 L163,0.5 L165,0.5 L165,1.5 L163,1.5 Z M167,1.5 L167,0.5 L169,0.5 L169,1.5 L167,1.5 Z M171,1.5 L171,0.5 L173,0.5 L173,1.5 L171,1.5 Z M175,1.5 L175,0.5 L177,0.5 L177,1.5 L175,1.5 Z M179,1.5 L179,0.5 L181,0.5 L181,1.5 L179,1.5 Z M183,1.5 L183,0.5 L185,0.5 L185,1.5 L183,1.5 Z M187,1.5 L187,0.5 L189,0.5 L189,1.5 L187,1.5 Z M191,1.5 L191,0.5 L193,0.5 L193,1.5 L191,1.5 Z M195,1.5 L195,0.5 L197,0.5 L197,1.5 L195,1.5 Z M199,1.5 L199,0.5 L201,0.5 L201,1.5 L199,1.5 Z M203,1.5 L203,0.5 L205,0.5 L205,1.5 L203,1.5 Z M207,1.5 L207,0.5 L209,0.5 L209,1.5 L207,1.5 Z M211,1.5 L211,0.5 L213,0.5 L213,1.5 L211,1.5 Z M215,1.5 L215,0.5 L217,0.5 L217,1.5 L215,1.5 Z M219,1.5 L219,0.5 L221,0.5 L221,1.5 L219,1.5 Z M223,1.5 L223,0.5 L225,0.5 L225,1.5 L223,1.5 Z M227,1.5 L227,0.5 L229,0.5 L229,1.5 L227,1.5 Z M231,1.5 L231,0.5 L233,0.5 L233,1.5 L231,1.5 Z M235,1.5 L235,0.5 L237,0.5 L237,1.5 L235,1.5 Z M239,1.5 L239,0.5 L241,0.5 L241,1.5 L239,1.5 Z M243,1.5 L243,0.5 L245,0.5 L245,1.5 L243,1.5 Z M247,1.5 L247,0.5 L249,0.5 L249,1.5 L247,1.5 Z M251,1.5 L251,0.5 L253,0.5 L253,1.5 L251,1.5 Z M255,1.5 L255,0.5 L257,0.5 L257,1.5 L255,1.5 Z M259,1.5 L259,0.5 L261,0.5 L261,1.5 L259,1.5 Z M263,1.5 L263,0.5 L265,0.5 L265,1.5 L263,1.5 Z M267,1.5 L267,0.5 L269,0.5 L269,1.5 L267,1.5 Z M271,1.5 L271,0.5 L273,0.5 L273,1.5 L271,1.5 Z M275,1.5 L275,0.5 L277,0.5 L277,1.5 L275,1.5 Z M279,1.5 L279,0.5 L281,0.5 L281,1.5 L279,1.5 Z M283,1.5 L283,0.5 L285,0.5 L285,1.5 L283,1.5 Z M287,1.5 L287,0.5 L289,0.5 L289,1.5 L287,1.5 Z M291,1.5 L291,0.5 L293,0.5 L293,1.5 L291,1.5 Z M295,1.5 L295,0.5 L297,0.5 L297,1.5 L295,1.5 Z M299,1.5 L299,0.5 L301,0.5 L301,1.5 L299,1.5 Z M303,1.5 L303,0.5 L305,0.5 L305,1.5 L303,1.5 Z M307,1.5 L307,0.5 L309,0.5 L309,1.5 L307,1.5 Z M311,1.5 L311,0.5 L313,0.5 L313,1.5 L311,1.5 Z M315,1.5 L315,0.5 L317,0.5 L317,1.5 L315,1.5 Z M319,1.5 L319,0.5 L321,0.5 L321,1.5 L319,1.5 Z M323,1.5 L323,0.5 L325,0.5 L325,1.5 L323,1.5 Z M327,1.5 L327,0.5 L329,0.5 L329,1.5 L327,1.5 Z M331,1.5 L331,0.5 L333,0.5 L333,1.5 L331,1.5 Z M335,1.5 L335,0.5 L337,0.5 L337,1.5 L335,1.5 Z M339,1.5 L339,0.5 L341,0.5 L341,1.5 L339,1.5 Z M343,1.5 L343,0.5 L345,0.5 L345,1.5 L343,1.5 Z M347,1.5 L347,0.5 L349,0.5 L349,1.5 L347,1.5 Z M351,1.5 L351,0.5 L353,0.5 L353,1.5 L351,1.5 Z M355,1.5 L355,0.5 L357,0.5 L357,1.5 L355,1.5 Z M359,1.5 L359,0.5 L361,0.5 L361,1.5 L359,1.5 Z M363,1.5 L363,0.5 L365,0.5 L365,1.5 L363,1.5 Z M367,1.5 L367,0.5 L369,0.5 L369,1.5 L367,1.5 Z M371,1.5 L371,0.5 L373,0.5 L373,1.5 L371,1.5 Z M375,1.5 L375,0.5 L377,0.5 L377,1.5 L375,1.5 Z M379,1.5 L379,0.5 L381,0.5 L381,1.5 L379,1.5 Z M383,1.5 L383,0.5 L385,0.5 L385,1.5 L383,1.5 Z M387,1.5 L387,0.5 L389,0.5 L389,1.5 L387,1.5 Z M391,1.5 L391,0.5 L393,0.5 L393,1.5 L391,1.5 Z M395,1.5 L395,0.5 L397,0.5 L397,1.5 L395,1.5 Z M399,1.5 L399,0.5 L401,0.5 L401,1.5 L399,1.5 Z M403,1.5 L403,0.5 L405,0.5 L405,1.5 L403,1.5 Z M407,1.5 L407,0.5 L409,0.5 L409,1.5 L407,1.5 Z M411,1.5 L411,0.5 L413,0.5 L413,1.5 L411,1.5 Z M415,1.5 L415,0.5 L417,0.5 L417,1.5 L415,1.5 Z M419,1.5 L419,0.5 L421,0.5 L421,1.5 L419,1.5 Z M423,1.5 L423,0.5 L425,0.5 L425,1.5 L423,1.5 Z M427,1.5 L427,0.5 L429,0.5 L429,1.5 L427,1.5 Z M431,1.5 L431,0.5 L433,0.5 L433,1.5 L431,1.5 Z M435,1.5 L435,0.5 L437,0.5 L437,1.5 L435,1.5 Z M439,1.5 L439,0.5 L441,0.5 L441,1.5 L439,1.5 Z M443,1.5 L443,0.5 L445,0.5 L445,1.5 L443,1.5 Z M447,1.5 L447,0.5 L449,0.5 L449,1.5 L447,1.5 Z M451,1.5 L451,0.5 L453,0.5 L453,1.5 L451,1.5 Z M455,1.5 L455,0.5 L457,0.5 L457,1.5 L455,1.5 Z M459,1.5 L459,0.5 L461,0.5 L461,1.5 L459,1.5 Z M463,1.5 L463,0.5 L465,0.5 L465,1.5 L463,1.5 Z M467,1.5 L467,0.5 L469,0.5 L469,1.5 L467,1.5 Z M471,1.5 L471,0.5 L473,0.5 L473,1.5 L471,1.5 Z M475,1.5 L475,0.5 L477,0.5 L477,1.5 L475,1.5 Z M479,1.5 L479,0.5 L481,0.5 L481,1.5 L479,1.5 Z M483,1.5 L483,0.5 L485,0.5 L485,1.5 L483,1.5 Z M487,1.5 L487,0.5 L489,0.5 L489,1.5 L487,1.5 Z M491,1.5 L491,0.5 L493,0.5 L493,1.5 L491,1.5 Z M495,1.5 L495,0.5 L497,0.5 L497,1.5 L495,1.5 Z M499,1.5 L499,0.5 L501,0.5 L501,1.5 L499,1.5 Z M503,1.5 L503,0.5 L505,0.5 L505,1.5 L503,1.5 Z M507,1.5 L507,0.5 L509,0.5 L509,1.5 L507,1.5 Z M511,1.5 L511,0.5 L513,0.5 L513,1.5 L511,1.5 Z M515,1.5 L515,0.5 L517,0.5 L517,1.5 L515,1.5 Z M518.735354,1.76972689 L519.188484,0.878282369 C519.900549,1.24023195 520.470496,1.83749756 520.798113,2.5663739 L519.886015,2.97634588 C519.652039,2.45580092 519.244135,2.02834516 518.735354,1.76972689 Z M520.104383,4.80341581 L521.104383,4.80341581 L521.104383,6.80341581 L520.104383,6.80341581 L520.104383,4.80341581 Z M520.104383,8.80341581 L521.104383,8.80341581 L521.104383,10.8034158 L520.104383,10.8034158 L520.104383,8.80341581 Z M520.104383,12.8034158 L521.104383,12.8034158 L521.104383,14.8034158 L520.104383,14.8034158 L520.104383,12.8034158 Z M520.104383,16.8034158 L521.104383,16.8034158 L521.104383,18.8034158 L520.104383,18.8034158 L520.104383,16.8034158 Z M520.104383,20.8034158 L521.104383,20.8034158 L521.104383,22.8034158 L520.104383,22.8034158 L520.104383,20.8034158 Z M520.104383,24.8034158 L521.104383,24.8034158 L521.104383,26.8034158 L520.104383,26.8034158 L520.104383,24.8034158 Z M520.104383,28.8034158 L521.104383,28.8034158 L521.104383,30.8034158 L520.104383,30.8034158 L520.104383,28.8034158 Z M520.104383,32.8034158 L521.104383,32.8034158 L521.104383,34.8034158 L520.104383,34.8034158 L520.104383,32.8034158 Z M520.104383,36.8034158 L521.104383,36.8034158 L521.104383,38.8034158 L520.104383,38.8034158 L520.104383,36.8034158 Z M520.104383,40.8034158 L521.104383,40.8034158 L521.104383,42.8034158 L520.104383,42.8034158 L520.104383,40.8034158 Z M520.104383,44.8034158 L521.104383,44.8034158 L521.104383,46.8034158 L520.104383,46.8034158 L520.104383,44.8034158 Z M520.104383,48.8034158 L521.104383,48.8034158 L521.104383,50.8034158 L520.104383,50.8034158 L520.104383,48.8034158 Z M520.104383,52.8034158 L521.104383,52.8034158 L521.104383,54.8034158 L520.104383,54.8034158 L520.104383,52.8034158 Z M520.104383,56.8034158 L521.104383,56.8034158 L521.104383,58.8034158 L520.104383,58.8034158 L520.104383,56.8034158 Z M520.104383,60.8034158 L521.104383,60.8034158 L521.104383,62.8034158 L520.104383,62.8034158 L520.104383,60.8034158 Z M520.104383,64.8034158 L521.104383,64.8034158 L521.104383,66.8034158 L520.104383,66.8034158 L520.104383,64.8034158 Z M520.104383,68.8034158 L521.104383,68.8034158 L521.104383,70.8034158 L520.104383,70.8034158 L520.104383,68.8034158 Z M520.104383,72.8034158 L521.104383,72.8034158 L521.104383,74.8034158 L520.104383,74.8034158 L520.104383,72.8034158 Z M520.104383,76.8034158 L521.104383,76.8034158 L521.104383,78.8034158 L520.104383,78.8034158 L520.104383,76.8034158 Z M520.104383,80.8034158 L521.104383,80.8034158 L521.104383,82.8034158 L520.104383,82.8034158 L520.104383,80.8034158 Z M520.104383,84.8034158 L521.104383,84.8034158 L521.104383,86.8034158 L520.104383,86.8034158 L520.104383,84.8034158 Z M520.104383,88.8034158 L521.104383,88.8034158 L521.104383,90.8034158 L520.104383,90.8034158 L520.104383,88.8034158 Z M520.104383,92.8034158 L521.104383,92.8034158 L521.104383,94.8034158 L520.104383,94.8034158 L520.104383,92.8034158 Z M520.104383,96.8034158 L521.104383,96.8034158 L521.104383,98.8034158 L520.104383,98.8034158 L520.104383,96.8034158 Z M520.104383,100.803416 L521.104383,100.803416 L521.104383,102.803416 L520.104383,102.803416 L520.104383,100.803416 Z M520.104383,104.803416 L521.104383,104.803416 L521.104383,106.803416 L520.104383,106.803416 L520.104383,104.803416 Z M520.104383,108.803416 L521.104383,108.803416 L521.104383,110.803416 L520.104383,110.803416 L520.104383,108.803416 Z M520.104383,112.803416 L521.104383,112.803416 L521.104383,114.803416 L520.104383,114.803416 L520.104383,112.803416 Z M520.104383,116.803416 L521.104383,116.803416 L521.104383,118.803416 L520.104383,118.803416 L520.104383,116.803416 Z M520.104383,120.803416 L521.104383,120.803416 L521.104383,122.803416 L520.104383,122.803416 L520.104383,120.803416 Z M520.104383,124.803416 L521.104383,124.803416 L521.104383,126.803416 L520.104383,126.803416 L520.104383,124.803416 Z M520.104383,128.803416 L521.104383,128.803416 L521.104383,130.803416 L520.104383,130.803416 L520.104383,128.803416 Z M520.104383,132.803416 L521.104383,132.803416 L521.104383,134.803416 L520.104383,134.803416 L520.104383,132.803416 Z M520.104383,136.803416 L521.104383,136.803416 L521.104383,138.803416 L520.104383,138.803416 L520.104383,136.803416 Z M520.104383,140.803416 L521.104383,140.803416 L521.104383,142.803416 L520.104383,142.803416 L520.104383,140.803416 Z M520.104383,144.803416 L521.104383,144.803416 L521.104383,146.803416 L520.104383,146.803416 L520.104383,144.803416 Z M520.104383,148.803416 L521.104383,148.803416 L521.104383,150.803416 L520.104383,150.803416 L520.104383,148.803416 Z M520.104383,152.803416 L521.104383,152.803416 L521.104383,154.803416 L520.104383,154.803416 L520.104383,152.803416 Z M520.104383,156.803416 L521.104383,156.803416 L521.104383,158.803416 L520.104383,158.803416 L520.104383,156.803416 Z M520.104383,160.803416 L521.104383,160.803416 L521.104383,162.803416 L520.104383,162.803416 L520.104383,160.803416 Z M520.104383,164.803416 L521.104383,164.803416 L521.104383,166.803416 L520.104383,166.803416 L520.104383,164.803416 Z M520.104383,168.803416 L521.104383,168.803416 L521.104383,170.803416 L520.104383,170.803416 L520.104383,168.803416 Z M520.104383,172.803416 L521.104383,172.803416 L521.104383,174.803416 L520.104383,174.803416 L520.104383,172.803416 Z M520.104383,176.803416 L521.104383,176.803416 L521.104383,178.803416 L520.104383,178.803416 L520.104383,176.803416 Z M520.104383,180.803416 L521.104383,180.803416 L521.104383,182.803416 L520.104383,182.803416 L520.104383,180.803416 Z M520.104383,184.803416 L521.104383,184.803416 L521.104383,186.803416 L520.104383,186.803416 L520.104383,184.803416 Z M520.104383,188.803416 L521.104383,188.803416 L521.104383,190.803416 L520.104383,190.803416 L520.104383,188.803416 Z M520.104383,192.803416 L521.104383,192.803416 L521.104383,194.803416 L520.104383,194.803416 L520.104383,192.803416 Z M520.104383,196.803416 L521.104383,196.803416 L521.104383,198.803416 L520.104383,198.803416 L520.104383,196.803416 Z M520.104383,200.803416 L521.104383,200.803416 L521.104383,202.803416 L520.104383,202.803416 L520.104383,200.803416 Z M520.104383,204.803416 L521.104383,204.803416 L521.104383,206.803416 L520.104383,206.803416 L520.104383,204.803416 Z M520.104383,208.803416 L521.104383,208.803416 L521.104383,210.803416 L520.104383,210.803416 L520.104383,208.803416 Z M520.104383,212.803416 L521.104383,212.803416 L521.104383,214.803416 L520.104383,214.803416 L520.104383,212.803416 Z M520.104383,216.803416 L521.104383,216.803416 L521.104383,218.803416 L520.104383,218.803416 L520.104383,216.803416 Z M520.104383,220.803416 L521.104383,220.803416 L521.104383,222.803416 L520.104383,222.803416 L520.104383,220.803416 Z M520.104383,224.803416 L521.104383,224.803416 L521.104383,226.803416 L520.104383,226.803416 L520.104383,224.803416 Z M520.104383,228.803416 L521.104383,228.803416 L521.104383,230.803416 L520.104383,230.803416 L520.104383,228.803416 Z M520.104383,232.803416 L521.104383,232.803416 L521.104383,234.803416 L520.104383,234.803416 L520.104383,232.803416 Z M520.015392,236.663942 L520.979687,236.92877 C520.767401,237.701753 520.294094,238.377057 519.645935,238.843175 L519.06209,238.031311 C519.525654,237.697942 519.863998,237.215199 520.015392,236.663942 Z M517.393168,238.5 L517.393168,239.5 L515.393168,239.5 L515.393168,238.5 L517.393168,238.5 Z M513.393168,238.5 L513.393168,239.5 L511.393168,239.5 L511.393168,238.5 L513.393168,238.5 Z M509.393168,238.5 L509.393168,239.5 L507.393168,239.5 L507.393168,238.5 L509.393168,238.5 Z M505.393168,238.5 L505.393168,239.5 L503.393168,239.5 L503.393168,238.5 L505.393168,238.5 Z M501.393168,238.5 L501.393168,239.5 L499.393168,239.5 L499.393168,238.5 L501.393168,238.5 Z M497.393168,238.5 L497.393168,239.5 L495.393168,239.5 L495.393168,238.5 L497.393168,238.5 Z M493.393168,238.5 L493.393168,239.5 L491.393168,239.5 L491.393168,238.5 L493.393168,238.5 Z M489.393168,238.5 L489.393168,239.5 L487.393168,239.5 L487.393168,238.5 L489.393168,238.5 Z M485.393168,238.5 L485.393168,239.5 L483.393168,239.5 L483.393168,238.5 L485.393168,238.5 Z M481.393168,238.5 L481.393168,239.5 L479.393168,239.5 L479.393168,238.5 L481.393168,238.5 Z M477.393168,238.5 L477.393168,239.5 L475.393168,239.5 L475.393168,238.5 L477.393168,238.5 Z M473.393168,238.5 L473.393168,239.5 L471.393168,239.5 L471.393168,238.5 L473.393168,238.5 Z M469.393168,238.5 L469.393168,239.5 L467.393168,239.5 L467.393168,238.5 L469.393168,238.5 Z M465.393168,238.5 L465.393168,239.5 L463.393168,239.5 L463.393168,238.5 L465.393168,238.5 Z M461.393168,238.5 L461.393168,239.5 L459.393168,239.5 L459.393168,238.5 L461.393168,238.5 Z M457.393168,238.5 L457.393168,239.5 L455.393168,239.5 L455.393168,238.5 L457.393168,238.5 Z M453.393168,238.5 L453.393168,239.5 L451.393168,239.5 L451.393168,238.5 L453.393168,238.5 Z M449.393168,238.5 L449.393168,239.5 L447.393168,239.5 L447.393168,238.5 L449.393168,238.5 Z M445.393168,238.5 L445.393168,239.5 L443.393168,239.5 L443.393168,238.5 L445.393168,238.5 Z M441.393168,238.5 L441.393168,239.5 L439.393168,239.5 L439.393168,238.5 L441.393168,238.5 Z M437.393168,238.5 L437.393168,239.5 L435.393168,239.5 L435.393168,238.5 L437.393168,238.5 Z M433.393168,238.5 L433.393168,239.5 L431.393168,239.5 L431.393168,238.5 L433.393168,238.5 Z M429.393168,238.5 L429.393168,239.5 L427.393168,239.5 L427.393168,238.5 L429.393168,238.5 Z M425.393168,238.5 L425.393168,239.5 L423.393168,239.5 L423.393168,238.5 L425.393168,238.5 Z M421.393168,238.5 L421.393168,239.5 L419.393168,239.5 L419.393168,238.5 L421.393168,238.5 Z M417.393168,238.5 L417.393168,239.5 L415.393168,239.5 L415.393168,238.5 L417.393168,238.5 Z M413.393168,238.5 L413.393168,239.5 L411.393168,239.5 L411.393168,238.5 L413.393168,238.5 Z M409.393168,238.5 L409.393168,239.5 L407.393168,239.5 L407.393168,238.5 L409.393168,238.5 Z M405.393168,238.5 L405.393168,239.5 L403.393168,239.5 L403.393168,238.5 L405.393168,238.5 Z M401.393168,238.5 L401.393168,239.5 L399.393168,239.5 L399.393168,238.5 L401.393168,238.5 Z M397.393168,238.5 L397.393168,239.5 L395.393168,239.5 L395.393168,238.5 L397.393168,238.5 Z M393.393168,238.5 L393.393168,239.5 L391.393168,239.5 L391.393168,238.5 L393.393168,238.5 Z M389.393168,238.5 L389.393168,239.5 L387.393168,239.5 L387.393168,238.5 L389.393168,238.5 Z M385.393168,238.5 L385.393168,239.5 L383.393168,239.5 L383.393168,238.5 L385.393168,238.5 Z M381.393168,238.5 L381.393168,239.5 L379.393168,239.5 L379.393168,238.5 L381.393168,238.5 Z M377.393168,238.5 L377.393168,239.5 L375.393168,239.5 L375.393168,238.5 L377.393168,238.5 Z M373.393168,238.5 L373.393168,239.5 L371.393168,239.5 L371.393168,238.5 L373.393168,238.5 Z M369.393168,238.5 L369.393168,239.5 L367.393168,239.5 L367.393168,238.5 L369.393168,238.5 Z M365.393168,238.5 L365.393168,239.5 L363.393168,239.5 L363.393168,238.5 L365.393168,238.5 Z M361.393168,238.5 L361.393168,239.5 L359.393168,239.5 L359.393168,238.5 L361.393168,238.5 Z M357.393168,238.5 L357.393168,239.5 L355.393168,239.5 L355.393168,238.5 L357.393168,238.5 Z M353.393168,238.5 L353.393168,239.5 L351.393168,239.5 L351.393168,238.5 L353.393168,238.5 Z M349.393168,238.5 L349.393168,239.5 L347.393168,239.5 L347.393168,238.5 L349.393168,238.5 Z M345.393168,238.5 L345.393168,239.5 L343.393168,239.5 L343.393168,238.5 L345.393168,238.5 Z M341.393168,238.5 L341.393168,239.5 L339.393168,239.5 L339.393168,238.5 L341.393168,238.5 Z M337.393168,238.5 L337.393168,239.5 L335.393168,239.5 L335.393168,238.5 L337.393168,238.5 Z M333.393168,238.5 L333.393168,239.5 L331.393168,239.5 L331.393168,238.5 L333.393168,238.5 Z M329.393168,238.5 L329.393168,239.5 L327.393168,239.5 L327.393168,238.5 L329.393168,238.5 Z M325.393168,238.5 L325.393168,239.5 L323.393168,239.5 L323.393168,238.5 L325.393168,238.5 Z M321.393168,238.5 L321.393168,239.5 L319.393168,239.5 L319.393168,238.5 L321.393168,238.5 Z M317.393168,238.5 L317.393168,239.5 L315.393168,239.5 L315.393168,238.5 L317.393168,238.5 Z M313.393168,238.5 L313.393168,239.5 L311.393168,239.5 L311.393168,238.5 L313.393168,238.5 Z M309.393168,238.5 L309.393168,239.5 L307.393168,239.5 L307.393168,238.5 L309.393168,238.5 Z M305.393168,238.5 L305.393168,239.5 L303.393168,239.5 L303.393168,238.5 L305.393168,238.5 Z M301.393168,238.5 L301.393168,239.5 L299.393168,239.5 L299.393168,238.5 L301.393168,238.5 Z M297.393168,238.5 L297.393168,239.5 L295.393168,239.5 L295.393168,238.5 L297.393168,238.5 Z M293.393168,238.5 L293.393168,239.5 L291.393168,239.5 L291.393168,238.5 L293.393168,238.5 Z M289.393168,238.5 L289.393168,239.5 L287.393168,239.5 L287.393168,238.5 L289.393168,238.5 Z M285.393168,238.5 L285.393168,239.5 L283.393168,239.5 L283.393168,238.5 L285.393168,238.5 Z M281.393168,238.5 L281.393168,239.5 L279.393168,239.5 L279.393168,238.5 L281.393168,238.5 Z M277.393168,238.5 L277.393168,239.5 L275.393168,239.5 L275.393168,238.5 L277.393168,238.5 Z M273.393168,238.5 L273.393168,239.5 L271.393168,239.5 L271.393168,238.5 L273.393168,238.5 Z M269.393168,238.5 L269.393168,239.5 L267.393168,239.5 L267.393168,238.5 L269.393168,238.5 Z M265.393168,238.5 L265.393168,239.5 L263.393168,239.5 L263.393168,238.5 L265.393168,238.5 Z M261.393168,238.5 L261.393168,239.5 L259.393168,239.5 L259.393168,238.5 L261.393168,238.5 Z M257.393168,238.5 L257.393168,239.5 L255.393168,239.5 L255.393168,238.5 L257.393168,238.5 Z M253.393168,238.5 L253.393168,239.5 L251.393168,239.5 L251.393168,238.5 L253.393168,238.5 Z M249.393168,238.5 L249.393168,239.5 L247.393168,239.5 L247.393168,238.5 L249.393168,238.5 Z M245.393168,238.5 L245.393168,239.5 L243.393168,239.5 L243.393168,238.5 L245.393168,238.5 Z M241.393168,238.5 L241.393168,239.5 L239.393168,239.5 L239.393168,238.5 L241.393168,238.5 Z M237.393168,238.5 L237.393168,239.5 L235.393168,239.5 L235.393168,238.5 L237.393168,238.5 Z M233.393168,238.5 L233.393168,239.5 L231.393168,239.5 L231.393168,238.5 L233.393168,238.5 Z M229.393168,238.5 L229.393168,239.5 L227.393168,239.5 L227.393168,238.5 L229.393168,238.5 Z M225.393168,238.5 L225.393168,239.5 L223.393168,239.5 L223.393168,238.5 L225.393168,238.5 Z M221.393168,238.5 L221.393168,239.5 L219.393168,239.5 L219.393168,238.5 L221.393168,238.5 Z M217.393168,238.5 L217.393168,239.5 L215.393168,239.5 L215.393168,238.5 L217.393168,238.5 Z M213.393168,238.5 L213.393168,239.5 L211.393168,239.5 L211.393168,238.5 L213.393168,238.5 Z M209.393168,238.5 L209.393168,239.5 L207.393168,239.5 L207.393168,238.5 L209.393168,238.5 Z M205.393168,238.5 L205.393168,239.5 L203.393168,239.5 L203.393168,238.5 L205.393168,238.5 Z M201.393168,238.5 L201.393168,239.5 L199.393168,239.5 L199.393168,238.5 L201.393168,238.5 Z M197.393168,238.5 L197.393168,239.5 L195.393168,239.5 L195.393168,238.5 L197.393168,238.5 Z M193.393168,238.5 L193.393168,239.5 L191.393168,239.5 L191.393168,238.5 L193.393168,238.5 Z M189.393168,238.5 L189.393168,239.5 L187.393168,239.5 L187.393168,238.5 L189.393168,238.5 Z M185.393168,238.5 L185.393168,239.5 L183.393168,239.5 L183.393168,238.5 L185.393168,238.5 Z M181.393168,238.5 L181.393168,239.5 L179.393168,239.5 L179.393168,238.5 L181.393168,238.5 Z M177.393168,238.5 L177.393168,239.5 L175.393168,239.5 L175.393168,238.5 L177.393168,238.5 Z M173.393168,238.5 L173.393168,239.5 L171.393168,239.5 L171.393168,238.5 L173.393168,238.5 Z M169.393168,238.5 L169.393168,239.5 L167.393168,239.5 L167.393168,238.5 L169.393168,238.5 Z M165.393168,238.5 L165.393168,239.5 L163.393168,239.5 L163.393168,238.5 L165.393168,238.5 Z M161.393168,238.5 L161.393168,239.5 L159.393168,239.5 L159.393168,238.5 L161.393168,238.5 Z M157.393168,238.5 L157.393168,239.5 L155.393168,239.5 L155.393168,238.5 L157.393168,238.5 Z M153.393168,238.5 L153.393168,239.5 L151.393168,239.5 L151.393168,238.5 L153.393168,238.5 Z M149.393168,238.5 L149.393168,239.5 L147.393168,239.5 L147.393168,238.5 L149.393168,238.5 Z M145.393168,238.5 L145.393168,239.5 L143.393168,239.5 L143.393168,238.5 L145.393168,238.5 Z M141.393168,238.5 L141.393168,239.5 L139.393168,239.5 L139.393168,238.5 L141.393168,238.5 Z M137.393168,238.5 L137.393168,239.5 L135.393168,239.5 L135.393168,238.5 L137.393168,238.5 Z M133.393168,238.5 L133.393168,239.5 L131.393168,239.5 L131.393168,238.5 L133.393168,238.5 Z M129.393168,238.5 L129.393168,239.5 L127.393168,239.5 L127.393168,238.5 L129.393168,238.5 Z M125.393168,238.5 L125.393168,239.5 L123.393168,239.5 L123.393168,238.5 L125.393168,238.5 Z M121.393168,238.5 L121.393168,239.5 L119.393168,239.5 L119.393168,238.5 L121.393168,238.5 Z M117.393168,238.5 L117.393168,239.5 L115.393168,239.5 L115.393168,238.5 L117.393168,238.5 Z M113.393168,238.5 L113.393168,239.5 L111.393168,239.5 L111.393168,238.5 L113.393168,238.5 Z M109.393168,238.5 L109.393168,239.5 L107.393168,239.5 L107.393168,238.5 L109.393168,238.5 Z M105.393168,238.5 L105.393168,239.5 L103.393168,239.5 L103.393168,238.5 L105.393168,238.5 Z M101.393168,238.5 L101.393168,239.5 L99.3931684,239.5 L99.3931684,238.5 L101.393168,238.5 Z M97.3931684,238.5 L97.3931684,239.5 L95.3931684,239.5 L95.3931684,238.5 L97.3931684,238.5 Z M93.3931684,238.5 L93.3931684,239.5 L91.3931684,239.5 L91.3931684,238.5 L93.3931684,238.5 Z M89.3931684,238.5 L89.3931684,239.5 L87.3931684,239.5 L87.3931684,238.5 L89.3931684,238.5 Z M85.7101739,238.142098 L85.1933602,238.998196 C84.5097605,238.585517 83.9840891,237.949266 83.7103769,237.197537 L84.6500272,236.855401 C84.8453578,237.391861 85.2214426,237.847058 85.7101739,238.142098 Z M84.5,234.98537 L83.5,234.98537 L83.5,232.98537 L84.5,232.98537 L84.5,234.98537 Z M84.5,230.98537 L83.5,230.98537 L83.5,228.98537 L84.5,228.98537 L84.5,230.98537 Z M84.5,226.98537 L83.5,226.98537 L83.5,224.98537 L84.5,224.98537 L84.5,226.98537 Z M84.5,222.98537 L83.5,222.98537 L83.5,220.98537 L84.5,220.98537 L84.5,222.98537 Z M84.5,218.98537 L83.5,218.98537 L83.5,216.98537 L84.5,216.98537 L84.5,218.98537 Z M84.5,214.98537 L83.5,214.98537 L83.5,212.98537 L84.5,212.98537 L84.5,214.98537 Z M84.5,210.98537 L83.5,210.98537 L83.5,208.98537 L84.5,208.98537 L84.5,210.98537 Z M84.5,206.98537 L83.5,206.98537 L83.5,204.98537 L84.5,204.98537 L84.5,206.98537 Z M84.5,202.98537 L83.5,202.98537 L83.5,200.98537 L84.5,200.98537 L84.5,202.98537 Z M84.5,198.98537 L83.5,198.98537 L83.5,196.98537 L84.5,196.98537 L84.5,198.98537 Z M84.5,194.98537 L83.5,194.98537 L83.5,192.98537 L84.5,192.98537 L84.5,194.98537 Z M84.5,190.98537 L83.5,190.98537 L83.5,188.98537 L84.5,188.98537 L84.5,190.98537 Z M84.5,186.98537 L83.5,186.98537 L83.5,184.98537 L84.5,184.98537 L84.5,186.98537 Z M84.5,182.98537 L83.5,182.98537 L83.5,180.98537 L84.5,180.98537 L84.5,182.98537 Z M84.5,178.98537 L83.5,178.98537 L83.5,176.98537 L84.5,176.98537 L84.5,178.98537 Z M84.5,174.98537 L83.5,174.98537 L83.5,172.98537 L84.5,172.98537 L84.5,174.98537 Z M84.5,170.98537 L83.5,170.98537 L83.5,168.98537 L84.5,168.98537 L84.5,170.98537 Z M84.5,166.98537 L83.5,166.98537 L83.5,164.98537 L84.5,164.98537 L84.5,166.98537 Z M84.5,162.98537 L83.5,162.98537 L83.5,160.98537 L84.5,160.98537 L84.5,162.98537 Z M84.5,158.98537 L83.5,158.98537 L83.5,156.98537 L84.5,156.98537 L84.5,158.98537 Z M84.5,154.98537 L83.5,154.98537 L83.5,152.98537 L84.5,152.98537 L84.5,154.98537 Z M84.5,150.98537 L83.5,150.98537 L83.5,148.98537 L84.5,148.98537 L84.5,150.98537 Z M84.5,146.98537 L83.5,146.98537 L83.5,144.98537 L84.5,144.98537 L84.5,146.98537 Z M84.5,142.98537 L83.5,142.98537 L83.5,140.98537 L84.5,140.98537 L84.5,142.98537 Z M84.5,138.98537 L83.5,138.98537 L83.5,136.98537 L84.5,136.98537 L84.5,138.98537 Z M84.5,134.98537 L83.5,134.98537 L83.5,132.98537 L84.5,132.98537 L84.5,134.98537 Z M84.5,130.98537 L83.5,130.98537 L83.5,128.98537 L84.5,128.98537 L84.5,130.98537 Z M84.5,126.98537 L83.5,126.98537 L83.5,124.98537 L84.5,124.98537 L84.5,126.98537 Z M84.5,122.98537 L83.5,122.98537 L83.5,120.98537 L84.5,120.98537 L84.5,122.98537 Z M84.5,118.98537 L83.5,118.98537 L83.5,116.98537 L84.5,116.98537 L84.5,118.98537 Z M84.5,114.98537 L83.5,114.98537 L83.5,112.98537 L84.5,112.98537 L84.5,114.98537 Z M84.5,110.98537 L83.5,110.98537 L83.5,108.98537 L84.5,108.98537 L84.5,110.98537 Z M84.5,106.98537 L83.5,106.98537 L83.5,104.98537 L84.5,104.98537 L84.5,106.98537 Z M84.5,102.98537 L83.5,102.98537 L83.5,100.98537 L84.5,100.98537 L84.5,102.98537 Z M84.5,98.9853696 L83.5,98.9853696 L83.5,96.9853696 L84.5,96.9853696 L84.5,98.9853696 Z M84.5,94.9853696 L83.5,94.9853696 L83.5,92.9853696 L84.5,92.9853696 L84.5,94.9853696 Z M84.5,90.9853696 L83.5,90.9853696 L83.5,88.9853696 L84.5,88.9853696 L84.5,90.9853696 Z M84.5,86.9853696 L83.5,86.9853696 L83.5,84.9853696 L84.5,84.9853696 L84.5,86.9853696 Z M84.5,82.9853696 L83.5,82.9853696 L83.5,80.9853696 L84.5,80.9853696 L84.5,82.9853696 Z M84.5,78.9853696 L83.5,78.9853696 L83.5,76.9853696 L84.5,76.9853696 L84.5,78.9853696 Z M84.5,74.9853696 L83.5,74.9853696 L83.5,72.9853696 L84.5,72.9853696 L84.5,74.9853696 Z M84.5,70.9853696 L83.5,70.9853696 L83.5,68.9853696 L84.5,68.9853696 L84.5,70.9853696 Z M84.5,66.9853696 L83.5,66.9853696 L83.5,64.9853696 L84.5,64.9853696 L84.5,66.9853696 Z M84.5,62.9853696 L83.5,62.9853696 L83.5,60.9853696 L84.5,60.9853696 L84.5,62.9853696 Z M84.5,58.9853696 L83.5,58.9853696 L83.5,56.9853696 L84.5,56.9853696 L84.5,58.9853696 Z M84.5,54.9853696 L83.5,54.9853696 L83.5,52.9853696 L84.5,52.9853696 L84.5,54.9853696 Z M84.5,50.9853696 L83.5,50.9853696 L83.5,48.9853696 L84.5,48.9853696 L84.5,50.9853696 Z M84.5,46.9853696 L83.5,46.9853696 L83.5,44.9853696 L84.5,44.9853696 L84.5,46.9853696 Z M84.5,42.9853696 L83.5,42.9853696 L83.5,40.9853696 L84.5,40.9853696 L84.5,42.9853696 Z M84.5,38.9853696 L83.5,38.9853696 L83.5,36.9853696 L84.5,36.9853696 L84.5,38.9853696 Z M84.5,34.9853696 L83.5,34.9853696 L83.5,32.9853696 L84.5,32.9853696 L84.5,34.9853696 Z M84.5,30.9853696 L83.5,30.9853696 L83.5,28.9853696 L84.5,28.9853696 L84.5,30.9853696 Z M84.5,26.9853696 L83.5,26.9853696 L83.5,24.9853696 L84.5,24.9853696 L84.5,26.9853696 Z M84.5,22.9853696 L83.5,22.9853696 L83.5,20.9853696 L84.5,20.9853696 L84.5,22.9853696 Z M84.5,18.9853696 L83.5,18.9853696 L83.5,16.9853696 L84.5,16.9853696 L84.5,18.9853696 Z M84.5,14.9853696 L83.5,14.9853696 L83.5,12.9853696 L84.5,12.9853696 L84.5,14.9853696 Z M84.5,10.9853696 L83.5,10.9853696 L83.5,8.98536957 L84.5,8.98536957 L84.5,10.9853696 Z M84.5,6.98536957 L83.5,6.98536957 L83.5,4.98536957 L84.5,4.98536957 L84.5,6.98536957 Z M84.6421416,3.16657801 L83.6993081,2.83331375 C83.9659896,2.07884861 84.4858027,1.43780158 85.1655592,1.01876379 L85.690316,1.87001598 C85.2043034,2.1696198 84.8324374,2.62821472 84.6421416,3.16657801 Z" id="Rectangle-3-Copy-12" fill="#A1CAFF" fill-rule="nonzero"></path>
        <path id="路径-46" d="M394,26.5 L417.958369,26.5 L418.458369,26.5 L418.458369,27 L418.458369,211.5 L418.458369,212 L417.958369,212 L393,212 L393,216 L384,211.5 L393,207 L393,211 L417.458369,211 L417.458369,27.5 L394,27.5 L394,31.5 L385,27 L394,22.5 L394,26.5 Z" fill="#A1CAFF" fill-rule="nonzero"></path>
        <polygon id="路径-43-copy-4" fill="#A1CAFF" fill-rule="nonzero" transform="translate(304.642052, 163.500000) scale(-1, 1) translate(-304.642052, -163.500000) " points="307.284103 164 293 164 293 163 307.284103 163 307.284103 159 316.284103 163.5 307.284103 168 307.284103 164"></polygon>
        <polygon id="路径-43-copy-8" fill="#A1CAFF" fill-rule="nonzero" transform="translate(401.337133, 163.500000) scale(-1, 1) translate(-401.337133, -163.500000) " points="409.458369 164 384.215897 164 384.215897 163 409.458369 163 409.458369 159 418.458369 163.5 409.458369 168 409.458369 164"></polygon>
        <polygon id="路径-43-copy-6" fill="#A1CAFF" fill-rule="nonzero" transform="translate(304.642052, 28.000000) scale(-1, 1) translate(-304.642052, -28.000000) " points="307.284103 28.5 293 28.5 293 27.5 307.284103 27.5 307.284103 23.5 316.284103 28 307.284103 32.5 307.284103 28.5"></polygon>
        <polygon id="路径-43-copy-5" fill="#A1CAFF" fill-rule="nonzero" transform="translate(304.642052, 211.500000) scale(-1, 1) translate(-304.642052, -211.500000) " points="307.284103 212 293 212 293 211 307.284103 211 307.284103 207 316.284103 211.5 307.284103 216 307.284103 212"></polygon>
        <polygon id="路径-43-copy-7" fill="#A1CAFF" fill-rule="nonzero" transform="translate(304.642052, 76.000000) scale(-1, 1) translate(-304.642052, -76.000000) " points="307.284103 76.5 293 76.5 293 75.5 307.284103 75.5 307.284103 71.5 316.284103 76 307.284103 80.5 307.284103 76.5"></polygon>
        <path d="M97,10 L287,10 C288.656854,10 290,11.3431458 290,13 L290,227 C290,228.656854 288.656854,230 287,230 L97,230 C95.3431458,230 94,228.656854 94,227 L94,13 C94,11.3431458 95.3431458,10 97,10 Z" id="Rectangle-3-Copy-13" fill="#E1EDFF"></path>
        <text id="CDN父集群" font-family="PingFangSC-Regular, PingFang SC" font-size="12" font-weight="normal" fill="#001B47">
            <tspan x="111.582" y="28">CDN父集群</tspan>
        </text>
        <text id="CDN父节点" font-family="PingFangSC-Regular, PingFang SC" font-size="10" font-weight="normal" fill="#001B47">
            <tspan x="116.235" y="86">CDN父节点</tspan>
        </text>
        <text id="CDN边缘点" font-family="PingFangSC-Regular, PingFang SC" font-size="10" font-weight="normal" fill="#001B47">
            <tspan x="210.235" y="86">CDN边缘点</tspan>
        </text>
        <text id="CDN父节点" font-family="PingFangSC-Regular, PingFang SC" font-size="10" font-weight="normal" fill="#001B47">
            <tspan x="116.235" y="149">CDN父节点</tspan>
        </text>
        <text id="CDN边缘点" font-family="PingFangSC-Regular, PingFang SC" font-size="10" font-weight="normal" fill="#001B47">
            <tspan x="210.235" y="149">CDN边缘点</tspan>
        </text>
        <text id="CDN父节点" font-family="PingFangSC-Regular, PingFang SC" font-size="10" font-weight="normal" fill="#001B47">
            <tspan x="116.235" y="211">CDN父节点</tspan>
        </text>
        <text id="CDN边缘点" font-family="PingFangSC-Regular, PingFang SC" font-size="10" font-weight="normal" fill="#001B47">
            <tspan x="210.235" y="211">CDN边缘点</tspan>
        </text>
        <text id="CDN边缘集群" font-family="PingFangSC-Regular, PingFang SC" font-size="12" font-weight="normal" fill="#001B47">
            <tspan x="198.582" y="28">CDN边缘集群</tspan>
        </text>
        <rect id="Rectangle-3-Copy-10" stroke="#A1CAFF" x="106.5" y="35.5" width="71" height="183" rx="3"></rect>
        <rect id="Rectangle-3-Copy-11" stroke="#A1CAFF" x="200.5" y="35.5" width="71" height="183" rx="3"></rect>
        <rect id="Rectangle-Copy-66" stroke="#A1CAFF" fill="#FFFFFF" x="114.5" y="40.5" width="55" height="29" rx="3"></rect>
        <g id="Group-Copy" transform="translate(132.000000, 45.000000)">
            <polygon id="Triangle" stroke="#3261AF" points="10.4 1.6 18.4 17.6 2.4 17.6"></polygon>
            <circle id="Oval" fill="#A1CAFF" cx="10.4" cy="2.4" r="2.4"></circle>
            <circle id="Oval-Copy" fill="#A1CAFF" cx="2.4" cy="17.6" r="2.4"></circle>
            <circle id="Oval-Copy-2" fill="#A1CAFF" cx="18.4" cy="17.6" r="2.4"></circle>
        </g>
        <rect id="Rectangle-Copy-69" stroke="#A1CAFF" fill="#FFFFFF" x="208.5" y="40.5" width="55" height="29" rx="3"></rect>
        <rect id="Rectangle-Copy-67" stroke="#A1CAFF" fill="#FFFFFF" x="114.5" y="103.5" width="55" height="29" rx="3"></rect>
        <rect id="Rectangle-Copy-70" stroke="#A1CAFF" fill="#FFFFFF" x="208.5" y="103.5" width="55" height="29" rx="3"></rect>
        <rect id="Rectangle-Copy-68" stroke="#A1CAFF" fill="#FFFFFF" x="114.5" y="165.5" width="55" height="29" rx="3"></rect>
        <rect id="Rectangle-Copy-71" stroke="#A1CAFF" fill="#FFFFFF" x="208.5" y="165.5" width="55" height="29" rx="3"></rect>
        <g id="Group-Copy-2" transform="translate(132.000000, 108.000000)">
            <polygon id="Triangle" stroke="#3261AF" points="10.4 1.6 18.4 17.6 2.4 17.6"></polygon>
            <circle id="Oval" fill="#A1CAFF" cx="10.4" cy="2.4" r="2.4"></circle>
            <circle id="Oval-Copy" fill="#A1CAFF" cx="2.4" cy="17.6" r="2.4"></circle>
            <circle id="Oval-Copy-2" fill="#A1CAFF" cx="18.4" cy="17.6" r="2.4"></circle>
        </g>
        <g id="Group-Copy-3" transform="translate(132.000000, 170.000000)">
            <polygon id="Triangle" stroke="#3261AF" points="10.4 1.6 18.4 17.6 2.4 17.6"></polygon>
            <circle id="Oval" fill="#A1CAFF" cx="10.4" cy="2.4" r="2.4"></circle>
            <circle id="Oval-Copy" fill="#A1CAFF" cx="2.4" cy="17.6" r="2.4"></circle>
            <circle id="Oval-Copy-2" fill="#A1CAFF" cx="18.4" cy="17.6" r="2.4"></circle>
        </g>
        <g id="Group-Copy-4" transform="translate(225.000000, 45.000000)">
            <polygon id="Triangle" stroke="#3261AF" points="10.4 1.6 18.4 17.6 2.4 17.6"></polygon>
            <circle id="Oval" fill="#A1CAFF" cx="10.4" cy="2.4" r="2.4"></circle>
            <circle id="Oval-Copy" fill="#A1CAFF" cx="2.4" cy="17.6" r="2.4"></circle>
            <circle id="Oval-Copy-2" fill="#A1CAFF" cx="18.4" cy="17.6" r="2.4"></circle>
        </g>
        <g id="Group-Copy-5" transform="translate(225.000000, 108.000000)">
            <polygon id="Triangle" stroke="#3261AF" points="10.4 1.6 18.4 17.6 2.4 17.6"></polygon>
            <circle id="Oval" fill="#A1CAFF" cx="10.4" cy="2.4" r="2.4"></circle>
            <circle id="Oval-Copy" fill="#A1CAFF" cx="2.4" cy="17.6" r="2.4"></circle>
            <circle id="Oval-Copy-2" fill="#A1CAFF" cx="18.4" cy="17.6" r="2.4"></circle>
        </g>
        <g id="Group-Copy-6" transform="translate(225.000000, 170.000000)">
            <polygon id="Triangle" stroke="#3261AF" points="10.4 1.6 18.4 17.6 2.4 17.6"></polygon>
            <circle id="Oval" fill="#A1CAFF" cx="10.4" cy="2.4" r="2.4"></circle>
            <circle id="Oval-Copy" fill="#A1CAFF" cx="2.4" cy="17.6" r="2.4"></circle>
            <circle id="Oval-Copy-2" fill="#A1CAFF" cx="18.4" cy="17.6" r="2.4"></circle>
        </g>
        <g id="分组-8-copy-6" transform="translate(319.000000, 10.000000)">
            <rect id="Rectangle-3-Copy-11" stroke="#A1CAFF" fill="#E1EDFF" x="0.5" y="0.5" width="61" height="37" rx="3"></rect>
            <text id="CDN全实时-配置中心" font-family="PingFangSC-Regular, PingFang SC" font-size="10" font-weight="normal" fill="#001B47">
                <tspan x="5.235" y="16">CDN全实时</tspan>
                <tspan x="11" y="30">配置中心</tspan>
            </text>
        </g>
        <g id="分组-8-copy-8" transform="translate(319.000000, 144.000000)">
            <rect id="Rectangle-3-Copy-11" stroke="#A1CAFF" fill="#E1EDFF" x="0.5" y="0.5" width="61" height="37" rx="3"></rect>
            <text id="CDN视频-处理中心" font-family="PingFangSC-Regular, PingFang SC" font-size="10" font-weight="normal" fill="#001B47">
                <tspan x="10.235" y="16">CDN视频</tspan>
                <tspan x="11" y="30">处理中心</tspan>
            </text>
        </g>
        <g id="分组-8-copy-7" transform="translate(319.000000, 58.000000)">
            <rect id="Rectangle-3-Copy-11" stroke="#A1CAFF" fill="#E1EDFF" x="0.5" y="0.5" width="61" height="37" rx="3"></rect>
            <text id="CDN全日志-中心" font-family="PingFangSC-Regular, PingFang SC" font-size="10" font-weight="normal" fill="#001B47">
                <tspan x="5.235" y="16">CDN全日志</tspan>
                <tspan x="21" y="30">中心</tspan>
            </text>
        </g>
        <polygon id="路径-43-copy-8" fill="#A1CAFF" fill-rule="nonzero" transform="translate(349.500000, 120.142052) scale(-1, 1) rotate(-270.000000) translate(-349.500000, -120.142052) " points="326.357948 120.642052 326.357948 119.642052 363.642052 119.642052 363.642052 115.642052 372.642052 120.142052 363.642052 124.642052 363.642052 120.642052"></polygon>
        <g id="分组-8-copy-10" transform="translate(386.000000, 58.000000)">
            <rect id="Rectangle-3-Copy-11" stroke="#A1CAFF" fill="#E1EDFF" x="0.5" y="0.5" width="61" height="37" rx="3"></rect>
            <text id="CDN控制-管理中心" font-family="PingFangSC-Regular, PingFang SC" font-size="10" font-weight="normal" fill="#001B47">
                <tspan x="10.235" y="16">CDN控制</tspan>
                <tspan x="11" y="30">管理中心</tspan>
            </text>
        </g>
        <g id="分组-8-copy-9" transform="translate(319.000000, 192.000000)">
            <rect id="Rectangle-3-Copy-11" stroke="#A1CAFF" fill="#E1EDFF" x="0.5" y="0.5" width="61" height="37" rx="3"></rect>
            <text id="CDN全立体-监控中心" font-family="PingFangSC-Regular, PingFang SC" font-size="10" font-weight="normal" fill="#001B47">
                <tspan x="5.235" y="16">CDN全立体</tspan>
                <tspan x="11" y="30">监控中心</tspan>
            </text>
        </g>
        <path d="M191,96 L191,112 L190,112 L190,95 L190,93 L193,96 L191,96 Z M187,109 L187,93 L188,93 L188,110 L188,112 L185,109 L187,109 Z" id="合并形状" fill="#3261AF" fill-rule="nonzero" transform="translate(189.000000, 102.500000) rotate(-90.000000) translate(-189.000000, -102.500000) "></path>
        <text id="请求-视频流" font-family="PingFangSC-Regular, PingFang SC" font-size="12" font-weight="normal" fill="#001B47">
            <tspan x="54" y="71">请求</tspan>
            <tspan x="48" y="88">视频流</tspan>
        </text>
        <text id="源站-返回-视频流" font-family="PingFangSC-Regular, PingFang SC" font-size="12" font-weight="normal" fill="#001B47">
            <tspan x="54" y="125">源站</tspan>
            <tspan x="54" y="142">返回</tspan>
            <tspan x="48" y="159">视频流</tspan>
        </text>
        <rect id="Rectangle-3-Copy-12" fill="#A1CAFF" x="0" y="26" width="46" height="155" rx="3"></rect>
        <rect id="Rectangle-Copy-72" fill="#3261AF" x="10" y="36" width="26" height="26" rx="3"></rect>
        <rect id="Rectangle-Copy-73" fill="#3261AF" x="10" y="108" width="26" height="26" rx="3"></rect>
        <text id="客户-源站" font-family="PingFangSC-Regular, PingFang SC" font-size="12" font-weight="normal" fill="#001B47">
            <tspan x="11" y="77">客户</tspan>
            <tspan x="11" y="94">源站</tspan>
        </text>
        <text id="流媒体-采集端" font-family="PingFangSC-Regular, PingFang SC" font-size="12" font-weight="normal" fill="#001B47">
            <tspan x="5" y="154">流媒体</tspan>
            <tspan x="5" y="171">采集端</tspan>
        </text>
        <g id="分组-3-copy" transform="translate(14.000000, 41.000000)" fill-rule="nonzero">
            <g id="分组-6-copy" fill="#A1CAFF">
                <g id="分组-2">
                    <g id="分组">
                        <circle id="椭圆形" cx="6.56" cy="3.68" r="3.68"></circle>
                        <path d="M13.12,13.0007734 C13.12,9.00180469 10.182988,5.76 6.56,5.76 C2.93701204,5.76 0,9.00180469 0,13.0007734 C0,16.9997422 13.12,16.9997422 13.12,13.0007734 Z" id="椭圆形-copy"></path>
                    </g>
                </g>
            </g>
            <rect id="矩形" fill="#FFFFFF" x="10.4" y="12.8" width="6.72" height="1.28"></rect>
            <rect id="矩形-copy-2" fill="#FFFFFF" x="10.4" y="10.4" width="6.72" height="1.28"></rect>
            <rect id="矩形-copy-3" fill="#FFFFFF" x="10.4" y="8" width="6.72" height="1.28"></rect>
        </g>
        <text id="请求内容" font-family="PingFangSC-Regular, PingFang SC" font-size="10" font-weight="normal" fill="#001B47">
            <tspan x="475" y="95">请求内容</tspan>
        </text>
        <text id="缓存并返回内容给客户" font-family="PingFangSC-Regular, PingFang SC" font-size="10" font-weight="normal" fill="#001B47">
            <tspan x="415" y="119">缓存并返回内容给客户</tspan>
        </text>
        <g id="分组-6" transform="translate(277.000000, 99.000000)" fill="#3261AF" fill-rule="nonzero">
            <path d="M126.5,129.5 L126.5,-119.5 L127.5,-119.5 L127.5,130.5 L127.5,132.5 L124.5,129.5 L126.5,129.5 Z" id="合并形状" transform="translate(126.000000, 6.500000) rotate(-90.000000) translate(-126.000000, -6.500000) "></path>
            <path d="M126.5,124.5 L126.5,-124.5 L127.5,-124.5 L127.5,125.5 L127.5,127.5 L124.5,124.5 L126.5,124.5 Z" id="合并形状-copy-2" transform="translate(126.000000, 1.500000) scale(-1, -1) rotate(-90.000000) translate(-126.000000, -1.500000) "></path>
        </g>
        <g id="分组-8-copy-11" transform="translate(453.000000, 124.000000)">
            <rect id="Rectangle-3-Copy-11" stroke="#A1CAFF" fill="#E1EDFF" x="0.5" y="0.5" width="61" height="80" rx="3"></rect>
            <text id="DOLFIN智能-流量调度中心" font-family="PingFangSC-Regular, PingFang SC" font-size="10" font-weight="normal" fill="#001B47">
                <tspan x="3.03" y="59">DOLFIN智能</tspan>
                <tspan x="1" y="73">流量调度中心</tspan>
            </text>
            <rect id="矩形" stroke="#A1CAFF" fill="#FFFFFF" x="18.5" y="17.5" width="25" height="25" rx="3"></rect>
        </g>
        <g id="分组-4" transform="translate(534.000000, 45.000000)">
            <g id="分组-3-copy-2">
                <rect id="Rectangle-3-Copy-12" fill="#A1CAFF" x="0" y="0" width="46" height="65" rx="3"></rect>
                <rect id="Rectangle-Copy-72" fill="#3261AF" x="10" y="10" width="26" height="26" rx="3"></rect>
                <text id="用户" font-family="PingFangSC-Regular, PingFang SC" font-size="12" font-weight="normal" fill="#001B47">
                    <tspan x="11" y="51">用户</tspan>
                </text>
            </g>
            <g id="Group-3" transform="translate(16.000000, 15.000000)">
                <path d="M15.3136552,12.5144276 L3.66455172,12.5144276 C3.296,12.5144276 3.0102069,12.1960828 3.04551724,11.8313931 C3.32468966,9.18201379 5.20165517,7.00766897 7.69048276,6.29263448 C6.82151724,5.71001379 6.24937931,4.72297931 6.24937931,3.60022069 C6.24937931,1.5798069 8.09434483,-0.00419310345 10.1897931,0.435531034 C10.3183448,0.46422069 10.4402759,0.496772414 10.5616552,0.539255172 C10.9588966,0.675531034 11.3197241,0.8896 11.6308966,1.1616 C12.1384828,1.60518621 12.5031724,2.20546207 12.649931,2.87801379 C12.918069,4.12932414 12.464,5.28794483 11.6270345,6.02835862 C11.52,6.12491034 11.4057931,6.21042759 11.2838621,6.29263448 C11.3986207,6.32463448 11.5128276,6.36049655 11.6270345,6.40353103 C13.9481379,7.2118069 15.664,9.3033931 15.9288276,11.8313931 C15.968,12.1960828 15.6783448,12.5144276 15.3136552,12.5144276 Z" id="Fill-43" fill="#FFFFFF"></path>
                <path d="M13.3702621,15.1190069 C13.4094345,15.4836966 13.1197793,15.8020414 12.7550897,15.8020414 L1.10598621,15.8020414 C0.737434483,15.8020414 0.451641379,15.4836966 0.486951724,15.1190069 C0.766124138,12.4696276 2.64308966,10.2952828 5.13191724,9.58024828 C4.26295172,8.99762759 3.69081379,8.0105931 3.69081379,6.88783448 C3.69081379,4.86742069 5.53577931,3.28342069 7.63122759,3.72314483 C7.75977931,3.75183448 7.88171034,3.78438621 8.00308966,3.82686897 C8.40033103,3.96314483 8.76115862,4.17721379 9.07233103,4.44921379 C9.57991724,4.8928 9.9446069,5.49307586 10.0913655,6.16562759 C10.3595034,7.41693793 9.90543448,8.57555862 9.06846897,9.31597241 C8.96143448,9.41252414 8.84722759,9.49804138 8.72529655,9.58024828 C8.84005517,9.61224828 8.95426207,9.64811034 9.06846897,9.69114483 C11.3895724,10.4994207 13.1054345,12.5910069 13.3702621,15.1190069" id="Fill-44" fill="#A1CAFF"></path>
                <path d="M6.9289931,10.8752 L6.9289931,13.4489931" id="Stroke-45" stroke="#FFFFFF" stroke-linecap="round"></path>
            </g>
        </g>
        <g id="分组-5" transform="translate(478.000000, 147.000000)" fill-rule="nonzero">
            <polygon id="矩形" fill="#A1CAFF" transform="translate(5.939697, 5.939697) rotate(-315.000000) translate(-5.939697, -5.939697) " points="1.73969696 1.73969696 10.139697 1.73969696 1.73969696 10.139697"></polygon>
            <polygon id="矩形-copy-4" fill="#3261AF" transform="translate(5.939697, 8.806364) scale(1, -1) rotate(-315.000000) translate(-5.939697, -8.806364) " points="1.73969696 4.60636363 10.139697 4.60636363 1.73969696 13.0063636"></polygon>
        </g>
        <g id="分组-3-copy-3" transform="translate(534.000000, 130.000000)">
            <rect id="Rectangle-3-Copy-12" fill="#A1CAFF" x="0" y="0" width="46" height="74" rx="3"></rect>
            <rect id="Rectangle-Copy-72" fill="#3261AF" x="10" y="10" width="26" height="26" rx="3"></rect>
            <text id="Local-DNS" font-family="PingFangSC-Regular, PingFang SC" font-size="12" font-weight="normal" fill="#001B47">
                <tspan x="7.91" y="51">Local</tspan>
                <tspan x="10.658" y="68">DNS</tspan>
            </text>
            <text id="DNS" font-family="PingFangSC-Regular, PingFang SC" font-size="12" font-weight="normal" fill="#FFFFFF">
                <tspan x="11.158" y="28">DNS</tspan>
            </text>
        </g>
        <path d="M559,116 L559,127 L558,127 L558,115 L558,113 L561,116 L559,116 Z M555,124 L555,113 L556,113 L556,125 L556,127 L553,124 L555,124 Z" id="合并形状" fill="#3261AF" fill-rule="nonzero" transform="translate(557.000000, 120.000000) rotate(-180.000000) translate(-557.000000, -120.000000) "></path>
        <path d="M527,193 L527,204 L526,204 L526,192 L526,190 L529,193 L527,193 Z M523,201 L523,190 L524,190 L524,202 L524,204 L521,201 L523,201 Z" id="合并形状-copy-3" fill="#3261AF" fill-rule="nonzero" transform="translate(525.000000, 197.000000) rotate(-270.000000) translate(-525.000000, -197.000000) "></path>
        <text id="获取最佳CDN-边缘节点" font-family="PingFangSC-Regular, PingFang SC" font-size="10" font-weight="normal" fill="#001B47">
            <tspan x="494.235" y="218">获取最佳CDN</tspan>
            <tspan x="505" y="232">边缘节点</tspan>
        </text>
        <path d="M106,105 L51,105 L51,104 L107,104 L109,104 L106,107 L106,105 Z M54,101 L109,101 L109,102 L53,102 L51,102 L54,99 L54,101 Z" id="合并形状" fill="#3261AF" fill-rule="nonzero"></path>
        <g id="分组-2" transform="translate(15.000000, 113.000000)" fill-rule="nonzero">
            <rect id="矩形" fill="#A1CAFF" x="0" y="0" width="12" height="10"></rect>
            <polygon id="矩形-copy" fill="#A1CAFF" points="14 3.5 16 2 16 8 14 6.5"></polygon>
            <polygon id="矩形" fill="#FFFFFF" transform="translate(4.828427, 4.828427) rotate(-315.000000) translate(-4.828427, -4.828427) " points="2.82842712 2.82842712 6.82842712 2.82842712 6.82842712 6.82842712"></polygon>
            <rect id="矩形" fill="#FFFFFF" x="0" y="12" width="16" height="1"></rect>
            <rect id="矩形-copy-5" fill="#FFFFFF" x="0" y="14" width="16" height="1"></rect>
        </g>
    </g>
</svg>