<?xml version="1.0" standalone="no"?><!DOCTYPE svg PUBLIC "-//W3C//DTD SVG 1.1//EN" "http://www.w3.org/Graphics/SVG/1.1/DTD/svg11.dtd"><svg class="icon" width="200px" height="200.00px" viewBox="0 0 1024 1024" version="1.1" xmlns="http://www.w3.org/2000/svg"><path d="M735.6 896.4h-383c-26.6 0-48.1-21.5-48.1-48.1V230.4c0-26.6 21.5-48.1 48.1-48.1h383c26.6 0 48.1 21.5 48.1 48.1v617.9c0 26.6-21.5 48.1-48.1 48.1z" fill="#EAEAEA" /><path d="M687.9 858.6h-383c-32 0-58.1-26.1-58.1-58.1V182.6c0-32 26.1-58.1 58.1-58.1h383c32 0 58.1 26.1 58.1 58.1v617.9c-0.1 32.1-26.1 58.1-58.1 58.1z m-383-714.1c-21 0-38.1 17.1-38.1 38.1v617.9c0 21 17.1 38.1 38.1 38.1h383c21 0 38.1-17.1 38.1-38.1V182.6c0-21-17.1-38.1-38.1-38.1h-383z" fill="#47473B" /><path d="M378.1 293.5v19.4h-9.7v-48.7h9.7v5.1h0.1c2.6-3.9 6.2-5.9 10.8-5.9 4.2 0 7.6 1.5 10 4.4 2.4 3 3.6 7 3.6 12.1 0 5.6-1.4 10-4.2 13.4-2.8 3.4-6.4 5-10.9 5-4.1 0-7.2-1.6-9.3-4.8h-0.1z m-0.1-10.8c0 2.4 0.6 4.3 1.9 5.8 1.3 1.5 3 2.3 5 2.3 2.4 0 4.3-0.9 5.7-2.8 1.4-1.9 2-4.6 2-8 0-6.1-2.4-9.2-7.1-9.2-2.2 0-4 0.8-5.4 2.5-1.4 1.7-2.1 3.9-2.1 6.5v2.9zM408.4 266.1c1.5-0.8 3.5-1.5 6-2.1 2.5-0.5 4.7-0.8 6.5-0.8 9.3 0 14 4.7 14 14v20.1h-9.3v-4.9h-0.1c-2.3 3.8-5.6 5.7-10 5.7-3.2 0-5.7-0.9-7.6-2.7s-2.9-4.2-2.9-7.3c0-6.4 3.8-10.1 11.4-11.2l9.2-1.2c0-3.9-2-5.8-6.1-5.8-4 0-7.7 1.2-11.3 3.6v-7.4z m11 16.3c-3.5 0.5-5.3 2.1-5.3 4.8 0 1.2 0.4 2.3 1.3 3 0.9 0.8 2 1.1 3.5 1.1 2 0 3.6-0.7 4.9-2.1 1.3-1.4 1.9-3.2 1.9-5.2v-2.4l-6.3 0.8zM441.1 288.5c3.3 2 6.6 3 9.8 3 4 0 6-1.1 6-3.2 0-1.5-1.7-2.8-5-3.8-4.1-1.3-7-2.7-8.5-4.3-1.5-1.6-2.3-3.7-2.3-6.4 0-3.3 1.3-5.8 4-7.7s6.1-2.8 10.4-2.8c3.1 0 6 0.5 8.8 1.4v7.7c-2.6-1.5-5.4-2.3-8.6-2.3-1.5 0-2.8 0.3-3.7 0.8-0.9 0.6-1.4 1.3-1.4 2.2 0 1.5 1.4 2.8 4.2 3.7 3 1 5.3 1.9 6.8 2.7 1.5 0.8 2.7 1.9 3.5 3.3 0.8 1.3 1.2 2.9 1.2 4.7 0 3.4-1.4 6.1-4.1 8s-6.4 2.9-11 2.9c-3.6 0-7-0.6-10-1.7v-8.2zM470.4 288.5c3.3 2 6.6 3 9.8 3 4 0 6-1.1 6-3.2 0-1.5-1.7-2.8-5-3.8-4.1-1.3-7-2.7-8.5-4.3-1.5-1.6-2.3-3.7-2.3-6.4 0-3.3 1.3-5.8 4-7.7s6.1-2.8 10.4-2.8c3.1 0 6 0.5 8.8 1.4v7.7c-2.6-1.5-5.4-2.3-8.6-2.3-1.5 0-2.8 0.3-3.7 0.8-0.9 0.6-1.4 1.3-1.4 2.2 0 1.5 1.4 2.8 4.2 3.7 3 1 5.3 1.9 6.8 2.7 1.5 0.8 2.7 1.9 3.5 3.3 0.8 1.3 1.2 2.9 1.2 4.7 0 3.4-1.4 6.1-4.1 8s-6.4 2.9-11 2.9c-3.6 0-7-0.6-10-1.7v-8.2zM510.3 293.5v19.4h-9.7v-48.7h9.7v5.1h0.1c2.6-3.9 6.2-5.9 10.8-5.9 4.2 0 7.6 1.5 10 4.4 2.4 3 3.6 7 3.6 12.1 0 5.6-1.4 10-4.2 13.4-2.8 3.4-6.4 5-10.9 5-4.1 0-7.2-1.6-9.3-4.8h-0.1z m-0.2-10.8c0 2.4 0.6 4.3 1.9 5.8 1.3 1.5 3 2.3 5 2.3 2.4 0 4.3-0.9 5.7-2.8 1.4-1.9 2-4.6 2-8 0-6.1-2.4-9.2-7.1-9.2-2.2 0-4 0.8-5.4 2.5-1.4 1.7-2.1 3.9-2.1 6.5v2.9zM538.4 280.9c0-5.5 1.6-9.8 4.9-12.9s7.7-4.7 13.3-4.7c5.4 0 9.6 1.5 12.8 4.6s4.7 7.2 4.7 12.4c0 5.5-1.6 9.8-4.9 13.1-3.2 3.2-7.6 4.9-13.2 4.9-5.4 0-9.7-1.6-12.9-4.7-3.1-3.1-4.7-7.3-4.7-12.7z m9.9-0.1c0 6.7 2.7 10 8.1 10 5.2 0 7.8-3.4 7.8-10.3 0-6.5-2.6-9.8-7.9-9.8-2.6 0-4.5 0.9-6 2.6-1.3 1.9-2 4.3-2 7.5zM601.1 273c-1.2-0.7-2.6-1-4.3-1-2.2 0-4 0.8-5.3 2.5-1.3 1.7-1.9 4-1.9 7v16h-9.7v-33.4h9.7v6.3h0.1c1.6-4.6 4.5-6.8 8.8-6.8 1.1 0 2 0.1 2.6 0.4v9zM626.3 297.1c-1.5 0.8-3.7 1.2-6.7 1.2-7.1 0-10.6-3.7-10.6-11.2v-15.7h-5.5v-7.3h5.5v-7.3l9.7-2.8v10.1h7.6v7.3h-7.6v14.1c0 3.6 1.4 5.3 4.2 5.3 1.1 0 2.2-0.3 3.4-1v7.3z" fill="#47473B" /><path d="M499.1 610.7m-157.8 0a157.8 157.8 0 1 0 315.6 0 157.8 157.8 0 1 0-315.6 0Z" fill="#FCD703" /><path d="M496.4 781.4c-94.2 0-170.9-76.7-170.9-170.9s76.7-170.9 170.9-170.9 170.9 76.7 170.9 170.9-76.7 170.9-170.9 170.9z m0-321.8c-83.2 0-150.9 67.7-150.9 150.9s67.7 150.9 150.9 150.9 150.9-67.7 150.9-150.9-67.7-150.9-150.9-150.9z" fill="#47473B" /><path d="M499 780.6l-8-18.3c39.5-17.2 93.5-40.7 93.5-151.8 0-44.2-15.6-83.1-46.5-115.6-23.3-24.6-47.1-36.2-47.4-36.4l8.6-18c1.1 0.5 26.8 13 52.7 40.1 24 25.1 52.5 68 52.5 130 0 53.1-11.5 93-35.3 122.1-20.3 24.9-45.7 37.3-70.1 47.9z" fill="#47473B" /><path d="M493.7 780.6c-24.3-10.6-49.8-23-70.3-48-23.7-29-35.3-69-35.3-122.1 0-61.9 28.6-104.9 52.5-130 25.9-27.1 51.6-39.5 52.7-40.1l8.6 18.1-4.3-9 4.3 9c-0.2 0.1-24 11.7-47.4 36.4-30.8 32.6-46.5 71.5-46.5 115.6 0 111.1 54.1 134.6 93.5 151.8l-7.8 18.3z" fill="#47473B" /><path d="M486.4 454.7h20v316.8h-20z" fill="#47473B" /><path d="M401.6 740.2L385 728.9c1.4-2 34.3-49.2 111.3-49.2 34.3 0 60.1 5.3 79.1 16.2 16.9 9.7 25.6 22.3 32.4 33.4l-17 10.5c-10.5-16.9-24.8-40.1-94.5-40.1-27.7 0-52.1 6.8-72.4 20.2-15.1 10-22.3 20.2-22.3 20.3z" fill="#47473B" /><path d="M496.4 540.5c-77.1 0-110-47.2-111.3-49.2l16.5-11.3c0.1 0.1 7.2 10.3 22.4 20.3 20.3 13.4 44.7 20.2 72.4 20.2 69.7 0 84.1-23.2 94.5-40.1l17 10.5c-6.8 11-15.5 23.6-32.4 33.4-19 10.9-44.9 16.2-79.1 16.2z" fill="#47473B" /><path d="M340.6 600.5h316.8v20H340.6z" fill="#47473B" /></svg>