<?xml version="1.0" standalone="no"?><!DOCTYPE svg PUBLIC "-//W3C//DTD SVG 1.1//EN" "http://www.w3.org/Graphics/SVG/1.1/DTD/svg11.dtd"><svg class="icon" width="200px" height="200.00px" viewBox="0 0 1024 1024" version="1.1" xmlns="http://www.w3.org/2000/svg"><path fill="#ffffff" d="M447.829333 754.176 447.829333 695.978667 224.938667 695.978667 224.938667 754.176ZM447.829333 593.237333 447.829333 535.210667 224.938667 535.210667 224.938667 593.237333ZM961.194667 900.266667c3.242667-4.096 3.584-9.728 1.365333-14.336l-101.034667-188.416c10.922667-24.405333 16.896-49.322667 16.896-76.117333 0.512-102.229333-82.090667-185.344-184.490667-185.685333-0.341333 0-0.512 0-0.853333 0-101.888 0-184.661333 82.432-184.832 184.32-0.170667 25.770667 5.290667 51.370667 16.213333 75.946667l0.853333 1.877333-102.912 186.197333c-2.389333 4.437333-2.218667 10.24 1.024 14.336 3.072 4.096 8.362667 5.973333 13.312 4.949333l89.941333-20.309333 30.549333 85.845333c1.706667 4.778667 5.973333 8.192 11.093333 8.704 0.341333 0 0.512 0 0.853333 0l0.170667 0c5.12 0 9.557333-2.56 11.776-6.826667l90.453333-167.082667c16.042667 1.706667 25.258667 1.877333 40.618667 0.341333l90.965333 167.594667c2.218667 4.266667 6.656 6.826667 11.434667 6.826667 0 0 0 0 0.170667 0l0.512 0 0.170667 0 0.512 0c5.12-0.512 9.557333-3.754667 11.434667-8.704l30.890667-85.504 89.770667 20.821333C953.002667 906.24 958.122667 904.362667 961.194667 900.266667L961.194667 900.266667zM567.978667 871.424 567.978667 871.424l-13.824-38.912c-0.853333-2.218667-3.072-3.413333-5.290667-2.901333l-40.96 9.216 52.565333-94.378667c18.261333 18.602667 32.768 27.136 55.466667 39.594667L567.978667 871.424zM692.394667 744.96 692.394667 744.96c-68.778667-0.341333-124.586667-56.661333-124.245333-125.44 0.170667-68.608 55.978667-124.245333 124.757333-124.245333 0.170667 0 0.512 0 0.512 0 68.778667 0.341333 124.586667 56.32 124.245333 125.269333S761.344 744.96 692.394667 744.96zM839.68 842.752 839.68 842.752c-3.072-0.682667-5.973333 1.024-7.168 3.925333l-15.872 44.373333-54.954667-101.034667c25.941333-14.336 43.178667-24.576 64.341333-45.738667l60.245333 109.056L839.68 842.752 839.68 842.752zM224.938667 213.504 224.938667 271.701333 682.496 271.701333 682.496 213.504ZM815.104 52.736l-689.493333 0c-34.304 0-62.122667 28.842667-62.122667 64.170667l0 733.696c0 35.498667 27.989333 64.170667 62.122667 64.170667l245.76 0 0-58.026667L121.514667 856.746667 121.514667 110.592 819.2 110.592l0 280.576 58.026667 0L877.226667 116.906667C877.226667 81.408 849.237333 52.736 815.104 52.736L815.104 52.736zM550.912 432.469333 550.912 374.272 224.938667 374.272 224.938667 432.469333Z" /></svg>