<?xml version="1.0" standalone="no"?><!DOCTYPE svg PUBLIC "-//W3C//DTD SVG 1.1//EN" "http://www.w3.org/Graphics/SVG/1.1/DTD/svg11.dtd"><svg class="icon" width="200px" height="197.11px" viewBox="0 0 1039 1024" version="1.1" xmlns="http://www.w3.org/2000/svg"><path fill="#ffffff" d="M860.027461 879.135658 163.92956 879.135658c-89.779769 0-162.734338-71.676459-162.734338-159.88136L1.195222 304.743656c0-88.203878 72.954569-159.880337 162.734338-159.880337l696.097902 0c89.778746 0 162.734338 71.676459 162.734338 159.880337l0 414.510642C1022.761799 807.460222 949.806207 879.135658 860.027461 879.135658L860.027461 879.135658zM979.274356 304.743656c0-64.591087-53.42477-117.130697-119.246895-117.130697L163.92956 187.612958c-65.723887 0-119.246895 52.490491-119.246895 117.130697l0 414.510642c0 64.592111 53.42477 117.131721 119.246895 117.131721l696.097902 0c65.723887 0 119.246895-52.489468 119.246895-117.131721L979.274356 304.743656 979.274356 304.743656zM457.126228 374.35406 180.310645 374.35406c-12.0525 0-21.793352-9.543354-21.793352-21.398356 0-11.806907 9.739828-21.400403 21.793352-21.400403l276.91382 0c12.0525 0 21.793352 9.593496 21.793352 21.400403C479.017818 364.810706 469.227848 374.35406 457.126228 374.35406L457.126228 374.35406zM457.126228 528.922415 180.310645 528.922415c-12.0525 0-21.793352-9.593496-21.793352-21.400403 0-11.855002 9.739828-21.399379 21.793352-21.399379l276.91382 0c12.0525 0 21.793352 9.544377 21.793352 21.399379C479.017818 519.328919 469.227848 528.922415 457.126228 528.922415L457.126228 528.922415zM457.126228 683.491793 180.310645 683.491793c-12.0525 0-21.793352-9.544377-21.793352-21.400403 0-11.806907 9.739828-21.399379 21.793352-21.399379l276.91382 0c12.0525 0 21.793352 9.592472 21.793352 21.399379C479.017818 673.947416 469.227848 683.491793 457.126228 683.491793L457.126228 683.491793zM897.513214 699.282431c0 11.855002-9.740852 21.398356-21.793352 21.398356-12.0525 0-21.793352-9.543354-21.793352-21.398356 0-80.826863-66.953901-146.598846-149.20623-146.598846-82.20321 0-149.157111 65.771983-149.157111 146.598846 0 11.855002-9.739828 21.398356-21.793352 21.398356-12.051477 0-21.793352-9.543354-21.793352-21.398356 0-84.615143 57.163931-155.601894 135.136793-179.805132-42.454928-20.907169-71.971172-63.608713-71.971172-113.343441 0-70.199829 58.099233-127.313617 129.479957-127.313617 71.479985 0 129.577171 57.162908 129.577171 127.313617 0 49.735751-29.517267 92.436272-71.971172 113.343441C840.300164 543.729655 897.464095 614.667288 897.513214 699.282431L897.513214 699.282431zM790.760888 406.132834c0-46.586015-38.617529-84.46574-86.040608-84.46574-47.423079 0-85.99149 37.880749-85.99149 84.46574 0 46.488801 38.568411 84.466764 85.893252 84.466764C752.143359 490.600621 790.760888 452.720895 790.760888 406.132834L790.760888 406.132834z" /></svg>