<?xml version="1.0" standalone="no"?><!DOCTYPE svg PUBLIC "-//W3C//DTD SVG 1.1//EN" "http://www.w3.org/Graphics/SVG/1.1/DTD/svg11.dtd"><svg class="icon" width="200px" height="200.00px" viewBox="0 0 1024 1024" version="1.1" xmlns="http://www.w3.org/2000/svg"><path fill="#ffffff" d="M787.2 211.2l-112-112c-86.4-86.4-230.4-86.4-316.8 0-35.2 35.2-54.4 76.8-64 121.6-121.6 73.6-198.4 208-198.4 355.2 0 230.4 185.6 416 416 416s416-185.6 416-416c0-134.4-48-268.8-140.8-364.8z m-275.2 716.8c-195.2 0-352-156.8-352-352 0-112 51.2-211.2 134.4-278.4 6.4 41.6 28.8 83.2 60.8 118.4l22.4 22.4-67.2 67.2c-64 64-64 163.2 0 227.2s163.2 64 227.2 0 64-163.2 0-227.2l-67.2-67.2-67.2-67.2c-64-64-64-163.2 0-227.2s163.2-64 227.2 0l105.6 108.8c96 99.2 128 201.6 128 323.2 0 195.2-156.8 352-352 352z m-19.2-240c-38.4 38.4-99.2 38.4-134.4 0s-38.4-99.2 0-134.4l67.2-67.2 67.2 67.2c38.4 35.2 38.4 96 0 134.4z" /></svg>