<?xml version="1.0" encoding="UTF-8"?>
<svg width="980px" height="480px" viewBox="0 0 980 480" version="1.1" xmlns="http://www.w3.org/2000/svg" xmlns:xlink="http://www.w3.org/1999/xlink">
    <!-- Generator: Sketch 52 (66869) - http://www.bohemiancoding.com/sketch -->
    <title>ATD 架构</title>
    <desc>Created with Sketch.</desc>
    <defs>
        <rect id="path-1" x="56" y="86" width="96" height="34" rx="3"></rect>
        <mask id="mask-2" maskContentUnits="userSpaceOnUse" maskUnits="objectBoundingBox" x="0" y="0" width="96" height="34" fill="white">
            <use xlink:href="#path-1"></use>
        </mask>
        <rect id="path-3" x="162" y="86" width="96" height="34" rx="3"></rect>
        <mask id="mask-4" maskContentUnits="userSpaceOnUse" maskUnits="objectBoundingBox" x="0" y="0" width="96" height="34" fill="white">
            <use xlink:href="#path-3"></use>
        </mask>
        <rect id="path-5" x="268" y="86" width="96" height="34" rx="3"></rect>
        <mask id="mask-6" maskContentUnits="userSpaceOnUse" maskUnits="objectBoundingBox" x="0" y="0" width="96" height="34" fill="white">
            <use xlink:href="#path-5"></use>
        </mask>
        <rect id="path-7" x="373" y="86" width="96" height="34" rx="3"></rect>
        <mask id="mask-8" maskContentUnits="userSpaceOnUse" maskUnits="objectBoundingBox" x="0" y="0" width="96" height="34" fill="white">
            <use xlink:href="#path-7"></use>
        </mask>
        <rect id="path-9" x="479" y="86" width="96" height="34" rx="3"></rect>
        <mask id="mask-10" maskContentUnits="userSpaceOnUse" maskUnits="objectBoundingBox" x="0" y="0" width="96" height="34" fill="white">
            <use xlink:href="#path-9"></use>
        </mask>
        <rect id="path-11" x="585" y="86" width="96" height="34" rx="3"></rect>
        <mask id="mask-12" maskContentUnits="userSpaceOnUse" maskUnits="objectBoundingBox" x="0" y="0" width="96" height="34" fill="white">
            <use xlink:href="#path-11"></use>
        </mask>
        <rect id="path-13" x="690" y="86" width="96" height="34" rx="3"></rect>
        <mask id="mask-14" maskContentUnits="userSpaceOnUse" maskUnits="objectBoundingBox" x="0" y="0" width="96" height="34" fill="white">
            <use xlink:href="#path-13"></use>
        </mask>
        <rect id="path-15" x="56" y="427" width="96" height="34" rx="3"></rect>
        <mask id="mask-16" maskContentUnits="userSpaceOnUse" maskUnits="objectBoundingBox" x="0" y="0" width="96" height="34" fill="white">
            <use xlink:href="#path-15"></use>
        </mask>
        <rect id="path-17" x="162" y="427" width="96" height="34" rx="3"></rect>
        <mask id="mask-18" maskContentUnits="userSpaceOnUse" maskUnits="objectBoundingBox" x="0" y="0" width="96" height="34" fill="white">
            <use xlink:href="#path-17"></use>
        </mask>
        <rect id="path-19" x="268" y="427" width="96" height="34" rx="3"></rect>
        <mask id="mask-20" maskContentUnits="userSpaceOnUse" maskUnits="objectBoundingBox" x="0" y="0" width="96" height="34" fill="white">
            <use xlink:href="#path-19"></use>
        </mask>
        <rect id="path-21" x="373" y="427" width="96" height="34" rx="3"></rect>
        <mask id="mask-22" maskContentUnits="userSpaceOnUse" maskUnits="objectBoundingBox" x="0" y="0" width="96" height="34" fill="white">
            <use xlink:href="#path-21"></use>
        </mask>
        <rect id="path-23" x="479" y="427" width="96" height="34" rx="3"></rect>
        <mask id="mask-24" maskContentUnits="userSpaceOnUse" maskUnits="objectBoundingBox" x="0" y="0" width="96" height="34" fill="white">
            <use xlink:href="#path-23"></use>
        </mask>
        <rect id="path-25" x="585" y="427" width="96" height="34" rx="3"></rect>
        <mask id="mask-26" maskContentUnits="userSpaceOnUse" maskUnits="objectBoundingBox" x="0" y="0" width="96" height="34" fill="white">
            <use xlink:href="#path-25"></use>
        </mask>
        <rect id="path-27" x="690" y="427" width="96" height="34" rx="3"></rect>
        <mask id="mask-28" maskContentUnits="userSpaceOnUse" maskUnits="objectBoundingBox" x="0" y="0" width="96" height="34" fill="white">
            <use xlink:href="#path-27"></use>
        </mask>
        <rect id="path-29" x="46" y="303" width="750" height="80" rx="3"></rect>
        <mask id="mask-30" maskContentUnits="userSpaceOnUse" maskUnits="objectBoundingBox" x="0" y="0" width="750" height="80" fill="white">
            <use xlink:href="#path-29"></use>
        </mask>
        <rect id="path-31" x="46" y="149" width="750" height="144" rx="3"></rect>
        <mask id="mask-32" maskContentUnits="userSpaceOnUse" maskUnits="objectBoundingBox" x="0" y="0" width="750" height="144" fill="white">
            <use xlink:href="#path-31"></use>
        </mask>
        <rect id="path-33" x="864" y="34" width="96" height="34" rx="3"></rect>
        <mask id="mask-34" maskContentUnits="userSpaceOnUse" maskUnits="objectBoundingBox" x="0" y="0" width="96" height="34" fill="white">
            <use xlink:href="#path-33"></use>
        </mask>
        <rect id="path-35" x="864" y="259" width="96" height="26" rx="3"></rect>
        <mask id="mask-36" maskContentUnits="userSpaceOnUse" maskUnits="objectBoundingBox" x="0" y="0" width="96" height="26" fill="white">
            <use xlink:href="#path-35"></use>
        </mask>
        <rect id="path-37" x="864" y="295" width="96" height="26" rx="3"></rect>
        <mask id="mask-38" maskContentUnits="userSpaceOnUse" maskUnits="objectBoundingBox" x="0" y="0" width="96" height="26" fill="white">
            <use xlink:href="#path-37"></use>
        </mask>
        <rect id="path-39" x="864" y="331" width="96" height="26" rx="3"></rect>
        <mask id="mask-40" maskContentUnits="userSpaceOnUse" maskUnits="objectBoundingBox" x="0" y="0" width="96" height="26" fill="white">
            <use xlink:href="#path-39"></use>
        </mask>
        <rect id="path-41" x="864" y="367" width="96" height="26" rx="3"></rect>
        <mask id="mask-42" maskContentUnits="userSpaceOnUse" maskUnits="objectBoundingBox" x="0" y="0" width="96" height="26" fill="white">
            <use xlink:href="#path-41"></use>
        </mask>
        <rect id="path-43" x="864" y="403" width="96" height="26" rx="3"></rect>
        <mask id="mask-44" maskContentUnits="userSpaceOnUse" maskUnits="objectBoundingBox" x="0" y="0" width="96" height="26" fill="white">
            <use xlink:href="#path-43"></use>
        </mask>
        <rect id="path-45" x="864" y="439" width="96" height="26" rx="3"></rect>
        <mask id="mask-46" maskContentUnits="userSpaceOnUse" maskUnits="objectBoundingBox" x="0" y="0" width="96" height="26" fill="white">
            <use xlink:href="#path-45"></use>
        </mask>
        <rect id="path-47" x="864" y="78" width="96" height="34" rx="3"></rect>
        <mask id="mask-48" maskContentUnits="userSpaceOnUse" maskUnits="objectBoundingBox" x="0" y="0" width="96" height="34" fill="white">
            <use xlink:href="#path-47"></use>
        </mask>
        <rect id="path-49" x="864" y="122" width="96" height="34" rx="3"></rect>
        <mask id="mask-50" maskContentUnits="userSpaceOnUse" maskUnits="objectBoundingBox" x="0" y="0" width="96" height="34" fill="white">
            <use xlink:href="#path-49"></use>
        </mask>
        <rect id="path-51" x="864" y="166" width="96" height="34" rx="3"></rect>
        <mask id="mask-52" maskContentUnits="userSpaceOnUse" maskUnits="objectBoundingBox" x="0" y="0" width="96" height="34" fill="white">
            <use xlink:href="#path-51"></use>
        </mask>
    </defs>
    <g id="ATD-架构" stroke="none" stroke-width="1" fill="none" fill-rule="evenodd">
        <rect id="矩形-copy-49" fill="#7787A1" fill-rule="nonzero" x="820" y="245" width="160" height="235" rx="3"></rect>
        <rect id="矩形-copy-44" fill="#8B6CBF" fill-rule="nonzero" x="46" y="66" width="750" height="73" rx="3"></rect>
        <rect id="Rectangle-Copy-112" fill="#7787A1" x="46" y="0" width="750" height="42" rx="3"></rect>
        <text id="SIEM安全大数据平台" font-family="PingFangSC-Semibold, PingFang SC" font-size="14" font-weight="500" fill="#FFFFFF">
            <tspan x="354.829" y="26">SIEM安全大数据平台</tspan>
        </text>
        <rect id="矩形-copy-40" fill="#8B6CBF" fill-rule="nonzero" x="0" y="66" width="36" height="73" rx="3"></rect>
        <use id="矩形-copy-50" stroke="#CFB3FF" mask="url(#mask-2)" stroke-width="2" stroke-dasharray="2" fill-rule="nonzero" xlink:href="#path-1"></use>
        <rect id="矩形-copy-66" fill="#3EBB9D" fill-rule="nonzero" x="66" y="239" width="103" height="34" rx="3"></rect>
        <rect id="矩形-copy-68" fill="#3EBB9D" fill-rule="nonzero" x="313" y="239" width="103" height="34" rx="3"></rect>
        <rect id="矩形-copy-70" fill="#3EBB9D" fill-rule="nonzero" x="560" y="239" width="103" height="34" rx="3"></rect>
        <rect id="矩形-copy-67" fill="#3EBB9D" fill-rule="nonzero" x="179" y="239" width="103" height="34" rx="3"></rect>
        <rect id="矩形-copy-69" fill="#3EBB9D" fill-rule="nonzero" x="426" y="239" width="103" height="34" rx="3"></rect>
        <rect id="矩形-copy-71" fill="#3EBB9D" fill-rule="nonzero" x="673" y="239" width="103" height="34" rx="3"></rect>
        <rect id="矩形-copy-59" fill="#3EBB9D" fill-rule="nonzero" x="56" y="159" width="175" height="34" rx="3"></rect>
        <path d="M61,223.5 L61,222.5 L61,223.5 Z M155,222.5 L155,223.5 L155,222.5 Z M57,223.5 L57,222.5 L59,222.5 L59,223.5 L57,223.5 Z M157,223.5 L157,222.5 L159,222.5 L159,223.5 L157,223.5 Z M161,223.5 L161,222.5 L163,222.5 L163,223.5 L161,223.5 Z M165,223.5 L165,222.5 L167,222.5 L167,223.5 L165,223.5 Z M169,223.5 L169,222.5 L171,222.5 L171,223.5 L169,223.5 Z M173,223.5 L173,222.5 L175,222.5 L175,223.5 L173,223.5 Z M177,223.5 L177,222.5 L179,222.5 L179,223.5 L177,223.5 Z M181,223.5 L181,222.5 L183,222.5 L183,223.5 L181,223.5 Z M185,223.5 L185,222.5 L187,222.5 L187,223.5 L185,223.5 Z M189,223.5 L189,222.5 L191,222.5 L191,223.5 L189,223.5 Z M193,223.5 L193,222.5 L195,222.5 L195,223.5 L193,223.5 Z M197,223.5 L197,222.5 L199,222.5 L199,223.5 L197,223.5 Z M201,223.5 L201,222.5 L203,222.5 L203,223.5 L201,223.5 Z M205,223.5 L205,222.5 L207,222.5 L207,223.5 L205,223.5 Z M209,223.5 L209,222.5 L211,222.5 L211,223.5 L209,223.5 Z M213,223.5 L213,222.5 L215,222.5 L215,223.5 L213,223.5 Z M217,223.5 L217,222.5 L219,222.5 L219,223.5 L217,223.5 Z M221,223.5 L221,222.5 L223,222.5 L223,223.5 L221,223.5 Z M225,223.5 L225,222.5 L227,222.5 L227,223.5 L225,223.5 Z M229,223.5 L229,222.5 L231,222.5 L231,223.5 L229,223.5 Z M233,223.5 L233,222.5 L235,222.5 L235,223.5 L233,223.5 Z M237,223.5 L237,222.5 L239,222.5 L239,223.5 L237,223.5 Z M241,223.5 L241,222.5 L243,222.5 L243,223.5 L241,223.5 Z M245,223.5 L245,222.5 L247,222.5 L247,223.5 L245,223.5 Z M249,223.5 L249,222.5 L251,222.5 L251,223.5 L249,223.5 Z M253,223.5 L253,222.5 L255,222.5 L255,223.5 L253,223.5 Z M257,223.5 L257,222.5 L259,222.5 L259,223.5 L257,223.5 Z M261,223.5 L261,222.5 L263,222.5 L263,223.5 L261,223.5 Z M265,223.5 L265,222.5 L267,222.5 L267,223.5 L265,223.5 Z M269,223.5 L269,222.5 L271,222.5 L271,223.5 L269,223.5 Z M273,223.5 L273,222.5 L275,222.5 L275,223.5 L273,223.5 Z M277,223.5 L277,222.5 L279,222.5 L279,223.5 L277,223.5 Z M281,223.5 L281,222.5 L283,222.5 L283,223.5 L281,223.5 Z M285,223.5 L285,222.5 L287,222.5 L287,223.5 L285,223.5 Z M289,223.5 L289,222.5 L292,222.5 L292,223.5 L289,223.5 Z M291.5,224.585786 L292.5,224.585786 L292.5,226.585786 L291.5,226.585786 L291.5,224.585786 Z M291.5,228.585786 L292.5,228.585786 L292.5,230.585786 L291.5,230.585786 L291.5,228.585786 Z M291.5,232.585786 L292.5,232.585786 L292.5,234.585786 L291.5,234.585786 L291.5,232.585786 Z M291.5,236.585786 L292.5,236.585786 L292.5,238.585786 L291.5,238.585786 L291.5,236.585786 Z M291.5,240.585786 L292.5,240.585786 L292.5,242.585786 L291.5,242.585786 L291.5,240.585786 Z M291.5,244.585786 L292.5,244.585786 L292.5,246.585786 L291.5,246.585786 L291.5,244.585786 Z M291.5,248.585786 L292.5,248.585786 L292.5,250.585786 L291.5,250.585786 L291.5,248.585786 Z M291.5,252.585786 L292.5,252.585786 L292.5,254.585786 L291.5,254.585786 L291.5,252.585786 Z M291.5,256.585786 L292.5,256.585786 L292.5,258.585786 L291.5,258.585786 L291.5,256.585786 Z M291.5,260.585786 L292.5,260.585786 L292.5,262.585786 L291.5,262.585786 L291.5,260.585786 Z M291.5,264.585786 L292.5,264.585786 L292.5,266.585786 L291.5,266.585786 L291.5,264.585786 Z M291.5,268.585786 L292.5,268.585786 L292.5,270.585786 L291.5,270.585786 L291.5,268.585786 Z M291.5,272.585786 L292.5,272.585786 L292.5,274.585786 L291.5,274.585786 L291.5,272.585786 Z M291.5,276.585786 L292.5,276.585786 L292.5,278.585786 L291.5,278.585786 L291.5,276.585786 Z M291.5,280.585786 L292.5,280.585786 L292.5,282 C292.5,282.303305 292.409263,282.594363 292.242461,282.840589 L291.414548,282.279733 C291.470069,282.197774 291.5,282.101766 291.5,282 L291.5,280.585786 Z M289.828427,282.5 L289.828427,283.5 L287.828427,283.5 L287.828427,282.5 L289.828427,282.5 Z M285.828427,282.5 L285.828427,283.5 L283.828427,283.5 L283.828427,282.5 L285.828427,282.5 Z M281.828427,282.5 L281.828427,283.5 L279.828427,283.5 L279.828427,282.5 L281.828427,282.5 Z M277.828427,282.5 L277.828427,283.5 L275.828427,283.5 L275.828427,282.5 L277.828427,282.5 Z M273.828427,282.5 L273.828427,283.5 L271.828427,283.5 L271.828427,282.5 L273.828427,282.5 Z M269.828427,282.5 L269.828427,283.5 L267.828427,283.5 L267.828427,282.5 L269.828427,282.5 Z M265.828427,282.5 L265.828427,283.5 L263.828427,283.5 L263.828427,282.5 L265.828427,282.5 Z M261.828427,282.5 L261.828427,283.5 L259.828427,283.5 L259.828427,282.5 L261.828427,282.5 Z M257.828427,282.5 L257.828427,283.5 L255.828427,283.5 L255.828427,282.5 L257.828427,282.5 Z M253.828427,282.5 L253.828427,283.5 L251.828427,283.5 L251.828427,282.5 L253.828427,282.5 Z M249.828427,282.5 L249.828427,283.5 L247.828427,283.5 L247.828427,282.5 L249.828427,282.5 Z M245.828427,282.5 L245.828427,283.5 L243.828427,283.5 L243.828427,282.5 L245.828427,282.5 Z M241.828427,282.5 L241.828427,283.5 L239.828427,283.5 L239.828427,282.5 L241.828427,282.5 Z M237.828427,282.5 L237.828427,283.5 L235.828427,283.5 L235.828427,282.5 L237.828427,282.5 Z M233.828427,282.5 L233.828427,283.5 L231.828427,283.5 L231.828427,282.5 L233.828427,282.5 Z M229.828427,282.5 L229.828427,283.5 L227.828427,283.5 L227.828427,282.5 L229.828427,282.5 Z M225.828427,282.5 L225.828427,283.5 L223.828427,283.5 L223.828427,282.5 L225.828427,282.5 Z M221.828427,282.5 L221.828427,283.5 L219.828427,283.5 L219.828427,282.5 L221.828427,282.5 Z M217.828427,282.5 L217.828427,283.5 L215.828427,283.5 L215.828427,282.5 L217.828427,282.5 Z M213.828427,282.5 L213.828427,283.5 L211.828427,283.5 L211.828427,282.5 L213.828427,282.5 Z M209.828427,282.5 L209.828427,283.5 L207.828427,283.5 L207.828427,282.5 L209.828427,282.5 Z M205.828427,282.5 L205.828427,283.5 L203.828427,283.5 L203.828427,282.5 L205.828427,282.5 Z M201.828427,282.5 L201.828427,283.5 L199.828427,283.5 L199.828427,282.5 L201.828427,282.5 Z M197.828427,282.5 L197.828427,283.5 L195.828427,283.5 L195.828427,282.5 L197.828427,282.5 Z M193.828427,282.5 L193.828427,283.5 L191.828427,283.5 L191.828427,282.5 L193.828427,282.5 Z M189.828427,282.5 L189.828427,283.5 L187.828427,283.5 L187.828427,282.5 L189.828427,282.5 Z M185.828427,282.5 L185.828427,283.5 L183.828427,283.5 L183.828427,282.5 L185.828427,282.5 Z M181.828427,282.5 L181.828427,283.5 L179.828427,283.5 L179.828427,282.5 L181.828427,282.5 Z M177.828427,282.5 L177.828427,283.5 L175.828427,283.5 L175.828427,282.5 L177.828427,282.5 Z M173.828427,282.5 L173.828427,283.5 L171.828427,283.5 L171.828427,282.5 L173.828427,282.5 Z M169.828427,282.5 L169.828427,283.5 L167.828427,283.5 L167.828427,282.5 L169.828427,282.5 Z M165.828427,282.5 L165.828427,283.5 L163.828427,283.5 L163.828427,282.5 L165.828427,282.5 Z M161.828427,282.5 L161.828427,283.5 L159.828427,283.5 L159.828427,282.5 L161.828427,282.5 Z M157.828427,282.5 L157.828427,283.5 L155.828427,283.5 L155.828427,282.5 L157.828427,282.5 Z M153.828427,282.5 L153.828427,283.5 L151.828427,283.5 L151.828427,282.5 L153.828427,282.5 Z M149.828427,282.5 L149.828427,283.5 L147.828427,283.5 L147.828427,282.5 L149.828427,282.5 Z M145.828427,282.5 L145.828427,283.5 L143.828427,283.5 L143.828427,282.5 L145.828427,282.5 Z M141.828427,282.5 L141.828427,283.5 L139.828427,283.5 L139.828427,282.5 L141.828427,282.5 Z M137.828427,282.5 L137.828427,283.5 L135.828427,283.5 L135.828427,282.5 L137.828427,282.5 Z M133.828427,282.5 L133.828427,283.5 L131.828427,283.5 L131.828427,282.5 L133.828427,282.5 Z M129.828427,282.5 L129.828427,283.5 L127.828427,283.5 L127.828427,282.5 L129.828427,282.5 Z M125.828427,282.5 L125.828427,283.5 L123.828427,283.5 L123.828427,282.5 L125.828427,282.5 Z M121.828427,282.5 L121.828427,283.5 L119.828427,283.5 L119.828427,282.5 L121.828427,282.5 Z M117.828427,282.5 L117.828427,283.5 L115.828427,283.5 L115.828427,282.5 L117.828427,282.5 Z M113.828427,282.5 L113.828427,283.5 L111.828427,283.5 L111.828427,282.5 L113.828427,282.5 Z M109.828427,282.5 L109.828427,283.5 L107.828427,283.5 L107.828427,282.5 L109.828427,282.5 Z M105.828427,282.5 L105.828427,283.5 L103.828427,283.5 L103.828427,282.5 L105.828427,282.5 Z M101.828427,282.5 L101.828427,283.5 L99.8284271,283.5 L99.8284271,282.5 L101.828427,282.5 Z M97.8284271,282.5 L97.8284271,283.5 L95.8284271,283.5 L95.8284271,282.5 L97.8284271,282.5 Z M93.8284271,282.5 L93.8284271,283.5 L91.8284271,283.5 L91.8284271,282.5 L93.8284271,282.5 Z M89.8284271,282.5 L89.8284271,283.5 L87.8284271,283.5 L87.8284271,282.5 L89.8284271,282.5 Z M85.8284271,282.5 L85.8284271,283.5 L83.8284271,283.5 L83.8284271,282.5 L85.8284271,282.5 Z M81.8284271,282.5 L81.8284271,283.5 L79.8284271,283.5 L79.8284271,282.5 L81.8284271,282.5 Z M77.8284271,282.5 L77.8284271,283.5 L75.8284271,283.5 L75.8284271,282.5 L77.8284271,282.5 Z M73.8284271,282.5 L73.8284271,283.5 L71.8284271,283.5 L71.8284271,282.5 L73.8284271,282.5 Z M69.8284271,282.5 L69.8284271,283.5 L67.8284271,283.5 L67.8284271,282.5 L69.8284271,282.5 Z M65.8284271,282.5 L65.8284271,283.5 L63.8284271,283.5 L63.8284271,282.5 L65.8284271,282.5 Z M61.8284271,282.5 L61.8284271,283.5 L59.8284271,283.5 L59.8284271,282.5 L61.8284271,282.5 Z M57.8284271,282.5 L57.8284271,283.5 L57,283.5 C56.34807,283.5 55.7769164,283.080375 55.5755194,282.470816 L56.5250356,282.157098 C56.5920674,282.35998 56.7826491,282.5 57,282.5 L57.8284271,282.5 Z M56.5,280.242641 L55.5,280.242641 L55.5,278.242641 L56.5,278.242641 L56.5,280.242641 Z M56.5,276.242641 L55.5,276.242641 L55.5,274.242641 L56.5,274.242641 L56.5,276.242641 Z M56.5,272.242641 L55.5,272.242641 L55.5,270.242641 L56.5,270.242641 L56.5,272.242641 Z M56.5,268.242641 L55.5,268.242641 L55.5,266.242641 L56.5,266.242641 L56.5,268.242641 Z M56.5,264.242641 L55.5,264.242641 L55.5,262.242641 L56.5,262.242641 L56.5,264.242641 Z M56.5,260.242641 L55.5,260.242641 L55.5,258.242641 L56.5,258.242641 L56.5,260.242641 Z M56.5,256.242641 L55.5,256.242641 L55.5,254.242641 L56.5,254.242641 L56.5,256.242641 Z M56.5,252.242641 L55.5,252.242641 L55.5,250.242641 L56.5,250.242641 L56.5,252.242641 Z M56.5,248.242641 L55.5,248.242641 L55.5,246.242641 L56.5,246.242641 L56.5,248.242641 Z M56.5,244.242641 L55.5,244.242641 L55.5,242.242641 L56.5,242.242641 L56.5,244.242641 Z M56.5,240.242641 L55.5,240.242641 L55.5,238.242641 L56.5,238.242641 L56.5,240.242641 Z M56.5,236.242641 L55.5,236.242641 L55.5,234.242641 L56.5,234.242641 L56.5,236.242641 Z M56.5,232.242641 L55.5,232.242641 L55.5,230.242641 L56.5,230.242641 L56.5,232.242641 Z M56.5,228.242641 L55.5,228.242641 L55.5,226.242641 L56.5,226.242641 L56.5,228.242641 Z M56.5,224.242641 L55.5,224.242641 L55.5,224 C55.5,223.171573 56.1715729,222.5 57,222.5 L57,223.5 C56.7238576,223.5 56.5,223.723858 56.5,224 L56.5,224.242641 Z" id="合并形状" fill="#3EBB9D" fill-rule="nonzero"></path>
        <path d="M61,324.5 L61,323.5 L61,324.5 Z M127,323.5 L127,324.5 L127,323.5 Z M57,324.5 L57,323.5 L59,323.5 L59,324.5 L57,324.5 Z M129,324.5 L129,323.5 L131,323.5 L131,324.5 L129,324.5 Z M133,324.5 L133,323.5 L135,323.5 L135,324.5 L133,324.5 Z M137,324.5 L137,323.5 L139,323.5 L139,324.5 L137,324.5 Z M141,324.5 L141,323.5 L143,323.5 L143,324.5 L141,324.5 Z M145,324.5 L145,323.5 L147,323.5 L147,324.5 L145,324.5 Z M149,324.5 L149,323.5 L151,323.5 L151,324.5 L149,324.5 Z M153,324.5 L153,323.5 L155,323.5 L155,324.5 L153,324.5 Z M157,324.5 L157,323.5 L159,323.5 L159,324.5 L157,324.5 Z M161,324.5 L161,323.5 L163,323.5 L163,324.5 L161,324.5 Z M165,324.5 L165,323.5 L167,323.5 L167,324.5 L165,324.5 Z M169,324.5 L169,323.5 L171,323.5 L171,324.5 L169,324.5 Z M173,324.5 L173,323.5 L175,323.5 L175,324.5 L173,324.5 Z M177,324.5 L177,323.5 L179,323.5 L179,324.5 L177,324.5 Z M181,324.5 L181,323.5 L183,323.5 L183,324.5 L181,324.5 Z M185,324.5 L185,323.5 L187,323.5 L187,324.5 L185,324.5 Z M189,324.5 L189,323.5 L191,323.5 L191,324.5 L189,324.5 Z M193,324.5 L193,323.5 L195,323.5 L195,324.5 L193,324.5 Z M197,324.5 L197,323.5 L199,323.5 L199,324.5 L197,324.5 Z M201,324.5 L201,323.5 L203,323.5 L203,324.5 L201,324.5 Z M205,324.5 L205,323.5 L207,323.5 L207,324.5 L205,324.5 Z M209,324.5 L209,323.5 L211,323.5 L211,324.5 L209,324.5 Z M213,324.5 L213,323.5 L215,323.5 L215,324.5 L213,324.5 Z M217,324.5 L217,323.5 L219,323.5 L219,324.5 L217,324.5 Z M221,324.5 L221,323.5 L223,323.5 L223,324.5 L221,324.5 Z M225,324.5 L225,323.5 L227,323.5 L227,324.5 L225,324.5 Z M229,324.5 L229,323.5 L231,323.5 L231,324.5 L229,324.5 Z M233,324.5 L233,323.5 L235,323.5 L235,324.5 L233,324.5 Z M237,324.5 L237,323.5 L239,323.5 L239,324.5 L237,324.5 Z M241,324.5 L241,323.5 L243,323.5 L243,324.5 L241,324.5 Z M245,324.5 L245,323.5 L247,323.5 L247,324.5 L245,324.5 Z M249,324.5 L249,323.5 L251,323.5 L251,324.5 L249,324.5 Z M253,324.5 L253,323.5 L255,323.5 L255,324.5 L253,324.5 Z M257,324.5 L257,323.5 L259,323.5 L259,324.5 L257,324.5 Z M261,324.5 L261,323.5 L263,323.5 L263,324.5 L261,324.5 Z M265,324.5 L265,323.5 L267,323.5 L267,324.5 L265,324.5 Z M269,324.5 L269,323.5 L271,323.5 L271,324.5 L269,324.5 Z M273,324.5 L273,323.5 L275,323.5 L275,324.5 L273,324.5 Z M277,324.5 L277,323.5 L279,323.5 L279,324.5 L277,324.5 Z M281,324.5 L281,323.5 L283,323.5 L283,324.5 L281,324.5 Z M285,324.5 L285,323.5 L287,323.5 L287,324.5 L285,324.5 Z M289,324.5 L289,323.5 L291,323.5 L291,324.5 L289,324.5 Z M293,324.5 L293,323.5 L295,323.5 L295,324.5 L293,324.5 Z M297,324.5 L297,323.5 L299,323.5 L299,324.5 L297,324.5 Z M301,324.5 L301,323.5 L303,323.5 L303,324.5 L301,324.5 Z M305,324.5 L305,323.5 L307,323.5 L307,324.5 L305,324.5 Z M309,324.5 L309,323.5 L311,323.5 L311,324.5 L309,324.5 Z M313,324.5 L313,323.5 L315,323.5 L315,324.5 L313,324.5 Z M317,324.5 L317,323.5 L319,323.5 L319,324.5 L317,324.5 Z M321,324.5 L321,323.5 L323,323.5 L323,324.5 L321,324.5 Z M325,324.5 L325,323.5 L327,323.5 L327,324.5 L325,324.5 Z M329,324.5 L329,323.5 L331,323.5 L331,324.5 L329,324.5 Z M333,324.5 L333,323.5 L335,323.5 L335,324.5 L333,324.5 Z M337,324.5 L337,323.5 L339,323.5 L339,324.5 L337,324.5 Z M341,324.5 L341,323.5 L343,323.5 L343,324.5 L341,324.5 Z M345,324.5 L345,323.5 L347,323.5 L347,324.5 L345,324.5 Z M349,324.5 L349,323.5 L351,323.5 L351,324.5 L349,324.5 Z M353,324.5 L353,323.5 L355,323.5 L355,324.5 L353,324.5 Z M357,324.5 L357,323.5 L359,323.5 L359,324.5 L357,324.5 Z M361,324.5 L361,323.5 L363,323.5 L363,324.5 L361,324.5 Z M365,324.5 L365,323.5 L367,323.5 L367,324.5 L365,324.5 Z M369,324.5 L369,323.5 L371,323.5 L371,324.5 L369,324.5 Z M373,324.5 L373,323.5 L375,323.5 L375,324.5 L373,324.5 Z M377,324.5 L377,323.5 L379,323.5 L379,324.5 L377,324.5 Z M381,324.5 L381,323.5 L383,323.5 L383,324.5 L381,324.5 Z M385,324.5 L385,323.5 L387,323.5 L387,324.5 L385,324.5 Z M389,324.5 L389,323.5 L391,323.5 L391,324.5 L389,324.5 Z M393,324.5 L393,323.5 L395,323.5 L395,324.5 L393,324.5 Z M397,324.5 L397,323.5 L399,323.5 L399,324.5 L397,324.5 Z M401,324.5 L401,323.5 L403,323.5 L403,324.5 L401,324.5 Z M405,324.5 L405,323.5 L407,323.5 L407,324.5 L405,324.5 Z M409,324.5 L409,323.5 L411,323.5 L411,324.5 L409,324.5 Z M413,324.5 L413,323.5 L416,323.5 L416,324.5 L413,324.5 Z M415.5,325.585786 L416.5,325.585786 L416.5,327.585786 L415.5,327.585786 L415.5,325.585786 Z M415.5,329.585786 L416.5,329.585786 L416.5,331.585786 L415.5,331.585786 L415.5,329.585786 Z M415.5,333.585786 L416.5,333.585786 L416.5,335.585786 L415.5,335.585786 L415.5,333.585786 Z M415.5,337.585786 L416.5,337.585786 L416.5,339.585786 L415.5,339.585786 L415.5,337.585786 Z M415.5,341.585786 L416.5,341.585786 L416.5,343.585786 L415.5,343.585786 L415.5,341.585786 Z M415.5,345.585786 L416.5,345.585786 L416.5,347.585786 L415.5,347.585786 L415.5,345.585786 Z M415.5,349.585786 L416.5,349.585786 L416.5,351.585786 L415.5,351.585786 L415.5,349.585786 Z M415.5,353.585786 L416.5,353.585786 L416.5,355.585786 L415.5,355.585786 L415.5,353.585786 Z M415.5,357.585786 L416.5,357.585786 L416.5,359.585786 L415.5,359.585786 L415.5,357.585786 Z M415.5,361.585786 L416.5,361.585786 L416.5,363.585786 L415.5,363.585786 L415.5,361.585786 Z M415.5,365.585786 L416.5,365.585786 L416.5,367.585786 L415.5,367.585786 L415.5,365.585786 Z M415.5,369.585786 L416.5,369.585786 L416.5,371.585786 L415.5,371.585786 L415.5,369.585786 Z M414.828427,372.5 L414.828427,373.5 L412.828427,373.5 L412.828427,372.5 L414.828427,372.5 Z M410.828427,372.5 L410.828427,373.5 L408.828427,373.5 L408.828427,372.5 L410.828427,372.5 Z M406.828427,372.5 L406.828427,373.5 L404.828427,373.5 L404.828427,372.5 L406.828427,372.5 Z M402.828427,372.5 L402.828427,373.5 L400.828427,373.5 L400.828427,372.5 L402.828427,372.5 Z M398.828427,372.5 L398.828427,373.5 L396.828427,373.5 L396.828427,372.5 L398.828427,372.5 Z M394.828427,372.5 L394.828427,373.5 L392.828427,373.5 L392.828427,372.5 L394.828427,372.5 Z M390.828427,372.5 L390.828427,373.5 L388.828427,373.5 L388.828427,372.5 L390.828427,372.5 Z M386.828427,372.5 L386.828427,373.5 L384.828427,373.5 L384.828427,372.5 L386.828427,372.5 Z M382.828427,372.5 L382.828427,373.5 L380.828427,373.5 L380.828427,372.5 L382.828427,372.5 Z M378.828427,372.5 L378.828427,373.5 L376.828427,373.5 L376.828427,372.5 L378.828427,372.5 Z M374.828427,372.5 L374.828427,373.5 L372.828427,373.5 L372.828427,372.5 L374.828427,372.5 Z M370.828427,372.5 L370.828427,373.5 L368.828427,373.5 L368.828427,372.5 L370.828427,372.5 Z M366.828427,372.5 L366.828427,373.5 L364.828427,373.5 L364.828427,372.5 L366.828427,372.5 Z M362.828427,372.5 L362.828427,373.5 L360.828427,373.5 L360.828427,372.5 L362.828427,372.5 Z M358.828427,372.5 L358.828427,373.5 L356.828427,373.5 L356.828427,372.5 L358.828427,372.5 Z M354.828427,372.5 L354.828427,373.5 L352.828427,373.5 L352.828427,372.5 L354.828427,372.5 Z M350.828427,372.5 L350.828427,373.5 L348.828427,373.5 L348.828427,372.5 L350.828427,372.5 Z M346.828427,372.5 L346.828427,373.5 L344.828427,373.5 L344.828427,372.5 L346.828427,372.5 Z M342.828427,372.5 L342.828427,373.5 L340.828427,373.5 L340.828427,372.5 L342.828427,372.5 Z M338.828427,372.5 L338.828427,373.5 L336.828427,373.5 L336.828427,372.5 L338.828427,372.5 Z M334.828427,372.5 L334.828427,373.5 L332.828427,373.5 L332.828427,372.5 L334.828427,372.5 Z M330.828427,372.5 L330.828427,373.5 L328.828427,373.5 L328.828427,372.5 L330.828427,372.5 Z M326.828427,372.5 L326.828427,373.5 L324.828427,373.5 L324.828427,372.5 L326.828427,372.5 Z M322.828427,372.5 L322.828427,373.5 L320.828427,373.5 L320.828427,372.5 L322.828427,372.5 Z M318.828427,372.5 L318.828427,373.5 L316.828427,373.5 L316.828427,372.5 L318.828427,372.5 Z M314.828427,372.5 L314.828427,373.5 L312.828427,373.5 L312.828427,372.5 L314.828427,372.5 Z M310.828427,372.5 L310.828427,373.5 L308.828427,373.5 L308.828427,372.5 L310.828427,372.5 Z M306.828427,372.5 L306.828427,373.5 L304.828427,373.5 L304.828427,372.5 L306.828427,372.5 Z M302.828427,372.5 L302.828427,373.5 L300.828427,373.5 L300.828427,372.5 L302.828427,372.5 Z M298.828427,372.5 L298.828427,373.5 L296.828427,373.5 L296.828427,372.5 L298.828427,372.5 Z M294.828427,372.5 L294.828427,373.5 L292.828427,373.5 L292.828427,372.5 L294.828427,372.5 Z M290.828427,372.5 L290.828427,373.5 L288.828427,373.5 L288.828427,372.5 L290.828427,372.5 Z M286.828427,372.5 L286.828427,373.5 L284.828427,373.5 L284.828427,372.5 L286.828427,372.5 Z M282.828427,372.5 L282.828427,373.5 L280.828427,373.5 L280.828427,372.5 L282.828427,372.5 Z M278.828427,372.5 L278.828427,373.5 L276.828427,373.5 L276.828427,372.5 L278.828427,372.5 Z M274.828427,372.5 L274.828427,373.5 L272.828427,373.5 L272.828427,372.5 L274.828427,372.5 Z M270.828427,372.5 L270.828427,373.5 L268.828427,373.5 L268.828427,372.5 L270.828427,372.5 Z M266.828427,372.5 L266.828427,373.5 L264.828427,373.5 L264.828427,372.5 L266.828427,372.5 Z M262.828427,372.5 L262.828427,373.5 L260.828427,373.5 L260.828427,372.5 L262.828427,372.5 Z M258.828427,372.5 L258.828427,373.5 L256.828427,373.5 L256.828427,372.5 L258.828427,372.5 Z M254.828427,372.5 L254.828427,373.5 L252.828427,373.5 L252.828427,372.5 L254.828427,372.5 Z M250.828427,372.5 L250.828427,373.5 L248.828427,373.5 L248.828427,372.5 L250.828427,372.5 Z M246.828427,372.5 L246.828427,373.5 L244.828427,373.5 L244.828427,372.5 L246.828427,372.5 Z M242.828427,372.5 L242.828427,373.5 L240.828427,373.5 L240.828427,372.5 L242.828427,372.5 Z M238.828427,372.5 L238.828427,373.5 L236.828427,373.5 L236.828427,372.5 L238.828427,372.5 Z M234.828427,372.5 L234.828427,373.5 L232.828427,373.5 L232.828427,372.5 L234.828427,372.5 Z M230.828427,372.5 L230.828427,373.5 L228.828427,373.5 L228.828427,372.5 L230.828427,372.5 Z M226.828427,372.5 L226.828427,373.5 L224.828427,373.5 L224.828427,372.5 L226.828427,372.5 Z M222.828427,372.5 L222.828427,373.5 L220.828427,373.5 L220.828427,372.5 L222.828427,372.5 Z M218.828427,372.5 L218.828427,373.5 L216.828427,373.5 L216.828427,372.5 L218.828427,372.5 Z M214.828427,372.5 L214.828427,373.5 L212.828427,373.5 L212.828427,372.5 L214.828427,372.5 Z M210.828427,372.5 L210.828427,373.5 L208.828427,373.5 L208.828427,372.5 L210.828427,372.5 Z M206.828427,372.5 L206.828427,373.5 L204.828427,373.5 L204.828427,372.5 L206.828427,372.5 Z M202.828427,372.5 L202.828427,373.5 L200.828427,373.5 L200.828427,372.5 L202.828427,372.5 Z M198.828427,372.5 L198.828427,373.5 L196.828427,373.5 L196.828427,372.5 L198.828427,372.5 Z M194.828427,372.5 L194.828427,373.5 L192.828427,373.5 L192.828427,372.5 L194.828427,372.5 Z M190.828427,372.5 L190.828427,373.5 L188.828427,373.5 L188.828427,372.5 L190.828427,372.5 Z M186.828427,372.5 L186.828427,373.5 L184.828427,373.5 L184.828427,372.5 L186.828427,372.5 Z M182.828427,372.5 L182.828427,373.5 L180.828427,373.5 L180.828427,372.5 L182.828427,372.5 Z M178.828427,372.5 L178.828427,373.5 L176.828427,373.5 L176.828427,372.5 L178.828427,372.5 Z M174.828427,372.5 L174.828427,373.5 L172.828427,373.5 L172.828427,372.5 L174.828427,372.5 Z M170.828427,372.5 L170.828427,373.5 L168.828427,373.5 L168.828427,372.5 L170.828427,372.5 Z M166.828427,372.5 L166.828427,373.5 L164.828427,373.5 L164.828427,372.5 L166.828427,372.5 Z M162.828427,372.5 L162.828427,373.5 L160.828427,373.5 L160.828427,372.5 L162.828427,372.5 Z M158.828427,372.5 L158.828427,373.5 L156.828427,373.5 L156.828427,372.5 L158.828427,372.5 Z M154.828427,372.5 L154.828427,373.5 L152.828427,373.5 L152.828427,372.5 L154.828427,372.5 Z M150.828427,372.5 L150.828427,373.5 L148.828427,373.5 L148.828427,372.5 L150.828427,372.5 Z M146.828427,372.5 L146.828427,373.5 L144.828427,373.5 L144.828427,372.5 L146.828427,372.5 Z M142.828427,372.5 L142.828427,373.5 L140.828427,373.5 L140.828427,372.5 L142.828427,372.5 Z M138.828427,372.5 L138.828427,373.5 L136.828427,373.5 L136.828427,372.5 L138.828427,372.5 Z M134.828427,372.5 L134.828427,373.5 L132.828427,373.5 L132.828427,372.5 L134.828427,372.5 Z M130.828427,372.5 L130.828427,373.5 L128.828427,373.5 L128.828427,372.5 L130.828427,372.5 Z M126.828427,372.5 L126.828427,373.5 L124.828427,373.5 L124.828427,372.5 L126.828427,372.5 Z M122.828427,372.5 L122.828427,373.5 L120.828427,373.5 L120.828427,372.5 L122.828427,372.5 Z M118.828427,372.5 L118.828427,373.5 L116.828427,373.5 L116.828427,372.5 L118.828427,372.5 Z M114.828427,372.5 L114.828427,373.5 L112.828427,373.5 L112.828427,372.5 L114.828427,372.5 Z M110.828427,372.5 L110.828427,373.5 L108.828427,373.5 L108.828427,372.5 L110.828427,372.5 Z M106.828427,372.5 L106.828427,373.5 L104.828427,373.5 L104.828427,372.5 L106.828427,372.5 Z M102.828427,372.5 L102.828427,373.5 L100.828427,373.5 L100.828427,372.5 L102.828427,372.5 Z M98.8284271,372.5 L98.8284271,373.5 L96.8284271,373.5 L96.8284271,372.5 L98.8284271,372.5 Z M94.8284271,372.5 L94.8284271,373.5 L92.8284271,373.5 L92.8284271,372.5 L94.8284271,372.5 Z M90.8284271,372.5 L90.8284271,373.5 L88.8284271,373.5 L88.8284271,372.5 L90.8284271,372.5 Z M86.8284271,372.5 L86.8284271,373.5 L84.8284271,373.5 L84.8284271,372.5 L86.8284271,372.5 Z M82.8284271,372.5 L82.8284271,373.5 L80.8284271,373.5 L80.8284271,372.5 L82.8284271,372.5 Z M78.8284271,372.5 L78.8284271,373.5 L76.8284271,373.5 L76.8284271,372.5 L78.8284271,372.5 Z M74.8284271,372.5 L74.8284271,373.5 L72.8284271,373.5 L72.8284271,372.5 L74.8284271,372.5 Z M70.8284271,372.5 L70.8284271,373.5 L68.8284271,373.5 L68.8284271,372.5 L70.8284271,372.5 Z M66.8284271,372.5 L66.8284271,373.5 L64.8284271,373.5 L64.8284271,372.5 L66.8284271,372.5 Z M62.8284271,372.5 L62.8284271,373.5 L60.8284271,373.5 L60.8284271,372.5 L62.8284271,372.5 Z M58.8284271,372.5 L58.8284271,373.5 L57,373.5 C56.9137532,373.5 56.8282106,373.492669 56.7441002,373.478176 L56.9139023,372.492698 C56.9419878,372.497537 56.9707246,372.5 57,372.5 L58.8284271,372.5 Z M56.5,371.242641 L55.5,371.242641 L55.5,369.242641 L56.5,369.242641 L56.5,371.242641 Z M56.5,367.242641 L55.5,367.242641 L55.5,365.242641 L56.5,365.242641 L56.5,367.242641 Z M56.5,363.242641 L55.5,363.242641 L55.5,361.242641 L56.5,361.242641 L56.5,363.242641 Z M56.5,359.242641 L55.5,359.242641 L55.5,357.242641 L56.5,357.242641 L56.5,359.242641 Z M56.5,355.242641 L55.5,355.242641 L55.5,353.242641 L56.5,353.242641 L56.5,355.242641 Z M56.5,351.242641 L55.5,351.242641 L55.5,349.242641 L56.5,349.242641 L56.5,351.242641 Z M56.5,347.242641 L55.5,347.242641 L55.5,345.242641 L56.5,345.242641 L56.5,347.242641 Z M56.5,343.242641 L55.5,343.242641 L55.5,341.242641 L56.5,341.242641 L56.5,343.242641 Z M56.5,339.242641 L55.5,339.242641 L55.5,337.242641 L56.5,337.242641 L56.5,339.242641 Z M56.5,335.242641 L55.5,335.242641 L55.5,333.242641 L56.5,333.242641 L56.5,335.242641 Z M56.5,331.242641 L55.5,331.242641 L55.5,329.242641 L56.5,329.242641 L56.5,331.242641 Z M56.5,327.242641 L55.5,327.242641 L55.5,325.242641 L56.5,325.242641 L56.5,327.242641 Z" id="合并形状" fill="#2296F6" fill-rule="nonzero"></path>
        <path d="M431,324.5 L431,323.5 L431,324.5 Z M497,323.5 L497,324.5 L497,323.5 Z M427,324.5 L427,323.5 L429,323.5 L429,324.5 L427,324.5 Z M499,324.5 L499,323.5 L501,323.5 L501,324.5 L499,324.5 Z M503,324.5 L503,323.5 L505,323.5 L505,324.5 L503,324.5 Z M507,324.5 L507,323.5 L509,323.5 L509,324.5 L507,324.5 Z M511,324.5 L511,323.5 L513,323.5 L513,324.5 L511,324.5 Z M515,324.5 L515,323.5 L517,323.5 L517,324.5 L515,324.5 Z M519,324.5 L519,323.5 L521,323.5 L521,324.5 L519,324.5 Z M523,324.5 L523,323.5 L525,323.5 L525,324.5 L523,324.5 Z M527,324.5 L527,323.5 L529,323.5 L529,324.5 L527,324.5 Z M531,324.5 L531,323.5 L533,323.5 L533,324.5 L531,324.5 Z M535,324.5 L535,323.5 L537,323.5 L537,324.5 L535,324.5 Z M539,324.5 L539,323.5 L541,323.5 L541,324.5 L539,324.5 Z M543,324.5 L543,323.5 L545,323.5 L545,324.5 L543,324.5 Z M547,324.5 L547,323.5 L549,323.5 L549,324.5 L547,324.5 Z M551,324.5 L551,323.5 L553,323.5 L553,324.5 L551,324.5 Z M555,324.5 L555,323.5 L557,323.5 L557,324.5 L555,324.5 Z M559,324.5 L559,323.5 L561,323.5 L561,324.5 L559,324.5 Z M563,324.5 L563,323.5 L565,323.5 L565,324.5 L563,324.5 Z M567,324.5 L567,323.5 L569,323.5 L569,324.5 L567,324.5 Z M571,324.5 L571,323.5 L573,323.5 L573,324.5 L571,324.5 Z M575,324.5 L575,323.5 L577,323.5 L577,324.5 L575,324.5 Z M579,324.5 L579,323.5 L581,323.5 L581,324.5 L579,324.5 Z M583,324.5 L583,323.5 L585,323.5 L585,324.5 L583,324.5 Z M587,324.5 L587,323.5 L589,323.5 L589,324.5 L587,324.5 Z M591,324.5 L591,323.5 L593,323.5 L593,324.5 L591,324.5 Z M595,324.5 L595,323.5 L597,323.5 L597,324.5 L595,324.5 Z M599,324.5 L599,323.5 L601,323.5 L601,324.5 L599,324.5 Z M603,324.5 L603,323.5 L605,323.5 L605,324.5 L603,324.5 Z M607,324.5 L607,323.5 L609,323.5 L609,324.5 L607,324.5 Z M611,324.5 L611,323.5 L613,323.5 L613,324.5 L611,324.5 Z M615,324.5 L615,323.5 L617,323.5 L617,324.5 L615,324.5 Z M619,324.5 L619,323.5 L621,323.5 L621,324.5 L619,324.5 Z M623,324.5 L623,323.5 L625,323.5 L625,324.5 L623,324.5 Z M627,324.5 L627,323.5 L629,323.5 L629,324.5 L627,324.5 Z M631,324.5 L631,323.5 L633,323.5 L633,324.5 L631,324.5 Z M635,324.5 L635,323.5 L637,323.5 L637,324.5 L635,324.5 Z M639,324.5 L639,323.5 L641,323.5 L641,324.5 L639,324.5 Z M643,324.5 L643,323.5 L645,323.5 L645,324.5 L643,324.5 Z M647,324.5 L647,323.5 L649,323.5 L649,324.5 L647,324.5 Z M651,324.5 L651,323.5 L653,323.5 L653,324.5 L651,324.5 Z M655,324.5 L655,323.5 L657,323.5 L657,324.5 L655,324.5 Z M659,324.5 L659,323.5 L661,323.5 L661,324.5 L659,324.5 Z M663,324.5 L663,323.5 L665,323.5 L665,324.5 L663,324.5 Z M667,324.5 L667,323.5 L669,323.5 L669,324.5 L667,324.5 Z M671,324.5 L671,323.5 L673,323.5 L673,324.5 L671,324.5 Z M675,324.5 L675,323.5 L677,323.5 L677,324.5 L675,324.5 Z M679,324.5 L679,323.5 L681,323.5 L681,324.5 L679,324.5 Z M683,324.5 L683,323.5 L685,323.5 L685,324.5 L683,324.5 Z M687,324.5 L687,323.5 L689,323.5 L689,324.5 L687,324.5 Z M691,324.5 L691,323.5 L693,323.5 L693,324.5 L691,324.5 Z M695,324.5 L695,323.5 L697,323.5 L697,324.5 L695,324.5 Z M699,324.5 L699,323.5 L701,323.5 L701,324.5 L699,324.5 Z M703,324.5 L703,323.5 L705,323.5 L705,324.5 L703,324.5 Z M707,324.5 L707,323.5 L709,323.5 L709,324.5 L707,324.5 Z M711,324.5 L711,323.5 L713,323.5 L713,324.5 L711,324.5 Z M715,324.5 L715,323.5 L717,323.5 L717,324.5 L715,324.5 Z M719,324.5 L719,323.5 L721,323.5 L721,324.5 L719,324.5 Z M723,324.5 L723,323.5 L725,323.5 L725,324.5 L723,324.5 Z M727,324.5 L727,323.5 L729,323.5 L729,324.5 L727,324.5 Z M731,324.5 L731,323.5 L733,323.5 L733,324.5 L731,324.5 Z M735,324.5 L735,323.5 L737,323.5 L737,324.5 L735,324.5 Z M739,324.5 L739,323.5 L741,323.5 L741,324.5 L739,324.5 Z M743,324.5 L743,323.5 L745,323.5 L745,324.5 L743,324.5 Z M747,324.5 L747,323.5 L749,323.5 L749,324.5 L747,324.5 Z M751,324.5 L751,323.5 L753,323.5 L753,324.5 L751,324.5 Z M755,324.5 L755,323.5 L757,323.5 L757,324.5 L755,324.5 Z M759,324.5 L759,323.5 L761,323.5 L761,324.5 L759,324.5 Z M763,324.5 L763,323.5 L765,323.5 L765,324.5 L763,324.5 Z M767,324.5 L767,323.5 L769,323.5 L769,324.5 L767,324.5 Z M771,324.5 L771,323.5 L773,323.5 L773,324.5 L771,324.5 Z M775,324.5 L775,323.5 L777,323.5 L777,324.5 L775,324.5 Z M779,324.5 L779,323.5 L781,323.5 L781,324.5 L779,324.5 Z M783,324.5 L783,323.5 L786,323.5 L786,324.5 L783,324.5 Z M785.5,325.585786 L786.5,325.585786 L786.5,327.585786 L785.5,327.585786 L785.5,325.585786 Z M785.5,329.585786 L786.5,329.585786 L786.5,331.585786 L785.5,331.585786 L785.5,329.585786 Z M785.5,333.585786 L786.5,333.585786 L786.5,335.585786 L785.5,335.585786 L785.5,333.585786 Z M785.5,337.585786 L786.5,337.585786 L786.5,339.585786 L785.5,339.585786 L785.5,337.585786 Z M785.5,341.585786 L786.5,341.585786 L786.5,343.585786 L785.5,343.585786 L785.5,341.585786 Z M785.5,345.585786 L786.5,345.585786 L786.5,347.585786 L785.5,347.585786 L785.5,345.585786 Z M785.5,349.585786 L786.5,349.585786 L786.5,351.585786 L785.5,351.585786 L785.5,349.585786 Z M785.5,353.585786 L786.5,353.585786 L786.5,355.585786 L785.5,355.585786 L785.5,353.585786 Z M785.5,357.585786 L786.5,357.585786 L786.5,359.585786 L785.5,359.585786 L785.5,357.585786 Z M785.5,361.585786 L786.5,361.585786 L786.5,363.585786 L785.5,363.585786 L785.5,361.585786 Z M785.5,365.585786 L786.5,365.585786 L786.5,367.585786 L785.5,367.585786 L785.5,365.585786 Z M785.5,369.585786 L786.5,369.585786 L786.5,371.585786 L785.5,371.585786 L785.5,369.585786 Z M784.828427,372.5 L784.828427,373.5 L782.828427,373.5 L782.828427,372.5 L784.828427,372.5 Z M780.828427,372.5 L780.828427,373.5 L778.828427,373.5 L778.828427,372.5 L780.828427,372.5 Z M776.828427,372.5 L776.828427,373.5 L774.828427,373.5 L774.828427,372.5 L776.828427,372.5 Z M772.828427,372.5 L772.828427,373.5 L770.828427,373.5 L770.828427,372.5 L772.828427,372.5 Z M768.828427,372.5 L768.828427,373.5 L766.828427,373.5 L766.828427,372.5 L768.828427,372.5 Z M764.828427,372.5 L764.828427,373.5 L762.828427,373.5 L762.828427,372.5 L764.828427,372.5 Z M760.828427,372.5 L760.828427,373.5 L758.828427,373.5 L758.828427,372.5 L760.828427,372.5 Z M756.828427,372.5 L756.828427,373.5 L754.828427,373.5 L754.828427,372.5 L756.828427,372.5 Z M752.828427,372.5 L752.828427,373.5 L750.828427,373.5 L750.828427,372.5 L752.828427,372.5 Z M748.828427,372.5 L748.828427,373.5 L746.828427,373.5 L746.828427,372.5 L748.828427,372.5 Z M744.828427,372.5 L744.828427,373.5 L742.828427,373.5 L742.828427,372.5 L744.828427,372.5 Z M740.828427,372.5 L740.828427,373.5 L738.828427,373.5 L738.828427,372.5 L740.828427,372.5 Z M736.828427,372.5 L736.828427,373.5 L734.828427,373.5 L734.828427,372.5 L736.828427,372.5 Z M732.828427,372.5 L732.828427,373.5 L730.828427,373.5 L730.828427,372.5 L732.828427,372.5 Z M728.828427,372.5 L728.828427,373.5 L726.828427,373.5 L726.828427,372.5 L728.828427,372.5 Z M724.828427,372.5 L724.828427,373.5 L722.828427,373.5 L722.828427,372.5 L724.828427,372.5 Z M720.828427,372.5 L720.828427,373.5 L718.828427,373.5 L718.828427,372.5 L720.828427,372.5 Z M716.828427,372.5 L716.828427,373.5 L714.828427,373.5 L714.828427,372.5 L716.828427,372.5 Z M712.828427,372.5 L712.828427,373.5 L710.828427,373.5 L710.828427,372.5 L712.828427,372.5 Z M708.828427,372.5 L708.828427,373.5 L706.828427,373.5 L706.828427,372.5 L708.828427,372.5 Z M704.828427,372.5 L704.828427,373.5 L702.828427,373.5 L702.828427,372.5 L704.828427,372.5 Z M700.828427,372.5 L700.828427,373.5 L698.828427,373.5 L698.828427,372.5 L700.828427,372.5 Z M696.828427,372.5 L696.828427,373.5 L694.828427,373.5 L694.828427,372.5 L696.828427,372.5 Z M692.828427,372.5 L692.828427,373.5 L690.828427,373.5 L690.828427,372.5 L692.828427,372.5 Z M688.828427,372.5 L688.828427,373.5 L686.828427,373.5 L686.828427,372.5 L688.828427,372.5 Z M684.828427,372.5 L684.828427,373.5 L682.828427,373.5 L682.828427,372.5 L684.828427,372.5 Z M680.828427,372.5 L680.828427,373.5 L678.828427,373.5 L678.828427,372.5 L680.828427,372.5 Z M676.828427,372.5 L676.828427,373.5 L674.828427,373.5 L674.828427,372.5 L676.828427,372.5 Z M672.828427,372.5 L672.828427,373.5 L670.828427,373.5 L670.828427,372.5 L672.828427,372.5 Z M668.828427,372.5 L668.828427,373.5 L666.828427,373.5 L666.828427,372.5 L668.828427,372.5 Z M664.828427,372.5 L664.828427,373.5 L662.828427,373.5 L662.828427,372.5 L664.828427,372.5 Z M660.828427,372.5 L660.828427,373.5 L658.828427,373.5 L658.828427,372.5 L660.828427,372.5 Z M656.828427,372.5 L656.828427,373.5 L654.828427,373.5 L654.828427,372.5 L656.828427,372.5 Z M652.828427,372.5 L652.828427,373.5 L650.828427,373.5 L650.828427,372.5 L652.828427,372.5 Z M648.828427,372.5 L648.828427,373.5 L646.828427,373.5 L646.828427,372.5 L648.828427,372.5 Z M644.828427,372.5 L644.828427,373.5 L642.828427,373.5 L642.828427,372.5 L644.828427,372.5 Z M640.828427,372.5 L640.828427,373.5 L638.828427,373.5 L638.828427,372.5 L640.828427,372.5 Z M636.828427,372.5 L636.828427,373.5 L634.828427,373.5 L634.828427,372.5 L636.828427,372.5 Z M632.828427,372.5 L632.828427,373.5 L630.828427,373.5 L630.828427,372.5 L632.828427,372.5 Z M628.828427,372.5 L628.828427,373.5 L626.828427,373.5 L626.828427,372.5 L628.828427,372.5 Z M624.828427,372.5 L624.828427,373.5 L622.828427,373.5 L622.828427,372.5 L624.828427,372.5 Z M620.828427,372.5 L620.828427,373.5 L618.828427,373.5 L618.828427,372.5 L620.828427,372.5 Z M616.828427,372.5 L616.828427,373.5 L614.828427,373.5 L614.828427,372.5 L616.828427,372.5 Z M612.828427,372.5 L612.828427,373.5 L610.828427,373.5 L610.828427,372.5 L612.828427,372.5 Z M608.828427,372.5 L608.828427,373.5 L606.828427,373.5 L606.828427,372.5 L608.828427,372.5 Z M604.828427,372.5 L604.828427,373.5 L602.828427,373.5 L602.828427,372.5 L604.828427,372.5 Z M600.828427,372.5 L600.828427,373.5 L598.828427,373.5 L598.828427,372.5 L600.828427,372.5 Z M596.828427,372.5 L596.828427,373.5 L594.828427,373.5 L594.828427,372.5 L596.828427,372.5 Z M592.828427,372.5 L592.828427,373.5 L590.828427,373.5 L590.828427,372.5 L592.828427,372.5 Z M588.828427,372.5 L588.828427,373.5 L586.828427,373.5 L586.828427,372.5 L588.828427,372.5 Z M584.828427,372.5 L584.828427,373.5 L582.828427,373.5 L582.828427,372.5 L584.828427,372.5 Z M580.828427,372.5 L580.828427,373.5 L578.828427,373.5 L578.828427,372.5 L580.828427,372.5 Z M576.828427,372.5 L576.828427,373.5 L574.828427,373.5 L574.828427,372.5 L576.828427,372.5 Z M572.828427,372.5 L572.828427,373.5 L570.828427,373.5 L570.828427,372.5 L572.828427,372.5 Z M568.828427,372.5 L568.828427,373.5 L566.828427,373.5 L566.828427,372.5 L568.828427,372.5 Z M564.828427,372.5 L564.828427,373.5 L562.828427,373.5 L562.828427,372.5 L564.828427,372.5 Z M560.828427,372.5 L560.828427,373.5 L558.828427,373.5 L558.828427,372.5 L560.828427,372.5 Z M556.828427,372.5 L556.828427,373.5 L554.828427,373.5 L554.828427,372.5 L556.828427,372.5 Z M552.828427,372.5 L552.828427,373.5 L550.828427,373.5 L550.828427,372.5 L552.828427,372.5 Z M548.828427,372.5 L548.828427,373.5 L546.828427,373.5 L546.828427,372.5 L548.828427,372.5 Z M544.828427,372.5 L544.828427,373.5 L542.828427,373.5 L542.828427,372.5 L544.828427,372.5 Z M540.828427,372.5 L540.828427,373.5 L538.828427,373.5 L538.828427,372.5 L540.828427,372.5 Z M536.828427,372.5 L536.828427,373.5 L534.828427,373.5 L534.828427,372.5 L536.828427,372.5 Z M532.828427,372.5 L532.828427,373.5 L530.828427,373.5 L530.828427,372.5 L532.828427,372.5 Z M528.828427,372.5 L528.828427,373.5 L526.828427,373.5 L526.828427,372.5 L528.828427,372.5 Z M524.828427,372.5 L524.828427,373.5 L522.828427,373.5 L522.828427,372.5 L524.828427,372.5 Z M520.828427,372.5 L520.828427,373.5 L518.828427,373.5 L518.828427,372.5 L520.828427,372.5 Z M516.828427,372.5 L516.828427,373.5 L514.828427,373.5 L514.828427,372.5 L516.828427,372.5 Z M512.828427,372.5 L512.828427,373.5 L510.828427,373.5 L510.828427,372.5 L512.828427,372.5 Z M508.828427,372.5 L508.828427,373.5 L506.828427,373.5 L506.828427,372.5 L508.828427,372.5 Z M504.828427,372.5 L504.828427,373.5 L502.828427,373.5 L502.828427,372.5 L504.828427,372.5 Z M500.828427,372.5 L500.828427,373.5 L498.828427,373.5 L498.828427,372.5 L500.828427,372.5 Z M496.828427,372.5 L496.828427,373.5 L494.828427,373.5 L494.828427,372.5 L496.828427,372.5 Z M492.828427,372.5 L492.828427,373.5 L490.828427,373.5 L490.828427,372.5 L492.828427,372.5 Z M488.828427,372.5 L488.828427,373.5 L486.828427,373.5 L486.828427,372.5 L488.828427,372.5 Z M484.828427,372.5 L484.828427,373.5 L482.828427,373.5 L482.828427,372.5 L484.828427,372.5 Z M480.828427,372.5 L480.828427,373.5 L478.828427,373.5 L478.828427,372.5 L480.828427,372.5 Z M476.828427,372.5 L476.828427,373.5 L474.828427,373.5 L474.828427,372.5 L476.828427,372.5 Z M472.828427,372.5 L472.828427,373.5 L470.828427,373.5 L470.828427,372.5 L472.828427,372.5 Z M468.828427,372.5 L468.828427,373.5 L466.828427,373.5 L466.828427,372.5 L468.828427,372.5 Z M464.828427,372.5 L464.828427,373.5 L462.828427,373.5 L462.828427,372.5 L464.828427,372.5 Z M460.828427,372.5 L460.828427,373.5 L458.828427,373.5 L458.828427,372.5 L460.828427,372.5 Z M456.828427,372.5 L456.828427,373.5 L454.828427,373.5 L454.828427,372.5 L456.828427,372.5 Z M452.828427,372.5 L452.828427,373.5 L450.828427,373.5 L450.828427,372.5 L452.828427,372.5 Z M448.828427,372.5 L448.828427,373.5 L446.828427,373.5 L446.828427,372.5 L448.828427,372.5 Z M444.828427,372.5 L444.828427,373.5 L442.828427,373.5 L442.828427,372.5 L444.828427,372.5 Z M440.828427,372.5 L440.828427,373.5 L438.828427,373.5 L438.828427,372.5 L440.828427,372.5 Z M436.828427,372.5 L436.828427,373.5 L434.828427,373.5 L434.828427,372.5 L436.828427,372.5 Z M432.828427,372.5 L432.828427,373.5 L430.828427,373.5 L430.828427,372.5 L432.828427,372.5 Z M428.828427,372.5 L428.828427,373.5 L427,373.5 C426.913753,373.5 426.828211,373.492669 426.7441,373.478176 L426.913902,372.492698 C426.941988,372.497537 426.970725,372.5 427,372.5 L428.828427,372.5 Z M426.5,371.242641 L425.5,371.242641 L425.5,369.242641 L426.5,369.242641 L426.5,371.242641 Z M426.5,367.242641 L425.5,367.242641 L425.5,365.242641 L426.5,365.242641 L426.5,367.242641 Z M426.5,363.242641 L425.5,363.242641 L425.5,361.242641 L426.5,361.242641 L426.5,363.242641 Z M426.5,359.242641 L425.5,359.242641 L425.5,357.242641 L426.5,357.242641 L426.5,359.242641 Z M426.5,355.242641 L425.5,355.242641 L425.5,353.242641 L426.5,353.242641 L426.5,355.242641 Z M426.5,351.242641 L425.5,351.242641 L425.5,349.242641 L426.5,349.242641 L426.5,351.242641 Z M426.5,347.242641 L425.5,347.242641 L425.5,345.242641 L426.5,345.242641 L426.5,347.242641 Z M426.5,343.242641 L425.5,343.242641 L425.5,341.242641 L426.5,341.242641 L426.5,343.242641 Z M426.5,339.242641 L425.5,339.242641 L425.5,337.242641 L426.5,337.242641 L426.5,339.242641 Z M426.5,335.242641 L425.5,335.242641 L425.5,333.242641 L426.5,333.242641 L426.5,335.242641 Z M426.5,331.242641 L425.5,331.242641 L425.5,329.242641 L426.5,329.242641 L426.5,331.242641 Z M426.5,327.242641 L425.5,327.242641 L425.5,325.242641 L426.5,325.242641 L426.5,327.242641 Z" id="合并形状" fill="#2296F6" fill-rule="nonzero"></path>
        <path d="M308,223.5 L308,222.5 L308,223.5 Z M402,222.5 L402,223.5 L402,222.5 Z M304,223.5 L304,222.5 L306,222.5 L306,223.5 L304,223.5 Z M404,223.5 L404,222.5 L406,222.5 L406,223.5 L404,223.5 Z M408,223.5 L408,222.5 L410,222.5 L410,223.5 L408,223.5 Z M412,223.5 L412,222.5 L414,222.5 L414,223.5 L412,223.5 Z M416,223.5 L416,222.5 L418,222.5 L418,223.5 L416,223.5 Z M420,223.5 L420,222.5 L422,222.5 L422,223.5 L420,223.5 Z M424,223.5 L424,222.5 L426,222.5 L426,223.5 L424,223.5 Z M428,223.5 L428,222.5 L430,222.5 L430,223.5 L428,223.5 Z M432,223.5 L432,222.5 L434,222.5 L434,223.5 L432,223.5 Z M436,223.5 L436,222.5 L438,222.5 L438,223.5 L436,223.5 Z M440,223.5 L440,222.5 L442,222.5 L442,223.5 L440,223.5 Z M444,223.5 L444,222.5 L446,222.5 L446,223.5 L444,223.5 Z M448,223.5 L448,222.5 L450,222.5 L450,223.5 L448,223.5 Z M452,223.5 L452,222.5 L454,222.5 L454,223.5 L452,223.5 Z M456,223.5 L456,222.5 L458,222.5 L458,223.5 L456,223.5 Z M460,223.5 L460,222.5 L462,222.5 L462,223.5 L460,223.5 Z M464,223.5 L464,222.5 L466,222.5 L466,223.5 L464,223.5 Z M468,223.5 L468,222.5 L470,222.5 L470,223.5 L468,223.5 Z M472,223.5 L472,222.5 L474,222.5 L474,223.5 L472,223.5 Z M476,223.5 L476,222.5 L478,222.5 L478,223.5 L476,223.5 Z M480,223.5 L480,222.5 L482,222.5 L482,223.5 L480,223.5 Z M484,223.5 L484,222.5 L486,222.5 L486,223.5 L484,223.5 Z M488,223.5 L488,222.5 L490,222.5 L490,223.5 L488,223.5 Z M492,223.5 L492,222.5 L494,222.5 L494,223.5 L492,223.5 Z M496,223.5 L496,222.5 L498,222.5 L498,223.5 L496,223.5 Z M500,223.5 L500,222.5 L502,222.5 L502,223.5 L500,223.5 Z M504,223.5 L504,222.5 L506,222.5 L506,223.5 L504,223.5 Z M508,223.5 L508,222.5 L510,222.5 L510,223.5 L508,223.5 Z M512,223.5 L512,222.5 L514,222.5 L514,223.5 L512,223.5 Z M516,223.5 L516,222.5 L518,222.5 L518,223.5 L516,223.5 Z M520,223.5 L520,222.5 L522,222.5 L522,223.5 L520,223.5 Z M524,223.5 L524,222.5 L526,222.5 L526,223.5 L524,223.5 Z M528,223.5 L528,222.5 L530,222.5 L530,223.5 L528,223.5 Z M532,223.5 L532,222.5 L534,222.5 L534,223.5 L532,223.5 Z M536,223.5 L536,222.5 L539,222.5 L539,223.5 L536,223.5 Z M538.5,224.585786 L539.5,224.585786 L539.5,226.585786 L538.5,226.585786 L538.5,224.585786 Z M538.5,228.585786 L539.5,228.585786 L539.5,230.585786 L538.5,230.585786 L538.5,228.585786 Z M538.5,232.585786 L539.5,232.585786 L539.5,234.585786 L538.5,234.585786 L538.5,232.585786 Z M538.5,236.585786 L539.5,236.585786 L539.5,238.585786 L538.5,238.585786 L538.5,236.585786 Z M538.5,240.585786 L539.5,240.585786 L539.5,242.585786 L538.5,242.585786 L538.5,240.585786 Z M538.5,244.585786 L539.5,244.585786 L539.5,246.585786 L538.5,246.585786 L538.5,244.585786 Z M538.5,248.585786 L539.5,248.585786 L539.5,250.585786 L538.5,250.585786 L538.5,248.585786 Z M538.5,252.585786 L539.5,252.585786 L539.5,254.585786 L538.5,254.585786 L538.5,252.585786 Z M538.5,256.585786 L539.5,256.585786 L539.5,258.585786 L538.5,258.585786 L538.5,256.585786 Z M538.5,260.585786 L539.5,260.585786 L539.5,262.585786 L538.5,262.585786 L538.5,260.585786 Z M538.5,264.585786 L539.5,264.585786 L539.5,266.585786 L538.5,266.585786 L538.5,264.585786 Z M538.5,268.585786 L539.5,268.585786 L539.5,270.585786 L538.5,270.585786 L538.5,268.585786 Z M538.5,272.585786 L539.5,272.585786 L539.5,274.585786 L538.5,274.585786 L538.5,272.585786 Z M538.5,276.585786 L539.5,276.585786 L539.5,278.585786 L538.5,278.585786 L538.5,276.585786 Z M538.5,280.585786 L539.5,280.585786 L539.5,282 C539.5,282.303305 539.409263,282.594363 539.242461,282.840589 L538.414548,282.279733 C538.470069,282.197774 538.5,282.101766 538.5,282 L538.5,280.585786 Z M536.828427,282.5 L536.828427,283.5 L534.828427,283.5 L534.828427,282.5 L536.828427,282.5 Z M532.828427,282.5 L532.828427,283.5 L530.828427,283.5 L530.828427,282.5 L532.828427,282.5 Z M528.828427,282.5 L528.828427,283.5 L526.828427,283.5 L526.828427,282.5 L528.828427,282.5 Z M524.828427,282.5 L524.828427,283.5 L522.828427,283.5 L522.828427,282.5 L524.828427,282.5 Z M520.828427,282.5 L520.828427,283.5 L518.828427,283.5 L518.828427,282.5 L520.828427,282.5 Z M516.828427,282.5 L516.828427,283.5 L514.828427,283.5 L514.828427,282.5 L516.828427,282.5 Z M512.828427,282.5 L512.828427,283.5 L510.828427,283.5 L510.828427,282.5 L512.828427,282.5 Z M508.828427,282.5 L508.828427,283.5 L506.828427,283.5 L506.828427,282.5 L508.828427,282.5 Z M504.828427,282.5 L504.828427,283.5 L502.828427,283.5 L502.828427,282.5 L504.828427,282.5 Z M500.828427,282.5 L500.828427,283.5 L498.828427,283.5 L498.828427,282.5 L500.828427,282.5 Z M496.828427,282.5 L496.828427,283.5 L494.828427,283.5 L494.828427,282.5 L496.828427,282.5 Z M492.828427,282.5 L492.828427,283.5 L490.828427,283.5 L490.828427,282.5 L492.828427,282.5 Z M488.828427,282.5 L488.828427,283.5 L486.828427,283.5 L486.828427,282.5 L488.828427,282.5 Z M484.828427,282.5 L484.828427,283.5 L482.828427,283.5 L482.828427,282.5 L484.828427,282.5 Z M480.828427,282.5 L480.828427,283.5 L478.828427,283.5 L478.828427,282.5 L480.828427,282.5 Z M476.828427,282.5 L476.828427,283.5 L474.828427,283.5 L474.828427,282.5 L476.828427,282.5 Z M472.828427,282.5 L472.828427,283.5 L470.828427,283.5 L470.828427,282.5 L472.828427,282.5 Z M468.828427,282.5 L468.828427,283.5 L466.828427,283.5 L466.828427,282.5 L468.828427,282.5 Z M464.828427,282.5 L464.828427,283.5 L462.828427,283.5 L462.828427,282.5 L464.828427,282.5 Z M460.828427,282.5 L460.828427,283.5 L458.828427,283.5 L458.828427,282.5 L460.828427,282.5 Z M456.828427,282.5 L456.828427,283.5 L454.828427,283.5 L454.828427,282.5 L456.828427,282.5 Z M452.828427,282.5 L452.828427,283.5 L450.828427,283.5 L450.828427,282.5 L452.828427,282.5 Z M448.828427,282.5 L448.828427,283.5 L446.828427,283.5 L446.828427,282.5 L448.828427,282.5 Z M444.828427,282.5 L444.828427,283.5 L442.828427,283.5 L442.828427,282.5 L444.828427,282.5 Z M440.828427,282.5 L440.828427,283.5 L438.828427,283.5 L438.828427,282.5 L440.828427,282.5 Z M436.828427,282.5 L436.828427,283.5 L434.828427,283.5 L434.828427,282.5 L436.828427,282.5 Z M432.828427,282.5 L432.828427,283.5 L430.828427,283.5 L430.828427,282.5 L432.828427,282.5 Z M428.828427,282.5 L428.828427,283.5 L426.828427,283.5 L426.828427,282.5 L428.828427,282.5 Z M424.828427,282.5 L424.828427,283.5 L422.828427,283.5 L422.828427,282.5 L424.828427,282.5 Z M420.828427,282.5 L420.828427,283.5 L418.828427,283.5 L418.828427,282.5 L420.828427,282.5 Z M416.828427,282.5 L416.828427,283.5 L414.828427,283.5 L414.828427,282.5 L416.828427,282.5 Z M412.828427,282.5 L412.828427,283.5 L410.828427,283.5 L410.828427,282.5 L412.828427,282.5 Z M408.828427,282.5 L408.828427,283.5 L406.828427,283.5 L406.828427,282.5 L408.828427,282.5 Z M404.828427,282.5 L404.828427,283.5 L402.828427,283.5 L402.828427,282.5 L404.828427,282.5 Z M400.828427,282.5 L400.828427,283.5 L398.828427,283.5 L398.828427,282.5 L400.828427,282.5 Z M396.828427,282.5 L396.828427,283.5 L394.828427,283.5 L394.828427,282.5 L396.828427,282.5 Z M392.828427,282.5 L392.828427,283.5 L390.828427,283.5 L390.828427,282.5 L392.828427,282.5 Z M388.828427,282.5 L388.828427,283.5 L386.828427,283.5 L386.828427,282.5 L388.828427,282.5 Z M384.828427,282.5 L384.828427,283.5 L382.828427,283.5 L382.828427,282.5 L384.828427,282.5 Z M380.828427,282.5 L380.828427,283.5 L378.828427,283.5 L378.828427,282.5 L380.828427,282.5 Z M376.828427,282.5 L376.828427,283.5 L374.828427,283.5 L374.828427,282.5 L376.828427,282.5 Z M372.828427,282.5 L372.828427,283.5 L370.828427,283.5 L370.828427,282.5 L372.828427,282.5 Z M368.828427,282.5 L368.828427,283.5 L366.828427,283.5 L366.828427,282.5 L368.828427,282.5 Z M364.828427,282.5 L364.828427,283.5 L362.828427,283.5 L362.828427,282.5 L364.828427,282.5 Z M360.828427,282.5 L360.828427,283.5 L358.828427,283.5 L358.828427,282.5 L360.828427,282.5 Z M356.828427,282.5 L356.828427,283.5 L354.828427,283.5 L354.828427,282.5 L356.828427,282.5 Z M352.828427,282.5 L352.828427,283.5 L350.828427,283.5 L350.828427,282.5 L352.828427,282.5 Z M348.828427,282.5 L348.828427,283.5 L346.828427,283.5 L346.828427,282.5 L348.828427,282.5 Z M344.828427,282.5 L344.828427,283.5 L342.828427,283.5 L342.828427,282.5 L344.828427,282.5 Z M340.828427,282.5 L340.828427,283.5 L338.828427,283.5 L338.828427,282.5 L340.828427,282.5 Z M336.828427,282.5 L336.828427,283.5 L334.828427,283.5 L334.828427,282.5 L336.828427,282.5 Z M332.828427,282.5 L332.828427,283.5 L330.828427,283.5 L330.828427,282.5 L332.828427,282.5 Z M328.828427,282.5 L328.828427,283.5 L326.828427,283.5 L326.828427,282.5 L328.828427,282.5 Z M324.828427,282.5 L324.828427,283.5 L322.828427,283.5 L322.828427,282.5 L324.828427,282.5 Z M320.828427,282.5 L320.828427,283.5 L318.828427,283.5 L318.828427,282.5 L320.828427,282.5 Z M316.828427,282.5 L316.828427,283.5 L314.828427,283.5 L314.828427,282.5 L316.828427,282.5 Z M312.828427,282.5 L312.828427,283.5 L310.828427,283.5 L310.828427,282.5 L312.828427,282.5 Z M308.828427,282.5 L308.828427,283.5 L306.828427,283.5 L306.828427,282.5 L308.828427,282.5 Z M304.828427,282.5 L304.828427,283.5 L304,283.5 C303.34807,283.5 302.776916,283.080375 302.575519,282.470816 L303.525036,282.157098 C303.592067,282.35998 303.782649,282.5 304,282.5 L304.828427,282.5 Z M303.5,280.242641 L302.5,280.242641 L302.5,278.242641 L303.5,278.242641 L303.5,280.242641 Z M303.5,276.242641 L302.5,276.242641 L302.5,274.242641 L303.5,274.242641 L303.5,276.242641 Z M303.5,272.242641 L302.5,272.242641 L302.5,270.242641 L303.5,270.242641 L303.5,272.242641 Z M303.5,268.242641 L302.5,268.242641 L302.5,266.242641 L303.5,266.242641 L303.5,268.242641 Z M303.5,264.242641 L302.5,264.242641 L302.5,262.242641 L303.5,262.242641 L303.5,264.242641 Z M303.5,260.242641 L302.5,260.242641 L302.5,258.242641 L303.5,258.242641 L303.5,260.242641 Z M303.5,256.242641 L302.5,256.242641 L302.5,254.242641 L303.5,254.242641 L303.5,256.242641 Z M303.5,252.242641 L302.5,252.242641 L302.5,250.242641 L303.5,250.242641 L303.5,252.242641 Z M303.5,248.242641 L302.5,248.242641 L302.5,246.242641 L303.5,246.242641 L303.5,248.242641 Z M303.5,244.242641 L302.5,244.242641 L302.5,242.242641 L303.5,242.242641 L303.5,244.242641 Z M303.5,240.242641 L302.5,240.242641 L302.5,238.242641 L303.5,238.242641 L303.5,240.242641 Z M303.5,236.242641 L302.5,236.242641 L302.5,234.242641 L303.5,234.242641 L303.5,236.242641 Z M303.5,232.242641 L302.5,232.242641 L302.5,230.242641 L303.5,230.242641 L303.5,232.242641 Z M303.5,228.242641 L302.5,228.242641 L302.5,226.242641 L303.5,226.242641 L303.5,228.242641 Z M303.5,224.242641 L302.5,224.242641 L302.5,224 C302.5,223.171573 303.171573,222.5 304,222.5 L304,223.5 C303.723858,223.5 303.5,223.723858 303.5,224 L303.5,224.242641 Z" id="合并形状" fill="#3EBB9D" fill-rule="nonzero"></path>
        <rect id="矩形-copy-60" fill="#3EBB9D" fill-rule="nonzero" x="241" y="159" width="175" height="34" rx="3"></rect>
        <rect id="矩形-copy-3" fill="#2296F6" fill-rule="nonzero" x="66" y="339" width="165" height="24" rx="3"></rect>
        <rect id="矩形-copy-5" fill="#2296F6" fill-rule="nonzero" x="436" y="339" width="165" height="24" rx="3"></rect>
        <text id="SOAR自动编排" font-family="PingFangSC-Regular, PingFang SC" font-size="12" font-weight="normal" fill="#FFFFFF">
            <tspan x="381.108" y="107">SOAR自动编排</tspan>
        </text>
        <rect id="矩形-copy-4" fill="#2296F6" fill-rule="nonzero" x="241" y="339" width="165" height="24" rx="3"></rect>
        <rect id="矩形-copy-6" fill="#2296F6" fill-rule="nonzero" x="611" y="339" width="165" height="24" rx="3"></rect>
        <text id="数据管道" font-family="PingFangSC-Semibold, PingFang SC" font-size="14" font-weight="500" fill="#2296F6">
            <tspan x="66" y="328">数据管道</tspan>
        </text>
        <text id="实时计算平台" font-family="PingFangSC-Semibold, PingFang SC" font-size="14" font-weight="500" fill="#3EBB9D">
            <tspan x="66" y="228">实时计算平台</tspan>
        </text>
        <text id="离线计算平台" font-family="PingFangSC-Semibold, PingFang SC" font-size="14" font-weight="500" fill="#3EBB9D">
            <tspan x="313" y="228">离线计算平台</tspan>
        </text>
        <path d="M555,223.5 L555,222.5 L555,223.5 Z M551,223.5 L551,222.5 L553,222.5 L553,223.5 L551,223.5 Z M635,223.5 L635,222.5 L637,222.5 L637,223.5 L635,223.5 Z M639,223.5 L639,222.5 L641,222.5 L641,223.5 L639,223.5 Z M643,223.5 L643,222.5 L645,222.5 L645,223.5 L643,223.5 Z M647,223.5 L647,222.5 L649,222.5 L649,223.5 L647,223.5 Z M651,223.5 L651,222.5 L653,222.5 L653,223.5 L651,223.5 Z M655,223.5 L655,222.5 L657,222.5 L657,223.5 L655,223.5 Z M659,223.5 L659,222.5 L661,222.5 L661,223.5 L659,223.5 Z M663,223.5 L663,222.5 L665,222.5 L665,223.5 L663,223.5 Z M667,223.5 L667,222.5 L669,222.5 L669,223.5 L667,223.5 Z M671,223.5 L671,222.5 L673,222.5 L673,223.5 L671,223.5 Z M675,223.5 L675,222.5 L677,222.5 L677,223.5 L675,223.5 Z M679,223.5 L679,222.5 L681,222.5 L681,223.5 L679,223.5 Z M683,223.5 L683,222.5 L685,222.5 L685,223.5 L683,223.5 Z M687,223.5 L687,222.5 L689,222.5 L689,223.5 L687,223.5 Z M691,223.5 L691,222.5 L693,222.5 L693,223.5 L691,223.5 Z M695,223.5 L695,222.5 L697,222.5 L697,223.5 L695,223.5 Z M699,223.5 L699,222.5 L701,222.5 L701,223.5 L699,223.5 Z M703,223.5 L703,222.5 L705,222.5 L705,223.5 L703,223.5 Z M707,223.5 L707,222.5 L709,222.5 L709,223.5 L707,223.5 Z M711,223.5 L711,222.5 L713,222.5 L713,223.5 L711,223.5 Z M715,223.5 L715,222.5 L717,222.5 L717,223.5 L715,223.5 Z M719,223.5 L719,222.5 L721,222.5 L721,223.5 L719,223.5 Z M723,223.5 L723,222.5 L725,222.5 L725,223.5 L723,223.5 Z M727,223.5 L727,222.5 L729,222.5 L729,223.5 L727,223.5 Z M731,223.5 L731,222.5 L733,222.5 L733,223.5 L731,223.5 Z M735,223.5 L735,222.5 L737,222.5 L737,223.5 L735,223.5 Z M739,223.5 L739,222.5 L741,222.5 L741,223.5 L739,223.5 Z M743,223.5 L743,222.5 L745,222.5 L745,223.5 L743,223.5 Z M747,223.5 L747,222.5 L749,222.5 L749,223.5 L747,223.5 Z M751,223.5 L751,222.5 L753,222.5 L753,223.5 L751,223.5 Z M755,223.5 L755,222.5 L757,222.5 L757,223.5 L755,223.5 Z M759,223.5 L759,222.5 L761,222.5 L761,223.5 L759,223.5 Z M763,223.5 L763,222.5 L765,222.5 L765,223.5 L763,223.5 Z M767,223.5 L767,222.5 L769,222.5 L769,223.5 L767,223.5 Z M771,223.5 L771,222.5 L773,222.5 L773,223.5 L771,223.5 Z M775,223.5 L775,222.5 L777,222.5 L777,223.5 L775,223.5 Z M779,223.5 L779,222.5 L781,222.5 L781,223.5 L779,223.5 Z M783,223.5 L783,222.5 L786,222.5 L786,223.5 L783,223.5 Z M785.5,224.585786 L786.5,224.585786 L786.5,226.585786 L785.5,226.585786 L785.5,224.585786 Z M785.5,228.585786 L786.5,228.585786 L786.5,230.585786 L785.5,230.585786 L785.5,228.585786 Z M785.5,232.585786 L786.5,232.585786 L786.5,234.585786 L785.5,234.585786 L785.5,232.585786 Z M785.5,236.585786 L786.5,236.585786 L786.5,238.585786 L785.5,238.585786 L785.5,236.585786 Z M785.5,240.585786 L786.5,240.585786 L786.5,242.585786 L785.5,242.585786 L785.5,240.585786 Z M785.5,244.585786 L786.5,244.585786 L786.5,246.585786 L785.5,246.585786 L785.5,244.585786 Z M785.5,248.585786 L786.5,248.585786 L786.5,250.585786 L785.5,250.585786 L785.5,248.585786 Z M785.5,252.585786 L786.5,252.585786 L786.5,254.585786 L785.5,254.585786 L785.5,252.585786 Z M785.5,256.585786 L786.5,256.585786 L786.5,258.585786 L785.5,258.585786 L785.5,256.585786 Z M785.5,260.585786 L786.5,260.585786 L786.5,262.585786 L785.5,262.585786 L785.5,260.585786 Z M785.5,264.585786 L786.5,264.585786 L786.5,266.585786 L785.5,266.585786 L785.5,264.585786 Z M785.5,268.585786 L786.5,268.585786 L786.5,270.585786 L785.5,270.585786 L785.5,268.585786 Z M785.5,272.585786 L786.5,272.585786 L786.5,274.585786 L785.5,274.585786 L785.5,272.585786 Z M785.5,276.585786 L786.5,276.585786 L786.5,278.585786 L785.5,278.585786 L785.5,276.585786 Z M785.5,280.585786 L786.5,280.585786 L786.5,282 C786.5,282.303305 786.409263,282.594363 786.242461,282.840589 L785.414548,282.279733 C785.470069,282.197774 785.5,282.101766 785.5,282 L785.5,280.585786 Z M783.828427,282.5 L783.828427,283.5 L781.828427,283.5 L781.828427,282.5 L783.828427,282.5 Z M779.828427,282.5 L779.828427,283.5 L777.828427,283.5 L777.828427,282.5 L779.828427,282.5 Z M775.828427,282.5 L775.828427,283.5 L773.828427,283.5 L773.828427,282.5 L775.828427,282.5 Z M771.828427,282.5 L771.828427,283.5 L769.828427,283.5 L769.828427,282.5 L771.828427,282.5 Z M767.828427,282.5 L767.828427,283.5 L765.828427,283.5 L765.828427,282.5 L767.828427,282.5 Z M763.828427,282.5 L763.828427,283.5 L761.828427,283.5 L761.828427,282.5 L763.828427,282.5 Z M759.828427,282.5 L759.828427,283.5 L757.828427,283.5 L757.828427,282.5 L759.828427,282.5 Z M755.828427,282.5 L755.828427,283.5 L753.828427,283.5 L753.828427,282.5 L755.828427,282.5 Z M751.828427,282.5 L751.828427,283.5 L749.828427,283.5 L749.828427,282.5 L751.828427,282.5 Z M747.828427,282.5 L747.828427,283.5 L745.828427,283.5 L745.828427,282.5 L747.828427,282.5 Z M743.828427,282.5 L743.828427,283.5 L741.828427,283.5 L741.828427,282.5 L743.828427,282.5 Z M739.828427,282.5 L739.828427,283.5 L737.828427,283.5 L737.828427,282.5 L739.828427,282.5 Z M735.828427,282.5 L735.828427,283.5 L733.828427,283.5 L733.828427,282.5 L735.828427,282.5 Z M731.828427,282.5 L731.828427,283.5 L729.828427,283.5 L729.828427,282.5 L731.828427,282.5 Z M727.828427,282.5 L727.828427,283.5 L725.828427,283.5 L725.828427,282.5 L727.828427,282.5 Z M723.828427,282.5 L723.828427,283.5 L721.828427,283.5 L721.828427,282.5 L723.828427,282.5 Z M719.828427,282.5 L719.828427,283.5 L717.828427,283.5 L717.828427,282.5 L719.828427,282.5 Z M715.828427,282.5 L715.828427,283.5 L713.828427,283.5 L713.828427,282.5 L715.828427,282.5 Z M711.828427,282.5 L711.828427,283.5 L709.828427,283.5 L709.828427,282.5 L711.828427,282.5 Z M707.828427,282.5 L707.828427,283.5 L705.828427,283.5 L705.828427,282.5 L707.828427,282.5 Z M703.828427,282.5 L703.828427,283.5 L701.828427,283.5 L701.828427,282.5 L703.828427,282.5 Z M699.828427,282.5 L699.828427,283.5 L697.828427,283.5 L697.828427,282.5 L699.828427,282.5 Z M695.828427,282.5 L695.828427,283.5 L693.828427,283.5 L693.828427,282.5 L695.828427,282.5 Z M691.828427,282.5 L691.828427,283.5 L689.828427,283.5 L689.828427,282.5 L691.828427,282.5 Z M687.828427,282.5 L687.828427,283.5 L685.828427,283.5 L685.828427,282.5 L687.828427,282.5 Z M683.828427,282.5 L683.828427,283.5 L681.828427,283.5 L681.828427,282.5 L683.828427,282.5 Z M679.828427,282.5 L679.828427,283.5 L677.828427,283.5 L677.828427,282.5 L679.828427,282.5 Z M675.828427,282.5 L675.828427,283.5 L673.828427,283.5 L673.828427,282.5 L675.828427,282.5 Z M671.828427,282.5 L671.828427,283.5 L669.828427,283.5 L669.828427,282.5 L671.828427,282.5 Z M667.828427,282.5 L667.828427,283.5 L665.828427,283.5 L665.828427,282.5 L667.828427,282.5 Z M663.828427,282.5 L663.828427,283.5 L661.828427,283.5 L661.828427,282.5 L663.828427,282.5 Z M659.828427,282.5 L659.828427,283.5 L657.828427,283.5 L657.828427,282.5 L659.828427,282.5 Z M655.828427,282.5 L655.828427,283.5 L653.828427,283.5 L653.828427,282.5 L655.828427,282.5 Z M651.828427,282.5 L651.828427,283.5 L649.828427,283.5 L649.828427,282.5 L651.828427,282.5 Z M647.828427,282.5 L647.828427,283.5 L645.828427,283.5 L645.828427,282.5 L647.828427,282.5 Z M643.828427,282.5 L643.828427,283.5 L641.828427,283.5 L641.828427,282.5 L643.828427,282.5 Z M639.828427,282.5 L639.828427,283.5 L637.828427,283.5 L637.828427,282.5 L639.828427,282.5 Z M635.828427,282.5 L635.828427,283.5 L633.828427,283.5 L633.828427,282.5 L635.828427,282.5 Z M631.828427,282.5 L631.828427,283.5 L629.828427,283.5 L629.828427,282.5 L631.828427,282.5 Z M627.828427,282.5 L627.828427,283.5 L625.828427,283.5 L625.828427,282.5 L627.828427,282.5 Z M623.828427,282.5 L623.828427,283.5 L621.828427,283.5 L621.828427,282.5 L623.828427,282.5 Z M619.828427,282.5 L619.828427,283.5 L617.828427,283.5 L617.828427,282.5 L619.828427,282.5 Z M615.828427,282.5 L615.828427,283.5 L613.828427,283.5 L613.828427,282.5 L615.828427,282.5 Z M611.828427,282.5 L611.828427,283.5 L609.828427,283.5 L609.828427,282.5 L611.828427,282.5 Z M607.828427,282.5 L607.828427,283.5 L605.828427,283.5 L605.828427,282.5 L607.828427,282.5 Z M603.828427,282.5 L603.828427,283.5 L601.828427,283.5 L601.828427,282.5 L603.828427,282.5 Z M599.828427,282.5 L599.828427,283.5 L597.828427,283.5 L597.828427,282.5 L599.828427,282.5 Z M595.828427,282.5 L595.828427,283.5 L593.828427,283.5 L593.828427,282.5 L595.828427,282.5 Z M591.828427,282.5 L591.828427,283.5 L589.828427,283.5 L589.828427,282.5 L591.828427,282.5 Z M587.828427,282.5 L587.828427,283.5 L585.828427,283.5 L585.828427,282.5 L587.828427,282.5 Z M583.828427,282.5 L583.828427,283.5 L581.828427,283.5 L581.828427,282.5 L583.828427,282.5 Z M579.828427,282.5 L579.828427,283.5 L577.828427,283.5 L577.828427,282.5 L579.828427,282.5 Z M575.828427,282.5 L575.828427,283.5 L573.828427,283.5 L573.828427,282.5 L575.828427,282.5 Z M571.828427,282.5 L571.828427,283.5 L569.828427,283.5 L569.828427,282.5 L571.828427,282.5 Z M567.828427,282.5 L567.828427,283.5 L565.828427,283.5 L565.828427,282.5 L567.828427,282.5 Z M563.828427,282.5 L563.828427,283.5 L561.828427,283.5 L561.828427,282.5 L563.828427,282.5 Z M559.828427,282.5 L559.828427,283.5 L557.828427,283.5 L557.828427,282.5 L559.828427,282.5 Z M555.828427,282.5 L555.828427,283.5 L553.828427,283.5 L553.828427,282.5 L555.828427,282.5 Z M551.828427,282.5 L551.828427,283.5 L551,283.5 C550.34807,283.5 549.776916,283.080375 549.575519,282.470816 L550.525036,282.157098 C550.592067,282.35998 550.782649,282.5 551,282.5 L551.828427,282.5 Z M550.5,280.242641 L549.5,280.242641 L549.5,278.242641 L550.5,278.242641 L550.5,280.242641 Z M550.5,276.242641 L549.5,276.242641 L549.5,274.242641 L550.5,274.242641 L550.5,276.242641 Z M550.5,272.242641 L549.5,272.242641 L549.5,270.242641 L550.5,270.242641 L550.5,272.242641 Z M550.5,268.242641 L549.5,268.242641 L549.5,266.242641 L550.5,266.242641 L550.5,268.242641 Z M550.5,264.242641 L549.5,264.242641 L549.5,262.242641 L550.5,262.242641 L550.5,264.242641 Z M550.5,260.242641 L549.5,260.242641 L549.5,258.242641 L550.5,258.242641 L550.5,260.242641 Z M550.5,256.242641 L549.5,256.242641 L549.5,254.242641 L550.5,254.242641 L550.5,256.242641 Z M550.5,252.242641 L549.5,252.242641 L549.5,250.242641 L550.5,250.242641 L550.5,252.242641 Z M550.5,248.242641 L549.5,248.242641 L549.5,246.242641 L550.5,246.242641 L550.5,248.242641 Z M550.5,244.242641 L549.5,244.242641 L549.5,242.242641 L550.5,242.242641 L550.5,244.242641 Z M550.5,240.242641 L549.5,240.242641 L549.5,238.242641 L550.5,238.242641 L550.5,240.242641 Z M550.5,236.242641 L549.5,236.242641 L549.5,234.242641 L550.5,234.242641 L550.5,236.242641 Z M550.5,232.242641 L549.5,232.242641 L549.5,230.242641 L550.5,230.242641 L550.5,232.242641 Z M550.5,228.242641 L549.5,228.242641 L549.5,226.242641 L550.5,226.242641 L550.5,228.242641 Z M550.5,224.242641 L549.5,224.242641 L549.5,224 C549.5,223.171573 550.171573,222.5 551,222.5 L551,223.5 C550.723858,223.5 550.5,223.723858 550.5,224 L550.5,224.242641 Z" id="合并形状" fill="#3EBB9D" fill-rule="nonzero"></path>
        <text id="自学习系统" font-family="PingFangSC-Semibold, PingFang SC" font-size="14" font-weight="500" fill="#3EBB9D">
            <tspan x="560" y="228">自学习系统</tspan>
        </text>
        <text id="数据存储" font-family="PingFangSC-Semibold, PingFang SC" font-size="14" font-weight="500" fill="#2296F6">
            <tspan x="436" y="328">数据存储</tspan>
        </text>
        <text id="可视化展现" font-family="PingFangSC-Regular, PingFang SC" font-size="14" font-weight="normal" fill="#FFFFFF">
            <tspan x="69" y="108">可视化展现</tspan>
        </text>
        <text id="Storm" font-family="PingFangSC-Regular, PingFang SC" font-size="14" font-weight="normal" fill="#FFFFFF">
            <tspan x="98.449" y="261">Storm</tspan>
        </text>
        <text id="深度引擎" font-family="PingFangSC-Regular, PingFang SC" font-size="14" font-weight="normal" fill="#FFFFFF">
            <tspan x="337" y="261">深度引擎</tspan>
        </text>
        <text id="Learning-Engine" font-family="PingFangSC-Regular, PingFang SC" font-size="12" font-weight="normal" fill="#FFFFFF">
            <tspan x="566.868" y="261">Learning Engine</tspan>
        </text>
        <text id="Filebeat" font-family="PingFangSC-Regular, PingFang SC" font-size="14" font-weight="normal" fill="#FFFFFF">
            <tspan x="205.254" y="261">Filebeat</tspan>
        </text>
        <text id="Learning-Engine" font-family="PingFangSC-Regular, PingFang SC" font-size="12" font-weight="normal" fill="#FFFFFF">
            <tspan x="432.868" y="261">Learning Engine</tspan>
        </text>
        <text id="Active-Learning" font-family="PingFangSC-Regular, PingFang SC" font-size="12" font-weight="normal" fill="#FFFFFF">
            <tspan x="681.698" y="261">Active Learning</tspan>
        </text>
        <text id="规则引擎" font-family="PingFangSC-Regular, PingFang SC" font-size="14" font-weight="normal" fill="#FFFFFF">
            <tspan x="116" y="181">规则引擎</tspan>
        </text>
        <text id="算法引擎" font-family="PingFangSC-Regular, PingFang SC" font-size="14" font-weight="normal" fill="#FFFFFF">
            <tspan x="301" y="181">算法引擎</tspan>
        </text>
        <rect id="矩形-copy-61" fill="#3EBB9D" fill-rule="nonzero" x="426" y="159" width="175" height="34" rx="3"></rect>
        <text id="流量分析" font-family="PingFangSC-Regular, PingFang SC" font-size="14" font-weight="normal" fill="#FFFFFF">
            <tspan x="486" y="181">流量分析</tspan>
        </text>
        <rect id="矩形-copy-62" fill="#3EBB9D" fill-rule="nonzero" x="611" y="159" width="175" height="34" rx="3"></rect>
        <text id="用户行为分析" font-family="PingFangSC-Regular, PingFang SC" font-size="14" font-weight="normal" fill="#FFFFFF">
            <tspan x="657" y="181">用户行为分析</tspan>
        </text>
        <text id="关联分析" font-family="PingFangSC-Regular, PingFang SC" font-size="14" font-weight="normal" fill="#FFFFFF">
            <tspan x="182" y="108">关联分析</tspan>
        </text>
        <text id="报表统计" font-family="PingFangSC-Regular, PingFang SC" font-size="14" font-weight="normal" fill="#FFFFFF">
            <tspan x="288" y="108">报表统计</tspan>
        </text>
        <text id="威胁预警" font-family="PingFangSC-Regular, PingFang SC" font-size="14" font-weight="normal" fill="#FFFFFF">
            <tspan x="499" y="108">威胁预警</tspan>
        </text>
        <text id="实时阻断" font-family="PingFangSC-Regular, PingFang SC" font-size="14" font-weight="normal" fill="#FFFFFF">
            <tspan x="605" y="108">实时阻断</tspan>
        </text>
        <text id="资产关联" font-family="PingFangSC-Regular, PingFang SC" font-size="14" font-weight="normal" fill="#FFFFFF">
            <tspan x="710" y="108">资产关联</tspan>
        </text>
        <text id="分布式队列" font-family="PingFangSC-Regular, PingFang SC" font-size="12" font-weight="normal" fill="#FFFFFF">
            <tspan x="119" y="356">分布式队列</tspan>
        </text>
        <text id="分发网络" font-family="PingFangSC-Regular, PingFang SC" font-size="12" font-weight="normal" fill="#FFFFFF">
            <tspan x="300" y="356">分发网络</tspan>
        </text>
        <text id="检索引擎：威胁结果，原始数据" font-family="PingFangSC-Regular, PingFang SC" font-size="11" font-weight="normal" fill="#FFFFFF">
            <tspan x="441" y="355">检索引擎：威胁结果，原始数据</tspan>
        </text>
        <text id="关系型数据库：关联数据，分析结果" font-family="PingFangSC-Regular, PingFang SC" font-size="10" font-weight="normal" fill="#FFFFFF">
            <tspan x="613" y="355">关系型数据库：关联数据，分析结果</tspan>
        </text>
        <use id="矩形-copy-51" stroke="#CFB3FF" mask="url(#mask-4)" stroke-width="2" stroke-dasharray="2" fill-rule="nonzero" xlink:href="#path-3"></use>
        <use id="矩形-copy-52" stroke="#CFB3FF" mask="url(#mask-6)" stroke-width="2" stroke-dasharray="2" fill-rule="nonzero" xlink:href="#path-5"></use>
        <use id="矩形-copy-53" stroke="#CFB3FF" mask="url(#mask-8)" stroke-width="2" stroke-dasharray="2" fill-rule="nonzero" xlink:href="#path-7"></use>
        <use id="矩形-copy-54" stroke="#CFB3FF" mask="url(#mask-10)" stroke-width="2" stroke-dasharray="2" fill-rule="nonzero" xlink:href="#path-9"></use>
        <use id="矩形-copy-55" stroke="#CFB3FF" mask="url(#mask-12)" stroke-width="2" stroke-dasharray="2" fill-rule="nonzero" xlink:href="#path-11"></use>
        <use id="矩形-copy-56" stroke="#CFB3FF" mask="url(#mask-14)" stroke-width="2" stroke-dasharray="2" fill-rule="nonzero" xlink:href="#path-13"></use>
        <rect id="矩形-copy-48" fill="#7787A1" fill-rule="nonzero" x="820" y="0" width="160" height="235" rx="3"></rect>
        <rect id="矩形-copy-41" fill="#4C63C3" fill-rule="nonzero" x="0" y="407" width="36" height="73" rx="3"></rect>
        <path d="M428.763456,394.985281 L421.485281,387.707107 L414.207107,394.985281 L417.985281,394.985281 L417.985281,403.985281 L424.985281,403.985281 L424.985281,394.985281 L428.763456,394.985281 Z" id="合并形状" stroke="#4C63C3" fill="#9CAFFF" fill-rule="nonzero"></path>
        <path d="M428.763456,52.9852814 L421.485281,45.7071068 L414.207107,52.9852814 L417.985281,52.9852814 L417.985281,61.9852814 L424.985281,61.9852814 L424.985281,52.9852814 L428.763456,52.9852814 Z" id="合并形状-copy" stroke="#7787A1" fill="#B8C7DF" fill-rule="nonzero"></path>
        <path d="M815.020815,119.727922 L807.742641,112.449747 L800.464466,119.727922 L804.242641,119.727922 L804.242641,128.727922 L811.242641,128.727922 L811.242641,119.727922 L815.020815,119.727922 Z" id="合并形状-copy-3" stroke="#7787A1" fill="#B8C7DF" fill-rule="nonzero" transform="translate(807.742641, 120.485281) rotate(-90.000000) translate(-807.742641, -120.485281) "></path>
        <path d="M815.020815,358.985281 L807.742641,351.707107 L800.464466,358.985281 L804.242641,358.985281 L804.242641,367.985281 L811.242641,367.985281 L811.242641,358.985281 L815.020815,358.985281 Z" id="合并形状-copy-4" stroke="#7787A1" fill="#B8C7DF" fill-rule="nonzero" transform="translate(807.742641, 359.742641) rotate(-90.000000) translate(-807.742641, -359.742641) "></path>
        <rect id="矩形-copy-45" fill="#4C63C3" fill-rule="nonzero" x="46" y="407" width="750" height="73" rx="3"></rect>
        <use id="矩形-copy-50" stroke="#9CAFFF" mask="url(#mask-16)" stroke-width="2" stroke-dasharray="2" fill-rule="nonzero" xlink:href="#path-15"></use>
        <text id="流量镜像" font-family="PingFangSC-Regular, PingFang SC" font-size="14" font-weight="normal" fill="#FFFFFF">
            <tspan x="76" y="449">流量镜像</tspan>
        </text>
        <text id="主机/VM" font-family="PingFangSC-Regular, PingFang SC" font-size="14" font-weight="normal" fill="#FFFFFF">
            <tspan x="182.353" y="449">主机/VM</tspan>
        </text>
        <text id="安全设备" font-family="PingFangSC-Regular, PingFang SC" font-size="14" font-weight="normal" fill="#FFFFFF">
            <tspan x="288" y="449">安全设备</tspan>
        </text>
        <text id="终端设备" font-family="PingFangSC-Regular, PingFang SC" font-size="14" font-weight="normal" fill="#FFFFFF">
            <tspan x="499" y="449">终端设备</tspan>
        </text>
        <text id="业务系统" font-family="PingFangSC-Regular, PingFang SC" font-size="14" font-weight="normal" fill="#FFFFFF">
            <tspan x="605" y="449">业务系统</tspan>
        </text>
        <text id="中间件" font-family="PingFangSC-Regular, PingFang SC" font-size="14" font-weight="normal" fill="#FFFFFF">
            <tspan x="717" y="449">中间件</tspan>
        </text>
        <text id="网络设备" font-family="PingFangSC-Regular, PingFang SC" font-size="14" font-weight="normal" fill="#FFFFFF">
            <tspan x="394" y="449">网络设备</tspan>
        </text>
        <use id="矩形-copy-51" stroke="#9CAFFF" mask="url(#mask-18)" stroke-width="2" stroke-dasharray="2" fill-rule="nonzero" xlink:href="#path-17"></use>
        <use id="矩形-copy-52" stroke="#9CAFFF" mask="url(#mask-20)" stroke-width="2" stroke-dasharray="2" fill-rule="nonzero" xlink:href="#path-19"></use>
        <use id="矩形-copy-53" stroke="#9CAFFF" mask="url(#mask-22)" stroke-width="2" stroke-dasharray="2" fill-rule="nonzero" xlink:href="#path-21"></use>
        <use id="矩形-copy-54" stroke="#9CAFFF" mask="url(#mask-24)" stroke-width="2" stroke-dasharray="2" fill-rule="nonzero" xlink:href="#path-23"></use>
        <use id="矩形-copy-55" stroke="#9CAFFF" mask="url(#mask-26)" stroke-width="2" stroke-dasharray="2" fill-rule="nonzero" xlink:href="#path-25"></use>
        <use id="矩形-copy-56" stroke="#9CAFFF" mask="url(#mask-28)" stroke-width="2" stroke-dasharray="2" fill-rule="nonzero" xlink:href="#path-27"></use>
        <rect id="矩形-copy-42" fill="#2296F6" fill-rule="nonzero" x="0" y="303" width="36" height="80" rx="3"></rect>
        <use id="矩形-copy-46" stroke="#2296F6" mask="url(#mask-30)" stroke-width="4" stroke-dasharray="2" fill-rule="nonzero" xlink:href="#path-29"></use>
        <rect id="矩形-copy-43" fill="#3EBB9D" fill-rule="nonzero" x="0" y="149" width="36" height="144" rx="3"></rect>
        <use id="矩形-copy-47" stroke="#3EBB9D" mask="url(#mask-32)" stroke-width="4" stroke-dasharray="2" fill-rule="nonzero" xlink:href="#path-31"></use>
        <text id="输-出-层" font-family="PingFangSC-Semibold, PingFang SC" font-size="14" font-weight="500" fill="#FFFFFF">
            <tspan x="11" y="88">输</tspan>
            <tspan x="11" y="108">出</tspan>
            <tspan x="11" y="128">层</tspan>
        </text>
        <text id="采-集-层" font-family="PingFangSC-Semibold, PingFang SC" font-size="14" font-weight="500" fill="#FFFFFF">
            <tspan x="11" y="429">采</tspan>
            <tspan x="11" y="449">集</tspan>
            <tspan x="11" y="469">层</tspan>
        </text>
        <text id="存-储-层" font-family="PingFangSC-Semibold, PingFang SC" font-size="14" font-weight="500" fill="#FFFFFF">
            <tspan x="11" y="328">存</tspan>
            <tspan x="11" y="348">储</tspan>
            <tspan x="11" y="368">层</tspan>
        </text>
        <text id="计算-层" font-family="PingFangSC-Semibold, PingFang SC" font-size="14" font-weight="500" fill="#FFFFFF">
            <tspan x="11" y="206">计</tspan>
            <tspan x="11" y="226">算</tspan>
            <tspan x="11" y="246">层</tspan>
        </text>
        <text id="威胁情报中心" font-family="PingFangSC-Semibold, PingFang SC" font-size="14" font-weight="500" fill="#FFFFFF">
            <tspan x="830" y="73">威</tspan>
            <tspan x="830" y="93">胁</tspan>
            <tspan x="830" y="113">情</tspan>
            <tspan x="830" y="133">报</tspan>
            <tspan x="830" y="153">中</tspan>
            <tspan x="830" y="173">心</tspan>
        </text>
        <text id="自身辅助数据" font-family="PingFangSC-Semibold, PingFang SC" font-size="14" font-weight="500" fill="#FFFFFF">
            <tspan x="830" y="318">自</tspan>
            <tspan x="830" y="338">身</tspan>
            <tspan x="830" y="358">辅</tspan>
            <tspan x="830" y="378">助</tspan>
            <tspan x="830" y="398">数</tspan>
            <tspan x="830" y="418">据</tspan>
        </text>
        <path d="M58,203 L787,203" id="路径-54" stroke="#3EBB9D" stroke-dasharray="2" fill-rule="nonzero"></path>
        <text id="IP信用等级库" font-family="PingFangSC-Regular, PingFang SC" font-size="14" font-weight="normal" fill="#FFFFFF">
            <tspan x="871.347" y="56">IP信用等级库</tspan>
        </text>
        <text id="用户信息" font-family="PingFangSC-Regular, PingFang SC" font-size="14" font-weight="normal" fill="#FFFFFF">
            <tspan x="885" y="277">用户信息</tspan>
        </text>
        <text id="资产信息" font-family="PingFangSC-Regular, PingFang SC" font-size="14" font-weight="normal" fill="#FFFFFF">
            <tspan x="885" y="313">资产信息</tspan>
        </text>
        <text id="恶意地址库" font-family="PingFangSC-Regular, PingFang SC" font-size="14" font-weight="normal" fill="#FFFFFF">
            <tspan x="878" y="100">恶意地址库</tspan>
        </text>
        <text id="漏洞库" font-family="PingFangSC-Regular, PingFang SC" font-size="14" font-weight="normal" fill="#FFFFFF">
            <tspan x="892" y="144">漏洞库</tspan>
        </text>
        <use id="矩形-copy-57" stroke="#F7FAFF" mask="url(#mask-34)" stroke-width="2" stroke-dasharray="2" fill-rule="nonzero" xlink:href="#path-33"></use>
        <use id="矩形-copy-76" stroke="#F7FAFF" mask="url(#mask-36)" stroke-width="2" stroke-dasharray="2" fill-rule="nonzero" xlink:href="#path-35"></use>
        <use id="矩形-copy-77" stroke="#F7FAFF" mask="url(#mask-38)" stroke-width="2" stroke-dasharray="2" fill-rule="nonzero" xlink:href="#path-37"></use>
        <text id="组织信息" font-family="PingFangSC-Regular, PingFang SC" font-size="14" font-weight="normal" fill="#FFFFFF">
            <tspan x="885" y="349">组织信息</tspan>
        </text>
        <use id="矩形-copy-78" stroke="#F7FAFF" mask="url(#mask-40)" stroke-width="2" stroke-dasharray="2" fill-rule="nonzero" xlink:href="#path-39"></use>
        <text id="历史信息" font-family="PingFangSC-Regular, PingFang SC" font-size="14" font-weight="normal" fill="#FFFFFF">
            <tspan x="885" y="385">历史信息</tspan>
        </text>
        <use id="矩形-copy-79" stroke="#F7FAFF" mask="url(#mask-42)" stroke-width="2" stroke-dasharray="2" fill-rule="nonzero" xlink:href="#path-41"></use>
        <text id="业务信息" font-family="PingFangSC-Regular, PingFang SC" font-size="14" font-weight="normal" fill="#FFFFFF">
            <tspan x="885" y="421">业务信息</tspan>
        </text>
        <use id="矩形-copy-80" stroke="#F7FAFF" mask="url(#mask-44)" stroke-width="2" stroke-dasharray="2" fill-rule="nonzero" xlink:href="#path-43"></use>
        <text id="配置信息" font-family="PingFangSC-Regular, PingFang SC" font-size="14" font-weight="normal" fill="#FFFFFF">
            <tspan x="885" y="457">配置信息</tspan>
        </text>
        <use id="矩形-copy-81" stroke="#F7FAFF" mask="url(#mask-46)" stroke-width="2" stroke-dasharray="2" fill-rule="nonzero" xlink:href="#path-45"></use>
        <use id="矩形-copy-58" stroke="#F7FAFF" mask="url(#mask-48)" stroke-width="2" stroke-dasharray="2" fill-rule="nonzero" xlink:href="#path-47"></use>
        <use id="矩形-copy-74" stroke="#F7FAFF" mask="url(#mask-50)" stroke-width="2" stroke-dasharray="2" fill-rule="nonzero" xlink:href="#path-49"></use>
        <text id="威胁事件库" font-family="PingFangSC-Regular, PingFang SC" font-size="14" font-weight="normal" fill="#FFFFFF">
            <tspan x="878" y="188">威胁事件库</tspan>
        </text>
        <use id="矩形-copy-75" stroke="#F7FAFF" mask="url(#mask-52)" stroke-width="2" stroke-dasharray="2" fill-rule="nonzero" xlink:href="#path-51"></use>
    </g>
</svg>