<?xml version="1.0" encoding="utf-8"?>
<!-- Generator: Adobe Illustrator 21.0.0, SVG Export Plug-In . SVG Version: 6.00 Build 0)  -->
<svg version="1.1" id="图层_1" xmlns="http://www.w3.org/2000/svg" xmlns:xlink="http://www.w3.org/1999/xlink" x="0px" y="0px"
	 viewBox="0 0 280 80" style="enable-background:new 0 0 280 80;" xml:space="preserve">
<style type="text/css">
	.st0{fill:#00B700;}
	.st1{fill:#394144;}
</style>
<path class="st0" d="M38.1,50.4c-1.4,0.7-3.2,0.2-3.9-1.2L34,48.8l-8.1-17.9c-0.1-0.2-0.1-0.4-0.1-0.6c0-0.8,0.7-1.5,1.5-1.5
	c0.3,0,0.6,0.1,0.9,0.3l9.6,6.8c1.2,0.8,2.7,0.9,4,0.5l45.2-20.1C78.7,6.7,65.4,0.4,50.3,0.4C25.6,0.4,5.6,17.1,5.6,37.7
	c0,11.2,6,21.3,15.5,28.2c0.8,0.6,1.3,1.5,1.3,2.4c0,0.3-0.1,0.7-0.2,1l-2,7.5c-0.1,0.4-0.2,0.7-0.2,1.1c0,0.8,0.7,1.5,1.5,1.5
	c0.3,0,0.6-0.1,0.9-0.3l9.8-5.7c0.7-0.4,1.5-0.7,2.4-0.7c0.4,0,0.9,0.1,1.3,0.2c4.8,1.4,9.7,2,14.6,2C75,75,95.1,58.4,95.1,37.8
	c0-6.1-1.8-12.1-5.1-17.3L38.5,50.2L38.1,50.4L38.1,50.4z"/>
<path class="st1" d="M161.1,32.8h23.9v2h-23.9V32.8z M161.1,39.5h23.9v2.2h-23.9V39.5z M161.8,60.5h22.7V47.7h-22.7V60.5z
	 M163.9,49.6h18.3v8.8h-18.3V49.6z M146.8,40.2l1.2,2.1c1.4-2.1,2.8-4.4,4.2-7v25.4h2.2V30.8c1.4-3,2.6-6.1,3.5-9.3l-2-1.2
	C154,27.4,150.9,34.1,146.8,40.2z M173.3,25.9l1.7-1c-0.3-0.8-1.8-3.7-2.2-4.7l-2,1.2c0.7,1.4,1.4,2.7,2,4c0.1,0.2,0.1,0.3,0.2,0.5
	h-14.2V28h28.8v-2.2H173.3L173.3,25.9z M127.5,24.1h-2v7.6h-4.2V20.9h-2v10.8h-4.4v-7.6h-2v9.6h14.7V24.1z M113.5,38.1h13v2h-13
	V38.1z M128.3,49.8l-3.4,2.9v-8.2h-11v3.2c0.3,4.5-0.8,7.7-3.4,9.6l1.2,2c3.1-2.6,4.6-6.2,4.4-10.8v-2h6.7v4.9
	c-0.1,1.7-0.2,2.2-0.8,3l1.3,2.2c1.1-0.9,3.1-2.6,5.9-5L128.3,49.8z M111.6,21.6l-1.9-1.1c-1.9,4-4.4,7.5-7.6,10.6l1.2,2.1
	C106.8,29.8,109.6,25.9,111.6,21.6L111.6,21.6z M109.5,31.5c-1.9,4.8-4.5,9.2-7.9,13.1l1.2,2c1.3-1.6,2.6-3.2,3.8-4.8v18.9h2V38.4
	c1-1.9,2-3.8,2.8-5.8L109.5,31.5z"/>
<path class="st1" d="M135.8,20.4h-2.1c-1.4,6.6-3.5,12.2-6.3,16.7l1.3,2.2l0.9-1.9c0.4-0.8,0.8-1.4,1-1.9c0.7,6,1.8,10.7,3.5,14.2
	c-1.6,2.8-4,5.6-7.3,8.5l1.2,2.1c3.5-3.3,5.8-6.1,7.1-8.4c1.9,3.1,4.1,6,6.7,8.6l1.2-2.1c-2.9-2.7-5.4-5.8-6.7-8.4
	c2.5-4.5,4-11,4.5-19.5h2.4v-2.1h-9.6C134.5,25.8,135.5,22.9,135.8,20.4z M138.9,30.3c-0.5,7.2-1.6,12.9-3.5,17
	c-1.5-3.7-2.5-8.7-3.2-15c0.2-0.7,0.5-1.4,0.8-2L138.9,30.3z M251.7,38.5c2.5,3.7,5.5,8.7,7,11.6l1.9-1.2c-1.5-2.7-4.6-7.6-7-11.3
	L251.7,38.5z M226.5,38l-1.4-1l-0.4,0.1h-11.6v-8h17.5V27h-17.5v-7.5H211V27h-17.5v2.2H211v8h-11.9v2.1c2.5,5.2,6.4,9.8,11.1,13.1
	c-5.3,3-11.5,4.9-17.8,6.1l0.6,2l0,0.1c6.8-1.4,13.5-3.5,19.1-6.9c5.3,3.3,11.7,5.5,19.1,6.7l0.1-0.1l0.6-1.9
	c-6.9-1-12.8-3-17.8-5.9C219.5,48.9,223.8,44.3,226.5,38z M201.6,39.3h21.8c-2.5,5-6.4,8.9-11.2,12C207.7,48.3,204,44.1,201.6,39.3z
	 M247.1,19.8c-2.6,7.2-6.9,14-11.5,18.7l0.9,2.3c0,0,0,0.1,0.1,0.1c2-2.1,3.8-4.3,5.4-6.7v26.4h2.1V30.8c2-3.3,3.6-6.8,5-10.4
	L247.1,19.8z"/>
<path class="st1" d="M269.3,29.8V20h-2.1v9.7h-18.7v2.2h18.7v25.3c0,1-0.4,1.3-1.4,1.4c-0.8,0-1.7,0.2-4,0.2v1.9
	c3.2,0,4.2,0,5.4-0.4c1.4-0.4,2.1-1.1,2.1-3.2V31.9h6v-2.2L269.3,29.8z"/>
</svg>
