<?xml version="1.0" encoding="UTF-8"?>
<svg width="1080px" height="480px" viewBox="0 0 1080 480" version="1.1" xmlns="http://www.w3.org/2000/svg" xmlns:xlink="http://www.w3.org/1999/xlink">
    <!-- Generator: Sketch 52 (66869) - http://www.bohemiancoding.com/sketch -->
    <title>云盾架构图</title>
    <desc>Created with Sketch.</desc>
    <defs>
        <rect id="path-1" x="0" y="366" width="300" height="30"></rect>
        <mask id="mask-2" maskContentUnits="userSpaceOnUse" maskUnits="objectBoundingBox" x="0" y="0" width="300" height="30" fill="white">
            <use xlink:href="#path-1"></use>
        </mask>
        <rect id="path-3" x="0" y="303" width="300" height="30"></rect>
        <mask id="mask-4" maskContentUnits="userSpaceOnUse" maskUnits="objectBoundingBox" x="0" y="0" width="300" height="30" fill="white">
            <use xlink:href="#path-3"></use>
        </mask>
        <rect id="path-5" x="0" y="245" width="300" height="30"></rect>
        <mask id="mask-6" maskContentUnits="userSpaceOnUse" maskUnits="objectBoundingBox" x="0" y="0" width="300" height="30" fill="white">
            <use xlink:href="#path-5"></use>
        </mask>
        <rect id="path-7" x="0" y="187" width="300" height="30"></rect>
        <mask id="mask-8" maskContentUnits="userSpaceOnUse" maskUnits="objectBoundingBox" x="0" y="0" width="300" height="30" fill="white">
            <use xlink:href="#path-7"></use>
        </mask>
        <rect id="path-9" x="780" y="245" width="300" height="30"></rect>
        <mask id="mask-10" maskContentUnits="userSpaceOnUse" maskUnits="objectBoundingBox" x="0" y="0" width="300" height="30" fill="white">
            <use xlink:href="#path-9"></use>
        </mask>
        <rect id="path-11" x="780" y="187" width="300" height="30"></rect>
        <mask id="mask-12" maskContentUnits="userSpaceOnUse" maskUnits="objectBoundingBox" x="0" y="0" width="300" height="30" fill="white">
            <use xlink:href="#path-11"></use>
        </mask>
        <rect id="path-13" x="780" y="129" width="300" height="30"></rect>
        <mask id="mask-14" maskContentUnits="userSpaceOnUse" maskUnits="objectBoundingBox" x="0" y="0" width="300" height="30" fill="white">
            <use xlink:href="#path-13"></use>
        </mask>
        <rect id="path-15" x="0" y="129" width="300" height="30"></rect>
        <mask id="mask-16" maskContentUnits="userSpaceOnUse" maskUnits="objectBoundingBox" x="0" y="0" width="300" height="30" fill="white">
            <use xlink:href="#path-15"></use>
        </mask>
        <polygon id="path-17" points="0.0002 0.0001 56 0.0001 56 55.9999 0.0002 55.9999"></polygon>
        <polygon id="path-19" points="0.0002 0.0001 56 0.0001 56 55.9999 0.0002 55.9999"></polygon>
        <polygon id="path-21" points="0.000171428571 8.57142857e-05 48 8.57142857e-05 48 47.9999143 0.000171428571 47.9999143"></polygon>
        <polygon id="path-23" points="0.000171428571 8.57142857e-05 48 8.57142857e-05 48 47.9999143 0.000171428571 47.9999143"></polygon>
        <polygon id="path-25" points="0.000171428571 8.57142857e-05 48 8.57142857e-05 48 47.9999143 0.000171428571 47.9999143"></polygon>
        <polygon id="path-27" points="0.000171428571 8.57142857e-05 48 8.57142857e-05 48 47.9999143 0.000171428571 47.9999143"></polygon>
        <polygon id="path-29" points="0.000171428571 8.57142857e-05 48 8.57142857e-05 48 47.9999143 0.000171428571 47.9999143"></polygon>
        <polygon id="path-31" points="0.000171428571 8.57142857e-05 48 8.57142857e-05 48 47.9999143 0.000171428571 47.9999143"></polygon>
        <polygon id="path-33" points="0.000171428571 8.57142857e-05 48 8.57142857e-05 48 47.9999143 0.000171428571 47.9999143"></polygon>
        <polygon id="path-35" points="0.000171428571 8.57142857e-05 48 8.57142857e-05 48 47.9999143 0.000171428571 47.9999143"></polygon>
        <rect id="path-37" x="780" y="365" width="300" height="30"></rect>
        <mask id="mask-38" maskContentUnits="userSpaceOnUse" maskUnits="objectBoundingBox" x="0" y="0" width="300" height="30" fill="white">
            <use xlink:href="#path-37"></use>
        </mask>
        <rect id="path-39" x="780" y="303" width="300" height="30"></rect>
        <mask id="mask-40" maskContentUnits="userSpaceOnUse" maskUnits="objectBoundingBox" x="0" y="0" width="300" height="30" fill="white">
            <use xlink:href="#path-39"></use>
        </mask>
        <polygon id="path-41" points="2.75274846e-06 0 8.6465 0 8.6465 9.96527778 2.75274846e-06 9.96527778"></polygon>
    </defs>
    <g id="云盾架构图" stroke="none" stroke-width="1" fill="none" fill-rule="evenodd">
        <use id="矩形-copy-28" stroke="#2799F6" mask="url(#mask-2)" stroke-width="2" fill-opacity="0.4" fill="#2799F6" fill-rule="nonzero" stroke-dasharray="2" xlink:href="#path-1"></use>
        <use id="矩形-copy-29" stroke="#2799F6" mask="url(#mask-4)" stroke-width="2" fill-opacity="0.4" fill="#2799F6" fill-rule="nonzero" stroke-dasharray="2" xlink:href="#path-3"></use>
        <use id="矩形-copy-30" stroke="#2799F6" mask="url(#mask-6)" stroke-width="2" fill-opacity="0.4" fill="#2799F6" fill-rule="nonzero" stroke-dasharray="2" xlink:href="#path-5"></use>
        <use id="矩形-copy-31" stroke="#2799F6" mask="url(#mask-8)" stroke-width="2" fill-opacity="0.4" fill="#2799F6" fill-rule="nonzero" stroke-dasharray="2" xlink:href="#path-7"></use>
        <use id="矩形-copy-24" stroke="#4C63C3" mask="url(#mask-10)" stroke-width="2" fill-opacity="0.4" fill="#4C63C3" fill-rule="nonzero" stroke-dasharray="2" xlink:href="#path-9"></use>
        <use id="矩形-copy-25" stroke="#4C63C3" mask="url(#mask-12)" stroke-width="2" fill-opacity="0.4" fill="#4C63C3" fill-rule="nonzero" stroke-dasharray="2" xlink:href="#path-11"></use>
        <use id="矩形-copy-26" stroke="#4C63C3" mask="url(#mask-14)" stroke-width="2" fill-opacity="0.4" fill="#4C63C3" fill-rule="nonzero" stroke-dasharray="2" xlink:href="#path-13"></use>
        <use id="矩形-copy-27" stroke="#2799F6" mask="url(#mask-16)" stroke-width="2" fill-opacity="0.4" fill="#2799F6" fill-rule="nonzero" stroke-dasharray="2" xlink:href="#path-15"></use>
        <g id="分组-10" transform="translate(372.000000, 80.000000)">
            <path d="M168.333333,2.84217094e-13 L336.666146,72.368254 L336.666146,182.031746 C336.721097,207.005291 332.42644,231.794709 323.976617,255.291005 C315.714897,278.372487 303.875,300.008466 288.888083,319.398942 C273.856783,339.134392 255.729187,356.302646 235.211208,370.228571 C214.874991,383.987302 192.218138,393.932275 168.333333,399.583069 C168.333333,399.583069 168.333333,266.388713 168.333333,2.84217094e-13 Z" id="路径" fill="#2799F6"></path>
            <path d="M0,2.84217094e-13 L168.332813,72.368254 L168.332813,182.031746 C168.387764,207.005291 164.093107,231.794709 155.643284,255.291005 C147.381564,278.372487 135.541667,300.008466 120.55475,319.398942 C105.52345,339.134392 87.3958533,356.302646 66.8778745,370.228571 C46.5416577,383.987302 23.8848042,393.932275 0,399.583069 C0,399.583069 0,266.388713 0,2.84217094e-13 Z" id="路径-copy" fill="#4C63C3" transform="translate(84.166667, 199.791534) scale(-1, 1) translate(-84.166667, -199.791534) "></path>
            <g id="分组-2" transform="translate(10.833333, 12.500000)" stroke="#FFFFFF" stroke-width="4">
                <path d="M156.936517,0 L314.70478,67.9160289 L314.70478,170.832826 C314.756282,194.269953 310.731157,217.534282 302.811645,239.585044 C295.068429,261.246511 283.971603,281.551405 269.925264,299.748945 C255.837326,318.270234 238.847416,334.382266 219.617143,347.451444 C200.557225,360.363712 179.322313,369.696853 156.936517,375" id="合并形状"></path>
                <path d="M0.295947716,0 L158.064211,67.9160289 L158.064211,170.832826 C158.115713,194.269953 154.090588,217.534282 146.171075,239.585044 C138.42786,261.246511 127.331034,281.551405 113.284694,299.748945 C99.1967566,318.270234 82.2068464,334.382266 62.9765737,347.451444 C43.9166558,360.363712 22.6817441,369.696853 0.295947716,375" id="合并形状" transform="translate(79.180323, 187.500000) scale(-1, 1) translate(-79.180323, -187.500000) "></path>
            </g>
        </g>
        <g id="分组" transform="translate(445.000000, 352.000000)">
            <mask id="mask-18" fill="white">
                <use xlink:href="#path-17"></use>
            </mask>
            <g id="Clip-2"></g>
            <path d="M4.0002,27.9999 C4.0002,24.6869 4.6712,21.5289 5.8862,18.6579 C6.0382,18.2999 6.1982,17.9449 6.3662,17.5959 C10.2422,9.5509 18.4732,3.9999 28.0002,3.9999 C41.2542,3.9999 52.0002,14.7449 52.0002,27.9999 C52.0002,41.2549 41.2542,51.9999 28.0002,51.9999 C14.7452,51.9999 4.0002,41.2549 4.0002,27.9999 Z M53.0002,27.9999 C53.0002,14.2149 41.7852,2.9999 28.0002,2.9999 L28.0002,-0.0001 C12.5612,-0.0001 0.0002,12.5609 0.0002,27.9999 L3.0002,27.9999 C3.0002,41.7849 14.2152,52.9999 28.0002,52.9999 L28.0002,55.9999 C43.4392,55.9999 56.0002,43.4389 56.0002,27.9999 L53.0002,27.9999 Z" id="Fill-1" fill="#FFFFFF" mask="url(#mask-18)"></path>
        </g>
        <g id="分组" transform="translate(580.000000, 352.000000)">
            <mask id="mask-20" fill="white">
                <use xlink:href="#path-19"></use>
            </mask>
            <g id="Clip-2"></g>
            <path d="M4.0002,27.9999 C4.0002,24.6869 4.6712,21.5289 5.8862,18.6579 C6.0382,18.2999 6.1982,17.9449 6.3662,17.5959 C10.2422,9.5509 18.4732,3.9999 28.0002,3.9999 C41.2542,3.9999 52.0002,14.7449 52.0002,27.9999 C52.0002,41.2549 41.2542,51.9999 28.0002,51.9999 C14.7452,51.9999 4.0002,41.2549 4.0002,27.9999 Z M53.0002,27.9999 C53.0002,14.2149 41.7852,2.9999 28.0002,2.9999 L28.0002,-0.0001 C12.5612,-0.0001 0.0002,12.5609 0.0002,27.9999 L3.0002,27.9999 C3.0002,41.7849 14.2152,52.9999 28.0002,52.9999 L28.0002,55.9999 C43.4392,55.9999 56.0002,43.4389 56.0002,27.9999 L53.0002,27.9999 Z" id="Fill-1" fill="#FFFFFF" mask="url(#mask-20)"></path>
        </g>
        <g id="分组-copy-10" transform="translate(415.000000, 294.000000)">
            <mask id="mask-22" fill="white">
                <use xlink:href="#path-21"></use>
            </mask>
            <g id="Clip-2"></g>
            <path d="M3.42874286,23.9999143 C3.42874286,21.1602 4.00388571,18.4533429 5.04531429,15.9924857 C5.1756,15.6856286 5.31274286,15.3813429 5.45674286,15.0822 C8.77902857,8.18648571 15.8341714,3.42848571 24.0001714,3.42848571 C35.3607429,3.42848571 44.5716,12.6384857 44.5716,23.9999143 C44.5716,35.3613429 35.3607429,44.5713429 24.0001714,44.5713429 C12.6387429,44.5713429 3.42874286,35.3613429 3.42874286,23.9999143 Z M45.4287429,23.9999143 C45.4287429,12.1842 35.8158857,2.57134286 24.0001714,2.57134286 L24.0001714,-8.57142857e-05 C10.7667429,-8.57142857e-05 0.000171428571,10.7664857 0.000171428571,23.9999143 L2.5716,23.9999143 C2.5716,35.8156286 12.1844571,45.4284857 24.0001714,45.4284857 L24.0001714,47.9999143 C37.2336,47.9999143 48.0001714,37.2333429 48.0001714,23.9999143 L45.4287429,23.9999143 Z" id="Fill-1" fill="#FFFFFF" mask="url(#mask-22)"></path>
        </g>
        <g id="分组-copy-16" transform="translate(618.000000, 294.000000)">
            <mask id="mask-24" fill="white">
                <use xlink:href="#path-23"></use>
            </mask>
            <g id="Clip-2"></g>
            <path d="M3.42874286,23.9999143 C3.42874286,21.1602 4.00388571,18.4533429 5.04531429,15.9924857 C5.1756,15.6856286 5.31274286,15.3813429 5.45674286,15.0822 C8.77902857,8.18648571 15.8341714,3.42848571 24.0001714,3.42848571 C35.3607429,3.42848571 44.5716,12.6384857 44.5716,23.9999143 C44.5716,35.3613429 35.3607429,44.5713429 24.0001714,44.5713429 C12.6387429,44.5713429 3.42874286,35.3613429 3.42874286,23.9999143 Z M45.4287429,23.9999143 C45.4287429,12.1842 35.8158857,2.57134286 24.0001714,2.57134286 L24.0001714,-8.57142857e-05 C10.7667429,-8.57142857e-05 0.000171428571,10.7664857 0.000171428571,23.9999143 L2.5716,23.9999143 C2.5716,35.8156286 12.1844571,45.4284857 24.0001714,45.4284857 L24.0001714,47.9999143 C37.2336,47.9999143 48.0001714,37.2333429 48.0001714,23.9999143 L45.4287429,23.9999143 Z" id="Fill-1" fill="#FFFFFF" mask="url(#mask-24)"></path>
        </g>
        <g id="分组-copy-11" transform="translate(445.000000, 236.000000)">
            <mask id="mask-26" fill="white">
                <use xlink:href="#path-25"></use>
            </mask>
            <g id="Clip-2"></g>
            <path d="M3.42874286,23.9999143 C3.42874286,21.1602 4.00388571,18.4533429 5.04531429,15.9924857 C5.1756,15.6856286 5.31274286,15.3813429 5.45674286,15.0822 C8.77902857,8.18648571 15.8341714,3.42848571 24.0001714,3.42848571 C35.3607429,3.42848571 44.5716,12.6384857 44.5716,23.9999143 C44.5716,35.3613429 35.3607429,44.5713429 24.0001714,44.5713429 C12.6387429,44.5713429 3.42874286,35.3613429 3.42874286,23.9999143 Z M45.4287429,23.9999143 C45.4287429,12.1842 35.8158857,2.57134286 24.0001714,2.57134286 L24.0001714,-8.57142857e-05 C10.7667429,-8.57142857e-05 0.000171428571,10.7664857 0.000171428571,23.9999143 L2.5716,23.9999143 C2.5716,35.8156286 12.1844571,45.4284857 24.0001714,45.4284857 L24.0001714,47.9999143 C37.2336,47.9999143 48.0001714,37.2333429 48.0001714,23.9999143 L45.4287429,23.9999143 Z" id="Fill-1" fill="#FFFFFF" mask="url(#mask-26)"></path>
        </g>
        <g id="分组-copy-17" transform="translate(588.000000, 236.000000)">
            <mask id="mask-28" fill="white">
                <use xlink:href="#path-27"></use>
            </mask>
            <g id="Clip-2"></g>
            <path d="M3.42874286,23.9999143 C3.42874286,21.1602 4.00388571,18.4533429 5.04531429,15.9924857 C5.1756,15.6856286 5.31274286,15.3813429 5.45674286,15.0822 C8.77902857,8.18648571 15.8341714,3.42848571 24.0001714,3.42848571 C35.3607429,3.42848571 44.5716,12.6384857 44.5716,23.9999143 C44.5716,35.3613429 35.3607429,44.5713429 24.0001714,44.5713429 C12.6387429,44.5713429 3.42874286,35.3613429 3.42874286,23.9999143 Z M45.4287429,23.9999143 C45.4287429,12.1842 35.8158857,2.57134286 24.0001714,2.57134286 L24.0001714,-8.57142857e-05 C10.7667429,-8.57142857e-05 0.000171428571,10.7664857 0.000171428571,23.9999143 L2.5716,23.9999143 C2.5716,35.8156286 12.1844571,45.4284857 24.0001714,45.4284857 L24.0001714,47.9999143 C37.2336,47.9999143 48.0001714,37.2333429 48.0001714,23.9999143 L45.4287429,23.9999143 Z" id="Fill-1" fill="#FFFFFF" mask="url(#mask-28)"></path>
        </g>
        <g id="分组-copy-12" transform="translate(415.000000, 178.000000)">
            <mask id="mask-30" fill="white">
                <use xlink:href="#path-29"></use>
            </mask>
            <g id="Clip-2"></g>
            <path d="M3.42874286,23.9999143 C3.42874286,21.1602 4.00388571,18.4533429 5.04531429,15.9924857 C5.1756,15.6856286 5.31274286,15.3813429 5.45674286,15.0822 C8.77902857,8.18648571 15.8341714,3.42848571 24.0001714,3.42848571 C35.3607429,3.42848571 44.5716,12.6384857 44.5716,23.9999143 C44.5716,35.3613429 35.3607429,44.5713429 24.0001714,44.5713429 C12.6387429,44.5713429 3.42874286,35.3613429 3.42874286,23.9999143 Z M45.4287429,23.9999143 C45.4287429,12.1842 35.8158857,2.57134286 24.0001714,2.57134286 L24.0001714,-8.57142857e-05 C10.7667429,-8.57142857e-05 0.000171428571,10.7664857 0.000171428571,23.9999143 L2.5716,23.9999143 C2.5716,35.8156286 12.1844571,45.4284857 24.0001714,45.4284857 L24.0001714,47.9999143 C37.2336,47.9999143 48.0001714,37.2333429 48.0001714,23.9999143 L45.4287429,23.9999143 Z" id="Fill-1" fill="#FFFFFF" mask="url(#mask-30)"></path>
        </g>
        <g id="分组-copy-18" transform="translate(618.000000, 178.000000)">
            <mask id="mask-32" fill="white">
                <use xlink:href="#path-31"></use>
            </mask>
            <g id="Clip-2"></g>
            <path d="M3.42874286,23.9999143 C3.42874286,21.1602 4.00388571,18.4533429 5.04531429,15.9924857 C5.1756,15.6856286 5.31274286,15.3813429 5.45674286,15.0822 C8.77902857,8.18648571 15.8341714,3.42848571 24.0001714,3.42848571 C35.3607429,3.42848571 44.5716,12.6384857 44.5716,23.9999143 C44.5716,35.3613429 35.3607429,44.5713429 24.0001714,44.5713429 C12.6387429,44.5713429 3.42874286,35.3613429 3.42874286,23.9999143 Z M45.4287429,23.9999143 C45.4287429,12.1842 35.8158857,2.57134286 24.0001714,2.57134286 L24.0001714,-8.57142857e-05 C10.7667429,-8.57142857e-05 0.000171428571,10.7664857 0.000171428571,23.9999143 L2.5716,23.9999143 C2.5716,35.8156286 12.1844571,45.4284857 24.0001714,45.4284857 L24.0001714,47.9999143 C37.2336,47.9999143 48.0001714,37.2333429 48.0001714,23.9999143 L45.4287429,23.9999143 Z" id="Fill-1" fill="#FFFFFF" mask="url(#mask-32)"></path>
        </g>
        <g id="分组-copy-13" transform="translate(480.000000, 120.000000)">
            <mask id="mask-34" fill="white">
                <use xlink:href="#path-33"></use>
            </mask>
            <g id="Clip-2"></g>
            <path d="M3.42874286,23.9999143 C3.42874286,21.1602 4.00388571,18.4533429 5.04531429,15.9924857 C5.1756,15.6856286 5.31274286,15.3813429 5.45674286,15.0822 C8.77902857,8.18648571 15.8341714,3.42848571 24.0001714,3.42848571 C35.3607429,3.42848571 44.5716,12.6384857 44.5716,23.9999143 C44.5716,35.3613429 35.3607429,44.5713429 24.0001714,44.5713429 C12.6387429,44.5713429 3.42874286,35.3613429 3.42874286,23.9999143 Z M45.4287429,23.9999143 C45.4287429,12.1842 35.8158857,2.57134286 24.0001714,2.57134286 L24.0001714,-8.57142857e-05 C10.7667429,-8.57142857e-05 0.000171428571,10.7664857 0.000171428571,23.9999143 L2.5716,23.9999143 C2.5716,35.8156286 12.1844571,45.4284857 24.0001714,45.4284857 L24.0001714,47.9999143 C37.2336,47.9999143 48.0001714,37.2333429 48.0001714,23.9999143 L45.4287429,23.9999143 Z" id="Fill-1" fill="#FFFFFF" mask="url(#mask-34)"></path>
        </g>
        <g id="分组-copy-14" transform="translate(553.000000, 120.000000)">
            <mask id="mask-36" fill="white">
                <use xlink:href="#path-35"></use>
            </mask>
            <g id="Clip-2"></g>
            <path d="M3.42874286,23.9999143 C3.42874286,21.1602 4.00388571,18.4533429 5.04531429,15.9924857 C5.1756,15.6856286 5.31274286,15.3813429 5.45674286,15.0822 C8.77902857,8.18648571 15.8341714,3.42848571 24.0001714,3.42848571 C35.3607429,3.42848571 44.5716,12.6384857 44.5716,23.9999143 C44.5716,35.3613429 35.3607429,44.5713429 24.0001714,44.5713429 C12.6387429,44.5713429 3.42874286,35.3613429 3.42874286,23.9999143 Z M45.4287429,23.9999143 C45.4287429,12.1842 35.8158857,2.57134286 24.0001714,2.57134286 L24.0001714,-8.57142857e-05 C10.7667429,-8.57142857e-05 0.000171428571,10.7664857 0.000171428571,23.9999143 L2.5716,23.9999143 C2.5716,35.8156286 12.1844571,45.4284857 24.0001714,45.4284857 L24.0001714,47.9999143 C37.2336,47.9999143 48.0001714,37.2333429 48.0001714,23.9999143 L45.4287429,23.9999143 Z" id="Fill-1" fill="#FFFFFF" mask="url(#mask-36)"></path>
        </g>
        <path d="M577.268271,134.536591 L568.790228,136.4206 L568.528876,140.340877 C568.138498,146.196545 571.744605,151.557339 577.268271,153.425761 C582.791938,151.557339 586.398045,146.196545 586.007667,140.340877 L585.746315,136.4206 L577.268271,134.536591 Z" id="合并形状" stroke="#FFFFFF" stroke-width="3" fill-rule="nonzero"></path>
        <g id="分组-3" transform="translate(504.000000, 144.000000) rotate(-45.000000) translate(-504.000000, -144.000000) translate(494.000000, 131.000000)" fill-rule="nonzero" stroke="#FFFFFF" stroke-width="3">
            <circle id="椭圆形" cx="10" cy="10" r="10"></circle>
            <path d="M10.5,20 L10.5,26" id="路径-57"></path>
        </g>
        <g id="分组-4" transform="translate(428.000000, 191.000000)" fill-rule="nonzero">
            <polyline id="矩形" stroke="#FFFFFF" stroke-width="3" points="22 22 0 22 0 0"></polyline>
            <polygon id="矩形" fill="#FFFFFF" points="18.8421053 3.15789474 12 3.15789474 12 0 22 0 22 10 18.8421053 10"></polygon>
            <path d="M5,17 L20.3557419,1.64425806" id="路径-58" stroke="#FFFFFF" stroke-width="3"></path>
        </g>
        <text id="应-用-安-全-产-品-链" font-family="PingFangSC-Semibold, PingFang SC" font-size="16" font-weight="500" fill="#FFFFFF">
            <tspan x="512" y="217">应</tspan>
            <tspan x="512" y="239">用</tspan>
            <tspan x="512" y="261">安</tspan>
            <tspan x="512" y="283">全</tspan>
            <tspan x="512" y="305">产</tspan>
            <tspan x="512" y="327">品</tspan>
            <tspan x="512" y="349">链</tspan>
        </text>
        <text id="抗-产-品-链" font-family="PingFangSC-Semibold, PingFang SC" font-size="16" font-weight="500" fill="#FFFFFF">
            <tspan x="552" y="217">抗</tspan>
            <tspan x="560" y="239"></tspan>
            <tspan x="560" y="261"></tspan>
            <tspan x="560" y="283"></tspan>
            <tspan x="552" y="305">产</tspan>
            <tspan x="552" y="327">品</tspan>
            <tspan x="552" y="349">链</tspan>
        </text>
        <text id="D-D-o-S" font-family="PingFangSC-Semibold, PingFang SC" font-size="16" font-weight="500" line-spacing="15" fill="#FFFFFF">
            <tspan x="554" y="241">D</tspan>
            <tspan x="554" y="256">D</tspan>
            <tspan x="554.96" y="271">o</tspan>
            <tspan x="554.552" y="286">S</tspan>
        </text>
        <path d="M601,370 L601,367 L615,367 L615,370 L619,370 L619,373 L597,373 L597,370 L601,370 Z M597,375 L619,375 L617,393 L599,393 L597,375 Z M601,378 L602.272727,390 L613.727273,390 L615,378 L601,378 Z M605,378 L611,378 L610.454545,390 L605.545455,390 L605,378 Z" id="合并形状" fill="#FFFFFF" fill-rule="nonzero"></path>
        <g id="分组-9" transform="translate(628.000000, 304.000000)" fill-rule="nonzero" stroke="#FFFFFF" stroke-width="3">
            <polygon id="多边形-copy-8" points="14 0 26.1243557 7 26.1243557 21 14 28 1.87564435 21 1.87564435 7"></polygon>
            <circle id="椭圆形" cx="14" cy="14" r="4"></circle>
        </g>
        <g id="分组-7" transform="translate(626.000000, 186.000000)" fill-rule="nonzero" stroke="#FFFFFF" stroke-width="3">
            <circle id="椭圆形" cx="16" cy="16" r="12"></circle>
            <circle id="椭圆形" cx="16" cy="16" r="4"></circle>
            <path d="M25,16.5 L32,16.5" id="路径-59"></path>
            <path d="M0,16.5 L7,16.5" id="路径-59-copy"></path>
            <path d="M13,3.5 L20,3.5" id="路径-59" transform="translate(16.500000, 3.500000) rotate(-90.000000) translate(-16.500000, -3.500000) "></path>
            <path d="M13,28.5 L20,28.5" id="路径-59-copy" transform="translate(16.500000, 28.500000) rotate(-90.000000) translate(-16.500000, -28.500000) "></path>
        </g>
        <g id="分组-6" transform="translate(427.000000, 307.000000)" fill="#FFFFFF" fill-rule="nonzero">
            <rect id="矩形" x="0" y="0" width="24" height="3"></rect>
            <rect id="矩形-copy-14" x="0" y="20" width="24" height="3"></rect>
            <rect id="矩形-copy-15" x="0" y="15" width="6" height="3"></rect>
            <rect id="矩形-copy-17" x="18" y="5" width="6" height="3"></rect>
            <rect id="矩形-copy-18" x="8" y="15" width="16" height="3"></rect>
            <rect id="矩形-copy-19" x="0" y="5" width="16" height="3"></rect>
            <rect id="矩形-copy-16" x="0" y="10" width="24" height="3"></rect>
        </g>
        <g id="分组-5" transform="translate(456.000000, 247.000000)" fill="#FFFFFF" fill-rule="nonzero">
            <polygon id="矩形" points="3.15789474 3.15789474 3.15789474 10 0 10 0 0 10 0 10 3.15789474"></polygon>
            <polygon id="矩形-copy-11" transform="translate(5.000000, 21.000000) scale(1, -1) translate(-5.000000, -21.000000) " points="3.15789474 19.1578947 3.15789474 26 0 26 0 16 10 16 10 19.1578947"></polygon>
            <polygon id="矩形-copy" transform="translate(21.000000, 5.000000) scale(-1, 1) translate(-21.000000, -5.000000) " points="19.1578947 3.15789474 19.1578947 10 16 10 16 0 26 0 26 3.15789474"></polygon>
            <polygon id="矩形-copy-12" transform="translate(21.000000, 21.000000) scale(-1, -1) translate(-21.000000, -21.000000) " points="19.1578947 19.1578947 19.1578947 26 16 26 16 16 26 16 26 19.1578947"></polygon>
            <rect id="矩形" x="0" y="11.5" width="26" height="3"></rect>
        </g>
        <g id="分组-8" transform="translate(597.000000, 245.000000)" fill="#FFFFFF" fill-rule="nonzero">
            <path d="M0.636805524,17 L3.67330056,17 C4.61988792,22.397893 9.33089474,26.5 15,26.5 C20.6691053,26.5 25.3801121,22.397893 26.3266994,17 L29.3631945,17 C28.3889467,24.0616848 22.3295666,29.5 15,29.5 C7.67043337,29.5 1.61105332,24.0616848 0.636805524,17 Z M0.533943316,14 C1.04764122,6.45833826 7.32799838,0.5 15,0.5 C22.6720016,0.5 28.9523588,6.45833826 29.4660567,14 L26.4571244,14 C25.9503712,8.11696874 21.014361,3.5 15,3.5 C8.98563896,3.5 4.04962876,8.11696874 3.54287561,14 L0.533943316,14 Z" id="合并形状"></path>
            <path d="M6.73662976,17 L9.87494031,17 C10.6750094,19.0486784 12.6680176,20.5 15,20.5 C17.3319824,20.5 19.3249906,19.0486784 20.1250597,17 L23.2633702,17 C22.3639661,20.7293652 19.0055413,23.5 15,23.5 C10.9944587,23.5 7.63603391,20.7293652 6.73662976,17 Z M6.55820314,14 C7.05313106,9.77682987 10.6438932,6.5 15,6.5 C19.3561068,6.5 22.9468689,9.77682987 23.4417969,14 L20.4093119,14 C19.9390556,11.439882 17.6960696,9.5 15,9.5 C12.3039304,9.5 10.0609444,11.439882 9.59068811,14 L6.55820314,14 Z" id="合并形状"></path>
        </g>
        <use id="矩形-copy-10" stroke="#4C63C3" mask="url(#mask-38)" stroke-width="2" fill-opacity="0.4" fill="#4C63C3" fill-rule="nonzero" stroke-dasharray="2" xlink:href="#path-37"></use>
        <use id="矩形-copy-23" stroke="#4C63C3" mask="url(#mask-40)" stroke-width="2" fill-opacity="0.4" fill="#4C63C3" fill-rule="nonzero" stroke-dasharray="2" xlink:href="#path-39"></use>
        <text id="DNS解析" font-family="PingFangSC-Regular, PingFang SC" font-size="14" font-weight="normal" fill="#001B47">
            <tspan x="122.101" y="149">DNS解析</tspan>
        </text>
        <text id="扫描观测（Scan+）" font-family="PingFangSC-Regular, PingFang SC" font-size="14" font-weight="normal" fill="#001B47">
            <tspan x="88" y="265">扫描观测（Scan+）</tspan>
        </text>
        <text id="性能优化（Reliability）" font-family="PingFangSC-Regular, PingFang SC" font-size="14" font-weight="normal" fill="#001B47">
            <tspan x="77" y="207">性能优化（Reliability）</tspan>
        </text>
        <g id="分组-copy" transform="translate(294.000000, 197.000000)" fill-rule="nonzero">
            <circle id="椭圆形" stroke="#2799F6" fill="#FFFFFF" cx="5.5" cy="5.5" r="5.5"></circle>
            <circle id="椭圆形" fill="#2799F6" cx="5.5" cy="5.5" r="2.5"></circle>
        </g>
        <g id="分组-copy-3" transform="translate(294.000000, 255.000000)" fill-rule="nonzero">
            <circle id="椭圆形" stroke="#2799F6" fill="#FFFFFF" cx="5.5" cy="5.5" r="5.5"></circle>
            <circle id="椭圆形" fill="#2799F6" cx="5.5" cy="5.5" r="2.5"></circle>
        </g>
        <g id="分组-copy-4" transform="translate(294.000000, 313.000000)" fill-rule="nonzero">
            <circle id="椭圆形" stroke="#2799F6" fill="#FFFFFF" cx="5.5" cy="5.5" r="5.5"></circle>
            <circle id="椭圆形" fill="#2799F6" cx="5.5" cy="5.5" r="2.5"></circle>
        </g>
        <g id="分组-copy-15" transform="translate(294.000000, 376.000000)" fill-rule="nonzero">
            <circle id="椭圆形" stroke="#2799F6" fill="#FFFFFF" cx="5.5" cy="5.5" r="5.5"></circle>
            <circle id="椭圆形" fill="#2799F6" cx="5.5" cy="5.5" r="2.5"></circle>
        </g>
        <g id="分组-copy-2" transform="translate(294.000000, 138.500000)" fill-rule="nonzero">
            <circle id="椭圆形" stroke="#2799F6" fill="#FFFFFF" cx="5.5" cy="5.5" r="5.5"></circle>
            <circle id="椭圆形" fill="#2799F6" cx="5.5" cy="5.5" r="2.5"></circle>
        </g>
        <text id="Web应用防火墙（AppWall）" font-family="PingFangSC-Regular, PingFang SC" font-size="14" font-weight="normal" fill="#001B47">
            <tspan x="60" y="323">Web应用防火墙（AppWall）</tspan>
        </text>
        <text id="WAF-SDK（Client-&amp;-Mob" font-family="PingFangSC-Regular, PingFang SC" font-size="14" font-weight="normal" fill="#001B47">
            <tspan x="54" y="385">WAF SDK（Client &amp; Mobile）</tspan>
        </text>
        <text id="高防IP（AntiDDoS-IP）" font-family="PingFangSC-Regular, PingFang SC" font-size="14" font-weight="normal" fill="#001B47">
            <tspan x="856.164" y="265">高防IP（AntiDDoS IP）</tspan>
        </text>
        <text id="攻击监测（DDoS-Monitoring" font-family="PingFangSC-Regular, PingFang SC" font-size="14" font-weight="normal" fill="#001B47">
            <tspan x="832.294" y="207">攻击监测（DDoS Monitoring）</tspan>
        </text>
        <text id="清洗系统（AntiDDoS-System" font-family="PingFangSC-Regular, PingFang SC" font-size="14" font-weight="normal" fill="#001B47">
            <tspan x="794.354" y="385">清洗系统（AntiDDoS System&amp;Hardware）</tspan>
        </text>
        <path id="路径-61" d="M316.408753,261 L322.745131,264.564212 L322.254869,265.435788 L314.254869,260.935788 L313.480136,260.5 L314.254869,260.064212 L322.254869,255.564212 L322.745131,256.435788 L316.408753,260 L317,260 L317,261 L316.408753,261 Z M434.480136,260.5 L427.254869,256.435788 L427.745131,255.564212 L435.745131,260.064212 L436.519864,260.5 L435.745131,260.935788 L427.745131,265.435788 L427.254869,264.564212 L434.480136,260.5 Z M319,261 L319,260 L321,260 L321,261 L319,261 Z M323,261 L323,260 L325,260 L325,261 L323,261 Z M327,261 L327,260 L329,260 L329,261 L327,261 Z M331,261 L331,260 L333,260 L333,261 L331,261 Z M335,261 L335,260 L337,260 L337,261 L335,261 Z M339,261 L339,260 L341,260 L341,261 L339,261 Z M343,261 L343,260 L345,260 L345,261 L343,261 Z M347,261 L347,260 L349,260 L349,261 L347,261 Z M351,261 L351,260 L353,260 L353,261 L351,261 Z M355,261 L355,260 L357,260 L357,261 L355,261 Z M359,261 L359,260 L361,260 L361,261 L359,261 Z M363,261 L363,260 L365,260 L365,261 L363,261 Z M367,261 L367,260 L369,260 L369,261 L367,261 Z M371,261 L371,260 L373,260 L373,261 L371,261 Z M375,261 L375,260 L377,260 L377,261 L375,261 Z M379,261 L379,260 L381,260 L381,261 L379,261 Z M383,261 L383,260 L385,260 L385,261 L383,261 Z M387,261 L387,260 L389,260 L389,261 L387,261 Z M391,261 L391,260 L393,260 L393,261 L391,261 Z M395,261 L395,260 L397,260 L397,261 L395,261 Z M399,261 L399,260 L401,260 L401,261 L399,261 Z M403,261 L403,260 L405,260 L405,261 L403,261 Z M407,261 L407,260 L409,260 L409,261 L407,261 Z M411,261 L411,260 L413,260 L413,261 L411,261 Z M415,261 L415,260 L417,260 L417,261 L415,261 Z M419,261 L419,260 L421,260 L421,261 L419,261 Z M423,261 L423,260 L425,260 L425,261 L423,261 Z M427,261 L427,260 L427.5,260 L429,260 L429,261 L427.5,261 L427,261 Z M431,261 L431,260 L433,260 L433,261 L431,261 Z" fill="#2799F6" fill-rule="nonzero"></path>
        <path id="路径-61-copy" d="M316.408753,319 L322.745131,322.564212 L322.254869,323.435788 L314.254869,318.935788 L313.480136,318.5 L314.254869,318.064212 L322.254869,313.564212 L322.745131,314.435788 L316.408753,318 L317,318 L317,319 L316.408753,319 Z M403.591247,318 L397.254869,314.435788 L397.745131,313.564212 L405.745131,318.064212 L406.519864,318.5 L405.745131,318.935788 L397.745131,323.435788 L397.254869,322.564212 L403.591247,319 L403,319 L403,318 L403.591247,318 Z M319,319 L319,318 L321,318 L321,319 L319,319 Z M323,319 L323,318 L325,318 L325,319 L323,319 Z M327,319 L327,318 L329,318 L329,319 L327,319 Z M331,319 L331,318 L333,318 L333,319 L331,319 Z M335,319 L335,318 L337,318 L337,319 L335,319 Z M339,319 L339,318 L341,318 L341,319 L339,319 Z M343,319 L343,318 L345,318 L345,319 L343,319 Z M347,319 L347,318 L349,318 L349,319 L347,319 Z M351,319 L351,318 L353,318 L353,319 L351,319 Z M355,319 L355,318 L357,318 L357,319 L355,319 Z M359,319 L359,318 L361,318 L361,319 L359,319 Z M363,319 L363,318 L365,318 L365,319 L363,319 Z M367,319 L367,318 L369,318 L369,319 L367,319 Z M371,319 L371,318 L373,318 L373,319 L371,319 Z M375,319 L375,318 L377,318 L377,319 L375,319 Z M379,319 L379,318 L381,318 L381,319 L379,319 Z M383,319 L383,318 L385,318 L385,319 L383,319 Z M387,319 L387,318 L389,318 L389,319 L387,319 Z M391,319 L391,318 L393,318 L393,319 L391,319 Z M395,319 L395,318 L397,318 L397,319 L395,319 Z M399,319 L399,318 L401,318 L401,319 L399,319 Z" fill="#2799F6" fill-rule="nonzero"></path>
        <path id="路径-61-copy-5" d="M316.408753,203 L322.745131,206.564212 L322.254869,207.435788 L314.254869,202.935788 L313.480136,202.5 L314.254869,202.064212 L322.254869,197.564212 L322.745131,198.435788 L316.408753,202 L317,202 L317,203 L316.408753,203 Z M403.591247,202 L397.254869,198.435788 L397.745131,197.564212 L405.745131,202.064212 L406.519864,202.5 L405.745131,202.935788 L397.745131,207.435788 L397.254869,206.564212 L403.591247,203 L403,203 L403,202 L403.591247,202 Z M319,203 L319,202 L321,202 L321,203 L319,203 Z M323,203 L323,202 L325,202 L325,203 L323,203 Z M327,203 L327,202 L329,202 L329,203 L327,203 Z M331,203 L331,202 L333,202 L333,203 L331,203 Z M335,203 L335,202 L337,202 L337,203 L335,203 Z M339,203 L339,202 L341,202 L341,203 L339,203 Z M343,203 L343,202 L345,202 L345,203 L343,203 Z M347,203 L347,202 L349,202 L349,203 L347,203 Z M351,203 L351,202 L353,202 L353,203 L351,203 Z M355,203 L355,202 L357,202 L357,203 L355,203 Z M359,203 L359,202 L361,202 L361,203 L359,203 Z M363,203 L363,202 L365,202 L365,203 L363,203 Z M367,203 L367,202 L369,202 L369,203 L367,203 Z M371,203 L371,202 L373,202 L373,203 L371,203 Z M375,203 L375,202 L377,202 L377,203 L375,203 Z M379,203 L379,202 L381,202 L381,203 L379,203 Z M383,203 L383,202 L385,202 L385,203 L383,203 Z M387,203 L387,202 L389,202 L389,203 L387,203 Z M391,203 L391,202 L393,202 L393,203 L391,203 Z M395,203 L395,202 L397,202 L397,203 L395,203 Z M399,203 L399,202 L401,202 L401,203 L399,203 Z" fill="#2799F6" fill-rule="nonzero"></path>
        <path id="路径-61-copy-4" d="M316.408753,382 L322.745131,385.564212 L322.254869,386.435788 L314.254869,381.935788 L313.480136,381.5 L314.254869,381.064212 L322.254869,376.564212 L322.745131,377.435788 L316.408753,381 L317,381 L317,382 L316.408753,382 Z M434.480136,381.5 L427.254869,377.435788 L427.745131,376.564212 L435.745131,381.064212 L436.519864,381.5 L435.745131,381.935788 L427.745131,386.435788 L427.254869,385.564212 L434.480136,381.5 Z M319,382 L319,381 L321,381 L321,382 L319,382 Z M323,382 L323,381 L325,381 L325,382 L323,382 Z M327,382 L327,381 L329,381 L329,382 L327,382 Z M331,382 L331,381 L333,381 L333,382 L331,382 Z M335,382 L335,381 L337,381 L337,382 L335,382 Z M339,382 L339,381 L341,381 L341,382 L339,382 Z M343,382 L343,381 L345,381 L345,382 L343,382 Z M347,382 L347,381 L349,381 L349,382 L347,382 Z M351,382 L351,381 L353,381 L353,382 L351,382 Z M355,382 L355,381 L357,381 L357,382 L355,382 Z M359,382 L359,381 L361,381 L361,382 L359,382 Z M363,382 L363,381 L365,381 L365,382 L363,382 Z M367,382 L367,381 L369,381 L369,382 L367,382 Z M371,382 L371,381 L373,381 L373,382 L371,382 Z M375,382 L375,381 L377,381 L377,382 L375,382 Z M379,382 L379,381 L381,381 L381,382 L379,382 Z M383,382 L383,381 L385,381 L385,382 L383,382 Z M387,382 L387,381 L389,381 L389,382 L387,382 Z M391,382 L391,381 L393,381 L393,382 L391,382 Z M395,382 L395,381 L397,381 L397,382 L395,382 Z M399,382 L399,381 L401,381 L401,382 L399,382 Z M403,382 L403,381 L405,381 L405,382 L403,382 Z M407,382 L407,381 L409,381 L409,382 L407,382 Z M411,382 L411,381 L413,381 L413,382 L411,382 Z M415,382 L415,381 L417,381 L417,382 L415,382 Z M419,382 L419,381 L421,381 L421,382 L419,382 Z M423,382 L423,381 L425,381 L425,382 L423,382 Z M427,382 L427,381 L427.5,381 L429,381 L429,382 L427.5,382 L427,382 Z M431,382 L431,381 L433,381 L433,382 L431,382 Z" fill="#2799F6" fill-rule="nonzero"></path>
        <path id="路径-61-copy-6" d="M316.408753,144.5 L322.745131,148.064212 L322.254869,148.935788 L314.254869,144.435788 L313.480136,144 L314.254869,143.564212 L322.254869,139.064212 L322.745131,139.935788 L316.408753,143.5 L317,143.5 L317,144.5 L316.408753,144.5 Z M469,143.729924 L469,144.270076 L469.480136,144 L469,143.729924 Z M468.591247,143.5 L462.254869,139.935788 L462.745131,139.064212 L470.745131,143.564212 L471.519864,144 L470.745131,144.435788 L462.745131,148.935788 L462.254869,148.064212 L468.591247,144.5 L467,144.5 L467,143.5 L468.591247,143.5 Z M319,144.5 L319,143.5 L321,143.5 L321,144.5 L319,144.5 Z M323,144.5 L323,143.5 L325,143.5 L325,144.5 L323,144.5 Z M327,144.5 L327,143.5 L329,143.5 L329,144.5 L327,144.5 Z M331,144.5 L331,143.5 L333,143.5 L333,144.5 L331,144.5 Z M335,144.5 L335,143.5 L337,143.5 L337,144.5 L335,144.5 Z M339,144.5 L339,143.5 L341,143.5 L341,144.5 L339,144.5 Z M343,144.5 L343,143.5 L345,143.5 L345,144.5 L343,144.5 Z M347,144.5 L347,143.5 L349,143.5 L349,144.5 L347,144.5 Z M351,144.5 L351,143.5 L353,143.5 L353,144.5 L351,144.5 Z M355,144.5 L355,143.5 L357,143.5 L357,144.5 L355,144.5 Z M359,144.5 L359,143.5 L361,143.5 L361,144.5 L359,144.5 Z M363,144.5 L363,143.5 L365,143.5 L365,144.5 L363,144.5 Z M367,144.5 L367,143.5 L369,143.5 L369,144.5 L367,144.5 Z M371,144.5 L371,143.5 L373,143.5 L373,144.5 L371,144.5 Z M375,144.5 L375,143.5 L377,143.5 L377,144.5 L375,144.5 Z M379,144.5 L379,143.5 L381,143.5 L381,144.5 L379,144.5 Z M383,144.5 L383,143.5 L385,143.5 L385,144.5 L383,144.5 Z M387,144.5 L387,143.5 L389,143.5 L389,144.5 L387,144.5 Z M391,144.5 L391,143.5 L393,143.5 L393,144.5 L391,144.5 Z M395,144.5 L395,143.5 L397,143.5 L397,144.5 L395,144.5 Z M399,144.5 L399,143.5 L401,143.5 L401,144.5 L399,144.5 Z M403,144.5 L403,143.5 L405,143.5 L405,144.5 L403,144.5 Z M407,144.5 L407,143.5 L409,143.5 L409,144.5 L407,144.5 Z M411,144.5 L411,143.5 L413,143.5 L413,144.5 L411,144.5 Z M415,144.5 L415,143.5 L417,143.5 L417,144.5 L415,144.5 Z M419,144.5 L419,143.5 L421,143.5 L421,144.5 L419,144.5 Z M423,144.5 L423,143.5 L425,143.5 L425,144.5 L423,144.5 Z M427,144.5 L427,143.5 L429,143.5 L429,144.5 L427,144.5 Z M431,144.5 L431,143.5 L433,143.5 L433,144.5 L431,144.5 Z M435,144.5 L435,143.5 L437,143.5 L437,144.5 L435,144.5 Z M439,144.5 L439,143.5 L441,143.5 L441,144.5 L439,144.5 Z M443,144.5 L443,143.5 L445,143.5 L445,144.5 L443,144.5 Z M447,144.5 L447,143.5 L449,143.5 L449,144.5 L447,144.5 Z M451,144.5 L451,143.5 L453,143.5 L453,144.5 L451,144.5 Z M455,144.5 L455,143.5 L457,143.5 L457,144.5 L455,144.5 Z M459,144.5 L459,143.5 L461,143.5 L461,144.5 L459,144.5 Z M463,144.5 L463,143.5 L465,143.5 L465,144.5 L463,144.5 Z" fill="#2799F6" fill-rule="nonzero"></path>
        <text id="AntiDDoS-SDK（Client" font-family="PingFangSC-Regular, PingFang SC" font-size="14" font-weight="normal" fill="#001B47">
            <tspan x="818.014" y="323">AntiDDoS SDK（Client &amp; Mobile）</tspan>
        </text>
        <g id="分组-copy-5" transform="translate(775.000000, 139.000000)" fill-rule="nonzero">
            <circle id="椭圆形" stroke="#4C63C3" fill="#FFFFFF" cx="5.5" cy="5.5" r="5.5"></circle>
            <circle id="椭圆形" fill="#4C63C3" cx="5.5" cy="5.5" r="2.5"></circle>
        </g>
        <g id="分组-copy-6" transform="translate(775.000000, 197.000000)" fill-rule="nonzero">
            <circle id="椭圆形" stroke="#4C63C3" fill="#FFFFFF" cx="5.5" cy="5.5" r="5.5"></circle>
            <circle id="椭圆形" fill="#4C63C3" cx="5.5" cy="5.5" r="2.5"></circle>
        </g>
        <g id="分组-copy-7" transform="translate(775.000000, 255.000000)" fill-rule="nonzero">
            <circle id="椭圆形" stroke="#4C63C3" fill="#FFFFFF" cx="5.5" cy="5.5" r="5.5"></circle>
            <circle id="椭圆形" fill="#4C63C3" cx="5.5" cy="5.5" r="2.5"></circle>
        </g>
        <g id="分组-copy-8" transform="translate(775.000000, 313.000000)" fill-rule="nonzero">
            <circle id="椭圆形" stroke="#4C63C3" fill="#FFFFFF" cx="5.5" cy="5.5" r="5.5"></circle>
            <circle id="椭圆形" fill="#4C63C3" cx="5.5" cy="5.5" r="2.5"></circle>
        </g>
        <g id="分组-copy-9" transform="translate(775.000000, 375.000000)" fill-rule="nonzero">
            <circle id="椭圆形" stroke="#4C63C3" fill="#FFFFFF" cx="5.5" cy="5.5" r="5.5"></circle>
            <circle id="椭圆形" fill="#4C63C3" cx="5.5" cy="5.5" r="2.5"></circle>
        </g>
        <text id="高防DNS（AntiDDoS-DNS）" font-family="PingFangSC-Regular, PingFang SC" font-size="14" font-weight="normal" fill="#001B47">
            <tspan x="840.172" y="149">高防DNS（AntiDDoS DNS）</tspan>
        </text>
        <path id="路径-69-copy-2" d="M612.408753,145 L618.745131,148.564212 L618.254869,149.435788 L610.254869,144.935788 L609.480136,144.5 L610.254869,144.064212 L618.254869,139.564212 L618.745131,140.435788 L612.408753,144 L613,144 L613,145 L612.408753,145 Z M763.591247,144 L757.254869,140.435788 L757.745131,139.564212 L765.745131,144.064212 L766.519864,144.5 L765.745131,144.935788 L757.745131,149.435788 L757.254869,148.564212 L763.591247,145 L763,145 L763,144 L763.591247,144 Z M615,145 L615,144 L617,144 L617,145 L615,145 Z M619,145 L619,144 L621,144 L621,145 L619,145 Z M623,145 L623,144 L625,144 L625,145 L623,145 Z M627,145 L627,144 L629,144 L629,145 L627,145 Z M631,145 L631,144 L633,144 L633,145 L631,145 Z M635,145 L635,144 L637,144 L637,145 L635,145 Z M639,145 L639,144 L641,144 L641,145 L639,145 Z M643,145 L643,144 L645,144 L645,145 L643,145 Z M647,145 L647,144 L649,144 L649,145 L647,145 Z M651,145 L651,144 L653,144 L653,145 L651,145 Z M655,145 L655,144 L657,144 L657,145 L655,145 Z M659,145 L659,144 L661,144 L661,145 L659,145 Z M663,145 L663,144 L665,144 L665,145 L663,145 Z M667,145 L667,144 L669,144 L669,145 L667,145 Z M671,145 L671,144 L673,144 L673,145 L671,145 Z M675,145 L675,144 L677,144 L677,145 L675,145 Z M679,145 L679,144 L681,144 L681,145 L679,145 Z M683,145 L683,144 L685,144 L685,145 L683,145 Z M687,145 L687,144 L689,144 L689,145 L687,145 Z M691,145 L691,144 L693,144 L693,145 L691,145 Z M695,145 L695,144 L697,144 L697,145 L695,145 Z M699,145 L699,144 L701,144 L701,145 L699,145 Z M703,145 L703,144 L705,144 L705,145 L703,145 Z M707,145 L707,144 L709,144 L709,145 L707,145 Z M711,145 L711,144 L713,144 L713,145 L711,145 Z M715,145 L715,144 L717,144 L717,145 L715,145 Z M719,145 L719,144 L721,144 L721,145 L719,145 Z M723,145 L723,144 L725,144 L725,145 L723,145 Z M727,145 L727,144 L729,144 L729,145 L727,145 Z M731,145 L731,144 L733,144 L733,145 L731,145 Z M735,145 L735,144 L737,144 L737,145 L735,145 Z M739,145 L739,144 L741,144 L741,145 L739,145 Z M743,145 L743,144 L745,144 L745,145 L743,145 Z M747,145 L747,144 L749,144 L749,145 L747,145 Z M751,145 L751,144 L753,144 L753,145 L751,145 Z M755,145 L755,144 L757,144 L757,145 L755,145 Z M759,145 L759,144 L761,144 L761,145 L759,145 Z" fill="#4C63C3" fill-rule="nonzero"></path>
        <path id="路径-69-copy-3" d="M677.408753,203 L683.745131,206.564212 L683.254869,207.435788 L675.254869,202.935788 L674.480136,202.5 L675.254869,202.064212 L683.254869,197.564212 L683.745131,198.435788 L677.408753,202 L678,202 L678,203 L677.408753,203 Z M764,202.229924 L757.254869,198.435788 L757.745131,197.564212 L765.745131,202.064212 L766.519864,202.5 L765.745131,202.935788 L757.745131,207.435788 L757.254869,206.564212 L764,202.770076 L764,202.229924 Z M680,203 L680,202 L682,202 L682,203 L680,203 Z M684,203 L684,202 L686,202 L686,203 L684,203 Z M688,203 L688,202 L690,202 L690,203 L688,203 Z M692,203 L692,202 L694,202 L694,203 L692,203 Z M696,203 L696,202 L698,202 L698,203 L696,203 Z M700,203 L700,202 L702,202 L702,203 L700,203 Z M704,203 L704,202 L706,202 L706,203 L704,203 Z M708,203 L708,202 L710,202 L710,203 L708,203 Z M712,203 L712,202 L714,202 L714,203 L712,203 Z M716,203 L716,202 L718,202 L718,203 L716,203 Z M720,203 L720,202 L722,202 L722,203 L720,203 Z M724,203 L724,202 L726,202 L726,203 L724,203 Z M728,203 L728,202 L730,202 L730,203 L728,203 Z M732,203 L732,202 L734,202 L734,203 L732,203 Z M736,203 L736,202 L738,202 L738,203 L736,203 Z M740,203 L740,202 L742,202 L742,203 L740,203 Z M744,203 L744,202 L746,202 L746,203 L744,203 Z M748,203 L748,202 L750,202 L750,203 L748,203 Z M752,203 L752,202 L754,202 L754,203 L752,203 Z M756,203 L756,202 L757.5,202 L758,202 L758,203 L757.5,203 L756,203 Z M760,203 L760,202 L762,202 L762,203 L760,203 Z" fill="#4C63C3" fill-rule="nonzero"></path>
        <path id="路径-69-copy-4" d="M677.408753,319 L683.745131,322.564212 L683.254869,323.435788 L675.254869,318.935788 L674.480136,318.5 L675.254869,318.064212 L683.254869,313.564212 L683.745131,314.435788 L677.408753,318 L678,318 L678,319 L677.408753,319 Z M764,318.229924 L757.254869,314.435788 L757.745131,313.564212 L765.745131,318.064212 L766.519864,318.5 L765.745131,318.935788 L757.745131,323.435788 L757.254869,322.564212 L764,318.770076 L764,318.229924 Z M680,319 L680,318 L682,318 L682,319 L680,319 Z M684,319 L684,318 L686,318 L686,319 L684,319 Z M688,319 L688,318 L690,318 L690,319 L688,319 Z M692,319 L692,318 L694,318 L694,319 L692,319 Z M696,319 L696,318 L698,318 L698,319 L696,319 Z M700,319 L700,318 L702,318 L702,319 L700,319 Z M704,319 L704,318 L706,318 L706,319 L704,319 Z M708,319 L708,318 L710,318 L710,319 L708,319 Z M712,319 L712,318 L714,318 L714,319 L712,319 Z M716,319 L716,318 L718,318 L718,319 L716,319 Z M720,319 L720,318 L722,318 L722,319 L720,319 Z M724,319 L724,318 L726,318 L726,319 L724,319 Z M728,319 L728,318 L730,318 L730,319 L728,319 Z M732,319 L732,318 L734,318 L734,319 L732,319 Z M736,319 L736,318 L738,318 L738,319 L736,319 Z M740,319 L740,318 L742,318 L742,319 L740,319 Z M744,319 L744,318 L746,318 L746,319 L744,319 Z M748,319 L748,318 L750,318 L750,319 L748,319 Z M752,319 L752,318 L754,318 L754,319 L752,319 Z M756,319 L756,318 L757.5,318 L758,318 L758,319 L757.5,319 L756,319 Z M760,319 L760,318 L762,318 L762,319 L760,319 Z" fill="#4C63C3" fill-rule="nonzero"></path>
        <path id="路径-69-copy-6" d="M647.408753,381 L653.745131,384.564212 L653.254869,385.435788 L645.254869,380.935788 L644.480136,380.5 L645.254869,380.064212 L653.254869,375.564212 L653.745131,376.435788 L647.408753,380 L648,380 L648,381 L647.408753,381 Z M764,380.229924 L764,380.770076 L764.480136,380.5 L764,380.229924 Z M763.591247,380 L757.254869,376.435788 L757.745131,375.564212 L765.745131,380.064212 L766.519864,380.5 L765.745131,380.935788 L757.745131,385.435788 L757.254869,384.564212 L763.591247,381 L762,381 L762,380 L763.591247,380 Z M650,381 L650,380 L652,380 L652,381 L650,381 Z M654,381 L654,380 L656,380 L656,381 L654,381 Z M658,381 L658,380 L660,380 L660,381 L658,381 Z M662,381 L662,380 L664,380 L664,381 L662,381 Z M666,381 L666,380 L668,380 L668,381 L666,381 Z M670,381 L670,380 L672,380 L672,381 L670,381 Z M674,381 L674,380 L676,380 L676,381 L674,381 Z M678,381 L678,380 L680,380 L680,381 L678,381 Z M682,381 L682,380 L684,380 L684,381 L682,381 Z M686,381 L686,380 L688,380 L688,381 L686,381 Z M690,381 L690,380 L692,380 L692,381 L690,381 Z M694,381 L694,380 L696,380 L696,381 L694,381 Z M698,381 L698,380 L700,380 L700,381 L698,381 Z M702,381 L702,380 L704,380 L704,381 L702,381 Z M706,381 L706,380 L708,380 L708,381 L706,381 Z M710,381 L710,380 L712,380 L712,381 L710,381 Z M714,381 L714,380 L716,380 L716,381 L714,381 Z M718,381 L718,380 L720,380 L720,381 L718,381 Z M722,381 L722,380 L724,380 L724,381 L722,381 Z M726,381 L726,380 L728,380 L728,381 L726,381 Z M730,381 L730,380 L732,380 L732,381 L730,381 Z M734,381 L734,380 L736,380 L736,381 L734,381 Z M738,381 L738,380 L740,380 L740,381 L738,381 Z M742,381 L742,380 L744,380 L744,381 L742,381 Z M746,381 L746,380 L748,380 L748,381 L746,381 Z M750,381 L750,380 L752,380 L752,381 L750,381 Z M754,381 L754,380 L756,380 L756,381 L754,381 Z M758,381 L758,380 L760,380 L760,381 L758,381 Z" fill="#4C63C3" fill-rule="nonzero"></path>
        <path id="路径-69-copy-5" d="M647.408753,261 L653.745131,264.564212 L653.254869,265.435788 L645.254869,260.935788 L644.480136,260.5 L645.254869,260.064212 L653.254869,255.564212 L653.745131,256.435788 L647.408753,260 L648,260 L648,261 L647.408753,261 Z M764,260.229924 L764,260.770076 L764.480136,260.5 L764,260.229924 Z M763.591247,260 L757.254869,256.435788 L757.745131,255.564212 L765.745131,260.064212 L766.519864,260.5 L765.745131,260.935788 L757.745131,265.435788 L757.254869,264.564212 L763.591247,261 L762,261 L762,260 L763.591247,260 Z M650,261 L650,260 L652,260 L652,261 L650,261 Z M654,261 L654,260 L656,260 L656,261 L654,261 Z M658,261 L658,260 L660,260 L660,261 L658,261 Z M662,261 L662,260 L664,260 L664,261 L662,261 Z M666,261 L666,260 L668,260 L668,261 L666,261 Z M670,261 L670,260 L672,260 L672,261 L670,261 Z M674,261 L674,260 L676,260 L676,261 L674,261 Z M678,261 L678,260 L680,260 L680,261 L678,261 Z M682,261 L682,260 L684,260 L684,261 L682,261 Z M686,261 L686,260 L688,260 L688,261 L686,261 Z M690,261 L690,260 L692,260 L692,261 L690,261 Z M694,261 L694,260 L696,260 L696,261 L694,261 Z M698,261 L698,260 L700,260 L700,261 L698,261 Z M702,261 L702,260 L704,260 L704,261 L702,261 Z M706,261 L706,260 L708,260 L708,261 L706,261 Z M710,261 L710,260 L712,260 L712,261 L710,261 Z M714,261 L714,260 L716,260 L716,261 L714,261 Z M718,261 L718,260 L720,260 L720,261 L718,261 Z M722,261 L722,260 L724,260 L724,261 L722,261 Z M726,261 L726,260 L728,260 L728,261 L726,261 Z M730,261 L730,260 L732,260 L732,261 L730,261 Z M734,261 L734,260 L736,260 L736,261 L734,261 Z M738,261 L738,260 L740,260 L740,261 L738,261 Z M742,261 L742,260 L744,260 L744,261 L742,261 Z M746,261 L746,260 L748,260 L748,261 L746,261 Z M750,261 L750,260 L752,260 L752,261 L750,261 Z M754,261 L754,260 L756,260 L756,261 L754,261 Z M758,261 L758,260 L760,260 L760,261 L758,261 Z" fill="#4C63C3" fill-rule="nonzero"></path>
        <text id="应用安全产品链-提供融合性能优化、WAF" font-family="PingFangSC-Semibold, PingFang SC" font-size="18" font-weight="500" fill="#4C63C3">
            <tspan x="0" y="19">应用安全产品链</tspan>
            <tspan x="0" y="48">提供融合性能优化、WAF、DDoS保护的一站式服务</tspan>
        </text>
        <text id="抗DDoS产品链-适用于持续性、大规模的" font-family="PingFangSC-Semibold, PingFang SC" font-size="18" font-weight="500" fill="#2799F6">
            <tspan x="959.562" y="19">抗DDoS产品链</tspan>
            <tspan x="565.146" y="48">适用于持续性、大规模的DDoS治理，需要专享IP链路的高级服务</tspan>
        </text>
        <path d="M461,370 L485,370 L485,373 L461,373 L461,370 Z M462,371 L462,372 L463,372 L463,371 L462,371 Z M464,371 L464,372 L465,372 L465,371 L464,371 Z M466,371 L466,372 L467,372 L467,371 L466,371 Z" id="合并形状" fill="#FFFFFF" fill-rule="nonzero"></path>
        <rect id="矩形-copy-2" fill="#FFFFFF" fill-rule="nonzero" x="461" y="375" width="24" height="16"></rect>
        <g id="分组" transform="translate(469.000000, 378.000000)">
            <mask id="mask-42" fill="white">
                <use xlink:href="#path-41"></use>
            </mask>
            <g id="Clip-2"></g>
            <path d="M2.44182222,9.96527778 C1.7821,8.57638889 2.12932222,7.77777778 2.65015556,7.04861111 C3.20571111,6.21527778 3.3446,5.41666667 3.3446,5.41666667 C3.3446,5.41666667 3.79598889,5.97222222 3.62237778,6.875 C4.38626667,6.00694444 4.52515556,4.61805556 4.42098889,4.09722222 C6.1571,5.3125 6.92098889,7.98611111 5.91404444,9.93055556 C11.2612667,6.875 7.23348889,2.32638889 6.53904444,1.84027778 C6.7821,2.36111111 6.81682222,3.22916667 6.33071111,3.64583333 C5.5321,0.590277778 3.55293333,0 3.55293333,0 C3.79598889,1.5625 2.7196,3.26388889 1.67793333,4.54861111 C1.64321111,3.92361111 1.60848889,3.50694444 1.26126667,2.88194444 C1.19182222,4.02777778 0.323766667,4.93055556 0.0807111111,6.07638889 C-0.231788889,7.63888889 0.323766667,8.75 2.44182222,9.96527778" id="Fill-1" fill="#4C63C3" mask="url(#mask-42)"></path>
        </g>
    </g>
</svg>